%TF.GenerationSoftware,KiCad,Pcbnew,6.0.7-f9a2dced07~116~ubuntu22.04.1*%
%TF.CreationDate,2022-09-05T17:56:58+01:00*%
%TF.ProjectId,keyboard,6b657962-6f61-4726-942e-6b696361645f,rev?*%
%TF.SameCoordinates,Original*%
%TF.FileFunction,Drillmap*%
%TF.FilePolarity,Positive*%
%FSLAX45Y45*%
G04 Gerber Fmt 4.5, Leading zero omitted, Abs format (unit mm)*
G04 Created by KiCad (PCBNEW 6.0.7-f9a2dced07~116~ubuntu22.04.1) date 2022-09-05 17:56:58*
%MOMM*%
%LPD*%
G01*
G04 APERTURE LIST*
%ADD10C,0.100000*%
%ADD11C,0.200000*%
%ADD12C,0.040000*%
%ADD13C,0.060000*%
%ADD14C,0.065000*%
%ADD15C,0.104000*%
%ADD16C,0.147000*%
G04 APERTURE END LIST*
D10*
X47228125Y-24447500D02*
G75*
G03*
X47625000Y-24050625I-5J396880D01*
G01*
X3651250Y-24050625D02*
G75*
G03*
X4048125Y-24447500I396875J0D01*
G01*
X47624995Y-11906250D02*
G75*
G03*
X47228125Y-11509375I-396875J0D01*
G01*
X47228125Y-11509375D02*
X4048125Y-11509375D01*
X47625000Y-24050625D02*
X47625000Y-11906250D01*
X4048125Y-24447500D02*
X47228125Y-24447500D01*
X4048125Y-11509375D02*
G75*
G03*
X3651250Y-11906250I0J-396875D01*
G01*
X3651250Y-11906250D02*
X3651250Y-24050625D01*
D11*
D12*
X4425000Y-14258875D02*
X4465000Y-14298875D01*
X4465000Y-14258875D02*
X4425000Y-14298875D01*
X4425000Y-14512875D02*
X4465000Y-14552875D01*
X4465000Y-14512875D02*
X4425000Y-14552875D01*
X4425000Y-14766875D02*
X4465000Y-14806875D01*
X4465000Y-14766875D02*
X4425000Y-14806875D01*
X4425000Y-15020875D02*
X4465000Y-15060875D01*
X4465000Y-15020875D02*
X4425000Y-15060875D01*
X4425000Y-15528875D02*
X4465000Y-15568875D01*
X4465000Y-15528875D02*
X4425000Y-15568875D01*
X4425000Y-15782875D02*
X4465000Y-15822875D01*
X4465000Y-15782875D02*
X4425000Y-15822875D01*
X4425000Y-16036875D02*
X4465000Y-16076875D01*
X4465000Y-16036875D02*
X4425000Y-16076875D01*
X4425000Y-16290875D02*
X4465000Y-16330875D01*
X4465000Y-16290875D02*
X4425000Y-16330875D01*
X4425000Y-16798875D02*
X4465000Y-16838875D01*
X4465000Y-16798875D02*
X4425000Y-16838875D01*
X4425000Y-17052875D02*
X4465000Y-17092875D01*
X4465000Y-17052875D02*
X4425000Y-17092875D01*
X4583750Y-14664375D02*
X4623750Y-14704375D01*
X4623750Y-14664375D02*
X4583750Y-14704375D01*
X4583750Y-15220000D02*
X4623750Y-15260000D01*
X4623750Y-15220000D02*
X4583750Y-15260000D01*
X4583750Y-15934375D02*
X4623750Y-15974375D01*
X4623750Y-15934375D02*
X4583750Y-15974375D01*
X4583750Y-16172500D02*
X4623750Y-16212500D01*
X4623750Y-16172500D02*
X4583750Y-16212500D01*
X4583750Y-16410625D02*
X4623750Y-16450625D01*
X4623750Y-16410625D02*
X4583750Y-16450625D01*
X4583750Y-17045625D02*
X4623750Y-17085625D01*
X4623750Y-17045625D02*
X4583750Y-17085625D01*
X4663125Y-13235625D02*
X4703125Y-13275625D01*
X4703125Y-13235625D02*
X4663125Y-13275625D01*
X4742500Y-13394375D02*
X4782500Y-13434375D01*
X4782500Y-13394375D02*
X4742500Y-13434375D01*
X4821875Y-14346875D02*
X4861875Y-14386875D01*
X4861875Y-14346875D02*
X4821875Y-14386875D01*
X4821875Y-16648750D02*
X4861875Y-16688750D01*
X4861875Y-16648750D02*
X4821875Y-16688750D01*
X4821875Y-17363125D02*
X4861875Y-17403125D01*
X4861875Y-17363125D02*
X4821875Y-17403125D01*
X4894375Y-12495000D02*
X4934375Y-12535000D01*
X4934375Y-12495000D02*
X4894375Y-12535000D01*
X4901250Y-16569375D02*
X4941250Y-16609375D01*
X4941250Y-16569375D02*
X4901250Y-16609375D01*
X4901250Y-17283750D02*
X4941250Y-17323750D01*
X4941250Y-17283750D02*
X4901250Y-17323750D01*
X4908824Y-14419325D02*
X4948824Y-14459325D01*
X4948824Y-14419325D02*
X4908824Y-14459325D01*
X4980625Y-12600625D02*
X5020625Y-12640625D01*
X5020625Y-12600625D02*
X4980625Y-12640625D01*
X4980625Y-12680000D02*
X5020625Y-12720000D01*
X5020625Y-12680000D02*
X4980625Y-12720000D01*
X4980625Y-12759375D02*
X5020625Y-12799375D01*
X5020625Y-12759375D02*
X4980625Y-12799375D01*
X4980625Y-12838750D02*
X5020625Y-12878750D01*
X5020625Y-12838750D02*
X4980625Y-12878750D01*
X4980625Y-12918125D02*
X5020625Y-12958125D01*
X5020625Y-12918125D02*
X4980625Y-12958125D01*
X4980625Y-12997500D02*
X5020625Y-13037500D01*
X5020625Y-12997500D02*
X4980625Y-13037500D01*
X4980625Y-13076875D02*
X5020625Y-13116875D01*
X5020625Y-13076875D02*
X4980625Y-13116875D01*
X4980625Y-13156250D02*
X5020625Y-13196250D01*
X5020625Y-13156250D02*
X4980625Y-13196250D01*
X4980625Y-13235625D02*
X5020625Y-13275625D01*
X5020625Y-13235625D02*
X4980625Y-13275625D01*
X5004425Y-13791250D02*
X5044425Y-13831250D01*
X5044425Y-13791250D02*
X5004425Y-13831250D01*
X5060000Y-18633125D02*
X5100000Y-18673125D01*
X5100000Y-18633125D02*
X5060000Y-18673125D01*
X5139375Y-14108750D02*
X5179375Y-14148750D01*
X5179375Y-14108750D02*
X5139375Y-14148750D01*
X5153835Y-13632500D02*
X5193835Y-13672500D01*
X5193835Y-13632500D02*
X5153835Y-13672500D01*
X5218750Y-18633125D02*
X5258750Y-18673125D01*
X5258750Y-18633125D02*
X5218750Y-18673125D01*
X5298125Y-11886250D02*
X5338125Y-11926250D01*
X5338125Y-11886250D02*
X5298125Y-11926250D01*
X5298125Y-12600625D02*
X5338125Y-12640625D01*
X5338125Y-12600625D02*
X5298125Y-12640625D01*
X5298125Y-12680000D02*
X5338125Y-12720000D01*
X5338125Y-12680000D02*
X5298125Y-12720000D01*
X5298125Y-12759375D02*
X5338125Y-12799375D01*
X5338125Y-12759375D02*
X5298125Y-12799375D01*
X5298125Y-12838750D02*
X5338125Y-12878750D01*
X5338125Y-12838750D02*
X5298125Y-12878750D01*
X5298125Y-12918125D02*
X5338125Y-12958125D01*
X5338125Y-12918125D02*
X5298125Y-12958125D01*
X5298125Y-12997500D02*
X5338125Y-13037500D01*
X5338125Y-12997500D02*
X5298125Y-13037500D01*
X5298125Y-13076875D02*
X5338125Y-13116875D01*
X5338125Y-13076875D02*
X5298125Y-13116875D01*
X5298125Y-13156250D02*
X5338125Y-13196250D01*
X5338125Y-13156250D02*
X5298125Y-13196250D01*
X5298125Y-13235625D02*
X5338125Y-13275625D01*
X5338125Y-13235625D02*
X5298125Y-13275625D01*
X5298125Y-15934375D02*
X5338125Y-15974375D01*
X5338125Y-15934375D02*
X5298125Y-15974375D01*
X5298125Y-17521875D02*
X5338125Y-17561875D01*
X5338125Y-17521875D02*
X5298125Y-17561875D01*
X5304000Y-15656000D02*
X5344000Y-15696000D01*
X5344000Y-15656000D02*
X5304000Y-15696000D01*
X5384375Y-12495000D02*
X5424375Y-12535000D01*
X5424375Y-12495000D02*
X5384375Y-12535000D01*
X6091875Y-13156250D02*
X6131875Y-13196250D01*
X6131875Y-13156250D02*
X6091875Y-13196250D01*
X6250625Y-18633125D02*
X6290625Y-18673125D01*
X6290625Y-18633125D02*
X6250625Y-18673125D01*
X6409375Y-15020875D02*
X6449375Y-15060875D01*
X6449375Y-15020875D02*
X6409375Y-15060875D01*
X6488750Y-16966250D02*
X6528750Y-17006250D01*
X6528750Y-16966250D02*
X6488750Y-17006250D01*
X6488750Y-17521875D02*
X6528750Y-17561875D01*
X6528750Y-17521875D02*
X6488750Y-17561875D01*
X6488750Y-17998125D02*
X6528750Y-18038125D01*
X6528750Y-17998125D02*
X6488750Y-18038125D01*
X6488750Y-20855625D02*
X6528750Y-20895625D01*
X6528750Y-20855625D02*
X6488750Y-20895625D01*
X6568125Y-20617500D02*
X6608125Y-20657500D01*
X6608125Y-20617500D02*
X6568125Y-20657500D01*
X6661300Y-20955203D02*
X6701300Y-20995203D01*
X6701300Y-20955203D02*
X6661300Y-20995203D01*
X6733750Y-20855625D02*
X6773750Y-20895625D01*
X6773750Y-20855625D02*
X6733750Y-20895625D01*
X6806250Y-15061250D02*
X6846250Y-15101250D01*
X6846250Y-15061250D02*
X6806250Y-15101250D01*
X6806250Y-17918750D02*
X6846250Y-17958750D01*
X6846250Y-17918750D02*
X6806250Y-17958750D01*
X6806250Y-20538125D02*
X6846250Y-20578125D01*
X6846250Y-20538125D02*
X6806250Y-20578125D01*
X6885625Y-12283125D02*
X6925625Y-12323125D01*
X6925625Y-12283125D02*
X6885625Y-12323125D01*
X6885625Y-20776250D02*
X6925625Y-20816250D01*
X6925625Y-20776250D02*
X6885625Y-20816250D01*
X6965000Y-15775625D02*
X7005000Y-15815625D01*
X7005000Y-15775625D02*
X6965000Y-15815625D01*
X7520625Y-16807500D02*
X7560625Y-16847500D01*
X7560625Y-16807500D02*
X7520625Y-16847500D01*
X7679375Y-12680000D02*
X7719375Y-12720000D01*
X7719375Y-12680000D02*
X7679375Y-12720000D01*
X7758750Y-16331250D02*
X7798750Y-16371250D01*
X7798750Y-16331250D02*
X7758750Y-16371250D01*
X7996875Y-15696250D02*
X8036875Y-15736250D01*
X8036875Y-15696250D02*
X7996875Y-15736250D01*
X8235000Y-17680625D02*
X8275000Y-17720625D01*
X8275000Y-17680625D02*
X8235000Y-17720625D01*
X8473125Y-21173125D02*
X8513125Y-21213125D01*
X8513125Y-21173125D02*
X8473125Y-21213125D01*
X8552500Y-12124375D02*
X8592500Y-12164375D01*
X8592500Y-12124375D02*
X8552500Y-12164375D01*
X8552500Y-13553125D02*
X8592500Y-13593125D01*
X8592500Y-13553125D02*
X8552500Y-13593125D01*
X8790625Y-15299375D02*
X8830625Y-15339375D01*
X8830625Y-15299375D02*
X8790625Y-15339375D01*
X8790625Y-21411250D02*
X8830625Y-21451250D01*
X8830625Y-21411250D02*
X8790625Y-21451250D01*
X8949375Y-17125000D02*
X8989375Y-17165000D01*
X8989375Y-17125000D02*
X8949375Y-17165000D01*
X9187500Y-12203750D02*
X9227500Y-12243750D01*
X9227500Y-12203750D02*
X9187500Y-12243750D01*
X9266875Y-21411250D02*
X9306875Y-21451250D01*
X9306875Y-21411250D02*
X9266875Y-21451250D01*
X9425625Y-16886875D02*
X9465625Y-16926875D01*
X9465625Y-16886875D02*
X9425625Y-16926875D01*
X9584375Y-11965625D02*
X9624375Y-12005625D01*
X9624375Y-11965625D02*
X9584375Y-12005625D01*
X9584375Y-12680000D02*
X9624375Y-12720000D01*
X9624375Y-12680000D02*
X9584375Y-12720000D01*
X10695625Y-17521875D02*
X10735625Y-17561875D01*
X10735625Y-17521875D02*
X10695625Y-17561875D01*
X11092500Y-16251875D02*
X11132500Y-16291875D01*
X11132500Y-16251875D02*
X11092500Y-16291875D01*
X11330625Y-15299375D02*
X11370625Y-15339375D01*
X11370625Y-15299375D02*
X11330625Y-15339375D01*
X11489375Y-20696875D02*
X11529375Y-20736875D01*
X11529375Y-20696875D02*
X11489375Y-20736875D01*
X11489375Y-21252500D02*
X11529375Y-21292500D01*
X11529375Y-21252500D02*
X11489375Y-21292500D01*
X11727500Y-17204375D02*
X11767500Y-17244375D01*
X11767500Y-17204375D02*
X11727500Y-17244375D01*
X12060875Y-14188125D02*
X12100875Y-14228125D01*
X12100875Y-14188125D02*
X12060875Y-14228125D01*
X12283125Y-18077500D02*
X12323125Y-18117500D01*
X12323125Y-18077500D02*
X12283125Y-18117500D01*
X12791125Y-14108750D02*
X12831125Y-14148750D01*
X12831125Y-14108750D02*
X12791125Y-14148750D01*
X13632500Y-17601250D02*
X13672500Y-17641250D01*
X13672500Y-17601250D02*
X13632500Y-17641250D01*
X13632500Y-23078125D02*
X13672500Y-23118125D01*
X13672500Y-23078125D02*
X13632500Y-23118125D01*
X14029375Y-23078125D02*
X14069375Y-23118125D01*
X14069375Y-23078125D02*
X14029375Y-23118125D01*
X14108750Y-22681250D02*
X14148750Y-22721250D01*
X14148750Y-22681250D02*
X14108750Y-22721250D01*
X14188125Y-18156875D02*
X14228125Y-18196875D01*
X14228125Y-18156875D02*
X14188125Y-18196875D01*
X14267500Y-17204375D02*
X14307500Y-17244375D01*
X14307500Y-17204375D02*
X14267500Y-17244375D01*
X14346875Y-13553125D02*
X14386875Y-13593125D01*
X14386875Y-13553125D02*
X14346875Y-13593125D01*
X14505625Y-19347500D02*
X14545625Y-19387500D01*
X14545625Y-19347500D02*
X14505625Y-19387500D01*
X14585000Y-21331875D02*
X14625000Y-21371875D01*
X14625000Y-21331875D02*
X14585000Y-21371875D01*
X14664375Y-14346875D02*
X14704375Y-14386875D01*
X14704375Y-14346875D02*
X14664375Y-14386875D01*
X14902500Y-15696250D02*
X14942500Y-15736250D01*
X14942500Y-15696250D02*
X14902500Y-15736250D01*
X14902500Y-16331250D02*
X14942500Y-16371250D01*
X14942500Y-16331250D02*
X14902500Y-16371250D01*
X14902500Y-17680625D02*
X14942500Y-17720625D01*
X14942500Y-17680625D02*
X14902500Y-17720625D01*
X15061250Y-21252500D02*
X15101250Y-21292500D01*
X15101250Y-21252500D02*
X15061250Y-21292500D01*
X15140625Y-19982500D02*
X15180625Y-20022500D01*
X15180625Y-19982500D02*
X15140625Y-20022500D01*
X15394625Y-21535000D02*
X15434625Y-21575000D01*
X15434625Y-21535000D02*
X15394625Y-21575000D01*
X15616875Y-20061875D02*
X15656875Y-20101875D01*
X15656875Y-20061875D02*
X15616875Y-20101875D01*
X15616875Y-20696875D02*
X15656875Y-20736875D01*
X15656875Y-20696875D02*
X15616875Y-20736875D01*
X15775625Y-21411250D02*
X15815625Y-21451250D01*
X15815625Y-21411250D02*
X15775625Y-21451250D01*
X15870875Y-14029375D02*
X15910875Y-14069375D01*
X15910875Y-14029375D02*
X15870875Y-14069375D01*
X16093125Y-17680625D02*
X16133125Y-17720625D01*
X16133125Y-17680625D02*
X16093125Y-17720625D01*
X16093125Y-20776250D02*
X16133125Y-20816250D01*
X16133125Y-20776250D02*
X16093125Y-20816250D01*
X16093125Y-21887500D02*
X16133125Y-21927500D01*
X16133125Y-21887500D02*
X16093125Y-21927500D01*
X16093125Y-23236875D02*
X16133125Y-23276875D01*
X16133125Y-23236875D02*
X16093125Y-23276875D01*
X16410625Y-23157500D02*
X16450625Y-23197500D01*
X16450625Y-23157500D02*
X16410625Y-23197500D01*
X16569375Y-13553125D02*
X16609375Y-13593125D01*
X16609375Y-13553125D02*
X16569375Y-13593125D01*
X16692000Y-20831000D02*
X16732000Y-20871000D01*
X16732000Y-20831000D02*
X16692000Y-20871000D01*
X16807500Y-18236250D02*
X16847500Y-18276250D01*
X16847500Y-18236250D02*
X16807500Y-18276250D01*
X16966250Y-14346875D02*
X17006250Y-14386875D01*
X17006250Y-14346875D02*
X16966250Y-14386875D01*
X17045625Y-19506250D02*
X17085625Y-19546250D01*
X17085625Y-19506250D02*
X17045625Y-19546250D01*
X17045625Y-20061875D02*
X17085625Y-20101875D01*
X17085625Y-20061875D02*
X17045625Y-20101875D01*
X17363125Y-20998500D02*
X17403125Y-21038500D01*
X17403125Y-20998500D02*
X17363125Y-21038500D01*
X17430918Y-20925055D02*
X17470918Y-20965055D01*
X17470918Y-20925055D02*
X17430918Y-20965055D01*
X17487122Y-20717073D02*
X17527122Y-20757073D01*
X17527122Y-20717073D02*
X17487122Y-20757073D01*
X17601250Y-12124375D02*
X17641250Y-12164375D01*
X17641250Y-12124375D02*
X17601250Y-12164375D01*
X17775875Y-13950000D02*
X17815875Y-13990000D01*
X17815875Y-13950000D02*
X17775875Y-13990000D01*
X17839375Y-17680625D02*
X17879375Y-17720625D01*
X17879375Y-17680625D02*
X17839375Y-17720625D01*
X17839375Y-18236250D02*
X17879375Y-18276250D01*
X17879375Y-18236250D02*
X17839375Y-18276250D01*
X18156875Y-19030000D02*
X18196875Y-19070000D01*
X18196875Y-19030000D02*
X18156875Y-19070000D01*
X18712500Y-14346875D02*
X18752500Y-14386875D01*
X18752500Y-14346875D02*
X18712500Y-14386875D01*
X19268125Y-12600625D02*
X19308125Y-12640625D01*
X19308125Y-12600625D02*
X19268125Y-12640625D01*
X19680875Y-13870625D02*
X19720875Y-13910625D01*
X19720875Y-13870625D02*
X19680875Y-13910625D01*
X20696875Y-14426250D02*
X20736875Y-14466250D01*
X20736875Y-14426250D02*
X20696875Y-14466250D01*
X20935000Y-12600625D02*
X20975000Y-12640625D01*
X20975000Y-12600625D02*
X20935000Y-12640625D01*
X21331875Y-23395625D02*
X21371875Y-23435625D01*
X21371875Y-23395625D02*
X21331875Y-23435625D01*
X21585875Y-13791250D02*
X21625875Y-13831250D01*
X21625875Y-13791250D02*
X21585875Y-13831250D01*
X22681250Y-14426250D02*
X22721250Y-14466250D01*
X22721250Y-14426250D02*
X22681250Y-14466250D01*
X23395625Y-12680000D02*
X23435625Y-12720000D01*
X23435625Y-12680000D02*
X23395625Y-12720000D01*
X23490875Y-13711875D02*
X23530875Y-13751875D01*
X23530875Y-13711875D02*
X23490875Y-13751875D01*
X23713125Y-22831050D02*
X23753125Y-22871050D01*
X23753125Y-22831050D02*
X23713125Y-22871050D01*
X23871875Y-22903500D02*
X23911875Y-22943500D01*
X23911875Y-22903500D02*
X23871875Y-22943500D01*
X24189375Y-22601875D02*
X24229375Y-22641875D01*
X24229375Y-22601875D02*
X24189375Y-22641875D01*
X24586250Y-14426250D02*
X24626250Y-14466250D01*
X24626250Y-14426250D02*
X24586250Y-14466250D01*
X25062500Y-21252500D02*
X25102500Y-21292500D01*
X25102500Y-21252500D02*
X25062500Y-21292500D01*
X25395875Y-13632500D02*
X25435875Y-13672500D01*
X25435875Y-13632500D02*
X25395875Y-13672500D01*
X25538750Y-21887500D02*
X25578750Y-21927500D01*
X25578750Y-21887500D02*
X25538750Y-21927500D01*
X25776875Y-12600625D02*
X25816875Y-12640625D01*
X25816875Y-12600625D02*
X25776875Y-12640625D01*
X26094375Y-14426250D02*
X26134375Y-14466250D01*
X26134375Y-14426250D02*
X26094375Y-14466250D01*
X26173750Y-22601875D02*
X26213750Y-22641875D01*
X26213750Y-22601875D02*
X26173750Y-22641875D01*
X27285000Y-21173125D02*
X27325000Y-21213125D01*
X27325000Y-21173125D02*
X27285000Y-21213125D01*
X28396250Y-14426250D02*
X28436250Y-14466250D01*
X28436250Y-14426250D02*
X28396250Y-14466250D01*
X29586875Y-12600625D02*
X29626875Y-12640625D01*
X29626875Y-12600625D02*
X29586875Y-12640625D01*
X30142500Y-14426250D02*
X30182500Y-14466250D01*
X30182500Y-14426250D02*
X30142500Y-14466250D01*
X31110875Y-14188125D02*
X31150875Y-14228125D01*
X31150875Y-14188125D02*
X31110875Y-14228125D01*
X33015875Y-14108750D02*
X33055875Y-14148750D01*
X33055875Y-14108750D02*
X33015875Y-14148750D01*
X34920875Y-14029375D02*
X34960875Y-14069375D01*
X34960875Y-14029375D02*
X34920875Y-14069375D01*
X36825875Y-13950000D02*
X36865875Y-13990000D01*
X36865875Y-13950000D02*
X36825875Y-13990000D01*
X38000625Y-18236250D02*
X38040625Y-18276250D01*
X38040625Y-18236250D02*
X38000625Y-18276250D01*
X38476875Y-18236250D02*
X38516875Y-18276250D01*
X38516875Y-18236250D02*
X38476875Y-18276250D01*
X39111875Y-18236250D02*
X39151875Y-18276250D01*
X39151875Y-18236250D02*
X39111875Y-18276250D01*
X39826250Y-18236250D02*
X39866250Y-18276250D01*
X39866250Y-18236250D02*
X39826250Y-18276250D01*
X40778750Y-17442500D02*
X40818750Y-17482500D01*
X40818750Y-17442500D02*
X40778750Y-17482500D01*
X41588375Y-13870625D02*
X41628375Y-13910625D01*
X41628375Y-13870625D02*
X41588375Y-13910625D01*
X42366250Y-18236250D02*
X42406250Y-18276250D01*
X42406250Y-18236250D02*
X42366250Y-18276250D01*
X42763125Y-17521875D02*
X42803125Y-17561875D01*
X42803125Y-17521875D02*
X42763125Y-17561875D01*
X43493375Y-13791250D02*
X43533375Y-13831250D01*
X43533375Y-13791250D02*
X43493375Y-13831250D01*
X43795000Y-16807500D02*
X43835000Y-16847500D01*
X43835000Y-16807500D02*
X43795000Y-16847500D01*
X44826875Y-16886875D02*
X44866875Y-16926875D01*
X44866875Y-16886875D02*
X44826875Y-16926875D01*
X44906250Y-18236250D02*
X44946250Y-18276250D01*
X44946250Y-18236250D02*
X44906250Y-18276250D01*
X45398375Y-13235625D02*
X45438375Y-13275625D01*
X45438375Y-13235625D02*
X45398375Y-13275625D01*
X45398375Y-13711875D02*
X45438375Y-13751875D01*
X45438375Y-13711875D02*
X45398375Y-13751875D01*
X45779375Y-16886875D02*
X45819375Y-16926875D01*
X45819375Y-16886875D02*
X45779375Y-16926875D01*
X46255625Y-15934375D02*
X46295625Y-15974375D01*
X46295625Y-15934375D02*
X46255625Y-15974375D01*
X46255625Y-18236250D02*
X46295625Y-18276250D01*
X46295625Y-18236250D02*
X46255625Y-18276250D01*
X46335000Y-16807500D02*
X46375000Y-16847500D01*
X46375000Y-16807500D02*
X46335000Y-16847500D01*
D13*
X4757375Y-11670625D02*
G75*
G03*
X4757375Y-11670625I-30000J0D01*
G01*
D11*
X4757375Y-11700625D02*
X4757375Y-11640625D01*
X4697375Y-11700625D02*
X4697375Y-11640625D01*
X4757375Y-11640625D02*
G75*
G03*
X4697375Y-11640625I-30000J0D01*
G01*
X4697375Y-11700625D02*
G75*
G03*
X4757375Y-11700625I30000J0D01*
G01*
D13*
X4757375Y-12088625D02*
G75*
G03*
X4757375Y-12088625I-30000J0D01*
G01*
D11*
X4757375Y-12143625D02*
X4757375Y-12033625D01*
X4697375Y-12143625D02*
X4697375Y-12033625D01*
X4757375Y-12033625D02*
G75*
G03*
X4697375Y-12033625I-30000J0D01*
G01*
X4697375Y-12143625D02*
G75*
G03*
X4757375Y-12143625I30000J0D01*
G01*
D13*
X5621375Y-11670625D02*
G75*
G03*
X5621375Y-11670625I-30000J0D01*
G01*
D11*
X5621375Y-11700625D02*
X5621375Y-11640625D01*
X5561375Y-11700625D02*
X5561375Y-11640625D01*
X5621375Y-11640625D02*
G75*
G03*
X5561375Y-11640625I-30000J0D01*
G01*
X5561375Y-11700625D02*
G75*
G03*
X5621375Y-11700625I30000J0D01*
G01*
D13*
X5621375Y-12088625D02*
G75*
G03*
X5621375Y-12088625I-30000J0D01*
G01*
D11*
X5621375Y-12143625D02*
X5621375Y-12033625D01*
X5561375Y-12143625D02*
X5561375Y-12033625D01*
X5621375Y-12033625D02*
G75*
G03*
X5561375Y-12033625I-30000J0D01*
G01*
X5561375Y-12143625D02*
G75*
G03*
X5621375Y-12143625I30000J0D01*
G01*
D14*
X5032375Y-18938125D02*
X5032375Y-19003125D01*
X4999875Y-18970625D02*
X5064875Y-18970625D01*
X5159375Y-18938125D02*
X5159375Y-19003125D01*
X5126875Y-18970625D02*
X5191875Y-18970625D01*
X5286375Y-18938125D02*
X5286375Y-19003125D01*
X5253875Y-18970625D02*
X5318875Y-18970625D01*
D10*
X7484731Y-12035356D02*
X7484731Y-11964644D01*
X7414019Y-11964644D01*
X7414019Y-12035356D01*
X7484731Y-12035356D01*
X7484731Y-13485356D02*
X7484731Y-13414644D01*
X7414019Y-13414644D01*
X7414019Y-13485356D01*
X7484731Y-13485356D01*
X7734731Y-13485356D02*
X7734731Y-13414644D01*
X7664019Y-13414644D01*
X7664019Y-13485356D01*
X7734731Y-13485356D01*
X7984731Y-12035356D02*
X7984731Y-11964644D01*
X7914019Y-11964644D01*
X7914019Y-12035356D01*
X7984731Y-12035356D01*
X7984731Y-13485356D02*
X7984731Y-13414644D01*
X7914019Y-13414644D01*
X7914019Y-13485356D01*
X7984731Y-13485356D01*
X9389731Y-12035356D02*
X9389731Y-11964644D01*
X9319019Y-11964644D01*
X9319019Y-12035356D01*
X9389731Y-12035356D01*
X9389731Y-13485356D02*
X9389731Y-13414644D01*
X9319019Y-13414644D01*
X9319019Y-13485356D01*
X9389731Y-13485356D01*
X9639731Y-13485356D02*
X9639731Y-13414644D01*
X9569019Y-13414644D01*
X9569019Y-13485356D01*
X9639731Y-13485356D01*
X9889731Y-12035356D02*
X9889731Y-11964644D01*
X9819019Y-11964644D01*
X9819019Y-12035356D01*
X9889731Y-12035356D01*
X9889731Y-13485356D02*
X9889731Y-13414644D01*
X9819019Y-13414644D01*
X9819019Y-13485356D01*
X9889731Y-13485356D01*
D15*
X7572375Y-16117500D02*
X7624375Y-16065500D01*
X7572375Y-16013500D01*
X7520375Y-16065500D01*
X7572375Y-16117500D01*
X7572375Y-18022500D02*
X7624375Y-17970500D01*
X7572375Y-17918500D01*
X7520375Y-17970500D01*
X7572375Y-18022500D01*
X7572375Y-19927500D02*
X7624375Y-19875500D01*
X7572375Y-19823500D01*
X7520375Y-19875500D01*
X7572375Y-19927500D01*
X7572375Y-21832500D02*
X7624375Y-21780500D01*
X7572375Y-21728500D01*
X7520375Y-21780500D01*
X7572375Y-21832500D01*
X7572375Y-23737500D02*
X7624375Y-23685500D01*
X7572375Y-23633500D01*
X7520375Y-23685500D01*
X7572375Y-23737500D01*
X7826375Y-16117500D02*
X7878375Y-16065500D01*
X7826375Y-16013500D01*
X7774375Y-16065500D01*
X7826375Y-16117500D01*
X7826375Y-18022500D02*
X7878375Y-17970500D01*
X7826375Y-17918500D01*
X7774375Y-17970500D01*
X7826375Y-18022500D01*
X7826375Y-19927500D02*
X7878375Y-19875500D01*
X7826375Y-19823500D01*
X7774375Y-19875500D01*
X7826375Y-19927500D01*
X7826375Y-21832500D02*
X7878375Y-21780500D01*
X7826375Y-21728500D01*
X7774375Y-21780500D01*
X7826375Y-21832500D01*
X7826375Y-23737500D02*
X7878375Y-23685500D01*
X7826375Y-23633500D01*
X7774375Y-23685500D01*
X7826375Y-23737500D01*
X9477375Y-16117500D02*
X9529375Y-16065500D01*
X9477375Y-16013500D01*
X9425375Y-16065500D01*
X9477375Y-16117500D01*
X9477375Y-18022500D02*
X9529375Y-17970500D01*
X9477375Y-17918500D01*
X9425375Y-17970500D01*
X9477375Y-18022500D01*
X9477375Y-19927500D02*
X9529375Y-19875500D01*
X9477375Y-19823500D01*
X9425375Y-19875500D01*
X9477375Y-19927500D01*
X9477375Y-21832500D02*
X9529375Y-21780500D01*
X9477375Y-21728500D01*
X9425375Y-21780500D01*
X9477375Y-21832500D01*
X9477375Y-23737500D02*
X9529375Y-23685500D01*
X9477375Y-23633500D01*
X9425375Y-23685500D01*
X9477375Y-23737500D01*
X9731375Y-16117500D02*
X9783375Y-16065500D01*
X9731375Y-16013500D01*
X9679375Y-16065500D01*
X9731375Y-16117500D01*
X9731375Y-18022500D02*
X9783375Y-17970500D01*
X9731375Y-17918500D01*
X9679375Y-17970500D01*
X9731375Y-18022500D01*
X9731375Y-19927500D02*
X9783375Y-19875500D01*
X9731375Y-19823500D01*
X9679375Y-19875500D01*
X9731375Y-19927500D01*
X9731375Y-21832500D02*
X9783375Y-21780500D01*
X9731375Y-21728500D01*
X9679375Y-21780500D01*
X9731375Y-21832500D01*
X9731375Y-23737500D02*
X9783375Y-23685500D01*
X9731375Y-23633500D01*
X9679375Y-23685500D01*
X9731375Y-23737500D01*
X12334875Y-13260000D02*
X12386875Y-13208000D01*
X12334875Y-13156000D01*
X12282875Y-13208000D01*
X12334875Y-13260000D01*
X12334875Y-16117500D02*
X12386875Y-16065500D01*
X12334875Y-16013500D01*
X12282875Y-16065500D01*
X12334875Y-16117500D01*
X12573000Y-23737500D02*
X12625000Y-23685500D01*
X12573000Y-23633500D01*
X12521000Y-23685500D01*
X12573000Y-23737500D01*
X12588875Y-13260000D02*
X12640875Y-13208000D01*
X12588875Y-13156000D01*
X12536875Y-13208000D01*
X12588875Y-13260000D01*
X12588875Y-16117500D02*
X12640875Y-16065500D01*
X12588875Y-16013500D01*
X12536875Y-16065500D01*
X12588875Y-16117500D01*
X12811125Y-18022500D02*
X12863125Y-17970500D01*
X12811125Y-17918500D01*
X12759125Y-17970500D01*
X12811125Y-18022500D01*
X12827000Y-23737500D02*
X12879000Y-23685500D01*
X12827000Y-23633500D01*
X12775000Y-23685500D01*
X12827000Y-23737500D01*
X13049250Y-19927500D02*
X13101250Y-19875500D01*
X13049250Y-19823500D01*
X12997250Y-19875500D01*
X13049250Y-19927500D01*
X13065125Y-18022500D02*
X13117125Y-17970500D01*
X13065125Y-17918500D01*
X13013125Y-17970500D01*
X13065125Y-18022500D01*
X13303250Y-19927500D02*
X13355250Y-19875500D01*
X13303250Y-19823500D01*
X13251250Y-19875500D01*
X13303250Y-19927500D01*
X13525500Y-21832500D02*
X13577500Y-21780500D01*
X13525500Y-21728500D01*
X13473500Y-21780500D01*
X13525500Y-21832500D01*
X13779500Y-21832500D02*
X13831500Y-21780500D01*
X13779500Y-21728500D01*
X13727500Y-21780500D01*
X13779500Y-21832500D01*
X14239875Y-16117500D02*
X14291875Y-16065500D01*
X14239875Y-16013500D01*
X14187875Y-16065500D01*
X14239875Y-16117500D01*
X14493875Y-16117500D02*
X14545875Y-16065500D01*
X14493875Y-16013500D01*
X14441875Y-16065500D01*
X14493875Y-16117500D01*
X14954250Y-23737500D02*
X15006250Y-23685500D01*
X14954250Y-23633500D01*
X14902250Y-23685500D01*
X14954250Y-23737500D01*
X15192375Y-18022500D02*
X15244375Y-17970500D01*
X15192375Y-17918500D01*
X15140375Y-17970500D01*
X15192375Y-18022500D01*
X15208250Y-23737500D02*
X15260250Y-23685500D01*
X15208250Y-23633500D01*
X15156250Y-23685500D01*
X15208250Y-23737500D01*
X15446375Y-18022500D02*
X15498375Y-17970500D01*
X15446375Y-17918500D01*
X15394375Y-17970500D01*
X15446375Y-18022500D01*
X15668625Y-19927500D02*
X15720625Y-19875500D01*
X15668625Y-19823500D01*
X15616625Y-19875500D01*
X15668625Y-19927500D01*
X15922625Y-19927500D02*
X15974625Y-19875500D01*
X15922625Y-19823500D01*
X15870625Y-19875500D01*
X15922625Y-19927500D01*
X16144875Y-13260000D02*
X16196875Y-13208000D01*
X16144875Y-13156000D01*
X16092875Y-13208000D01*
X16144875Y-13260000D01*
X16144875Y-16117500D02*
X16196875Y-16065500D01*
X16144875Y-16013500D01*
X16092875Y-16065500D01*
X16144875Y-16117500D01*
X16398875Y-13260000D02*
X16450875Y-13208000D01*
X16398875Y-13156000D01*
X16346875Y-13208000D01*
X16398875Y-13260000D01*
X16398875Y-16117500D02*
X16450875Y-16065500D01*
X16398875Y-16013500D01*
X16346875Y-16065500D01*
X16398875Y-16117500D01*
X16621125Y-21832500D02*
X16673125Y-21780500D01*
X16621125Y-21728500D01*
X16569125Y-21780500D01*
X16621125Y-21832500D01*
X16875125Y-21832500D02*
X16927125Y-21780500D01*
X16875125Y-21728500D01*
X16823125Y-21780500D01*
X16875125Y-21832500D01*
X17097375Y-18022500D02*
X17149375Y-17970500D01*
X17097375Y-17918500D01*
X17045375Y-17970500D01*
X17097375Y-18022500D01*
X17335500Y-23737500D02*
X17387500Y-23685500D01*
X17335500Y-23633500D01*
X17283500Y-23685500D01*
X17335500Y-23737500D01*
X17351375Y-18022500D02*
X17403375Y-17970500D01*
X17351375Y-17918500D01*
X17299375Y-17970500D01*
X17351375Y-18022500D01*
X17573625Y-19927500D02*
X17625625Y-19875500D01*
X17573625Y-19823500D01*
X17521625Y-19875500D01*
X17573625Y-19927500D01*
X17589500Y-23737500D02*
X17641500Y-23685500D01*
X17589500Y-23633500D01*
X17537500Y-23685500D01*
X17589500Y-23737500D01*
X17827625Y-19927500D02*
X17879625Y-19875500D01*
X17827625Y-19823500D01*
X17775625Y-19875500D01*
X17827625Y-19927500D01*
X18049875Y-13260000D02*
X18101875Y-13208000D01*
X18049875Y-13156000D01*
X17997875Y-13208000D01*
X18049875Y-13260000D01*
X18049875Y-16117500D02*
X18101875Y-16065500D01*
X18049875Y-16013500D01*
X17997875Y-16065500D01*
X18049875Y-16117500D01*
X18303875Y-13260000D02*
X18355875Y-13208000D01*
X18303875Y-13156000D01*
X18251875Y-13208000D01*
X18303875Y-13260000D01*
X18303875Y-16117500D02*
X18355875Y-16065500D01*
X18303875Y-16013500D01*
X18251875Y-16065500D01*
X18303875Y-16117500D01*
X18526125Y-21832500D02*
X18578125Y-21780500D01*
X18526125Y-21728500D01*
X18474125Y-21780500D01*
X18526125Y-21832500D01*
X18780125Y-21832500D02*
X18832125Y-21780500D01*
X18780125Y-21728500D01*
X18728125Y-21780500D01*
X18780125Y-21832500D01*
X19002375Y-18022500D02*
X19054375Y-17970500D01*
X19002375Y-17918500D01*
X18950375Y-17970500D01*
X19002375Y-18022500D01*
X19256375Y-18022500D02*
X19308375Y-17970500D01*
X19256375Y-17918500D01*
X19204375Y-17970500D01*
X19256375Y-18022500D01*
X19478625Y-19927500D02*
X19530625Y-19875500D01*
X19478625Y-19823500D01*
X19426625Y-19875500D01*
X19478625Y-19927500D01*
X19732625Y-19927500D02*
X19784625Y-19875500D01*
X19732625Y-19823500D01*
X19680625Y-19875500D01*
X19732625Y-19927500D01*
X19954875Y-13260000D02*
X20006875Y-13208000D01*
X19954875Y-13156000D01*
X19902875Y-13208000D01*
X19954875Y-13260000D01*
X19954875Y-16117500D02*
X20006875Y-16065500D01*
X19954875Y-16013500D01*
X19902875Y-16065500D01*
X19954875Y-16117500D01*
X20208875Y-13260000D02*
X20260875Y-13208000D01*
X20208875Y-13156000D01*
X20156875Y-13208000D01*
X20208875Y-13260000D01*
X20208875Y-16117500D02*
X20260875Y-16065500D01*
X20208875Y-16013500D01*
X20156875Y-16065500D01*
X20208875Y-16117500D01*
X20431125Y-21832500D02*
X20483125Y-21780500D01*
X20431125Y-21728500D01*
X20379125Y-21780500D01*
X20431125Y-21832500D01*
X20685125Y-21832500D02*
X20737125Y-21780500D01*
X20685125Y-21728500D01*
X20633125Y-21780500D01*
X20685125Y-21832500D01*
X20907375Y-18022500D02*
X20959375Y-17970500D01*
X20907375Y-17918500D01*
X20855375Y-17970500D01*
X20907375Y-18022500D01*
X21161375Y-18022500D02*
X21213375Y-17970500D01*
X21161375Y-17918500D01*
X21109375Y-17970500D01*
X21161375Y-18022500D01*
X21383625Y-19927500D02*
X21435625Y-19875500D01*
X21383625Y-19823500D01*
X21331625Y-19875500D01*
X21383625Y-19927500D01*
X21637625Y-19927500D02*
X21689625Y-19875500D01*
X21637625Y-19823500D01*
X21585625Y-19875500D01*
X21637625Y-19927500D01*
X21859875Y-13260000D02*
X21911875Y-13208000D01*
X21859875Y-13156000D01*
X21807875Y-13208000D01*
X21859875Y-13260000D01*
X21859875Y-16117500D02*
X21911875Y-16065500D01*
X21859875Y-16013500D01*
X21807875Y-16065500D01*
X21859875Y-16117500D01*
X22113875Y-13260000D02*
X22165875Y-13208000D01*
X22113875Y-13156000D01*
X22061875Y-13208000D01*
X22113875Y-13260000D01*
X22113875Y-16117500D02*
X22165875Y-16065500D01*
X22113875Y-16013500D01*
X22061875Y-16065500D01*
X22113875Y-16117500D01*
X22336125Y-21832500D02*
X22388125Y-21780500D01*
X22336125Y-21728500D01*
X22284125Y-21780500D01*
X22336125Y-21832500D01*
X22590125Y-21832500D02*
X22642125Y-21780500D01*
X22590125Y-21728500D01*
X22538125Y-21780500D01*
X22590125Y-21832500D01*
X22812375Y-18022500D02*
X22864375Y-17970500D01*
X22812375Y-17918500D01*
X22760375Y-17970500D01*
X22812375Y-18022500D01*
X23066375Y-18022500D02*
X23118375Y-17970500D01*
X23066375Y-17918500D01*
X23014375Y-17970500D01*
X23066375Y-18022500D01*
X23288625Y-19927500D02*
X23340625Y-19875500D01*
X23288625Y-19823500D01*
X23236625Y-19875500D01*
X23288625Y-19927500D01*
X23542625Y-19927500D02*
X23594625Y-19875500D01*
X23542625Y-19823500D01*
X23490625Y-19875500D01*
X23542625Y-19927500D01*
X23764875Y-16117500D02*
X23816875Y-16065500D01*
X23764875Y-16013500D01*
X23712875Y-16065500D01*
X23764875Y-16117500D01*
X24018875Y-16117500D02*
X24070875Y-16065500D01*
X24018875Y-16013500D01*
X23966875Y-16065500D01*
X24018875Y-16117500D01*
X24241125Y-21832500D02*
X24293125Y-21780500D01*
X24241125Y-21728500D01*
X24189125Y-21780500D01*
X24241125Y-21832500D01*
X24479250Y-23737500D02*
X24531250Y-23685500D01*
X24479250Y-23633500D01*
X24427250Y-23685500D01*
X24479250Y-23737500D01*
X24495125Y-21832500D02*
X24547125Y-21780500D01*
X24495125Y-21728500D01*
X24443125Y-21780500D01*
X24495125Y-21832500D01*
X24717375Y-13260000D02*
X24769375Y-13208000D01*
X24717375Y-13156000D01*
X24665375Y-13208000D01*
X24717375Y-13260000D01*
X24717375Y-18022500D02*
X24769375Y-17970500D01*
X24717375Y-17918500D01*
X24665375Y-17970500D01*
X24717375Y-18022500D01*
X24733250Y-23737500D02*
X24785250Y-23685500D01*
X24733250Y-23633500D01*
X24681250Y-23685500D01*
X24733250Y-23737500D01*
X24971375Y-13260000D02*
X25023375Y-13208000D01*
X24971375Y-13156000D01*
X24919375Y-13208000D01*
X24971375Y-13260000D01*
X24971375Y-18022500D02*
X25023375Y-17970500D01*
X24971375Y-17918500D01*
X24919375Y-17970500D01*
X24971375Y-18022500D01*
X25193625Y-19927500D02*
X25245625Y-19875500D01*
X25193625Y-19823500D01*
X25141625Y-19875500D01*
X25193625Y-19927500D01*
X25447625Y-19927500D02*
X25499625Y-19875500D01*
X25447625Y-19823500D01*
X25395625Y-19875500D01*
X25447625Y-19927500D01*
X25669875Y-16117500D02*
X25721875Y-16065500D01*
X25669875Y-16013500D01*
X25617875Y-16065500D01*
X25669875Y-16117500D01*
X25923875Y-16117500D02*
X25975875Y-16065500D01*
X25923875Y-16013500D01*
X25871875Y-16065500D01*
X25923875Y-16117500D01*
X26146125Y-21832500D02*
X26198125Y-21780500D01*
X26146125Y-21728500D01*
X26094125Y-21780500D01*
X26146125Y-21832500D01*
X26400125Y-21832500D02*
X26452125Y-21780500D01*
X26400125Y-21728500D01*
X26348125Y-21780500D01*
X26400125Y-21832500D01*
X26622375Y-13260000D02*
X26674375Y-13208000D01*
X26622375Y-13156000D01*
X26570375Y-13208000D01*
X26622375Y-13260000D01*
X26622375Y-18022500D02*
X26674375Y-17970500D01*
X26622375Y-17918500D01*
X26570375Y-17970500D01*
X26622375Y-18022500D01*
X26876375Y-13260000D02*
X26928375Y-13208000D01*
X26876375Y-13156000D01*
X26824375Y-13208000D01*
X26876375Y-13260000D01*
X26876375Y-18022500D02*
X26928375Y-17970500D01*
X26876375Y-17918500D01*
X26824375Y-17970500D01*
X26876375Y-18022500D01*
X27098625Y-19927500D02*
X27150625Y-19875500D01*
X27098625Y-19823500D01*
X27046625Y-19875500D01*
X27098625Y-19927500D01*
X27352625Y-19927500D02*
X27404625Y-19875500D01*
X27352625Y-19823500D01*
X27300625Y-19875500D01*
X27352625Y-19927500D01*
X27574875Y-16117500D02*
X27626875Y-16065500D01*
X27574875Y-16013500D01*
X27522875Y-16065500D01*
X27574875Y-16117500D01*
X27828875Y-16117500D02*
X27880875Y-16065500D01*
X27828875Y-16013500D01*
X27776875Y-16065500D01*
X27828875Y-16117500D01*
X28051125Y-21832500D02*
X28103125Y-21780500D01*
X28051125Y-21728500D01*
X27999125Y-21780500D01*
X28051125Y-21832500D01*
X28305125Y-21832500D02*
X28357125Y-21780500D01*
X28305125Y-21728500D01*
X28253125Y-21780500D01*
X28305125Y-21832500D01*
X28527375Y-13260000D02*
X28579375Y-13208000D01*
X28527375Y-13156000D01*
X28475375Y-13208000D01*
X28527375Y-13260000D01*
X28527375Y-18022500D02*
X28579375Y-17970500D01*
X28527375Y-17918500D01*
X28475375Y-17970500D01*
X28527375Y-18022500D01*
X28781375Y-13260000D02*
X28833375Y-13208000D01*
X28781375Y-13156000D01*
X28729375Y-13208000D01*
X28781375Y-13260000D01*
X28781375Y-18022500D02*
X28833375Y-17970500D01*
X28781375Y-17918500D01*
X28729375Y-17970500D01*
X28781375Y-18022500D01*
X29003625Y-19927500D02*
X29055625Y-19875500D01*
X29003625Y-19823500D01*
X28951625Y-19875500D01*
X29003625Y-19927500D01*
X29257625Y-19927500D02*
X29309625Y-19875500D01*
X29257625Y-19823500D01*
X29205625Y-19875500D01*
X29257625Y-19927500D01*
X29479875Y-16117500D02*
X29531875Y-16065500D01*
X29479875Y-16013500D01*
X29427875Y-16065500D01*
X29479875Y-16117500D01*
X29733875Y-16117500D02*
X29785875Y-16065500D01*
X29733875Y-16013500D01*
X29681875Y-16065500D01*
X29733875Y-16117500D01*
X29956125Y-21832500D02*
X30008125Y-21780500D01*
X29956125Y-21728500D01*
X29904125Y-21780500D01*
X29956125Y-21832500D01*
X30210125Y-21832500D02*
X30262125Y-21780500D01*
X30210125Y-21728500D01*
X30158125Y-21780500D01*
X30210125Y-21832500D01*
X30432375Y-13260000D02*
X30484375Y-13208000D01*
X30432375Y-13156000D01*
X30380375Y-13208000D01*
X30432375Y-13260000D01*
X30432375Y-18022500D02*
X30484375Y-17970500D01*
X30432375Y-17918500D01*
X30380375Y-17970500D01*
X30432375Y-18022500D01*
X30686375Y-13260000D02*
X30738375Y-13208000D01*
X30686375Y-13156000D01*
X30634375Y-13208000D01*
X30686375Y-13260000D01*
X30686375Y-18022500D02*
X30738375Y-17970500D01*
X30686375Y-17918500D01*
X30634375Y-17970500D01*
X30686375Y-18022500D01*
X30908625Y-19927500D02*
X30960625Y-19875500D01*
X30908625Y-19823500D01*
X30856625Y-19875500D01*
X30908625Y-19927500D01*
X31162625Y-19927500D02*
X31214625Y-19875500D01*
X31162625Y-19823500D01*
X31110625Y-19875500D01*
X31162625Y-19927500D01*
X31384875Y-16117500D02*
X31436875Y-16065500D01*
X31384875Y-16013500D01*
X31332875Y-16065500D01*
X31384875Y-16117500D01*
X31623000Y-23737500D02*
X31675000Y-23685500D01*
X31623000Y-23633500D01*
X31571000Y-23685500D01*
X31623000Y-23737500D01*
X31638875Y-16117500D02*
X31690875Y-16065500D01*
X31638875Y-16013500D01*
X31586875Y-16065500D01*
X31638875Y-16117500D01*
X31861125Y-21832500D02*
X31913125Y-21780500D01*
X31861125Y-21728500D01*
X31809125Y-21780500D01*
X31861125Y-21832500D01*
X31877000Y-23737500D02*
X31929000Y-23685500D01*
X31877000Y-23633500D01*
X31825000Y-23685500D01*
X31877000Y-23737500D01*
X32115125Y-21832500D02*
X32167125Y-21780500D01*
X32115125Y-21728500D01*
X32063125Y-21780500D01*
X32115125Y-21832500D01*
X32337375Y-18022500D02*
X32389375Y-17970500D01*
X32337375Y-17918500D01*
X32285375Y-17970500D01*
X32337375Y-18022500D01*
X32591375Y-18022500D02*
X32643375Y-17970500D01*
X32591375Y-17918500D01*
X32539375Y-17970500D01*
X32591375Y-18022500D01*
X32813625Y-19927500D02*
X32865625Y-19875500D01*
X32813625Y-19823500D01*
X32761625Y-19875500D01*
X32813625Y-19927500D01*
X33067625Y-19927500D02*
X33119625Y-19875500D01*
X33067625Y-19823500D01*
X33015625Y-19875500D01*
X33067625Y-19927500D01*
X33289875Y-13260000D02*
X33341875Y-13208000D01*
X33289875Y-13156000D01*
X33237875Y-13208000D01*
X33289875Y-13260000D01*
X33289875Y-16117500D02*
X33341875Y-16065500D01*
X33289875Y-16013500D01*
X33237875Y-16065500D01*
X33289875Y-16117500D01*
X33543875Y-13260000D02*
X33595875Y-13208000D01*
X33543875Y-13156000D01*
X33491875Y-13208000D01*
X33543875Y-13260000D01*
X33543875Y-16117500D02*
X33595875Y-16065500D01*
X33543875Y-16013500D01*
X33491875Y-16065500D01*
X33543875Y-16117500D01*
X33766125Y-21832500D02*
X33818125Y-21780500D01*
X33766125Y-21728500D01*
X33714125Y-21780500D01*
X33766125Y-21832500D01*
X34004250Y-23737500D02*
X34056250Y-23685500D01*
X34004250Y-23633500D01*
X33952250Y-23685500D01*
X34004250Y-23737500D01*
X34020125Y-21832500D02*
X34072125Y-21780500D01*
X34020125Y-21728500D01*
X33968125Y-21780500D01*
X34020125Y-21832500D01*
X34242375Y-18022500D02*
X34294375Y-17970500D01*
X34242375Y-17918500D01*
X34190375Y-17970500D01*
X34242375Y-18022500D01*
X34258250Y-23737500D02*
X34310250Y-23685500D01*
X34258250Y-23633500D01*
X34206250Y-23685500D01*
X34258250Y-23737500D01*
X34496375Y-18022500D02*
X34548375Y-17970500D01*
X34496375Y-17918500D01*
X34444375Y-17970500D01*
X34496375Y-18022500D01*
X34718625Y-19927500D02*
X34770625Y-19875500D01*
X34718625Y-19823500D01*
X34666625Y-19875500D01*
X34718625Y-19927500D01*
X34972625Y-19927500D02*
X35024625Y-19875500D01*
X34972625Y-19823500D01*
X34920625Y-19875500D01*
X34972625Y-19927500D01*
X35194875Y-13260000D02*
X35246875Y-13208000D01*
X35194875Y-13156000D01*
X35142875Y-13208000D01*
X35194875Y-13260000D01*
X35194875Y-16117500D02*
X35246875Y-16065500D01*
X35194875Y-16013500D01*
X35142875Y-16065500D01*
X35194875Y-16117500D01*
X35448875Y-13260000D02*
X35500875Y-13208000D01*
X35448875Y-13156000D01*
X35396875Y-13208000D01*
X35448875Y-13260000D01*
X35448875Y-16117500D02*
X35500875Y-16065500D01*
X35448875Y-16013500D01*
X35396875Y-16065500D01*
X35448875Y-16117500D01*
X36147375Y-18022500D02*
X36199375Y-17970500D01*
X36147375Y-17918500D01*
X36095375Y-17970500D01*
X36147375Y-18022500D01*
X36385500Y-23737500D02*
X36437500Y-23685500D01*
X36385500Y-23633500D01*
X36333500Y-23685500D01*
X36385500Y-23737500D01*
X36401375Y-18022500D02*
X36453375Y-17970500D01*
X36401375Y-17918500D01*
X36349375Y-17970500D01*
X36401375Y-18022500D01*
X36639500Y-23737500D02*
X36691500Y-23685500D01*
X36639500Y-23633500D01*
X36587500Y-23685500D01*
X36639500Y-23737500D01*
X37099875Y-13260000D02*
X37151875Y-13208000D01*
X37099875Y-13156000D01*
X37047875Y-13208000D01*
X37099875Y-13260000D01*
X37338000Y-21832500D02*
X37390000Y-21780500D01*
X37338000Y-21728500D01*
X37286000Y-21780500D01*
X37338000Y-21832500D01*
X37353875Y-13260000D02*
X37405875Y-13208000D01*
X37353875Y-13156000D01*
X37301875Y-13208000D01*
X37353875Y-13260000D01*
X37592000Y-21832500D02*
X37644000Y-21780500D01*
X37592000Y-21728500D01*
X37540000Y-21780500D01*
X37592000Y-21832500D01*
X37814250Y-19927500D02*
X37866250Y-19875500D01*
X37814250Y-19823500D01*
X37762250Y-19875500D01*
X37814250Y-19927500D01*
X38052375Y-16117500D02*
X38104375Y-16065500D01*
X38052375Y-16013500D01*
X38000375Y-16065500D01*
X38052375Y-16117500D01*
X38068250Y-19927500D02*
X38120250Y-19875500D01*
X38068250Y-19823500D01*
X38016250Y-19875500D01*
X38068250Y-19927500D01*
X38306375Y-16117500D02*
X38358375Y-16065500D01*
X38306375Y-16013500D01*
X38254375Y-16065500D01*
X38306375Y-16117500D01*
X38528625Y-18022500D02*
X38580625Y-17970500D01*
X38528625Y-17918500D01*
X38476625Y-17970500D01*
X38528625Y-18022500D01*
X38766750Y-23737500D02*
X38818750Y-23685500D01*
X38766750Y-23633500D01*
X38714750Y-23685500D01*
X38766750Y-23737500D01*
X38782625Y-18022500D02*
X38834625Y-17970500D01*
X38782625Y-17918500D01*
X38730625Y-17970500D01*
X38782625Y-18022500D01*
X39004875Y-13260000D02*
X39056875Y-13208000D01*
X39004875Y-13156000D01*
X38952875Y-13208000D01*
X39004875Y-13260000D01*
X39020750Y-23737500D02*
X39072750Y-23685500D01*
X39020750Y-23633500D01*
X38968750Y-23685500D01*
X39020750Y-23737500D01*
X39258875Y-13260000D02*
X39310875Y-13208000D01*
X39258875Y-13156000D01*
X39206875Y-13208000D01*
X39258875Y-13260000D01*
X41862375Y-13260000D02*
X41914375Y-13208000D01*
X41862375Y-13156000D01*
X41810375Y-13208000D01*
X41862375Y-13260000D01*
X41862375Y-16117500D02*
X41914375Y-16065500D01*
X41862375Y-16013500D01*
X41810375Y-16065500D01*
X41862375Y-16117500D01*
X41862375Y-18022500D02*
X41914375Y-17970500D01*
X41862375Y-17918500D01*
X41810375Y-17970500D01*
X41862375Y-18022500D01*
X41862375Y-23737500D02*
X41914375Y-23685500D01*
X41862375Y-23633500D01*
X41810375Y-23685500D01*
X41862375Y-23737500D01*
X42116375Y-13260000D02*
X42168375Y-13208000D01*
X42116375Y-13156000D01*
X42064375Y-13208000D01*
X42116375Y-13260000D01*
X42116375Y-16117500D02*
X42168375Y-16065500D01*
X42116375Y-16013500D01*
X42064375Y-16065500D01*
X42116375Y-16117500D01*
X42116375Y-18022500D02*
X42168375Y-17970500D01*
X42116375Y-17918500D01*
X42064375Y-17970500D01*
X42116375Y-18022500D01*
X42116375Y-23737500D02*
X42168375Y-23685500D01*
X42116375Y-23633500D01*
X42064375Y-23685500D01*
X42116375Y-23737500D01*
X43767375Y-13260000D02*
X43819375Y-13208000D01*
X43767375Y-13156000D01*
X43715375Y-13208000D01*
X43767375Y-13260000D01*
X43767375Y-16117500D02*
X43819375Y-16065500D01*
X43767375Y-16013500D01*
X43715375Y-16065500D01*
X43767375Y-16117500D01*
X43767375Y-18022500D02*
X43819375Y-17970500D01*
X43767375Y-17918500D01*
X43715375Y-17970500D01*
X43767375Y-18022500D01*
X43767375Y-21832500D02*
X43819375Y-21780500D01*
X43767375Y-21728500D01*
X43715375Y-21780500D01*
X43767375Y-21832500D01*
X43767375Y-23737500D02*
X43819375Y-23685500D01*
X43767375Y-23633500D01*
X43715375Y-23685500D01*
X43767375Y-23737500D01*
X44021375Y-13260000D02*
X44073375Y-13208000D01*
X44021375Y-13156000D01*
X43969375Y-13208000D01*
X44021375Y-13260000D01*
X44021375Y-16117500D02*
X44073375Y-16065500D01*
X44021375Y-16013500D01*
X43969375Y-16065500D01*
X44021375Y-16117500D01*
X44021375Y-18022500D02*
X44073375Y-17970500D01*
X44021375Y-17918500D01*
X43969375Y-17970500D01*
X44021375Y-18022500D01*
X44021375Y-21832500D02*
X44073375Y-21780500D01*
X44021375Y-21728500D01*
X43969375Y-21780500D01*
X44021375Y-21832500D01*
X44021375Y-23737500D02*
X44073375Y-23685500D01*
X44021375Y-23633500D01*
X43969375Y-23685500D01*
X44021375Y-23737500D01*
X45672375Y-13260000D02*
X45724375Y-13208000D01*
X45672375Y-13156000D01*
X45620375Y-13208000D01*
X45672375Y-13260000D01*
X45672375Y-16117500D02*
X45724375Y-16065500D01*
X45672375Y-16013500D01*
X45620375Y-16065500D01*
X45672375Y-16117500D01*
X45672375Y-18022500D02*
X45724375Y-17970500D01*
X45672375Y-17918500D01*
X45620375Y-17970500D01*
X45672375Y-18022500D01*
X45672375Y-23737500D02*
X45724375Y-23685500D01*
X45672375Y-23633500D01*
X45620375Y-23685500D01*
X45672375Y-23737500D01*
X45926375Y-13260000D02*
X45978375Y-13208000D01*
X45926375Y-13156000D01*
X45874375Y-13208000D01*
X45926375Y-13260000D01*
X45926375Y-16117500D02*
X45978375Y-16065500D01*
X45926375Y-16013500D01*
X45874375Y-16065500D01*
X45926375Y-16117500D01*
X45926375Y-18022500D02*
X45978375Y-17970500D01*
X45926375Y-17918500D01*
X45874375Y-17970500D01*
X45926375Y-18022500D01*
X45926375Y-23737500D02*
X45978375Y-23685500D01*
X45926375Y-23633500D01*
X45874375Y-23685500D01*
X45926375Y-23737500D01*
D16*
X7244875Y-15230000D02*
X7391875Y-15377000D01*
X7391875Y-15230000D02*
X7244875Y-15377000D01*
X7391875Y-15303500D02*
G75*
G03*
X7391875Y-15303500I-73500J0D01*
G01*
X7244875Y-17135000D02*
X7391875Y-17282000D01*
X7391875Y-17135000D02*
X7244875Y-17282000D01*
X7391875Y-17208500D02*
G75*
G03*
X7391875Y-17208500I-73500J0D01*
G01*
X7244875Y-19040000D02*
X7391875Y-19187000D01*
X7391875Y-19040000D02*
X7244875Y-19187000D01*
X7391875Y-19113500D02*
G75*
G03*
X7391875Y-19113500I-73500J0D01*
G01*
X7244875Y-20945000D02*
X7391875Y-21092000D01*
X7391875Y-20945000D02*
X7244875Y-21092000D01*
X7391875Y-21018500D02*
G75*
G03*
X7391875Y-21018500I-73500J0D01*
G01*
X7244875Y-22850000D02*
X7391875Y-22997000D01*
X7391875Y-22850000D02*
X7244875Y-22997000D01*
X7391875Y-22923500D02*
G75*
G03*
X7391875Y-22923500I-73500J0D01*
G01*
X7879875Y-14976000D02*
X8026875Y-15123000D01*
X8026875Y-14976000D02*
X7879875Y-15123000D01*
X8026875Y-15049500D02*
G75*
G03*
X8026875Y-15049500I-73500J0D01*
G01*
X7879875Y-16881000D02*
X8026875Y-17028000D01*
X8026875Y-16881000D02*
X7879875Y-17028000D01*
X8026875Y-16954500D02*
G75*
G03*
X8026875Y-16954500I-73500J0D01*
G01*
X7879875Y-18786000D02*
X8026875Y-18933000D01*
X8026875Y-18786000D02*
X7879875Y-18933000D01*
X8026875Y-18859500D02*
G75*
G03*
X8026875Y-18859500I-73500J0D01*
G01*
X7879875Y-20691000D02*
X8026875Y-20838000D01*
X8026875Y-20691000D02*
X7879875Y-20838000D01*
X8026875Y-20764500D02*
G75*
G03*
X8026875Y-20764500I-73500J0D01*
G01*
X7879875Y-22596000D02*
X8026875Y-22743000D01*
X8026875Y-22596000D02*
X7879875Y-22743000D01*
X8026875Y-22669500D02*
G75*
G03*
X8026875Y-22669500I-73500J0D01*
G01*
X9149875Y-15230000D02*
X9296875Y-15377000D01*
X9296875Y-15230000D02*
X9149875Y-15377000D01*
X9296875Y-15303500D02*
G75*
G03*
X9296875Y-15303500I-73500J0D01*
G01*
X9149875Y-17135000D02*
X9296875Y-17282000D01*
X9296875Y-17135000D02*
X9149875Y-17282000D01*
X9296875Y-17208500D02*
G75*
G03*
X9296875Y-17208500I-73500J0D01*
G01*
X9149875Y-19040000D02*
X9296875Y-19187000D01*
X9296875Y-19040000D02*
X9149875Y-19187000D01*
X9296875Y-19113500D02*
G75*
G03*
X9296875Y-19113500I-73500J0D01*
G01*
X9149875Y-20945000D02*
X9296875Y-21092000D01*
X9296875Y-20945000D02*
X9149875Y-21092000D01*
X9296875Y-21018500D02*
G75*
G03*
X9296875Y-21018500I-73500J0D01*
G01*
X9149875Y-22850000D02*
X9296875Y-22997000D01*
X9296875Y-22850000D02*
X9149875Y-22997000D01*
X9296875Y-22923500D02*
G75*
G03*
X9296875Y-22923500I-73500J0D01*
G01*
X9784875Y-14976000D02*
X9931875Y-15123000D01*
X9931875Y-14976000D02*
X9784875Y-15123000D01*
X9931875Y-15049500D02*
G75*
G03*
X9931875Y-15049500I-73500J0D01*
G01*
X9784875Y-16881000D02*
X9931875Y-17028000D01*
X9931875Y-16881000D02*
X9784875Y-17028000D01*
X9931875Y-16954500D02*
G75*
G03*
X9931875Y-16954500I-73500J0D01*
G01*
X9784875Y-18786000D02*
X9931875Y-18933000D01*
X9931875Y-18786000D02*
X9784875Y-18933000D01*
X9931875Y-18859500D02*
G75*
G03*
X9931875Y-18859500I-73500J0D01*
G01*
X9784875Y-20691000D02*
X9931875Y-20838000D01*
X9931875Y-20691000D02*
X9784875Y-20838000D01*
X9931875Y-20764500D02*
G75*
G03*
X9931875Y-20764500I-73500J0D01*
G01*
X9784875Y-22596000D02*
X9931875Y-22743000D01*
X9931875Y-22596000D02*
X9784875Y-22743000D01*
X9931875Y-22669500D02*
G75*
G03*
X9931875Y-22669500I-73500J0D01*
G01*
X12007375Y-12372500D02*
X12154375Y-12519500D01*
X12154375Y-12372500D02*
X12007375Y-12519500D01*
X12154375Y-12446000D02*
G75*
G03*
X12154375Y-12446000I-73500J0D01*
G01*
X12007375Y-15230000D02*
X12154375Y-15377000D01*
X12154375Y-15230000D02*
X12007375Y-15377000D01*
X12154375Y-15303500D02*
G75*
G03*
X12154375Y-15303500I-73500J0D01*
G01*
X12245500Y-22850000D02*
X12392500Y-22997000D01*
X12392500Y-22850000D02*
X12245500Y-22997000D01*
X12392500Y-22923500D02*
G75*
G03*
X12392500Y-22923500I-73500J0D01*
G01*
X12483625Y-17135000D02*
X12630625Y-17282000D01*
X12630625Y-17135000D02*
X12483625Y-17282000D01*
X12630625Y-17208500D02*
G75*
G03*
X12630625Y-17208500I-73500J0D01*
G01*
X12642375Y-12118500D02*
X12789375Y-12265500D01*
X12789375Y-12118500D02*
X12642375Y-12265500D01*
X12789375Y-12192000D02*
G75*
G03*
X12789375Y-12192000I-73500J0D01*
G01*
X12642375Y-14976000D02*
X12789375Y-15123000D01*
X12789375Y-14976000D02*
X12642375Y-15123000D01*
X12789375Y-15049500D02*
G75*
G03*
X12789375Y-15049500I-73500J0D01*
G01*
X12721750Y-19040000D02*
X12868750Y-19187000D01*
X12868750Y-19040000D02*
X12721750Y-19187000D01*
X12868750Y-19113500D02*
G75*
G03*
X12868750Y-19113500I-73500J0D01*
G01*
X12880500Y-22596000D02*
X13027500Y-22743000D01*
X13027500Y-22596000D02*
X12880500Y-22743000D01*
X13027500Y-22669500D02*
G75*
G03*
X13027500Y-22669500I-73500J0D01*
G01*
X13118625Y-16881000D02*
X13265625Y-17028000D01*
X13265625Y-16881000D02*
X13118625Y-17028000D01*
X13265625Y-16954500D02*
G75*
G03*
X13265625Y-16954500I-73500J0D01*
G01*
X13198000Y-20945000D02*
X13345000Y-21092000D01*
X13345000Y-20945000D02*
X13198000Y-21092000D01*
X13345000Y-21018500D02*
G75*
G03*
X13345000Y-21018500I-73500J0D01*
G01*
X13356750Y-18786000D02*
X13503750Y-18933000D01*
X13503750Y-18786000D02*
X13356750Y-18933000D01*
X13503750Y-18859500D02*
G75*
G03*
X13503750Y-18859500I-73500J0D01*
G01*
X13833000Y-20691000D02*
X13980000Y-20838000D01*
X13980000Y-20691000D02*
X13833000Y-20838000D01*
X13980000Y-20764500D02*
G75*
G03*
X13980000Y-20764500I-73500J0D01*
G01*
X13912375Y-15230000D02*
X14059375Y-15377000D01*
X14059375Y-15230000D02*
X13912375Y-15377000D01*
X14059375Y-15303500D02*
G75*
G03*
X14059375Y-15303500I-73500J0D01*
G01*
X14547375Y-14976000D02*
X14694375Y-15123000D01*
X14694375Y-14976000D02*
X14547375Y-15123000D01*
X14694375Y-15049500D02*
G75*
G03*
X14694375Y-15049500I-73500J0D01*
G01*
X14626750Y-22850000D02*
X14773750Y-22997000D01*
X14773750Y-22850000D02*
X14626750Y-22997000D01*
X14773750Y-22923500D02*
G75*
G03*
X14773750Y-22923500I-73500J0D01*
G01*
X14864875Y-17135000D02*
X15011875Y-17282000D01*
X15011875Y-17135000D02*
X14864875Y-17282000D01*
X15011875Y-17208500D02*
G75*
G03*
X15011875Y-17208500I-73500J0D01*
G01*
X15261750Y-22596000D02*
X15408750Y-22743000D01*
X15408750Y-22596000D02*
X15261750Y-22743000D01*
X15408750Y-22669500D02*
G75*
G03*
X15408750Y-22669500I-73500J0D01*
G01*
X15341125Y-19040000D02*
X15488125Y-19187000D01*
X15488125Y-19040000D02*
X15341125Y-19187000D01*
X15488125Y-19113500D02*
G75*
G03*
X15488125Y-19113500I-73500J0D01*
G01*
X15499875Y-16881000D02*
X15646875Y-17028000D01*
X15646875Y-16881000D02*
X15499875Y-17028000D01*
X15646875Y-16954500D02*
G75*
G03*
X15646875Y-16954500I-73500J0D01*
G01*
X15817375Y-12372500D02*
X15964375Y-12519500D01*
X15964375Y-12372500D02*
X15817375Y-12519500D01*
X15964375Y-12446000D02*
G75*
G03*
X15964375Y-12446000I-73500J0D01*
G01*
X15817375Y-15230000D02*
X15964375Y-15377000D01*
X15964375Y-15230000D02*
X15817375Y-15377000D01*
X15964375Y-15303500D02*
G75*
G03*
X15964375Y-15303500I-73500J0D01*
G01*
X15976125Y-18786000D02*
X16123125Y-18933000D01*
X16123125Y-18786000D02*
X15976125Y-18933000D01*
X16123125Y-18859500D02*
G75*
G03*
X16123125Y-18859500I-73500J0D01*
G01*
X16293625Y-20945000D02*
X16440625Y-21092000D01*
X16440625Y-20945000D02*
X16293625Y-21092000D01*
X16440625Y-21018500D02*
G75*
G03*
X16440625Y-21018500I-73500J0D01*
G01*
X16452375Y-12118500D02*
X16599375Y-12265500D01*
X16599375Y-12118500D02*
X16452375Y-12265500D01*
X16599375Y-12192000D02*
G75*
G03*
X16599375Y-12192000I-73500J0D01*
G01*
X16452375Y-14976000D02*
X16599375Y-15123000D01*
X16599375Y-14976000D02*
X16452375Y-15123000D01*
X16599375Y-15049500D02*
G75*
G03*
X16599375Y-15049500I-73500J0D01*
G01*
X16769875Y-17135000D02*
X16916875Y-17282000D01*
X16916875Y-17135000D02*
X16769875Y-17282000D01*
X16916875Y-17208500D02*
G75*
G03*
X16916875Y-17208500I-73500J0D01*
G01*
X16928625Y-20691000D02*
X17075625Y-20838000D01*
X17075625Y-20691000D02*
X16928625Y-20838000D01*
X17075625Y-20764500D02*
G75*
G03*
X17075625Y-20764500I-73500J0D01*
G01*
X17008000Y-22850000D02*
X17155000Y-22997000D01*
X17155000Y-22850000D02*
X17008000Y-22997000D01*
X17155000Y-22923500D02*
G75*
G03*
X17155000Y-22923500I-73500J0D01*
G01*
X17246125Y-19040000D02*
X17393125Y-19187000D01*
X17393125Y-19040000D02*
X17246125Y-19187000D01*
X17393125Y-19113500D02*
G75*
G03*
X17393125Y-19113500I-73500J0D01*
G01*
X17404875Y-16881000D02*
X17551875Y-17028000D01*
X17551875Y-16881000D02*
X17404875Y-17028000D01*
X17551875Y-16954500D02*
G75*
G03*
X17551875Y-16954500I-73500J0D01*
G01*
X17643000Y-22596000D02*
X17790000Y-22743000D01*
X17790000Y-22596000D02*
X17643000Y-22743000D01*
X17790000Y-22669500D02*
G75*
G03*
X17790000Y-22669500I-73500J0D01*
G01*
X17722375Y-12372500D02*
X17869375Y-12519500D01*
X17869375Y-12372500D02*
X17722375Y-12519500D01*
X17869375Y-12446000D02*
G75*
G03*
X17869375Y-12446000I-73500J0D01*
G01*
X17722375Y-15230000D02*
X17869375Y-15377000D01*
X17869375Y-15230000D02*
X17722375Y-15377000D01*
X17869375Y-15303500D02*
G75*
G03*
X17869375Y-15303500I-73500J0D01*
G01*
X17881125Y-18786000D02*
X18028125Y-18933000D01*
X18028125Y-18786000D02*
X17881125Y-18933000D01*
X18028125Y-18859500D02*
G75*
G03*
X18028125Y-18859500I-73500J0D01*
G01*
X18198625Y-20945000D02*
X18345625Y-21092000D01*
X18345625Y-20945000D02*
X18198625Y-21092000D01*
X18345625Y-21018500D02*
G75*
G03*
X18345625Y-21018500I-73500J0D01*
G01*
X18357375Y-12118500D02*
X18504375Y-12265500D01*
X18504375Y-12118500D02*
X18357375Y-12265500D01*
X18504375Y-12192000D02*
G75*
G03*
X18504375Y-12192000I-73500J0D01*
G01*
X18357375Y-14976000D02*
X18504375Y-15123000D01*
X18504375Y-14976000D02*
X18357375Y-15123000D01*
X18504375Y-15049500D02*
G75*
G03*
X18504375Y-15049500I-73500J0D01*
G01*
X18674875Y-17135000D02*
X18821875Y-17282000D01*
X18821875Y-17135000D02*
X18674875Y-17282000D01*
X18821875Y-17208500D02*
G75*
G03*
X18821875Y-17208500I-73500J0D01*
G01*
X18833625Y-20691000D02*
X18980625Y-20838000D01*
X18980625Y-20691000D02*
X18833625Y-20838000D01*
X18980625Y-20764500D02*
G75*
G03*
X18980625Y-20764500I-73500J0D01*
G01*
X19151125Y-19040000D02*
X19298125Y-19187000D01*
X19298125Y-19040000D02*
X19151125Y-19187000D01*
X19298125Y-19113500D02*
G75*
G03*
X19298125Y-19113500I-73500J0D01*
G01*
X19309875Y-16881000D02*
X19456875Y-17028000D01*
X19456875Y-16881000D02*
X19309875Y-17028000D01*
X19456875Y-16954500D02*
G75*
G03*
X19456875Y-16954500I-73500J0D01*
G01*
X19627375Y-12372500D02*
X19774375Y-12519500D01*
X19774375Y-12372500D02*
X19627375Y-12519500D01*
X19774375Y-12446000D02*
G75*
G03*
X19774375Y-12446000I-73500J0D01*
G01*
X19627375Y-15230000D02*
X19774375Y-15377000D01*
X19774375Y-15230000D02*
X19627375Y-15377000D01*
X19774375Y-15303500D02*
G75*
G03*
X19774375Y-15303500I-73500J0D01*
G01*
X19786125Y-18786000D02*
X19933125Y-18933000D01*
X19933125Y-18786000D02*
X19786125Y-18933000D01*
X19933125Y-18859500D02*
G75*
G03*
X19933125Y-18859500I-73500J0D01*
G01*
X20103625Y-20945000D02*
X20250625Y-21092000D01*
X20250625Y-20945000D02*
X20103625Y-21092000D01*
X20250625Y-21018500D02*
G75*
G03*
X20250625Y-21018500I-73500J0D01*
G01*
X20262375Y-12118500D02*
X20409375Y-12265500D01*
X20409375Y-12118500D02*
X20262375Y-12265500D01*
X20409375Y-12192000D02*
G75*
G03*
X20409375Y-12192000I-73500J0D01*
G01*
X20262375Y-14976000D02*
X20409375Y-15123000D01*
X20409375Y-14976000D02*
X20262375Y-15123000D01*
X20409375Y-15049500D02*
G75*
G03*
X20409375Y-15049500I-73500J0D01*
G01*
X20579875Y-17135000D02*
X20726875Y-17282000D01*
X20726875Y-17135000D02*
X20579875Y-17282000D01*
X20726875Y-17208500D02*
G75*
G03*
X20726875Y-17208500I-73500J0D01*
G01*
X20738625Y-20691000D02*
X20885625Y-20838000D01*
X20885625Y-20691000D02*
X20738625Y-20838000D01*
X20885625Y-20764500D02*
G75*
G03*
X20885625Y-20764500I-73500J0D01*
G01*
X21056125Y-19040000D02*
X21203125Y-19187000D01*
X21203125Y-19040000D02*
X21056125Y-19187000D01*
X21203125Y-19113500D02*
G75*
G03*
X21203125Y-19113500I-73500J0D01*
G01*
X21214875Y-16881000D02*
X21361875Y-17028000D01*
X21361875Y-16881000D02*
X21214875Y-17028000D01*
X21361875Y-16954500D02*
G75*
G03*
X21361875Y-16954500I-73500J0D01*
G01*
X21532375Y-12372500D02*
X21679375Y-12519500D01*
X21679375Y-12372500D02*
X21532375Y-12519500D01*
X21679375Y-12446000D02*
G75*
G03*
X21679375Y-12446000I-73500J0D01*
G01*
X21532375Y-15230000D02*
X21679375Y-15377000D01*
X21679375Y-15230000D02*
X21532375Y-15377000D01*
X21679375Y-15303500D02*
G75*
G03*
X21679375Y-15303500I-73500J0D01*
G01*
X21691125Y-18786000D02*
X21838125Y-18933000D01*
X21838125Y-18786000D02*
X21691125Y-18933000D01*
X21838125Y-18859500D02*
G75*
G03*
X21838125Y-18859500I-73500J0D01*
G01*
X22008625Y-20945000D02*
X22155625Y-21092000D01*
X22155625Y-20945000D02*
X22008625Y-21092000D01*
X22155625Y-21018500D02*
G75*
G03*
X22155625Y-21018500I-73500J0D01*
G01*
X22167375Y-12118500D02*
X22314375Y-12265500D01*
X22314375Y-12118500D02*
X22167375Y-12265500D01*
X22314375Y-12192000D02*
G75*
G03*
X22314375Y-12192000I-73500J0D01*
G01*
X22167375Y-14976000D02*
X22314375Y-15123000D01*
X22314375Y-14976000D02*
X22167375Y-15123000D01*
X22314375Y-15049500D02*
G75*
G03*
X22314375Y-15049500I-73500J0D01*
G01*
X22484875Y-17135000D02*
X22631875Y-17282000D01*
X22631875Y-17135000D02*
X22484875Y-17282000D01*
X22631875Y-17208500D02*
G75*
G03*
X22631875Y-17208500I-73500J0D01*
G01*
X22643625Y-20691000D02*
X22790625Y-20838000D01*
X22790625Y-20691000D02*
X22643625Y-20838000D01*
X22790625Y-20764500D02*
G75*
G03*
X22790625Y-20764500I-73500J0D01*
G01*
X22961125Y-19040000D02*
X23108125Y-19187000D01*
X23108125Y-19040000D02*
X22961125Y-19187000D01*
X23108125Y-19113500D02*
G75*
G03*
X23108125Y-19113500I-73500J0D01*
G01*
X23119875Y-16881000D02*
X23266875Y-17028000D01*
X23266875Y-16881000D02*
X23119875Y-17028000D01*
X23266875Y-16954500D02*
G75*
G03*
X23266875Y-16954500I-73500J0D01*
G01*
X23437375Y-15230000D02*
X23584375Y-15377000D01*
X23584375Y-15230000D02*
X23437375Y-15377000D01*
X23584375Y-15303500D02*
G75*
G03*
X23584375Y-15303500I-73500J0D01*
G01*
X23596125Y-18786000D02*
X23743125Y-18933000D01*
X23743125Y-18786000D02*
X23596125Y-18933000D01*
X23743125Y-18859500D02*
G75*
G03*
X23743125Y-18859500I-73500J0D01*
G01*
X23913625Y-20945000D02*
X24060625Y-21092000D01*
X24060625Y-20945000D02*
X23913625Y-21092000D01*
X24060625Y-21018500D02*
G75*
G03*
X24060625Y-21018500I-73500J0D01*
G01*
X24072375Y-14976000D02*
X24219375Y-15123000D01*
X24219375Y-14976000D02*
X24072375Y-15123000D01*
X24219375Y-15049500D02*
G75*
G03*
X24219375Y-15049500I-73500J0D01*
G01*
X24151750Y-22850000D02*
X24298750Y-22997000D01*
X24298750Y-22850000D02*
X24151750Y-22997000D01*
X24298750Y-22923500D02*
G75*
G03*
X24298750Y-22923500I-73500J0D01*
G01*
X24389875Y-12372500D02*
X24536875Y-12519500D01*
X24536875Y-12372500D02*
X24389875Y-12519500D01*
X24536875Y-12446000D02*
G75*
G03*
X24536875Y-12446000I-73500J0D01*
G01*
X24389875Y-17135000D02*
X24536875Y-17282000D01*
X24536875Y-17135000D02*
X24389875Y-17282000D01*
X24536875Y-17208500D02*
G75*
G03*
X24536875Y-17208500I-73500J0D01*
G01*
X24548625Y-20691000D02*
X24695625Y-20838000D01*
X24695625Y-20691000D02*
X24548625Y-20838000D01*
X24695625Y-20764500D02*
G75*
G03*
X24695625Y-20764500I-73500J0D01*
G01*
X24786750Y-22596000D02*
X24933750Y-22743000D01*
X24933750Y-22596000D02*
X24786750Y-22743000D01*
X24933750Y-22669500D02*
G75*
G03*
X24933750Y-22669500I-73500J0D01*
G01*
X24866125Y-19040000D02*
X25013125Y-19187000D01*
X25013125Y-19040000D02*
X24866125Y-19187000D01*
X25013125Y-19113500D02*
G75*
G03*
X25013125Y-19113500I-73500J0D01*
G01*
X25024875Y-12118500D02*
X25171875Y-12265500D01*
X25171875Y-12118500D02*
X25024875Y-12265500D01*
X25171875Y-12192000D02*
G75*
G03*
X25171875Y-12192000I-73500J0D01*
G01*
X25024875Y-16881000D02*
X25171875Y-17028000D01*
X25171875Y-16881000D02*
X25024875Y-17028000D01*
X25171875Y-16954500D02*
G75*
G03*
X25171875Y-16954500I-73500J0D01*
G01*
X25342375Y-15230000D02*
X25489375Y-15377000D01*
X25489375Y-15230000D02*
X25342375Y-15377000D01*
X25489375Y-15303500D02*
G75*
G03*
X25489375Y-15303500I-73500J0D01*
G01*
X25501125Y-18786000D02*
X25648125Y-18933000D01*
X25648125Y-18786000D02*
X25501125Y-18933000D01*
X25648125Y-18859500D02*
G75*
G03*
X25648125Y-18859500I-73500J0D01*
G01*
X25818625Y-20945000D02*
X25965625Y-21092000D01*
X25965625Y-20945000D02*
X25818625Y-21092000D01*
X25965625Y-21018500D02*
G75*
G03*
X25965625Y-21018500I-73500J0D01*
G01*
X25977375Y-14976000D02*
X26124375Y-15123000D01*
X26124375Y-14976000D02*
X25977375Y-15123000D01*
X26124375Y-15049500D02*
G75*
G03*
X26124375Y-15049500I-73500J0D01*
G01*
X26294875Y-12372500D02*
X26441875Y-12519500D01*
X26441875Y-12372500D02*
X26294875Y-12519500D01*
X26441875Y-12446000D02*
G75*
G03*
X26441875Y-12446000I-73500J0D01*
G01*
X26294875Y-17135000D02*
X26441875Y-17282000D01*
X26441875Y-17135000D02*
X26294875Y-17282000D01*
X26441875Y-17208500D02*
G75*
G03*
X26441875Y-17208500I-73500J0D01*
G01*
X26453625Y-20691000D02*
X26600625Y-20838000D01*
X26600625Y-20691000D02*
X26453625Y-20838000D01*
X26600625Y-20764500D02*
G75*
G03*
X26600625Y-20764500I-73500J0D01*
G01*
X26771125Y-19040000D02*
X26918125Y-19187000D01*
X26918125Y-19040000D02*
X26771125Y-19187000D01*
X26918125Y-19113500D02*
G75*
G03*
X26918125Y-19113500I-73500J0D01*
G01*
X26929875Y-12118500D02*
X27076875Y-12265500D01*
X27076875Y-12118500D02*
X26929875Y-12265500D01*
X27076875Y-12192000D02*
G75*
G03*
X27076875Y-12192000I-73500J0D01*
G01*
X26929875Y-16881000D02*
X27076875Y-17028000D01*
X27076875Y-16881000D02*
X26929875Y-17028000D01*
X27076875Y-16954500D02*
G75*
G03*
X27076875Y-16954500I-73500J0D01*
G01*
X27247375Y-15230000D02*
X27394375Y-15377000D01*
X27394375Y-15230000D02*
X27247375Y-15377000D01*
X27394375Y-15303500D02*
G75*
G03*
X27394375Y-15303500I-73500J0D01*
G01*
X27406125Y-18786000D02*
X27553125Y-18933000D01*
X27553125Y-18786000D02*
X27406125Y-18933000D01*
X27553125Y-18859500D02*
G75*
G03*
X27553125Y-18859500I-73500J0D01*
G01*
X27723625Y-20945000D02*
X27870625Y-21092000D01*
X27870625Y-20945000D02*
X27723625Y-21092000D01*
X27870625Y-21018500D02*
G75*
G03*
X27870625Y-21018500I-73500J0D01*
G01*
X27882375Y-14976000D02*
X28029375Y-15123000D01*
X28029375Y-14976000D02*
X27882375Y-15123000D01*
X28029375Y-15049500D02*
G75*
G03*
X28029375Y-15049500I-73500J0D01*
G01*
X28199875Y-12372500D02*
X28346875Y-12519500D01*
X28346875Y-12372500D02*
X28199875Y-12519500D01*
X28346875Y-12446000D02*
G75*
G03*
X28346875Y-12446000I-73500J0D01*
G01*
X28199875Y-17135000D02*
X28346875Y-17282000D01*
X28346875Y-17135000D02*
X28199875Y-17282000D01*
X28346875Y-17208500D02*
G75*
G03*
X28346875Y-17208500I-73500J0D01*
G01*
X28358625Y-20691000D02*
X28505625Y-20838000D01*
X28505625Y-20691000D02*
X28358625Y-20838000D01*
X28505625Y-20764500D02*
G75*
G03*
X28505625Y-20764500I-73500J0D01*
G01*
X28676125Y-19040000D02*
X28823125Y-19187000D01*
X28823125Y-19040000D02*
X28676125Y-19187000D01*
X28823125Y-19113500D02*
G75*
G03*
X28823125Y-19113500I-73500J0D01*
G01*
X28834875Y-12118500D02*
X28981875Y-12265500D01*
X28981875Y-12118500D02*
X28834875Y-12265500D01*
X28981875Y-12192000D02*
G75*
G03*
X28981875Y-12192000I-73500J0D01*
G01*
X28834875Y-16881000D02*
X28981875Y-17028000D01*
X28981875Y-16881000D02*
X28834875Y-17028000D01*
X28981875Y-16954500D02*
G75*
G03*
X28981875Y-16954500I-73500J0D01*
G01*
X29152375Y-15230000D02*
X29299375Y-15377000D01*
X29299375Y-15230000D02*
X29152375Y-15377000D01*
X29299375Y-15303500D02*
G75*
G03*
X29299375Y-15303500I-73500J0D01*
G01*
X29311125Y-18786000D02*
X29458125Y-18933000D01*
X29458125Y-18786000D02*
X29311125Y-18933000D01*
X29458125Y-18859500D02*
G75*
G03*
X29458125Y-18859500I-73500J0D01*
G01*
X29628625Y-20945000D02*
X29775625Y-21092000D01*
X29775625Y-20945000D02*
X29628625Y-21092000D01*
X29775625Y-21018500D02*
G75*
G03*
X29775625Y-21018500I-73500J0D01*
G01*
X29787375Y-14976000D02*
X29934375Y-15123000D01*
X29934375Y-14976000D02*
X29787375Y-15123000D01*
X29934375Y-15049500D02*
G75*
G03*
X29934375Y-15049500I-73500J0D01*
G01*
X30104875Y-12372500D02*
X30251875Y-12519500D01*
X30251875Y-12372500D02*
X30104875Y-12519500D01*
X30251875Y-12446000D02*
G75*
G03*
X30251875Y-12446000I-73500J0D01*
G01*
X30104875Y-17135000D02*
X30251875Y-17282000D01*
X30251875Y-17135000D02*
X30104875Y-17282000D01*
X30251875Y-17208500D02*
G75*
G03*
X30251875Y-17208500I-73500J0D01*
G01*
X30263625Y-20691000D02*
X30410625Y-20838000D01*
X30410625Y-20691000D02*
X30263625Y-20838000D01*
X30410625Y-20764500D02*
G75*
G03*
X30410625Y-20764500I-73500J0D01*
G01*
X30581125Y-19040000D02*
X30728125Y-19187000D01*
X30728125Y-19040000D02*
X30581125Y-19187000D01*
X30728125Y-19113500D02*
G75*
G03*
X30728125Y-19113500I-73500J0D01*
G01*
X30739875Y-12118500D02*
X30886875Y-12265500D01*
X30886875Y-12118500D02*
X30739875Y-12265500D01*
X30886875Y-12192000D02*
G75*
G03*
X30886875Y-12192000I-73500J0D01*
G01*
X30739875Y-16881000D02*
X30886875Y-17028000D01*
X30886875Y-16881000D02*
X30739875Y-17028000D01*
X30886875Y-16954500D02*
G75*
G03*
X30886875Y-16954500I-73500J0D01*
G01*
X31057375Y-15230000D02*
X31204375Y-15377000D01*
X31204375Y-15230000D02*
X31057375Y-15377000D01*
X31204375Y-15303500D02*
G75*
G03*
X31204375Y-15303500I-73500J0D01*
G01*
X31216125Y-18786000D02*
X31363125Y-18933000D01*
X31363125Y-18786000D02*
X31216125Y-18933000D01*
X31363125Y-18859500D02*
G75*
G03*
X31363125Y-18859500I-73500J0D01*
G01*
X31295500Y-22850000D02*
X31442500Y-22997000D01*
X31442500Y-22850000D02*
X31295500Y-22997000D01*
X31442500Y-22923500D02*
G75*
G03*
X31442500Y-22923500I-73500J0D01*
G01*
X31533625Y-20945000D02*
X31680625Y-21092000D01*
X31680625Y-20945000D02*
X31533625Y-21092000D01*
X31680625Y-21018500D02*
G75*
G03*
X31680625Y-21018500I-73500J0D01*
G01*
X31692375Y-14976000D02*
X31839375Y-15123000D01*
X31839375Y-14976000D02*
X31692375Y-15123000D01*
X31839375Y-15049500D02*
G75*
G03*
X31839375Y-15049500I-73500J0D01*
G01*
X31930500Y-22596000D02*
X32077500Y-22743000D01*
X32077500Y-22596000D02*
X31930500Y-22743000D01*
X32077500Y-22669500D02*
G75*
G03*
X32077500Y-22669500I-73500J0D01*
G01*
X32009875Y-17135000D02*
X32156875Y-17282000D01*
X32156875Y-17135000D02*
X32009875Y-17282000D01*
X32156875Y-17208500D02*
G75*
G03*
X32156875Y-17208500I-73500J0D01*
G01*
X32168625Y-20691000D02*
X32315625Y-20838000D01*
X32315625Y-20691000D02*
X32168625Y-20838000D01*
X32315625Y-20764500D02*
G75*
G03*
X32315625Y-20764500I-73500J0D01*
G01*
X32486125Y-19040000D02*
X32633125Y-19187000D01*
X32633125Y-19040000D02*
X32486125Y-19187000D01*
X32633125Y-19113500D02*
G75*
G03*
X32633125Y-19113500I-73500J0D01*
G01*
X32644875Y-16881000D02*
X32791875Y-17028000D01*
X32791875Y-16881000D02*
X32644875Y-17028000D01*
X32791875Y-16954500D02*
G75*
G03*
X32791875Y-16954500I-73500J0D01*
G01*
X32962375Y-12372500D02*
X33109375Y-12519500D01*
X33109375Y-12372500D02*
X32962375Y-12519500D01*
X33109375Y-12446000D02*
G75*
G03*
X33109375Y-12446000I-73500J0D01*
G01*
X32962375Y-15230000D02*
X33109375Y-15377000D01*
X33109375Y-15230000D02*
X32962375Y-15377000D01*
X33109375Y-15303500D02*
G75*
G03*
X33109375Y-15303500I-73500J0D01*
G01*
X33121125Y-18786000D02*
X33268125Y-18933000D01*
X33268125Y-18786000D02*
X33121125Y-18933000D01*
X33268125Y-18859500D02*
G75*
G03*
X33268125Y-18859500I-73500J0D01*
G01*
X33438625Y-20945000D02*
X33585625Y-21092000D01*
X33585625Y-20945000D02*
X33438625Y-21092000D01*
X33585625Y-21018500D02*
G75*
G03*
X33585625Y-21018500I-73500J0D01*
G01*
X33597375Y-12118500D02*
X33744375Y-12265500D01*
X33744375Y-12118500D02*
X33597375Y-12265500D01*
X33744375Y-12192000D02*
G75*
G03*
X33744375Y-12192000I-73500J0D01*
G01*
X33597375Y-14976000D02*
X33744375Y-15123000D01*
X33744375Y-14976000D02*
X33597375Y-15123000D01*
X33744375Y-15049500D02*
G75*
G03*
X33744375Y-15049500I-73500J0D01*
G01*
X33676750Y-22850000D02*
X33823750Y-22997000D01*
X33823750Y-22850000D02*
X33676750Y-22997000D01*
X33823750Y-22923500D02*
G75*
G03*
X33823750Y-22923500I-73500J0D01*
G01*
X33914875Y-17135000D02*
X34061875Y-17282000D01*
X34061875Y-17135000D02*
X33914875Y-17282000D01*
X34061875Y-17208500D02*
G75*
G03*
X34061875Y-17208500I-73500J0D01*
G01*
X34073625Y-20691000D02*
X34220625Y-20838000D01*
X34220625Y-20691000D02*
X34073625Y-20838000D01*
X34220625Y-20764500D02*
G75*
G03*
X34220625Y-20764500I-73500J0D01*
G01*
X34311750Y-22596000D02*
X34458750Y-22743000D01*
X34458750Y-22596000D02*
X34311750Y-22743000D01*
X34458750Y-22669500D02*
G75*
G03*
X34458750Y-22669500I-73500J0D01*
G01*
X34391125Y-19040000D02*
X34538125Y-19187000D01*
X34538125Y-19040000D02*
X34391125Y-19187000D01*
X34538125Y-19113500D02*
G75*
G03*
X34538125Y-19113500I-73500J0D01*
G01*
X34549875Y-16881000D02*
X34696875Y-17028000D01*
X34696875Y-16881000D02*
X34549875Y-17028000D01*
X34696875Y-16954500D02*
G75*
G03*
X34696875Y-16954500I-73500J0D01*
G01*
X34867375Y-12372500D02*
X35014375Y-12519500D01*
X35014375Y-12372500D02*
X34867375Y-12519500D01*
X35014375Y-12446000D02*
G75*
G03*
X35014375Y-12446000I-73500J0D01*
G01*
X34867375Y-15230000D02*
X35014375Y-15377000D01*
X35014375Y-15230000D02*
X34867375Y-15377000D01*
X35014375Y-15303500D02*
G75*
G03*
X35014375Y-15303500I-73500J0D01*
G01*
X35026125Y-18786000D02*
X35173125Y-18933000D01*
X35173125Y-18786000D02*
X35026125Y-18933000D01*
X35173125Y-18859500D02*
G75*
G03*
X35173125Y-18859500I-73500J0D01*
G01*
X35502375Y-12118500D02*
X35649375Y-12265500D01*
X35649375Y-12118500D02*
X35502375Y-12265500D01*
X35649375Y-12192000D02*
G75*
G03*
X35649375Y-12192000I-73500J0D01*
G01*
X35502375Y-14976000D02*
X35649375Y-15123000D01*
X35649375Y-14976000D02*
X35502375Y-15123000D01*
X35649375Y-15049500D02*
G75*
G03*
X35649375Y-15049500I-73500J0D01*
G01*
X35819875Y-17135000D02*
X35966875Y-17282000D01*
X35966875Y-17135000D02*
X35819875Y-17282000D01*
X35966875Y-17208500D02*
G75*
G03*
X35966875Y-17208500I-73500J0D01*
G01*
X36058000Y-22850000D02*
X36205000Y-22997000D01*
X36205000Y-22850000D02*
X36058000Y-22997000D01*
X36205000Y-22923500D02*
G75*
G03*
X36205000Y-22923500I-73500J0D01*
G01*
X36454875Y-16881000D02*
X36601875Y-17028000D01*
X36601875Y-16881000D02*
X36454875Y-17028000D01*
X36601875Y-16954500D02*
G75*
G03*
X36601875Y-16954500I-73500J0D01*
G01*
X36693000Y-22596000D02*
X36840000Y-22743000D01*
X36840000Y-22596000D02*
X36693000Y-22743000D01*
X36840000Y-22669500D02*
G75*
G03*
X36840000Y-22669500I-73500J0D01*
G01*
X36772375Y-12372500D02*
X36919375Y-12519500D01*
X36919375Y-12372500D02*
X36772375Y-12519500D01*
X36919375Y-12446000D02*
G75*
G03*
X36919375Y-12446000I-73500J0D01*
G01*
X37010500Y-20945000D02*
X37157500Y-21092000D01*
X37157500Y-20945000D02*
X37010500Y-21092000D01*
X37157500Y-21018500D02*
G75*
G03*
X37157500Y-21018500I-73500J0D01*
G01*
X37407375Y-12118500D02*
X37554375Y-12265500D01*
X37554375Y-12118500D02*
X37407375Y-12265500D01*
X37554375Y-12192000D02*
G75*
G03*
X37554375Y-12192000I-73500J0D01*
G01*
X37486750Y-19040000D02*
X37633750Y-19187000D01*
X37633750Y-19040000D02*
X37486750Y-19187000D01*
X37633750Y-19113500D02*
G75*
G03*
X37633750Y-19113500I-73500J0D01*
G01*
X37645500Y-20691000D02*
X37792500Y-20838000D01*
X37792500Y-20691000D02*
X37645500Y-20838000D01*
X37792500Y-20764500D02*
G75*
G03*
X37792500Y-20764500I-73500J0D01*
G01*
X37724875Y-15230000D02*
X37871875Y-15377000D01*
X37871875Y-15230000D02*
X37724875Y-15377000D01*
X37871875Y-15303500D02*
G75*
G03*
X37871875Y-15303500I-73500J0D01*
G01*
X38121750Y-18786000D02*
X38268750Y-18933000D01*
X38268750Y-18786000D02*
X38121750Y-18933000D01*
X38268750Y-18859500D02*
G75*
G03*
X38268750Y-18859500I-73500J0D01*
G01*
X38201125Y-17135000D02*
X38348125Y-17282000D01*
X38348125Y-17135000D02*
X38201125Y-17282000D01*
X38348125Y-17208500D02*
G75*
G03*
X38348125Y-17208500I-73500J0D01*
G01*
X38359875Y-14976000D02*
X38506875Y-15123000D01*
X38506875Y-14976000D02*
X38359875Y-15123000D01*
X38506875Y-15049500D02*
G75*
G03*
X38506875Y-15049500I-73500J0D01*
G01*
X38439250Y-22850000D02*
X38586250Y-22997000D01*
X38586250Y-22850000D02*
X38439250Y-22997000D01*
X38586250Y-22923500D02*
G75*
G03*
X38586250Y-22923500I-73500J0D01*
G01*
X38677375Y-12372500D02*
X38824375Y-12519500D01*
X38824375Y-12372500D02*
X38677375Y-12519500D01*
X38824375Y-12446000D02*
G75*
G03*
X38824375Y-12446000I-73500J0D01*
G01*
X38836125Y-16881000D02*
X38983125Y-17028000D01*
X38983125Y-16881000D02*
X38836125Y-17028000D01*
X38983125Y-16954500D02*
G75*
G03*
X38983125Y-16954500I-73500J0D01*
G01*
X39074250Y-22596000D02*
X39221250Y-22743000D01*
X39221250Y-22596000D02*
X39074250Y-22743000D01*
X39221250Y-22669500D02*
G75*
G03*
X39221250Y-22669500I-73500J0D01*
G01*
X39312375Y-12118500D02*
X39459375Y-12265500D01*
X39459375Y-12118500D02*
X39312375Y-12265500D01*
X39459375Y-12192000D02*
G75*
G03*
X39459375Y-12192000I-73500J0D01*
G01*
X41534875Y-12372500D02*
X41681875Y-12519500D01*
X41681875Y-12372500D02*
X41534875Y-12519500D01*
X41681875Y-12446000D02*
G75*
G03*
X41681875Y-12446000I-73500J0D01*
G01*
X41534875Y-15230000D02*
X41681875Y-15377000D01*
X41681875Y-15230000D02*
X41534875Y-15377000D01*
X41681875Y-15303500D02*
G75*
G03*
X41681875Y-15303500I-73500J0D01*
G01*
X41534875Y-17135000D02*
X41681875Y-17282000D01*
X41681875Y-17135000D02*
X41534875Y-17282000D01*
X41681875Y-17208500D02*
G75*
G03*
X41681875Y-17208500I-73500J0D01*
G01*
X41534875Y-22850000D02*
X41681875Y-22997000D01*
X41681875Y-22850000D02*
X41534875Y-22997000D01*
X41681875Y-22923500D02*
G75*
G03*
X41681875Y-22923500I-73500J0D01*
G01*
X42169875Y-12118500D02*
X42316875Y-12265500D01*
X42316875Y-12118500D02*
X42169875Y-12265500D01*
X42316875Y-12192000D02*
G75*
G03*
X42316875Y-12192000I-73500J0D01*
G01*
X42169875Y-14976000D02*
X42316875Y-15123000D01*
X42316875Y-14976000D02*
X42169875Y-15123000D01*
X42316875Y-15049500D02*
G75*
G03*
X42316875Y-15049500I-73500J0D01*
G01*
X42169875Y-16881000D02*
X42316875Y-17028000D01*
X42316875Y-16881000D02*
X42169875Y-17028000D01*
X42316875Y-16954500D02*
G75*
G03*
X42316875Y-16954500I-73500J0D01*
G01*
X42169875Y-22596000D02*
X42316875Y-22743000D01*
X42316875Y-22596000D02*
X42169875Y-22743000D01*
X42316875Y-22669500D02*
G75*
G03*
X42316875Y-22669500I-73500J0D01*
G01*
X43439875Y-12372500D02*
X43586875Y-12519500D01*
X43586875Y-12372500D02*
X43439875Y-12519500D01*
X43586875Y-12446000D02*
G75*
G03*
X43586875Y-12446000I-73500J0D01*
G01*
X43439875Y-15230000D02*
X43586875Y-15377000D01*
X43586875Y-15230000D02*
X43439875Y-15377000D01*
X43586875Y-15303500D02*
G75*
G03*
X43586875Y-15303500I-73500J0D01*
G01*
X43439875Y-17135000D02*
X43586875Y-17282000D01*
X43586875Y-17135000D02*
X43439875Y-17282000D01*
X43586875Y-17208500D02*
G75*
G03*
X43586875Y-17208500I-73500J0D01*
G01*
X43439875Y-20945000D02*
X43586875Y-21092000D01*
X43586875Y-20945000D02*
X43439875Y-21092000D01*
X43586875Y-21018500D02*
G75*
G03*
X43586875Y-21018500I-73500J0D01*
G01*
X43439875Y-22850000D02*
X43586875Y-22997000D01*
X43586875Y-22850000D02*
X43439875Y-22997000D01*
X43586875Y-22923500D02*
G75*
G03*
X43586875Y-22923500I-73500J0D01*
G01*
X44074875Y-12118500D02*
X44221875Y-12265500D01*
X44221875Y-12118500D02*
X44074875Y-12265500D01*
X44221875Y-12192000D02*
G75*
G03*
X44221875Y-12192000I-73500J0D01*
G01*
X44074875Y-14976000D02*
X44221875Y-15123000D01*
X44221875Y-14976000D02*
X44074875Y-15123000D01*
X44221875Y-15049500D02*
G75*
G03*
X44221875Y-15049500I-73500J0D01*
G01*
X44074875Y-16881000D02*
X44221875Y-17028000D01*
X44221875Y-16881000D02*
X44074875Y-17028000D01*
X44221875Y-16954500D02*
G75*
G03*
X44221875Y-16954500I-73500J0D01*
G01*
X44074875Y-20691000D02*
X44221875Y-20838000D01*
X44221875Y-20691000D02*
X44074875Y-20838000D01*
X44221875Y-20764500D02*
G75*
G03*
X44221875Y-20764500I-73500J0D01*
G01*
X44074875Y-22596000D02*
X44221875Y-22743000D01*
X44221875Y-22596000D02*
X44074875Y-22743000D01*
X44221875Y-22669500D02*
G75*
G03*
X44221875Y-22669500I-73500J0D01*
G01*
X45344875Y-12372500D02*
X45491875Y-12519500D01*
X45491875Y-12372500D02*
X45344875Y-12519500D01*
X45491875Y-12446000D02*
G75*
G03*
X45491875Y-12446000I-73500J0D01*
G01*
X45344875Y-15230000D02*
X45491875Y-15377000D01*
X45491875Y-15230000D02*
X45344875Y-15377000D01*
X45491875Y-15303500D02*
G75*
G03*
X45491875Y-15303500I-73500J0D01*
G01*
X45344875Y-17135000D02*
X45491875Y-17282000D01*
X45491875Y-17135000D02*
X45344875Y-17282000D01*
X45491875Y-17208500D02*
G75*
G03*
X45491875Y-17208500I-73500J0D01*
G01*
X45344875Y-22850000D02*
X45491875Y-22997000D01*
X45491875Y-22850000D02*
X45344875Y-22997000D01*
X45491875Y-22923500D02*
G75*
G03*
X45491875Y-22923500I-73500J0D01*
G01*
X45979875Y-12118500D02*
X46126875Y-12265500D01*
X46126875Y-12118500D02*
X45979875Y-12265500D01*
X46126875Y-12192000D02*
G75*
G03*
X46126875Y-12192000I-73500J0D01*
G01*
X45979875Y-14976000D02*
X46126875Y-15123000D01*
X46126875Y-14976000D02*
X45979875Y-15123000D01*
X46126875Y-15049500D02*
G75*
G03*
X46126875Y-15049500I-73500J0D01*
G01*
X45979875Y-16881000D02*
X46126875Y-17028000D01*
X46126875Y-16881000D02*
X45979875Y-17028000D01*
X46126875Y-16954500D02*
G75*
G03*
X46126875Y-16954500I-73500J0D01*
G01*
X45979875Y-22596000D02*
X46126875Y-22743000D01*
X46126875Y-22596000D02*
X45979875Y-22743000D01*
X46126875Y-22669500D02*
G75*
G03*
X46126875Y-22669500I-73500J0D01*
G01*
D11*
X3903869Y-24762976D02*
X3903869Y-24562976D01*
X3951488Y-24562976D01*
X3980059Y-24572500D01*
X3999107Y-24591548D01*
X4008631Y-24610595D01*
X4018155Y-24648690D01*
X4018155Y-24677262D01*
X4008631Y-24715357D01*
X3999107Y-24734405D01*
X3980059Y-24753452D01*
X3951488Y-24762976D01*
X3903869Y-24762976D01*
X4103869Y-24762976D02*
X4103869Y-24629643D01*
X4103869Y-24667738D02*
X4113393Y-24648690D01*
X4122917Y-24639167D01*
X4141964Y-24629643D01*
X4161012Y-24629643D01*
X4227679Y-24762976D02*
X4227679Y-24629643D01*
X4227679Y-24562976D02*
X4218155Y-24572500D01*
X4227679Y-24582024D01*
X4237202Y-24572500D01*
X4227679Y-24562976D01*
X4227679Y-24582024D01*
X4351488Y-24762976D02*
X4332440Y-24753452D01*
X4322917Y-24734405D01*
X4322917Y-24562976D01*
X4456250Y-24762976D02*
X4437202Y-24753452D01*
X4427679Y-24734405D01*
X4427679Y-24562976D01*
X4684821Y-24762976D02*
X4684821Y-24562976D01*
X4751488Y-24705833D01*
X4818155Y-24562976D01*
X4818155Y-24762976D01*
X4999107Y-24762976D02*
X4999107Y-24658214D01*
X4989583Y-24639167D01*
X4970536Y-24629643D01*
X4932440Y-24629643D01*
X4913393Y-24639167D01*
X4999107Y-24753452D02*
X4980060Y-24762976D01*
X4932440Y-24762976D01*
X4913393Y-24753452D01*
X4903869Y-24734405D01*
X4903869Y-24715357D01*
X4913393Y-24696309D01*
X4932440Y-24686786D01*
X4980060Y-24686786D01*
X4999107Y-24677262D01*
X5094345Y-24629643D02*
X5094345Y-24829643D01*
X5094345Y-24639167D02*
X5113393Y-24629643D01*
X5151488Y-24629643D01*
X5170536Y-24639167D01*
X5180060Y-24648690D01*
X5189583Y-24667738D01*
X5189583Y-24724881D01*
X5180060Y-24743928D01*
X5170536Y-24753452D01*
X5151488Y-24762976D01*
X5113393Y-24762976D01*
X5094345Y-24753452D01*
X5275298Y-24743928D02*
X5284821Y-24753452D01*
X5275298Y-24762976D01*
X5265774Y-24753452D01*
X5275298Y-24743928D01*
X5275298Y-24762976D01*
X5275298Y-24639167D02*
X5284821Y-24648690D01*
X5275298Y-24658214D01*
X5265774Y-24648690D01*
X5275298Y-24639167D01*
X5275298Y-24658214D01*
D12*
X3606250Y-25072500D02*
X3646250Y-25112500D01*
X3646250Y-25072500D02*
X3606250Y-25112500D01*
D11*
X3941964Y-24982976D02*
X3961012Y-24982976D01*
X3980059Y-24992500D01*
X3989583Y-25002024D01*
X3999107Y-25021071D01*
X4008631Y-25059167D01*
X4008631Y-25106786D01*
X3999107Y-25144881D01*
X3989583Y-25163928D01*
X3980059Y-25173452D01*
X3961012Y-25182976D01*
X3941964Y-25182976D01*
X3922917Y-25173452D01*
X3913393Y-25163928D01*
X3903869Y-25144881D01*
X3894345Y-25106786D01*
X3894345Y-25059167D01*
X3903869Y-25021071D01*
X3913393Y-25002024D01*
X3922917Y-24992500D01*
X3941964Y-24982976D01*
X4094345Y-25163928D02*
X4103869Y-25173452D01*
X4094345Y-25182976D01*
X4084821Y-25173452D01*
X4094345Y-25163928D01*
X4094345Y-25182976D01*
X4275298Y-25049643D02*
X4275298Y-25182976D01*
X4227679Y-24973452D02*
X4180059Y-25116309D01*
X4303869Y-25116309D01*
X4418155Y-24982976D02*
X4437202Y-24982976D01*
X4456250Y-24992500D01*
X4465774Y-25002024D01*
X4475298Y-25021071D01*
X4484821Y-25059167D01*
X4484821Y-25106786D01*
X4475298Y-25144881D01*
X4465774Y-25163928D01*
X4456250Y-25173452D01*
X4437202Y-25182976D01*
X4418155Y-25182976D01*
X4399107Y-25173452D01*
X4389583Y-25163928D01*
X4380060Y-25144881D01*
X4370536Y-25106786D01*
X4370536Y-25059167D01*
X4380060Y-25021071D01*
X4389583Y-25002024D01*
X4399107Y-24992500D01*
X4418155Y-24982976D01*
X4608631Y-24982976D02*
X4627679Y-24982976D01*
X4646726Y-24992500D01*
X4656250Y-25002024D01*
X4665774Y-25021071D01*
X4675298Y-25059167D01*
X4675298Y-25106786D01*
X4665774Y-25144881D01*
X4656250Y-25163928D01*
X4646726Y-25173452D01*
X4627679Y-25182976D01*
X4608631Y-25182976D01*
X4589583Y-25173452D01*
X4580060Y-25163928D01*
X4570536Y-25144881D01*
X4561012Y-25106786D01*
X4561012Y-25059167D01*
X4570536Y-25021071D01*
X4580060Y-25002024D01*
X4589583Y-24992500D01*
X4608631Y-24982976D01*
X4761012Y-25182976D02*
X4761012Y-25049643D01*
X4761012Y-25068690D02*
X4770536Y-25059167D01*
X4789583Y-25049643D01*
X4818155Y-25049643D01*
X4837202Y-25059167D01*
X4846726Y-25078214D01*
X4846726Y-25182976D01*
X4846726Y-25078214D02*
X4856250Y-25059167D01*
X4875298Y-25049643D01*
X4903869Y-25049643D01*
X4922917Y-25059167D01*
X4932440Y-25078214D01*
X4932440Y-25182976D01*
X5027679Y-25182976D02*
X5027679Y-25049643D01*
X5027679Y-25068690D02*
X5037202Y-25059167D01*
X5056250Y-25049643D01*
X5084821Y-25049643D01*
X5103869Y-25059167D01*
X5113393Y-25078214D01*
X5113393Y-25182976D01*
X5113393Y-25078214D02*
X5122917Y-25059167D01*
X5141964Y-25049643D01*
X5170536Y-25049643D01*
X5189583Y-25059167D01*
X5199107Y-25078214D01*
X5199107Y-25182976D01*
X5589583Y-24973452D02*
X5418155Y-25230595D01*
X5846726Y-24982976D02*
X5865774Y-24982976D01*
X5884821Y-24992500D01*
X5894345Y-25002024D01*
X5903869Y-25021071D01*
X5913393Y-25059167D01*
X5913393Y-25106786D01*
X5903869Y-25144881D01*
X5894345Y-25163928D01*
X5884821Y-25173452D01*
X5865774Y-25182976D01*
X5846726Y-25182976D01*
X5827678Y-25173452D01*
X5818155Y-25163928D01*
X5808631Y-25144881D01*
X5799107Y-25106786D01*
X5799107Y-25059167D01*
X5808631Y-25021071D01*
X5818155Y-25002024D01*
X5827678Y-24992500D01*
X5846726Y-24982976D01*
X5999107Y-25163928D02*
X6008631Y-25173452D01*
X5999107Y-25182976D01*
X5989583Y-25173452D01*
X5999107Y-25163928D01*
X5999107Y-25182976D01*
X6132440Y-24982976D02*
X6151488Y-24982976D01*
X6170536Y-24992500D01*
X6180059Y-25002024D01*
X6189583Y-25021071D01*
X6199107Y-25059167D01*
X6199107Y-25106786D01*
X6189583Y-25144881D01*
X6180059Y-25163928D01*
X6170536Y-25173452D01*
X6151488Y-25182976D01*
X6132440Y-25182976D01*
X6113393Y-25173452D01*
X6103869Y-25163928D01*
X6094345Y-25144881D01*
X6084821Y-25106786D01*
X6084821Y-25059167D01*
X6094345Y-25021071D01*
X6103869Y-25002024D01*
X6113393Y-24992500D01*
X6132440Y-24982976D01*
X6389583Y-25182976D02*
X6275298Y-25182976D01*
X6332440Y-25182976D02*
X6332440Y-24982976D01*
X6313393Y-25011548D01*
X6294345Y-25030595D01*
X6275298Y-25040119D01*
X6570536Y-24982976D02*
X6475298Y-24982976D01*
X6465774Y-25078214D01*
X6475298Y-25068690D01*
X6494345Y-25059167D01*
X6541964Y-25059167D01*
X6561012Y-25068690D01*
X6570536Y-25078214D01*
X6580059Y-25097262D01*
X6580059Y-25144881D01*
X6570536Y-25163928D01*
X6561012Y-25173452D01*
X6541964Y-25182976D01*
X6494345Y-25182976D01*
X6475298Y-25173452D01*
X6465774Y-25163928D01*
X6646726Y-24982976D02*
X6780059Y-24982976D01*
X6694345Y-25182976D01*
X6846726Y-24982976D02*
X6846726Y-25021071D01*
X6922917Y-24982976D02*
X6922917Y-25021071D01*
X7218155Y-25259167D02*
X7208631Y-25249643D01*
X7189583Y-25221071D01*
X7180059Y-25202024D01*
X7170536Y-25173452D01*
X7161012Y-25125833D01*
X7161012Y-25087738D01*
X7170536Y-25040119D01*
X7180059Y-25011548D01*
X7189583Y-24992500D01*
X7208631Y-24963928D01*
X7218155Y-24954405D01*
X7399107Y-25182976D02*
X7284821Y-25182976D01*
X7341964Y-25182976D02*
X7341964Y-24982976D01*
X7322917Y-25011548D01*
X7303869Y-25030595D01*
X7284821Y-25040119D01*
X7465774Y-24982976D02*
X7599107Y-24982976D01*
X7513393Y-25182976D01*
X7684821Y-25182976D02*
X7722917Y-25182976D01*
X7741964Y-25173452D01*
X7751488Y-25163928D01*
X7770536Y-25135357D01*
X7780059Y-25097262D01*
X7780059Y-25021071D01*
X7770536Y-25002024D01*
X7761012Y-24992500D01*
X7741964Y-24982976D01*
X7703869Y-24982976D01*
X7684821Y-24992500D01*
X7675298Y-25002024D01*
X7665774Y-25021071D01*
X7665774Y-25068690D01*
X7675298Y-25087738D01*
X7684821Y-25097262D01*
X7703869Y-25106786D01*
X7741964Y-25106786D01*
X7761012Y-25097262D01*
X7770536Y-25087738D01*
X7780059Y-25068690D01*
X8018155Y-25182976D02*
X8018155Y-24982976D01*
X8103869Y-25182976D02*
X8103869Y-25078214D01*
X8094345Y-25059167D01*
X8075298Y-25049643D01*
X8046726Y-25049643D01*
X8027678Y-25059167D01*
X8018155Y-25068690D01*
X8227678Y-25182976D02*
X8208631Y-25173452D01*
X8199107Y-25163928D01*
X8189583Y-25144881D01*
X8189583Y-25087738D01*
X8199107Y-25068690D01*
X8208631Y-25059167D01*
X8227678Y-25049643D01*
X8256250Y-25049643D01*
X8275298Y-25059167D01*
X8284821Y-25068690D01*
X8294345Y-25087738D01*
X8294345Y-25144881D01*
X8284821Y-25163928D01*
X8275298Y-25173452D01*
X8256250Y-25182976D01*
X8227678Y-25182976D01*
X8408631Y-25182976D02*
X8389583Y-25173452D01*
X8380059Y-25154405D01*
X8380059Y-24982976D01*
X8561012Y-25173452D02*
X8541964Y-25182976D01*
X8503869Y-25182976D01*
X8484821Y-25173452D01*
X8475298Y-25154405D01*
X8475298Y-25078214D01*
X8484821Y-25059167D01*
X8503869Y-25049643D01*
X8541964Y-25049643D01*
X8561012Y-25059167D01*
X8570536Y-25078214D01*
X8570536Y-25097262D01*
X8475298Y-25116309D01*
X8646726Y-25173452D02*
X8665774Y-25182976D01*
X8703869Y-25182976D01*
X8722917Y-25173452D01*
X8732440Y-25154405D01*
X8732440Y-25144881D01*
X8722917Y-25125833D01*
X8703869Y-25116309D01*
X8675298Y-25116309D01*
X8656250Y-25106786D01*
X8646726Y-25087738D01*
X8646726Y-25078214D01*
X8656250Y-25059167D01*
X8675298Y-25049643D01*
X8703869Y-25049643D01*
X8722917Y-25059167D01*
X8799107Y-25259167D02*
X8808631Y-25249643D01*
X8827679Y-25221071D01*
X8837202Y-25202024D01*
X8846726Y-25173452D01*
X8856250Y-25125833D01*
X8856250Y-25087738D01*
X8846726Y-25040119D01*
X8837202Y-25011548D01*
X8827679Y-24992500D01*
X8808631Y-24963928D01*
X8799107Y-24954405D01*
D13*
X3646250Y-25356500D02*
G75*
G03*
X3646250Y-25356500I-30000J0D01*
G01*
D11*
X3941964Y-25246976D02*
X3961012Y-25246976D01*
X3980059Y-25256500D01*
X3989583Y-25266024D01*
X3999107Y-25285071D01*
X4008631Y-25323167D01*
X4008631Y-25370786D01*
X3999107Y-25408881D01*
X3989583Y-25427928D01*
X3980059Y-25437452D01*
X3961012Y-25446976D01*
X3941964Y-25446976D01*
X3922917Y-25437452D01*
X3913393Y-25427928D01*
X3903869Y-25408881D01*
X3894345Y-25370786D01*
X3894345Y-25323167D01*
X3903869Y-25285071D01*
X3913393Y-25266024D01*
X3922917Y-25256500D01*
X3941964Y-25246976D01*
X4094345Y-25427928D02*
X4103869Y-25437452D01*
X4094345Y-25446976D01*
X4084821Y-25437452D01*
X4094345Y-25427928D01*
X4094345Y-25446976D01*
X4275298Y-25246976D02*
X4237202Y-25246976D01*
X4218155Y-25256500D01*
X4208631Y-25266024D01*
X4189583Y-25294595D01*
X4180059Y-25332690D01*
X4180059Y-25408881D01*
X4189583Y-25427928D01*
X4199107Y-25437452D01*
X4218155Y-25446976D01*
X4256250Y-25446976D01*
X4275298Y-25437452D01*
X4284821Y-25427928D01*
X4294345Y-25408881D01*
X4294345Y-25361262D01*
X4284821Y-25342214D01*
X4275298Y-25332690D01*
X4256250Y-25323167D01*
X4218155Y-25323167D01*
X4199107Y-25332690D01*
X4189583Y-25342214D01*
X4180059Y-25361262D01*
X4418155Y-25246976D02*
X4437202Y-25246976D01*
X4456250Y-25256500D01*
X4465774Y-25266024D01*
X4475298Y-25285071D01*
X4484821Y-25323167D01*
X4484821Y-25370786D01*
X4475298Y-25408881D01*
X4465774Y-25427928D01*
X4456250Y-25437452D01*
X4437202Y-25446976D01*
X4418155Y-25446976D01*
X4399107Y-25437452D01*
X4389583Y-25427928D01*
X4380060Y-25408881D01*
X4370536Y-25370786D01*
X4370536Y-25323167D01*
X4380060Y-25285071D01*
X4389583Y-25266024D01*
X4399107Y-25256500D01*
X4418155Y-25246976D01*
X4608631Y-25246976D02*
X4627679Y-25246976D01*
X4646726Y-25256500D01*
X4656250Y-25266024D01*
X4665774Y-25285071D01*
X4675298Y-25323167D01*
X4675298Y-25370786D01*
X4665774Y-25408881D01*
X4656250Y-25427928D01*
X4646726Y-25437452D01*
X4627679Y-25446976D01*
X4608631Y-25446976D01*
X4589583Y-25437452D01*
X4580060Y-25427928D01*
X4570536Y-25408881D01*
X4561012Y-25370786D01*
X4561012Y-25323167D01*
X4570536Y-25285071D01*
X4580060Y-25266024D01*
X4589583Y-25256500D01*
X4608631Y-25246976D01*
X4761012Y-25446976D02*
X4761012Y-25313643D01*
X4761012Y-25332690D02*
X4770536Y-25323167D01*
X4789583Y-25313643D01*
X4818155Y-25313643D01*
X4837202Y-25323167D01*
X4846726Y-25342214D01*
X4846726Y-25446976D01*
X4846726Y-25342214D02*
X4856250Y-25323167D01*
X4875298Y-25313643D01*
X4903869Y-25313643D01*
X4922917Y-25323167D01*
X4932440Y-25342214D01*
X4932440Y-25446976D01*
X5027679Y-25446976D02*
X5027679Y-25313643D01*
X5027679Y-25332690D02*
X5037202Y-25323167D01*
X5056250Y-25313643D01*
X5084821Y-25313643D01*
X5103869Y-25323167D01*
X5113393Y-25342214D01*
X5113393Y-25446976D01*
X5113393Y-25342214D02*
X5122917Y-25323167D01*
X5141964Y-25313643D01*
X5170536Y-25313643D01*
X5189583Y-25323167D01*
X5199107Y-25342214D01*
X5199107Y-25446976D01*
X5589583Y-25237452D02*
X5418155Y-25494595D01*
X5846726Y-25246976D02*
X5865774Y-25246976D01*
X5884821Y-25256500D01*
X5894345Y-25266024D01*
X5903869Y-25285071D01*
X5913393Y-25323167D01*
X5913393Y-25370786D01*
X5903869Y-25408881D01*
X5894345Y-25427928D01*
X5884821Y-25437452D01*
X5865774Y-25446976D01*
X5846726Y-25446976D01*
X5827678Y-25437452D01*
X5818155Y-25427928D01*
X5808631Y-25408881D01*
X5799107Y-25370786D01*
X5799107Y-25323167D01*
X5808631Y-25285071D01*
X5818155Y-25266024D01*
X5827678Y-25256500D01*
X5846726Y-25246976D01*
X5999107Y-25427928D02*
X6008631Y-25437452D01*
X5999107Y-25446976D01*
X5989583Y-25437452D01*
X5999107Y-25427928D01*
X5999107Y-25446976D01*
X6132440Y-25246976D02*
X6151488Y-25246976D01*
X6170536Y-25256500D01*
X6180059Y-25266024D01*
X6189583Y-25285071D01*
X6199107Y-25323167D01*
X6199107Y-25370786D01*
X6189583Y-25408881D01*
X6180059Y-25427928D01*
X6170536Y-25437452D01*
X6151488Y-25446976D01*
X6132440Y-25446976D01*
X6113393Y-25437452D01*
X6103869Y-25427928D01*
X6094345Y-25408881D01*
X6084821Y-25370786D01*
X6084821Y-25323167D01*
X6094345Y-25285071D01*
X6103869Y-25266024D01*
X6113393Y-25256500D01*
X6132440Y-25246976D01*
X6275298Y-25266024D02*
X6284821Y-25256500D01*
X6303869Y-25246976D01*
X6351488Y-25246976D01*
X6370536Y-25256500D01*
X6380059Y-25266024D01*
X6389583Y-25285071D01*
X6389583Y-25304119D01*
X6380059Y-25332690D01*
X6265774Y-25446976D01*
X6389583Y-25446976D01*
X6456250Y-25246976D02*
X6580059Y-25246976D01*
X6513393Y-25323167D01*
X6541964Y-25323167D01*
X6561012Y-25332690D01*
X6570536Y-25342214D01*
X6580059Y-25361262D01*
X6580059Y-25408881D01*
X6570536Y-25427928D01*
X6561012Y-25437452D01*
X6541964Y-25446976D01*
X6484821Y-25446976D01*
X6465774Y-25437452D01*
X6456250Y-25427928D01*
X6751488Y-25246976D02*
X6713393Y-25246976D01*
X6694345Y-25256500D01*
X6684821Y-25266024D01*
X6665774Y-25294595D01*
X6656250Y-25332690D01*
X6656250Y-25408881D01*
X6665774Y-25427928D01*
X6675298Y-25437452D01*
X6694345Y-25446976D01*
X6732440Y-25446976D01*
X6751488Y-25437452D01*
X6761012Y-25427928D01*
X6770536Y-25408881D01*
X6770536Y-25361262D01*
X6761012Y-25342214D01*
X6751488Y-25332690D01*
X6732440Y-25323167D01*
X6694345Y-25323167D01*
X6675298Y-25332690D01*
X6665774Y-25342214D01*
X6656250Y-25361262D01*
X6846726Y-25246976D02*
X6846726Y-25285071D01*
X6922917Y-25246976D02*
X6922917Y-25285071D01*
X7218155Y-25523167D02*
X7208631Y-25513643D01*
X7189583Y-25485071D01*
X7180059Y-25466024D01*
X7170536Y-25437452D01*
X7161012Y-25389833D01*
X7161012Y-25351738D01*
X7170536Y-25304119D01*
X7180059Y-25275548D01*
X7189583Y-25256500D01*
X7208631Y-25227928D01*
X7218155Y-25218405D01*
X7332440Y-25246976D02*
X7351488Y-25246976D01*
X7370536Y-25256500D01*
X7380059Y-25266024D01*
X7389583Y-25285071D01*
X7399107Y-25323167D01*
X7399107Y-25370786D01*
X7389583Y-25408881D01*
X7380059Y-25427928D01*
X7370536Y-25437452D01*
X7351488Y-25446976D01*
X7332440Y-25446976D01*
X7313393Y-25437452D01*
X7303869Y-25427928D01*
X7294345Y-25408881D01*
X7284821Y-25370786D01*
X7284821Y-25323167D01*
X7294345Y-25285071D01*
X7303869Y-25266024D01*
X7313393Y-25256500D01*
X7332440Y-25246976D01*
X7637202Y-25446976D02*
X7637202Y-25246976D01*
X7722917Y-25446976D02*
X7722917Y-25342214D01*
X7713393Y-25323167D01*
X7694345Y-25313643D01*
X7665774Y-25313643D01*
X7646726Y-25323167D01*
X7637202Y-25332690D01*
X7846726Y-25446976D02*
X7827678Y-25437452D01*
X7818155Y-25427928D01*
X7808631Y-25408881D01*
X7808631Y-25351738D01*
X7818155Y-25332690D01*
X7827678Y-25323167D01*
X7846726Y-25313643D01*
X7875298Y-25313643D01*
X7894345Y-25323167D01*
X7903869Y-25332690D01*
X7913393Y-25351738D01*
X7913393Y-25408881D01*
X7903869Y-25427928D01*
X7894345Y-25437452D01*
X7875298Y-25446976D01*
X7846726Y-25446976D01*
X8027678Y-25446976D02*
X8008631Y-25437452D01*
X7999107Y-25418405D01*
X7999107Y-25246976D01*
X8180059Y-25437452D02*
X8161012Y-25446976D01*
X8122917Y-25446976D01*
X8103869Y-25437452D01*
X8094345Y-25418405D01*
X8094345Y-25342214D01*
X8103869Y-25323167D01*
X8122917Y-25313643D01*
X8161012Y-25313643D01*
X8180059Y-25323167D01*
X8189583Y-25342214D01*
X8189583Y-25361262D01*
X8094345Y-25380309D01*
X8265774Y-25437452D02*
X8284821Y-25446976D01*
X8322917Y-25446976D01*
X8341964Y-25437452D01*
X8351488Y-25418405D01*
X8351488Y-25408881D01*
X8341964Y-25389833D01*
X8322917Y-25380309D01*
X8294345Y-25380309D01*
X8275298Y-25370786D01*
X8265774Y-25351738D01*
X8265774Y-25342214D01*
X8275298Y-25323167D01*
X8294345Y-25313643D01*
X8322917Y-25313643D01*
X8341964Y-25323167D01*
X8589583Y-25370786D02*
X8741964Y-25370786D01*
X8665774Y-25446976D02*
X8665774Y-25294595D01*
X9075298Y-25313643D02*
X9075298Y-25446976D01*
X9027679Y-25237452D02*
X8980060Y-25380309D01*
X9103869Y-25380309D01*
X9322917Y-25437452D02*
X9341964Y-25446976D01*
X9380060Y-25446976D01*
X9399107Y-25437452D01*
X9408631Y-25418405D01*
X9408631Y-25408881D01*
X9399107Y-25389833D01*
X9380060Y-25380309D01*
X9351488Y-25380309D01*
X9332440Y-25370786D01*
X9322917Y-25351738D01*
X9322917Y-25342214D01*
X9332440Y-25323167D01*
X9351488Y-25313643D01*
X9380060Y-25313643D01*
X9399107Y-25323167D01*
X9522917Y-25446976D02*
X9503869Y-25437452D01*
X9494345Y-25418405D01*
X9494345Y-25246976D01*
X9627679Y-25446976D02*
X9608631Y-25437452D01*
X9599107Y-25427928D01*
X9589583Y-25408881D01*
X9589583Y-25351738D01*
X9599107Y-25332690D01*
X9608631Y-25323167D01*
X9627679Y-25313643D01*
X9656250Y-25313643D01*
X9675298Y-25323167D01*
X9684821Y-25332690D01*
X9694345Y-25351738D01*
X9694345Y-25408881D01*
X9684821Y-25427928D01*
X9675298Y-25437452D01*
X9656250Y-25446976D01*
X9627679Y-25446976D01*
X9751488Y-25313643D02*
X9827679Y-25313643D01*
X9780060Y-25246976D02*
X9780060Y-25418405D01*
X9789583Y-25437452D01*
X9808631Y-25446976D01*
X9827679Y-25446976D01*
X9884821Y-25437452D02*
X9903869Y-25446976D01*
X9941964Y-25446976D01*
X9961012Y-25437452D01*
X9970536Y-25418405D01*
X9970536Y-25408881D01*
X9961012Y-25389833D01*
X9941964Y-25380309D01*
X9913393Y-25380309D01*
X9894345Y-25370786D01*
X9884821Y-25351738D01*
X9884821Y-25342214D01*
X9894345Y-25323167D01*
X9913393Y-25313643D01*
X9941964Y-25313643D01*
X9961012Y-25323167D01*
X10037202Y-25523167D02*
X10046726Y-25513643D01*
X10065774Y-25485071D01*
X10075298Y-25466024D01*
X10084821Y-25437452D01*
X10094345Y-25389833D01*
X10094345Y-25351738D01*
X10084821Y-25304119D01*
X10075298Y-25275548D01*
X10065774Y-25256500D01*
X10046726Y-25227928D01*
X10037202Y-25218405D01*
D14*
X3613750Y-25588000D02*
X3613750Y-25653000D01*
X3581250Y-25620500D02*
X3646250Y-25620500D01*
D11*
X3941964Y-25510976D02*
X3961012Y-25510976D01*
X3980059Y-25520500D01*
X3989583Y-25530024D01*
X3999107Y-25549071D01*
X4008631Y-25587167D01*
X4008631Y-25634786D01*
X3999107Y-25672881D01*
X3989583Y-25691928D01*
X3980059Y-25701452D01*
X3961012Y-25710976D01*
X3941964Y-25710976D01*
X3922917Y-25701452D01*
X3913393Y-25691928D01*
X3903869Y-25672881D01*
X3894345Y-25634786D01*
X3894345Y-25587167D01*
X3903869Y-25549071D01*
X3913393Y-25530024D01*
X3922917Y-25520500D01*
X3941964Y-25510976D01*
X4094345Y-25691928D02*
X4103869Y-25701452D01*
X4094345Y-25710976D01*
X4084821Y-25701452D01*
X4094345Y-25691928D01*
X4094345Y-25710976D01*
X4275298Y-25510976D02*
X4237202Y-25510976D01*
X4218155Y-25520500D01*
X4208631Y-25530024D01*
X4189583Y-25558595D01*
X4180059Y-25596690D01*
X4180059Y-25672881D01*
X4189583Y-25691928D01*
X4199107Y-25701452D01*
X4218155Y-25710976D01*
X4256250Y-25710976D01*
X4275298Y-25701452D01*
X4284821Y-25691928D01*
X4294345Y-25672881D01*
X4294345Y-25625262D01*
X4284821Y-25606214D01*
X4275298Y-25596690D01*
X4256250Y-25587167D01*
X4218155Y-25587167D01*
X4199107Y-25596690D01*
X4189583Y-25606214D01*
X4180059Y-25625262D01*
X4475298Y-25510976D02*
X4380060Y-25510976D01*
X4370536Y-25606214D01*
X4380060Y-25596690D01*
X4399107Y-25587167D01*
X4446726Y-25587167D01*
X4465774Y-25596690D01*
X4475298Y-25606214D01*
X4484821Y-25625262D01*
X4484821Y-25672881D01*
X4475298Y-25691928D01*
X4465774Y-25701452D01*
X4446726Y-25710976D01*
X4399107Y-25710976D01*
X4380060Y-25701452D01*
X4370536Y-25691928D01*
X4608631Y-25510976D02*
X4627679Y-25510976D01*
X4646726Y-25520500D01*
X4656250Y-25530024D01*
X4665774Y-25549071D01*
X4675298Y-25587167D01*
X4675298Y-25634786D01*
X4665774Y-25672881D01*
X4656250Y-25691928D01*
X4646726Y-25701452D01*
X4627679Y-25710976D01*
X4608631Y-25710976D01*
X4589583Y-25701452D01*
X4580060Y-25691928D01*
X4570536Y-25672881D01*
X4561012Y-25634786D01*
X4561012Y-25587167D01*
X4570536Y-25549071D01*
X4580060Y-25530024D01*
X4589583Y-25520500D01*
X4608631Y-25510976D01*
X4761012Y-25710976D02*
X4761012Y-25577643D01*
X4761012Y-25596690D02*
X4770536Y-25587167D01*
X4789583Y-25577643D01*
X4818155Y-25577643D01*
X4837202Y-25587167D01*
X4846726Y-25606214D01*
X4846726Y-25710976D01*
X4846726Y-25606214D02*
X4856250Y-25587167D01*
X4875298Y-25577643D01*
X4903869Y-25577643D01*
X4922917Y-25587167D01*
X4932440Y-25606214D01*
X4932440Y-25710976D01*
X5027679Y-25710976D02*
X5027679Y-25577643D01*
X5027679Y-25596690D02*
X5037202Y-25587167D01*
X5056250Y-25577643D01*
X5084821Y-25577643D01*
X5103869Y-25587167D01*
X5113393Y-25606214D01*
X5113393Y-25710976D01*
X5113393Y-25606214D02*
X5122917Y-25587167D01*
X5141964Y-25577643D01*
X5170536Y-25577643D01*
X5189583Y-25587167D01*
X5199107Y-25606214D01*
X5199107Y-25710976D01*
X5589583Y-25501452D02*
X5418155Y-25758595D01*
X5846726Y-25510976D02*
X5865774Y-25510976D01*
X5884821Y-25520500D01*
X5894345Y-25530024D01*
X5903869Y-25549071D01*
X5913393Y-25587167D01*
X5913393Y-25634786D01*
X5903869Y-25672881D01*
X5894345Y-25691928D01*
X5884821Y-25701452D01*
X5865774Y-25710976D01*
X5846726Y-25710976D01*
X5827678Y-25701452D01*
X5818155Y-25691928D01*
X5808631Y-25672881D01*
X5799107Y-25634786D01*
X5799107Y-25587167D01*
X5808631Y-25549071D01*
X5818155Y-25530024D01*
X5827678Y-25520500D01*
X5846726Y-25510976D01*
X5999107Y-25691928D02*
X6008631Y-25701452D01*
X5999107Y-25710976D01*
X5989583Y-25701452D01*
X5999107Y-25691928D01*
X5999107Y-25710976D01*
X6132440Y-25510976D02*
X6151488Y-25510976D01*
X6170536Y-25520500D01*
X6180059Y-25530024D01*
X6189583Y-25549071D01*
X6199107Y-25587167D01*
X6199107Y-25634786D01*
X6189583Y-25672881D01*
X6180059Y-25691928D01*
X6170536Y-25701452D01*
X6151488Y-25710976D01*
X6132440Y-25710976D01*
X6113393Y-25701452D01*
X6103869Y-25691928D01*
X6094345Y-25672881D01*
X6084821Y-25634786D01*
X6084821Y-25587167D01*
X6094345Y-25549071D01*
X6103869Y-25530024D01*
X6113393Y-25520500D01*
X6132440Y-25510976D01*
X6275298Y-25530024D02*
X6284821Y-25520500D01*
X6303869Y-25510976D01*
X6351488Y-25510976D01*
X6370536Y-25520500D01*
X6380059Y-25530024D01*
X6389583Y-25549071D01*
X6389583Y-25568119D01*
X6380059Y-25596690D01*
X6265774Y-25710976D01*
X6389583Y-25710976D01*
X6570536Y-25510976D02*
X6475298Y-25510976D01*
X6465774Y-25606214D01*
X6475298Y-25596690D01*
X6494345Y-25587167D01*
X6541964Y-25587167D01*
X6561012Y-25596690D01*
X6570536Y-25606214D01*
X6580059Y-25625262D01*
X6580059Y-25672881D01*
X6570536Y-25691928D01*
X6561012Y-25701452D01*
X6541964Y-25710976D01*
X6494345Y-25710976D01*
X6475298Y-25701452D01*
X6465774Y-25691928D01*
X6751488Y-25510976D02*
X6713393Y-25510976D01*
X6694345Y-25520500D01*
X6684821Y-25530024D01*
X6665774Y-25558595D01*
X6656250Y-25596690D01*
X6656250Y-25672881D01*
X6665774Y-25691928D01*
X6675298Y-25701452D01*
X6694345Y-25710976D01*
X6732440Y-25710976D01*
X6751488Y-25701452D01*
X6761012Y-25691928D01*
X6770536Y-25672881D01*
X6770536Y-25625262D01*
X6761012Y-25606214D01*
X6751488Y-25596690D01*
X6732440Y-25587167D01*
X6694345Y-25587167D01*
X6675298Y-25596690D01*
X6665774Y-25606214D01*
X6656250Y-25625262D01*
X6846726Y-25510976D02*
X6846726Y-25549071D01*
X6922917Y-25510976D02*
X6922917Y-25549071D01*
X7218155Y-25787167D02*
X7208631Y-25777643D01*
X7189583Y-25749071D01*
X7180059Y-25730024D01*
X7170536Y-25701452D01*
X7161012Y-25653833D01*
X7161012Y-25615738D01*
X7170536Y-25568119D01*
X7180059Y-25539548D01*
X7189583Y-25520500D01*
X7208631Y-25491928D01*
X7218155Y-25482405D01*
X7275298Y-25510976D02*
X7399107Y-25510976D01*
X7332440Y-25587167D01*
X7361012Y-25587167D01*
X7380059Y-25596690D01*
X7389583Y-25606214D01*
X7399107Y-25625262D01*
X7399107Y-25672881D01*
X7389583Y-25691928D01*
X7380059Y-25701452D01*
X7361012Y-25710976D01*
X7303869Y-25710976D01*
X7284821Y-25701452D01*
X7275298Y-25691928D01*
X7637202Y-25710976D02*
X7637202Y-25510976D01*
X7722917Y-25710976D02*
X7722917Y-25606214D01*
X7713393Y-25587167D01*
X7694345Y-25577643D01*
X7665774Y-25577643D01*
X7646726Y-25587167D01*
X7637202Y-25596690D01*
X7846726Y-25710976D02*
X7827678Y-25701452D01*
X7818155Y-25691928D01*
X7808631Y-25672881D01*
X7808631Y-25615738D01*
X7818155Y-25596690D01*
X7827678Y-25587167D01*
X7846726Y-25577643D01*
X7875298Y-25577643D01*
X7894345Y-25587167D01*
X7903869Y-25596690D01*
X7913393Y-25615738D01*
X7913393Y-25672881D01*
X7903869Y-25691928D01*
X7894345Y-25701452D01*
X7875298Y-25710976D01*
X7846726Y-25710976D01*
X8027678Y-25710976D02*
X8008631Y-25701452D01*
X7999107Y-25682405D01*
X7999107Y-25510976D01*
X8180059Y-25701452D02*
X8161012Y-25710976D01*
X8122917Y-25710976D01*
X8103869Y-25701452D01*
X8094345Y-25682405D01*
X8094345Y-25606214D01*
X8103869Y-25587167D01*
X8122917Y-25577643D01*
X8161012Y-25577643D01*
X8180059Y-25587167D01*
X8189583Y-25606214D01*
X8189583Y-25625262D01*
X8094345Y-25644309D01*
X8265774Y-25701452D02*
X8284821Y-25710976D01*
X8322917Y-25710976D01*
X8341964Y-25701452D01*
X8351488Y-25682405D01*
X8351488Y-25672881D01*
X8341964Y-25653833D01*
X8322917Y-25644309D01*
X8294345Y-25644309D01*
X8275298Y-25634786D01*
X8265774Y-25615738D01*
X8265774Y-25606214D01*
X8275298Y-25587167D01*
X8294345Y-25577643D01*
X8322917Y-25577643D01*
X8341964Y-25587167D01*
X8418155Y-25787167D02*
X8427679Y-25777643D01*
X8446726Y-25749071D01*
X8456250Y-25730024D01*
X8465774Y-25701452D01*
X8475298Y-25653833D01*
X8475298Y-25615738D01*
X8465774Y-25568119D01*
X8456250Y-25539548D01*
X8446726Y-25520500D01*
X8427679Y-25491928D01*
X8418155Y-25482405D01*
D10*
X3631606Y-25919856D02*
X3631606Y-25849144D01*
X3560894Y-25849144D01*
X3560894Y-25919856D01*
X3631606Y-25919856D01*
D11*
X4008631Y-25974976D02*
X3894345Y-25974976D01*
X3951488Y-25974976D02*
X3951488Y-25774976D01*
X3932440Y-25803548D01*
X3913393Y-25822595D01*
X3894345Y-25832119D01*
X4094345Y-25955928D02*
X4103869Y-25965452D01*
X4094345Y-25974976D01*
X4084821Y-25965452D01*
X4094345Y-25955928D01*
X4094345Y-25974976D01*
X4227679Y-25774976D02*
X4246726Y-25774976D01*
X4265774Y-25784500D01*
X4275298Y-25794024D01*
X4284821Y-25813071D01*
X4294345Y-25851167D01*
X4294345Y-25898786D01*
X4284821Y-25936881D01*
X4275298Y-25955928D01*
X4265774Y-25965452D01*
X4246726Y-25974976D01*
X4227679Y-25974976D01*
X4208631Y-25965452D01*
X4199107Y-25955928D01*
X4189583Y-25936881D01*
X4180059Y-25898786D01*
X4180059Y-25851167D01*
X4189583Y-25813071D01*
X4199107Y-25794024D01*
X4208631Y-25784500D01*
X4227679Y-25774976D01*
X4418155Y-25774976D02*
X4437202Y-25774976D01*
X4456250Y-25784500D01*
X4465774Y-25794024D01*
X4475298Y-25813071D01*
X4484821Y-25851167D01*
X4484821Y-25898786D01*
X4475298Y-25936881D01*
X4465774Y-25955928D01*
X4456250Y-25965452D01*
X4437202Y-25974976D01*
X4418155Y-25974976D01*
X4399107Y-25965452D01*
X4389583Y-25955928D01*
X4380060Y-25936881D01*
X4370536Y-25898786D01*
X4370536Y-25851167D01*
X4380060Y-25813071D01*
X4389583Y-25794024D01*
X4399107Y-25784500D01*
X4418155Y-25774976D01*
X4608631Y-25774976D02*
X4627679Y-25774976D01*
X4646726Y-25784500D01*
X4656250Y-25794024D01*
X4665774Y-25813071D01*
X4675298Y-25851167D01*
X4675298Y-25898786D01*
X4665774Y-25936881D01*
X4656250Y-25955928D01*
X4646726Y-25965452D01*
X4627679Y-25974976D01*
X4608631Y-25974976D01*
X4589583Y-25965452D01*
X4580060Y-25955928D01*
X4570536Y-25936881D01*
X4561012Y-25898786D01*
X4561012Y-25851167D01*
X4570536Y-25813071D01*
X4580060Y-25794024D01*
X4589583Y-25784500D01*
X4608631Y-25774976D01*
X4761012Y-25974976D02*
X4761012Y-25841643D01*
X4761012Y-25860690D02*
X4770536Y-25851167D01*
X4789583Y-25841643D01*
X4818155Y-25841643D01*
X4837202Y-25851167D01*
X4846726Y-25870214D01*
X4846726Y-25974976D01*
X4846726Y-25870214D02*
X4856250Y-25851167D01*
X4875298Y-25841643D01*
X4903869Y-25841643D01*
X4922917Y-25851167D01*
X4932440Y-25870214D01*
X4932440Y-25974976D01*
X5027679Y-25974976D02*
X5027679Y-25841643D01*
X5027679Y-25860690D02*
X5037202Y-25851167D01*
X5056250Y-25841643D01*
X5084821Y-25841643D01*
X5103869Y-25851167D01*
X5113393Y-25870214D01*
X5113393Y-25974976D01*
X5113393Y-25870214D02*
X5122917Y-25851167D01*
X5141964Y-25841643D01*
X5170536Y-25841643D01*
X5189583Y-25851167D01*
X5199107Y-25870214D01*
X5199107Y-25974976D01*
X5589583Y-25765452D02*
X5418155Y-26022595D01*
X5846726Y-25774976D02*
X5865774Y-25774976D01*
X5884821Y-25784500D01*
X5894345Y-25794024D01*
X5903869Y-25813071D01*
X5913393Y-25851167D01*
X5913393Y-25898786D01*
X5903869Y-25936881D01*
X5894345Y-25955928D01*
X5884821Y-25965452D01*
X5865774Y-25974976D01*
X5846726Y-25974976D01*
X5827678Y-25965452D01*
X5818155Y-25955928D01*
X5808631Y-25936881D01*
X5799107Y-25898786D01*
X5799107Y-25851167D01*
X5808631Y-25813071D01*
X5818155Y-25794024D01*
X5827678Y-25784500D01*
X5846726Y-25774976D01*
X5999107Y-25955928D02*
X6008631Y-25965452D01*
X5999107Y-25974976D01*
X5989583Y-25965452D01*
X5999107Y-25955928D01*
X5999107Y-25974976D01*
X6132440Y-25774976D02*
X6151488Y-25774976D01*
X6170536Y-25784500D01*
X6180059Y-25794024D01*
X6189583Y-25813071D01*
X6199107Y-25851167D01*
X6199107Y-25898786D01*
X6189583Y-25936881D01*
X6180059Y-25955928D01*
X6170536Y-25965452D01*
X6151488Y-25974976D01*
X6132440Y-25974976D01*
X6113393Y-25965452D01*
X6103869Y-25955928D01*
X6094345Y-25936881D01*
X6084821Y-25898786D01*
X6084821Y-25851167D01*
X6094345Y-25813071D01*
X6103869Y-25794024D01*
X6113393Y-25784500D01*
X6132440Y-25774976D01*
X6265774Y-25774976D02*
X6389583Y-25774976D01*
X6322917Y-25851167D01*
X6351488Y-25851167D01*
X6370536Y-25860690D01*
X6380059Y-25870214D01*
X6389583Y-25889262D01*
X6389583Y-25936881D01*
X6380059Y-25955928D01*
X6370536Y-25965452D01*
X6351488Y-25974976D01*
X6294345Y-25974976D01*
X6275298Y-25965452D01*
X6265774Y-25955928D01*
X6484821Y-25974976D02*
X6522917Y-25974976D01*
X6541964Y-25965452D01*
X6551488Y-25955928D01*
X6570536Y-25927357D01*
X6580059Y-25889262D01*
X6580059Y-25813071D01*
X6570536Y-25794024D01*
X6561012Y-25784500D01*
X6541964Y-25774976D01*
X6503869Y-25774976D01*
X6484821Y-25784500D01*
X6475298Y-25794024D01*
X6465774Y-25813071D01*
X6465774Y-25860690D01*
X6475298Y-25879738D01*
X6484821Y-25889262D01*
X6503869Y-25898786D01*
X6541964Y-25898786D01*
X6561012Y-25889262D01*
X6570536Y-25879738D01*
X6580059Y-25860690D01*
X6751488Y-25841643D02*
X6751488Y-25974976D01*
X6703869Y-25765452D02*
X6656250Y-25908309D01*
X6780059Y-25908309D01*
X6846726Y-25774976D02*
X6846726Y-25813071D01*
X6922917Y-25774976D02*
X6922917Y-25813071D01*
X7218155Y-26051167D02*
X7208631Y-26041643D01*
X7189583Y-26013071D01*
X7180059Y-25994024D01*
X7170536Y-25965452D01*
X7161012Y-25917833D01*
X7161012Y-25879738D01*
X7170536Y-25832119D01*
X7180059Y-25803548D01*
X7189583Y-25784500D01*
X7208631Y-25755928D01*
X7218155Y-25746405D01*
X7399107Y-25974976D02*
X7284821Y-25974976D01*
X7341964Y-25974976D02*
X7341964Y-25774976D01*
X7322917Y-25803548D01*
X7303869Y-25822595D01*
X7284821Y-25832119D01*
X7522917Y-25774976D02*
X7541964Y-25774976D01*
X7561012Y-25784500D01*
X7570536Y-25794024D01*
X7580059Y-25813071D01*
X7589583Y-25851167D01*
X7589583Y-25898786D01*
X7580059Y-25936881D01*
X7570536Y-25955928D01*
X7561012Y-25965452D01*
X7541964Y-25974976D01*
X7522917Y-25974976D01*
X7503869Y-25965452D01*
X7494345Y-25955928D01*
X7484821Y-25936881D01*
X7475298Y-25898786D01*
X7475298Y-25851167D01*
X7484821Y-25813071D01*
X7494345Y-25794024D01*
X7503869Y-25784500D01*
X7522917Y-25774976D01*
X7827678Y-25974976D02*
X7827678Y-25774976D01*
X7913393Y-25974976D02*
X7913393Y-25870214D01*
X7903869Y-25851167D01*
X7884821Y-25841643D01*
X7856250Y-25841643D01*
X7837202Y-25851167D01*
X7827678Y-25860690D01*
X8037202Y-25974976D02*
X8018155Y-25965452D01*
X8008631Y-25955928D01*
X7999107Y-25936881D01*
X7999107Y-25879738D01*
X8008631Y-25860690D01*
X8018155Y-25851167D01*
X8037202Y-25841643D01*
X8065774Y-25841643D01*
X8084821Y-25851167D01*
X8094345Y-25860690D01*
X8103869Y-25879738D01*
X8103869Y-25936881D01*
X8094345Y-25955928D01*
X8084821Y-25965452D01*
X8065774Y-25974976D01*
X8037202Y-25974976D01*
X8218155Y-25974976D02*
X8199107Y-25965452D01*
X8189583Y-25946405D01*
X8189583Y-25774976D01*
X8370536Y-25965452D02*
X8351488Y-25974976D01*
X8313393Y-25974976D01*
X8294345Y-25965452D01*
X8284821Y-25946405D01*
X8284821Y-25870214D01*
X8294345Y-25851167D01*
X8313393Y-25841643D01*
X8351488Y-25841643D01*
X8370536Y-25851167D01*
X8380059Y-25870214D01*
X8380059Y-25889262D01*
X8284821Y-25908309D01*
X8456250Y-25965452D02*
X8475298Y-25974976D01*
X8513393Y-25974976D01*
X8532440Y-25965452D01*
X8541964Y-25946405D01*
X8541964Y-25936881D01*
X8532440Y-25917833D01*
X8513393Y-25908309D01*
X8484821Y-25908309D01*
X8465774Y-25898786D01*
X8456250Y-25879738D01*
X8456250Y-25870214D01*
X8465774Y-25851167D01*
X8484821Y-25841643D01*
X8513393Y-25841643D01*
X8532440Y-25851167D01*
X8608631Y-26051167D02*
X8618155Y-26041643D01*
X8637202Y-26013071D01*
X8646726Y-25994024D01*
X8656250Y-25965452D01*
X8665774Y-25917833D01*
X8665774Y-25879738D01*
X8656250Y-25832119D01*
X8646726Y-25803548D01*
X8637202Y-25784500D01*
X8618155Y-25755928D01*
X8608631Y-25746405D01*
D15*
X3594250Y-26200500D02*
X3646250Y-26148500D01*
X3594250Y-26096500D01*
X3542250Y-26148500D01*
X3594250Y-26200500D01*
D11*
X4008631Y-26238976D02*
X3894345Y-26238976D01*
X3951488Y-26238976D02*
X3951488Y-26038976D01*
X3932440Y-26067548D01*
X3913393Y-26086595D01*
X3894345Y-26096119D01*
X4094345Y-26219928D02*
X4103869Y-26229452D01*
X4094345Y-26238976D01*
X4084821Y-26229452D01*
X4094345Y-26219928D01*
X4094345Y-26238976D01*
X4227679Y-26038976D02*
X4246726Y-26038976D01*
X4265774Y-26048500D01*
X4275298Y-26058024D01*
X4284821Y-26077071D01*
X4294345Y-26115167D01*
X4294345Y-26162786D01*
X4284821Y-26200881D01*
X4275298Y-26219928D01*
X4265774Y-26229452D01*
X4246726Y-26238976D01*
X4227679Y-26238976D01*
X4208631Y-26229452D01*
X4199107Y-26219928D01*
X4189583Y-26200881D01*
X4180059Y-26162786D01*
X4180059Y-26115167D01*
X4189583Y-26077071D01*
X4199107Y-26058024D01*
X4208631Y-26048500D01*
X4227679Y-26038976D01*
X4465774Y-26105643D02*
X4465774Y-26238976D01*
X4418155Y-26029452D02*
X4370536Y-26172309D01*
X4494345Y-26172309D01*
X4608631Y-26038976D02*
X4627679Y-26038976D01*
X4646726Y-26048500D01*
X4656250Y-26058024D01*
X4665774Y-26077071D01*
X4675298Y-26115167D01*
X4675298Y-26162786D01*
X4665774Y-26200881D01*
X4656250Y-26219928D01*
X4646726Y-26229452D01*
X4627679Y-26238976D01*
X4608631Y-26238976D01*
X4589583Y-26229452D01*
X4580060Y-26219928D01*
X4570536Y-26200881D01*
X4561012Y-26162786D01*
X4561012Y-26115167D01*
X4570536Y-26077071D01*
X4580060Y-26058024D01*
X4589583Y-26048500D01*
X4608631Y-26038976D01*
X4761012Y-26238976D02*
X4761012Y-26105643D01*
X4761012Y-26124690D02*
X4770536Y-26115167D01*
X4789583Y-26105643D01*
X4818155Y-26105643D01*
X4837202Y-26115167D01*
X4846726Y-26134214D01*
X4846726Y-26238976D01*
X4846726Y-26134214D02*
X4856250Y-26115167D01*
X4875298Y-26105643D01*
X4903869Y-26105643D01*
X4922917Y-26115167D01*
X4932440Y-26134214D01*
X4932440Y-26238976D01*
X5027679Y-26238976D02*
X5027679Y-26105643D01*
X5027679Y-26124690D02*
X5037202Y-26115167D01*
X5056250Y-26105643D01*
X5084821Y-26105643D01*
X5103869Y-26115167D01*
X5113393Y-26134214D01*
X5113393Y-26238976D01*
X5113393Y-26134214D02*
X5122917Y-26115167D01*
X5141964Y-26105643D01*
X5170536Y-26105643D01*
X5189583Y-26115167D01*
X5199107Y-26134214D01*
X5199107Y-26238976D01*
X5589583Y-26029452D02*
X5418155Y-26286595D01*
X5846726Y-26038976D02*
X5865774Y-26038976D01*
X5884821Y-26048500D01*
X5894345Y-26058024D01*
X5903869Y-26077071D01*
X5913393Y-26115167D01*
X5913393Y-26162786D01*
X5903869Y-26200881D01*
X5894345Y-26219928D01*
X5884821Y-26229452D01*
X5865774Y-26238976D01*
X5846726Y-26238976D01*
X5827678Y-26229452D01*
X5818155Y-26219928D01*
X5808631Y-26200881D01*
X5799107Y-26162786D01*
X5799107Y-26115167D01*
X5808631Y-26077071D01*
X5818155Y-26058024D01*
X5827678Y-26048500D01*
X5846726Y-26038976D01*
X5999107Y-26219928D02*
X6008631Y-26229452D01*
X5999107Y-26238976D01*
X5989583Y-26229452D01*
X5999107Y-26219928D01*
X5999107Y-26238976D01*
X6132440Y-26038976D02*
X6151488Y-26038976D01*
X6170536Y-26048500D01*
X6180059Y-26058024D01*
X6189583Y-26077071D01*
X6199107Y-26115167D01*
X6199107Y-26162786D01*
X6189583Y-26200881D01*
X6180059Y-26219928D01*
X6170536Y-26229452D01*
X6151488Y-26238976D01*
X6132440Y-26238976D01*
X6113393Y-26229452D01*
X6103869Y-26219928D01*
X6094345Y-26200881D01*
X6084821Y-26162786D01*
X6084821Y-26115167D01*
X6094345Y-26077071D01*
X6103869Y-26058024D01*
X6113393Y-26048500D01*
X6132440Y-26038976D01*
X6370536Y-26105643D02*
X6370536Y-26238976D01*
X6322917Y-26029452D02*
X6275298Y-26172309D01*
X6399107Y-26172309D01*
X6513393Y-26038976D02*
X6532440Y-26038976D01*
X6551488Y-26048500D01*
X6561012Y-26058024D01*
X6570536Y-26077071D01*
X6580059Y-26115167D01*
X6580059Y-26162786D01*
X6570536Y-26200881D01*
X6561012Y-26219928D01*
X6551488Y-26229452D01*
X6532440Y-26238976D01*
X6513393Y-26238976D01*
X6494345Y-26229452D01*
X6484821Y-26219928D01*
X6475298Y-26200881D01*
X6465774Y-26162786D01*
X6465774Y-26115167D01*
X6475298Y-26077071D01*
X6484821Y-26058024D01*
X6494345Y-26048500D01*
X6513393Y-26038976D01*
X6675298Y-26238976D02*
X6713393Y-26238976D01*
X6732440Y-26229452D01*
X6741964Y-26219928D01*
X6761012Y-26191357D01*
X6770536Y-26153262D01*
X6770536Y-26077071D01*
X6761012Y-26058024D01*
X6751488Y-26048500D01*
X6732440Y-26038976D01*
X6694345Y-26038976D01*
X6675298Y-26048500D01*
X6665774Y-26058024D01*
X6656250Y-26077071D01*
X6656250Y-26124690D01*
X6665774Y-26143738D01*
X6675298Y-26153262D01*
X6694345Y-26162786D01*
X6732440Y-26162786D01*
X6751488Y-26153262D01*
X6761012Y-26143738D01*
X6770536Y-26124690D01*
X6846726Y-26038976D02*
X6846726Y-26077071D01*
X6922917Y-26038976D02*
X6922917Y-26077071D01*
X7218155Y-26315167D02*
X7208631Y-26305643D01*
X7189583Y-26277071D01*
X7180059Y-26258024D01*
X7170536Y-26229452D01*
X7161012Y-26181833D01*
X7161012Y-26143738D01*
X7170536Y-26096119D01*
X7180059Y-26067548D01*
X7189583Y-26048500D01*
X7208631Y-26019928D01*
X7218155Y-26010405D01*
X7399107Y-26238976D02*
X7284821Y-26238976D01*
X7341964Y-26238976D02*
X7341964Y-26038976D01*
X7322917Y-26067548D01*
X7303869Y-26086595D01*
X7284821Y-26096119D01*
X7494345Y-26238976D02*
X7532440Y-26238976D01*
X7551488Y-26229452D01*
X7561012Y-26219928D01*
X7580059Y-26191357D01*
X7589583Y-26153262D01*
X7589583Y-26077071D01*
X7580059Y-26058024D01*
X7570536Y-26048500D01*
X7551488Y-26038976D01*
X7513393Y-26038976D01*
X7494345Y-26048500D01*
X7484821Y-26058024D01*
X7475298Y-26077071D01*
X7475298Y-26124690D01*
X7484821Y-26143738D01*
X7494345Y-26153262D01*
X7513393Y-26162786D01*
X7551488Y-26162786D01*
X7570536Y-26153262D01*
X7580059Y-26143738D01*
X7589583Y-26124690D01*
X7761012Y-26105643D02*
X7761012Y-26238976D01*
X7713393Y-26029452D02*
X7665774Y-26172309D01*
X7789583Y-26172309D01*
X8018155Y-26238976D02*
X8018155Y-26038976D01*
X8103869Y-26238976D02*
X8103869Y-26134214D01*
X8094345Y-26115167D01*
X8075298Y-26105643D01*
X8046726Y-26105643D01*
X8027678Y-26115167D01*
X8018155Y-26124690D01*
X8227678Y-26238976D02*
X8208631Y-26229452D01*
X8199107Y-26219928D01*
X8189583Y-26200881D01*
X8189583Y-26143738D01*
X8199107Y-26124690D01*
X8208631Y-26115167D01*
X8227678Y-26105643D01*
X8256250Y-26105643D01*
X8275298Y-26115167D01*
X8284821Y-26124690D01*
X8294345Y-26143738D01*
X8294345Y-26200881D01*
X8284821Y-26219928D01*
X8275298Y-26229452D01*
X8256250Y-26238976D01*
X8227678Y-26238976D01*
X8408631Y-26238976D02*
X8389583Y-26229452D01*
X8380059Y-26210405D01*
X8380059Y-26038976D01*
X8561012Y-26229452D02*
X8541964Y-26238976D01*
X8503869Y-26238976D01*
X8484821Y-26229452D01*
X8475298Y-26210405D01*
X8475298Y-26134214D01*
X8484821Y-26115167D01*
X8503869Y-26105643D01*
X8541964Y-26105643D01*
X8561012Y-26115167D01*
X8570536Y-26134214D01*
X8570536Y-26153262D01*
X8475298Y-26172309D01*
X8646726Y-26229452D02*
X8665774Y-26238976D01*
X8703869Y-26238976D01*
X8722917Y-26229452D01*
X8732440Y-26210405D01*
X8732440Y-26200881D01*
X8722917Y-26181833D01*
X8703869Y-26172309D01*
X8675298Y-26172309D01*
X8656250Y-26162786D01*
X8646726Y-26143738D01*
X8646726Y-26134214D01*
X8656250Y-26115167D01*
X8675298Y-26105643D01*
X8703869Y-26105643D01*
X8722917Y-26115167D01*
X8799107Y-26315167D02*
X8808631Y-26305643D01*
X8827679Y-26277071D01*
X8837202Y-26258024D01*
X8846726Y-26229452D01*
X8856250Y-26181833D01*
X8856250Y-26143738D01*
X8846726Y-26096119D01*
X8837202Y-26067548D01*
X8827679Y-26048500D01*
X8808631Y-26019928D01*
X8799107Y-26010405D01*
D16*
X3499250Y-26339000D02*
X3646250Y-26486000D01*
X3646250Y-26339000D02*
X3499250Y-26486000D01*
X3646250Y-26412500D02*
G75*
G03*
X3646250Y-26412500I-73500J0D01*
G01*
D11*
X4008631Y-26502976D02*
X3894345Y-26502976D01*
X3951488Y-26502976D02*
X3951488Y-26302976D01*
X3932440Y-26331548D01*
X3913393Y-26350595D01*
X3894345Y-26360119D01*
X4094345Y-26483928D02*
X4103869Y-26493452D01*
X4094345Y-26502976D01*
X4084821Y-26493452D01*
X4094345Y-26483928D01*
X4094345Y-26502976D01*
X4275298Y-26369643D02*
X4275298Y-26502976D01*
X4227679Y-26293452D02*
X4180059Y-26436309D01*
X4303869Y-26436309D01*
X4361012Y-26302976D02*
X4494345Y-26302976D01*
X4408631Y-26502976D01*
X4608631Y-26302976D02*
X4627679Y-26302976D01*
X4646726Y-26312500D01*
X4656250Y-26322024D01*
X4665774Y-26341071D01*
X4675298Y-26379167D01*
X4675298Y-26426786D01*
X4665774Y-26464881D01*
X4656250Y-26483928D01*
X4646726Y-26493452D01*
X4627679Y-26502976D01*
X4608631Y-26502976D01*
X4589583Y-26493452D01*
X4580060Y-26483928D01*
X4570536Y-26464881D01*
X4561012Y-26426786D01*
X4561012Y-26379167D01*
X4570536Y-26341071D01*
X4580060Y-26322024D01*
X4589583Y-26312500D01*
X4608631Y-26302976D01*
X4761012Y-26502976D02*
X4761012Y-26369643D01*
X4761012Y-26388690D02*
X4770536Y-26379167D01*
X4789583Y-26369643D01*
X4818155Y-26369643D01*
X4837202Y-26379167D01*
X4846726Y-26398214D01*
X4846726Y-26502976D01*
X4846726Y-26398214D02*
X4856250Y-26379167D01*
X4875298Y-26369643D01*
X4903869Y-26369643D01*
X4922917Y-26379167D01*
X4932440Y-26398214D01*
X4932440Y-26502976D01*
X5027679Y-26502976D02*
X5027679Y-26369643D01*
X5027679Y-26388690D02*
X5037202Y-26379167D01*
X5056250Y-26369643D01*
X5084821Y-26369643D01*
X5103869Y-26379167D01*
X5113393Y-26398214D01*
X5113393Y-26502976D01*
X5113393Y-26398214D02*
X5122917Y-26379167D01*
X5141964Y-26369643D01*
X5170536Y-26369643D01*
X5189583Y-26379167D01*
X5199107Y-26398214D01*
X5199107Y-26502976D01*
X5589583Y-26293452D02*
X5418155Y-26550595D01*
X5846726Y-26302976D02*
X5865774Y-26302976D01*
X5884821Y-26312500D01*
X5894345Y-26322024D01*
X5903869Y-26341071D01*
X5913393Y-26379167D01*
X5913393Y-26426786D01*
X5903869Y-26464881D01*
X5894345Y-26483928D01*
X5884821Y-26493452D01*
X5865774Y-26502976D01*
X5846726Y-26502976D01*
X5827678Y-26493452D01*
X5818155Y-26483928D01*
X5808631Y-26464881D01*
X5799107Y-26426786D01*
X5799107Y-26379167D01*
X5808631Y-26341071D01*
X5818155Y-26322024D01*
X5827678Y-26312500D01*
X5846726Y-26302976D01*
X5999107Y-26483928D02*
X6008631Y-26493452D01*
X5999107Y-26502976D01*
X5989583Y-26493452D01*
X5999107Y-26483928D01*
X5999107Y-26502976D01*
X6132440Y-26302976D02*
X6151488Y-26302976D01*
X6170536Y-26312500D01*
X6180059Y-26322024D01*
X6189583Y-26341071D01*
X6199107Y-26379167D01*
X6199107Y-26426786D01*
X6189583Y-26464881D01*
X6180059Y-26483928D01*
X6170536Y-26493452D01*
X6151488Y-26502976D01*
X6132440Y-26502976D01*
X6113393Y-26493452D01*
X6103869Y-26483928D01*
X6094345Y-26464881D01*
X6084821Y-26426786D01*
X6084821Y-26379167D01*
X6094345Y-26341071D01*
X6103869Y-26322024D01*
X6113393Y-26312500D01*
X6132440Y-26302976D01*
X6380059Y-26302976D02*
X6284821Y-26302976D01*
X6275298Y-26398214D01*
X6284821Y-26388690D01*
X6303869Y-26379167D01*
X6351488Y-26379167D01*
X6370536Y-26388690D01*
X6380059Y-26398214D01*
X6389583Y-26417262D01*
X6389583Y-26464881D01*
X6380059Y-26483928D01*
X6370536Y-26493452D01*
X6351488Y-26502976D01*
X6303869Y-26502976D01*
X6284821Y-26493452D01*
X6275298Y-26483928D01*
X6456250Y-26302976D02*
X6589583Y-26302976D01*
X6503869Y-26502976D01*
X6675298Y-26502976D02*
X6713393Y-26502976D01*
X6732440Y-26493452D01*
X6741964Y-26483928D01*
X6761012Y-26455357D01*
X6770536Y-26417262D01*
X6770536Y-26341071D01*
X6761012Y-26322024D01*
X6751488Y-26312500D01*
X6732440Y-26302976D01*
X6694345Y-26302976D01*
X6675298Y-26312500D01*
X6665774Y-26322024D01*
X6656250Y-26341071D01*
X6656250Y-26388690D01*
X6665774Y-26407738D01*
X6675298Y-26417262D01*
X6694345Y-26426786D01*
X6732440Y-26426786D01*
X6751488Y-26417262D01*
X6761012Y-26407738D01*
X6770536Y-26388690D01*
X6846726Y-26302976D02*
X6846726Y-26341071D01*
X6922917Y-26302976D02*
X6922917Y-26341071D01*
X7218155Y-26579167D02*
X7208631Y-26569643D01*
X7189583Y-26541071D01*
X7180059Y-26522024D01*
X7170536Y-26493452D01*
X7161012Y-26445833D01*
X7161012Y-26407738D01*
X7170536Y-26360119D01*
X7180059Y-26331548D01*
X7189583Y-26312500D01*
X7208631Y-26283928D01*
X7218155Y-26274405D01*
X7399107Y-26502976D02*
X7284821Y-26502976D01*
X7341964Y-26502976D02*
X7341964Y-26302976D01*
X7322917Y-26331548D01*
X7303869Y-26350595D01*
X7284821Y-26360119D01*
X7494345Y-26502976D02*
X7532440Y-26502976D01*
X7551488Y-26493452D01*
X7561012Y-26483928D01*
X7580059Y-26455357D01*
X7589583Y-26417262D01*
X7589583Y-26341071D01*
X7580059Y-26322024D01*
X7570536Y-26312500D01*
X7551488Y-26302976D01*
X7513393Y-26302976D01*
X7494345Y-26312500D01*
X7484821Y-26322024D01*
X7475298Y-26341071D01*
X7475298Y-26388690D01*
X7484821Y-26407738D01*
X7494345Y-26417262D01*
X7513393Y-26426786D01*
X7551488Y-26426786D01*
X7570536Y-26417262D01*
X7580059Y-26407738D01*
X7589583Y-26388690D01*
X7761012Y-26369643D02*
X7761012Y-26502976D01*
X7713393Y-26293452D02*
X7665774Y-26436309D01*
X7789583Y-26436309D01*
X8018155Y-26502976D02*
X8018155Y-26302976D01*
X8103869Y-26502976D02*
X8103869Y-26398214D01*
X8094345Y-26379167D01*
X8075298Y-26369643D01*
X8046726Y-26369643D01*
X8027678Y-26379167D01*
X8018155Y-26388690D01*
X8227678Y-26502976D02*
X8208631Y-26493452D01*
X8199107Y-26483928D01*
X8189583Y-26464881D01*
X8189583Y-26407738D01*
X8199107Y-26388690D01*
X8208631Y-26379167D01*
X8227678Y-26369643D01*
X8256250Y-26369643D01*
X8275298Y-26379167D01*
X8284821Y-26388690D01*
X8294345Y-26407738D01*
X8294345Y-26464881D01*
X8284821Y-26483928D01*
X8275298Y-26493452D01*
X8256250Y-26502976D01*
X8227678Y-26502976D01*
X8408631Y-26502976D02*
X8389583Y-26493452D01*
X8380059Y-26474405D01*
X8380059Y-26302976D01*
X8561012Y-26493452D02*
X8541964Y-26502976D01*
X8503869Y-26502976D01*
X8484821Y-26493452D01*
X8475298Y-26474405D01*
X8475298Y-26398214D01*
X8484821Y-26379167D01*
X8503869Y-26369643D01*
X8541964Y-26369643D01*
X8561012Y-26379167D01*
X8570536Y-26398214D01*
X8570536Y-26417262D01*
X8475298Y-26436309D01*
X8646726Y-26493452D02*
X8665774Y-26502976D01*
X8703869Y-26502976D01*
X8722917Y-26493452D01*
X8732440Y-26474405D01*
X8732440Y-26464881D01*
X8722917Y-26445833D01*
X8703869Y-26436309D01*
X8675298Y-26436309D01*
X8656250Y-26426786D01*
X8646726Y-26407738D01*
X8646726Y-26398214D01*
X8656250Y-26379167D01*
X8675298Y-26369643D01*
X8703869Y-26369643D01*
X8722917Y-26379167D01*
X8799107Y-26579167D02*
X8808631Y-26569643D01*
X8827679Y-26541071D01*
X8837202Y-26522024D01*
X8846726Y-26493452D01*
X8856250Y-26445833D01*
X8856250Y-26407738D01*
X8846726Y-26360119D01*
X8837202Y-26331548D01*
X8827679Y-26312500D01*
X8808631Y-26283928D01*
X8799107Y-26274405D01*
M02*
