M48
; DRILL file {KiCad 6.0.7-f9a2dced07~116~ubuntu22.04.1} date Mon 05 Sep 2022 17:57:03 BST
; FORMAT={-:-/ absolute / metric / decimal}
; #@! TF.CreationDate,2022-09-05T17:57:03+01:00
; #@! TF.GenerationSoftware,Kicad,Pcbnew,6.0.7-f9a2dced07~116~ubuntu22.04.1
; #@! TF.FileFunction,Plated,1,2,PTH
FMAT,2
METRIC
; #@! TA.AperFunction,Plated,PTH,ViaDrill
T1C0.400
; #@! TA.AperFunction,Plated,PTH,ComponentDrill
T2C0.600
; #@! TA.AperFunction,Plated,PTH,ComponentDrill
T3C0.650
; #@! TA.AperFunction,Plated,PTH,ComponentDrill
T4C1.000
; #@! TA.AperFunction,Plated,PTH,ComponentDrill
T5C1.040
; #@! TA.AperFunction,Plated,PTH,ComponentDrill
T6C1.470
%
G90
G05
T1
X44.45Y-142.789
X44.45Y-145.329
X44.45Y-147.869
X44.45Y-150.409
X44.45Y-155.489
X44.45Y-158.029
X44.45Y-160.569
X44.45Y-163.109
X44.45Y-168.189
X44.45Y-170.729
X46.038Y-146.844
X46.038Y-152.4
X46.038Y-159.544
X46.038Y-161.925
X46.038Y-164.306
X46.038Y-170.656
X46.831Y-132.556
X47.625Y-134.144
X48.419Y-143.669
X48.419Y-166.688
X48.419Y-173.831
X49.144Y-125.15
X49.212Y-165.894
X49.212Y-173.037
X49.288Y-144.393
X50.006Y-126.206
X50.006Y-127.0
X50.006Y-127.794
X50.006Y-128.588
X50.006Y-129.381
X50.006Y-130.175
X50.006Y-130.969
X50.006Y-131.762
X50.006Y-132.556
X50.244Y-138.112
X50.8Y-186.531
X51.594Y-141.287
X51.738Y-136.525
X52.387Y-186.531
X53.181Y-119.062
X53.181Y-126.206
X53.181Y-127.0
X53.181Y-127.794
X53.181Y-128.588
X53.181Y-129.381
X53.181Y-130.175
X53.181Y-130.969
X53.181Y-131.762
X53.181Y-132.556
X53.181Y-159.544
X53.181Y-175.419
X53.24Y-156.76
X54.044Y-125.15
X61.119Y-131.762
X62.706Y-186.531
X64.294Y-150.409
X65.087Y-169.862
X65.087Y-175.419
X65.087Y-180.181
X65.087Y-208.756
X65.881Y-206.375
X66.813Y-209.752
X67.537Y-208.756
X68.263Y-150.812
X68.263Y-179.387
X68.263Y-205.581
X69.056Y-123.031
X69.056Y-207.962
X69.85Y-157.956
X75.406Y-168.275
X76.994Y-127.0
X77.787Y-163.512
X80.169Y-157.162
X82.55Y-177.006
X84.931Y-211.931
X85.725Y-121.444
X85.725Y-135.731
X88.106Y-153.194
X88.106Y-214.312
X89.694Y-171.45
X92.075Y-122.237
X92.869Y-214.312
X94.456Y-169.069
X96.044Y-119.856
X96.044Y-127.0
X107.156Y-175.419
X111.125Y-162.719
X113.506Y-153.194
X115.094Y-207.169
X115.094Y-212.725
X117.475Y-172.244
X120.809Y-142.081
X123.031Y-180.975
X128.111Y-141.287
X136.525Y-176.213
X136.525Y-230.981
X140.494Y-230.981
X141.287Y-227.012
X142.081Y-181.769
X142.875Y-172.244
X143.669Y-135.731
X145.256Y-193.675
X146.05Y-213.519
X146.844Y-143.669
X149.225Y-157.162
X149.225Y-163.512
X149.225Y-177.006
X150.812Y-212.725
X151.606Y-200.025
X154.146Y-215.55
X156.369Y-200.819
X156.369Y-207.169
X157.956Y-214.312
X158.909Y-140.494
X161.131Y-177.006
X161.131Y-207.962
X161.131Y-219.075
X161.131Y-232.569
X164.306Y-231.775
X165.894Y-135.731
X167.12Y-208.51
X168.275Y-182.562
X169.862Y-143.669
X170.656Y-195.262
X170.656Y-200.819
X173.831Y-210.185
X174.509Y-209.451
X175.071Y-207.371
X176.213Y-121.444
X177.959Y-139.7
X178.594Y-177.006
X178.594Y-182.562
X181.769Y-190.5
X187.325Y-143.669
X192.881Y-126.206
X197.009Y-138.906
X207.169Y-144.463
X209.55Y-126.206
X213.519Y-234.156
X216.059Y-138.112
X227.012Y-144.463
X234.156Y-127.0
X235.109Y-137.319
X237.331Y-228.51
X238.919Y-229.235
X242.094Y-226.219
X246.062Y-144.463
X250.825Y-212.725
X254.159Y-136.525
X255.587Y-219.075
X257.969Y-126.206
X261.144Y-144.463
X261.938Y-226.219
X273.05Y-211.931
X284.162Y-144.463
X296.069Y-126.206
X301.625Y-144.463
X311.309Y-142.081
X330.359Y-141.287
X349.409Y-140.494
X368.459Y-139.7
X380.206Y-182.562
X384.969Y-182.562
X391.319Y-182.562
X398.462Y-182.562
X407.987Y-174.625
X416.084Y-138.906
X423.862Y-182.562
X427.831Y-175.419
X435.134Y-138.112
X438.15Y-168.275
X448.469Y-169.069
X449.262Y-182.562
X454.184Y-132.556
X454.184Y-137.319
X457.994Y-169.069
X462.756Y-159.544
X462.756Y-182.562
X463.55Y-168.275
T3
X50.324Y-189.706
X51.594Y-189.706
X52.864Y-189.706
T4
X74.494Y-120.0
X74.494Y-134.5
X76.994Y-134.5
X79.494Y-120.0
X79.494Y-134.5
X93.544Y-120.0
X93.544Y-134.5
X96.044Y-134.5
X98.544Y-120.0
X98.544Y-134.5
T5
X75.724Y-160.655
X75.724Y-179.705
X75.724Y-198.755
X75.724Y-217.805
X75.724Y-236.855
X78.264Y-160.655
X78.264Y-179.705
X78.264Y-198.755
X78.264Y-217.805
X78.264Y-236.855
X94.774Y-160.655
X94.774Y-179.705
X94.774Y-198.755
X94.774Y-217.805
X94.774Y-236.855
X97.314Y-160.655
X97.314Y-179.705
X97.314Y-198.755
X97.314Y-217.805
X97.314Y-236.855
X123.349Y-132.08
X123.349Y-160.655
X125.73Y-236.855
X125.889Y-132.08
X125.889Y-160.655
X128.111Y-179.705
X128.27Y-236.855
X130.493Y-198.755
X130.651Y-179.705
X133.032Y-198.755
X135.255Y-217.805
X137.795Y-217.805
X142.399Y-160.655
X144.939Y-160.655
X149.542Y-236.855
X151.924Y-179.705
X152.082Y-236.855
X154.464Y-179.705
X156.686Y-198.755
X159.226Y-198.755
X161.449Y-132.08
X161.449Y-160.655
X163.989Y-132.08
X163.989Y-160.655
X166.211Y-217.805
X168.751Y-217.805
X170.974Y-179.705
X173.355Y-236.855
X173.514Y-179.705
X175.736Y-198.755
X175.895Y-236.855
X178.276Y-198.755
X180.499Y-132.08
X180.499Y-160.655
X183.039Y-132.08
X183.039Y-160.655
X185.261Y-217.805
X187.801Y-217.805
X190.024Y-179.705
X192.564Y-179.705
X194.786Y-198.755
X197.326Y-198.755
X199.549Y-132.08
X199.549Y-160.655
X202.089Y-132.08
X202.089Y-160.655
X204.311Y-217.805
X206.851Y-217.805
X209.074Y-179.705
X211.614Y-179.705
X213.836Y-198.755
X216.376Y-198.755
X218.599Y-132.08
X218.599Y-160.655
X221.139Y-132.08
X221.139Y-160.655
X223.361Y-217.805
X225.901Y-217.805
X228.124Y-179.705
X230.664Y-179.705
X232.886Y-198.755
X235.426Y-198.755
X237.649Y-160.655
X240.189Y-160.655
X242.411Y-217.805
X244.792Y-236.855
X244.951Y-217.805
X247.174Y-132.08
X247.174Y-179.705
X247.332Y-236.855
X249.714Y-132.08
X249.714Y-179.705
X251.936Y-198.755
X254.476Y-198.755
X256.699Y-160.655
X259.239Y-160.655
X261.461Y-217.805
X264.001Y-217.805
X266.224Y-132.08
X266.224Y-179.705
X268.764Y-132.08
X268.764Y-179.705
X270.986Y-198.755
X273.526Y-198.755
X275.749Y-160.655
X278.289Y-160.655
X280.511Y-217.805
X283.051Y-217.805
X285.274Y-132.08
X285.274Y-179.705
X287.814Y-132.08
X287.814Y-179.705
X290.036Y-198.755
X292.576Y-198.755
X294.799Y-160.655
X297.339Y-160.655
X299.561Y-217.805
X302.101Y-217.805
X304.324Y-132.08
X304.324Y-179.705
X306.864Y-132.08
X306.864Y-179.705
X309.086Y-198.755
X311.626Y-198.755
X313.849Y-160.655
X316.23Y-236.855
X316.389Y-160.655
X318.611Y-217.805
X318.77Y-236.855
X321.151Y-217.805
X323.374Y-179.705
X325.914Y-179.705
X328.136Y-198.755
X330.676Y-198.755
X332.899Y-132.08
X332.899Y-160.655
X335.439Y-132.08
X335.439Y-160.655
X337.661Y-217.805
X340.042Y-236.855
X340.201Y-217.805
X342.424Y-179.705
X342.582Y-236.855
X344.964Y-179.705
X347.186Y-198.755
X349.726Y-198.755
X351.949Y-132.08
X351.949Y-160.655
X354.489Y-132.08
X354.489Y-160.655
X361.474Y-179.705
X363.855Y-236.855
X364.014Y-179.705
X366.395Y-236.855
X370.999Y-132.08
X373.38Y-217.805
X373.539Y-132.08
X375.92Y-217.805
X378.142Y-198.755
X380.524Y-160.655
X380.683Y-198.755
X383.064Y-160.655
X385.286Y-179.705
X387.667Y-236.855
X387.826Y-179.705
X390.049Y-132.08
X390.207Y-236.855
X392.589Y-132.08
X418.624Y-132.08
X418.624Y-160.655
X418.624Y-179.705
X418.624Y-236.855
X421.164Y-132.08
X421.164Y-160.655
X421.164Y-179.705
X421.164Y-236.855
X437.674Y-132.08
X437.674Y-160.655
X437.674Y-179.705
X437.674Y-217.805
X437.674Y-236.855
X440.214Y-132.08
X440.214Y-160.655
X440.214Y-179.705
X440.214Y-217.805
X440.214Y-236.855
X456.724Y-132.08
X456.724Y-160.655
X456.724Y-179.705
X456.724Y-236.855
X459.264Y-132.08
X459.264Y-160.655
X459.264Y-179.705
X459.264Y-236.855
T6
X73.184Y-153.035
X73.184Y-172.085
X73.184Y-191.135
X73.184Y-210.185
X73.184Y-229.235
X79.534Y-150.495
X79.534Y-169.545
X79.534Y-188.595
X79.534Y-207.645
X79.534Y-226.695
X92.234Y-153.035
X92.234Y-172.085
X92.234Y-191.135
X92.234Y-210.185
X92.234Y-229.235
X98.584Y-150.495
X98.584Y-169.545
X98.584Y-188.595
X98.584Y-207.645
X98.584Y-226.695
X120.809Y-124.46
X120.809Y-153.035
X123.19Y-229.235
X125.571Y-172.085
X127.159Y-121.92
X127.159Y-150.495
X127.953Y-191.135
X129.54Y-226.695
X131.921Y-169.545
X132.715Y-210.185
X134.302Y-188.595
X139.065Y-207.645
X139.859Y-153.035
X146.209Y-150.495
X147.002Y-229.235
X149.384Y-172.085
X153.352Y-226.695
X154.146Y-191.135
X155.734Y-169.545
X158.909Y-124.46
X158.909Y-153.035
X160.496Y-188.595
X163.671Y-210.185
X165.259Y-121.92
X165.259Y-150.495
X168.434Y-172.085
X170.021Y-207.645
X170.815Y-229.235
X173.196Y-191.135
X174.784Y-169.545
X177.165Y-226.695
X177.959Y-124.46
X177.959Y-153.035
X179.546Y-188.595
X182.721Y-210.185
X184.309Y-121.92
X184.309Y-150.495
X187.484Y-172.085
X189.071Y-207.645
X192.246Y-191.135
X193.834Y-169.545
X197.009Y-124.46
X197.009Y-153.035
X198.596Y-188.595
X201.771Y-210.185
X203.359Y-121.92
X203.359Y-150.495
X206.534Y-172.085
X208.121Y-207.645
X211.296Y-191.135
X212.884Y-169.545
X216.059Y-124.46
X216.059Y-153.035
X217.646Y-188.595
X220.821Y-210.185
X222.409Y-121.92
X222.409Y-150.495
X225.584Y-172.085
X227.171Y-207.645
X230.346Y-191.135
X231.934Y-169.545
X235.109Y-153.035
X236.696Y-188.595
X239.871Y-210.185
X241.459Y-150.495
X242.252Y-229.235
X244.634Y-124.46
X244.634Y-172.085
X246.221Y-207.645
X248.602Y-226.695
X249.396Y-191.135
X250.984Y-121.92
X250.984Y-169.545
X254.159Y-153.035
X255.746Y-188.595
X258.921Y-210.185
X260.509Y-150.495
X263.684Y-124.46
X263.684Y-172.085
X265.271Y-207.645
X268.446Y-191.135
X270.034Y-121.92
X270.034Y-169.545
X273.209Y-153.035
X274.796Y-188.595
X277.971Y-210.185
X279.559Y-150.495
X282.734Y-124.46
X282.734Y-172.085
X284.321Y-207.645
X287.496Y-191.135
X289.084Y-121.92
X289.084Y-169.545
X292.259Y-153.035
X293.846Y-188.595
X297.021Y-210.185
X298.609Y-150.495
X301.784Y-124.46
X301.784Y-172.085
X303.371Y-207.645
X306.546Y-191.135
X308.134Y-121.92
X308.134Y-169.545
X311.309Y-153.035
X312.896Y-188.595
X313.69Y-229.235
X316.071Y-210.185
X317.659Y-150.495
X320.04Y-226.695
X320.834Y-172.085
X322.421Y-207.645
X325.596Y-191.135
X327.184Y-169.545
X330.359Y-124.46
X330.359Y-153.035
X331.946Y-188.595
X335.121Y-210.185
X336.709Y-121.92
X336.709Y-150.495
X337.502Y-229.235
X339.884Y-172.085
X341.471Y-207.645
X343.852Y-226.695
X344.646Y-191.135
X346.234Y-169.545
X349.409Y-124.46
X349.409Y-153.035
X350.996Y-188.595
X355.759Y-121.92
X355.759Y-150.495
X358.934Y-172.085
X361.315Y-229.235
X365.284Y-169.545
X367.665Y-226.695
X368.459Y-124.46
X370.84Y-210.185
X374.809Y-121.92
X375.602Y-191.135
X377.19Y-207.645
X377.984Y-153.035
X381.952Y-188.595
X382.746Y-172.085
X384.334Y-150.495
X385.127Y-229.235
X387.509Y-124.46
X389.096Y-169.545
X391.477Y-226.695
X393.859Y-121.92
X416.084Y-124.46
X416.084Y-153.035
X416.084Y-172.085
X416.084Y-229.235
X422.434Y-121.92
X422.434Y-150.495
X422.434Y-169.545
X422.434Y-226.695
X435.134Y-124.46
X435.134Y-153.035
X435.134Y-172.085
X435.134Y-210.185
X435.134Y-229.235
X441.484Y-121.92
X441.484Y-150.495
X441.484Y-169.545
X441.484Y-207.645
X441.484Y-226.695
X454.184Y-124.46
X454.184Y-153.035
X454.184Y-172.085
X454.184Y-229.235
X460.534Y-121.92
X460.534Y-150.495
X460.534Y-169.545
X460.534Y-226.695
T2
X47.274Y-117.006G85X47.274Y-116.406
G05
X47.274Y-121.436G85X47.274Y-120.336
G05
X55.914Y-117.006G85X55.914Y-116.406
G05
X55.914Y-121.436G85X55.914Y-120.336
G05
T0
M30
