M48
; DRILL file {KiCad 6.0.7-f9a2dced07~116~ubuntu22.04.1} date Mon 05 Sep 2022 17:57:03 BST
; FORMAT={-:-/ absolute / metric / decimal}
; #@! TF.CreationDate,2022-09-05T17:57:03+01:00
; #@! TF.GenerationSoftware,Kicad,Pcbnew,6.0.7-f9a2dced07~116~ubuntu22.04.1
; #@! TF.FileFunction,NonPlated,1,2,NPTH
FMAT,2
METRIC
; #@! TA.AperFunction,NonPlated,NPTH,ComponentDrill
T1C0.650
; #@! TA.AperFunction,NonPlated,NPTH,ComponentDrill
T2C1.500
; #@! TA.AperFunction,NonPlated,NPTH,ComponentDrill
T3C1.750
; #@! TA.AperFunction,NonPlated,NPTH,ComponentDrill
T4C3.048
; #@! TA.AperFunction,NonPlated,NPTH,ComponentDrill
T5C3.200
; #@! TA.AperFunction,NonPlated,NPTH,ComponentDrill
T6C3.988
%
G90
G05
T1
X48.704Y-120.356
X54.484Y-120.356
T3
X71.914Y-155.575
X71.914Y-174.625
X71.914Y-193.675
X71.914Y-212.725
X71.914Y-231.775
X82.074Y-155.575
X82.074Y-174.625
X82.074Y-193.675
X82.074Y-212.725
X82.074Y-231.775
X90.964Y-155.575
X90.964Y-174.625
X90.964Y-193.675
X90.964Y-212.725
X90.964Y-231.775
X101.124Y-155.575
X101.124Y-174.625
X101.124Y-193.675
X101.124Y-212.725
X101.124Y-231.775
X119.539Y-127.0
X119.539Y-155.575
X121.92Y-231.775
X124.301Y-174.625
X126.682Y-193.675
X129.699Y-127.0
X129.699Y-155.575
X131.445Y-212.725
X132.08Y-231.775
X134.461Y-174.625
X136.843Y-193.675
X138.589Y-155.575
X141.605Y-212.725
X145.732Y-231.775
X148.114Y-174.625
X148.749Y-155.575
X152.876Y-193.675
X155.892Y-231.775
X157.639Y-127.0
X157.639Y-155.575
X158.274Y-174.625
X162.401Y-212.725
X163.036Y-193.675
X167.164Y-174.625
X167.799Y-127.0
X167.799Y-155.575
X169.545Y-231.775
X171.926Y-193.675
X172.561Y-212.725
X176.689Y-127.0
X176.689Y-155.575
X177.324Y-174.625
X179.705Y-231.775
X181.451Y-212.725
X182.086Y-193.675
X186.214Y-174.625
X186.849Y-127.0
X186.849Y-155.575
X190.976Y-193.675
X191.611Y-212.725
X195.739Y-127.0
X195.739Y-155.575
X196.374Y-174.625
X200.501Y-212.725
X201.136Y-193.675
X205.264Y-174.625
X205.899Y-127.0
X205.899Y-155.575
X210.026Y-193.675
X210.661Y-212.725
X214.789Y-127.0
X214.789Y-155.575
X215.424Y-174.625
X219.551Y-212.725
X220.186Y-193.675
X224.314Y-174.625
X224.949Y-127.0
X224.949Y-155.575
X229.076Y-193.675
X229.711Y-212.725
X233.839Y-155.575
X234.474Y-174.625
X238.601Y-212.725
X239.236Y-193.675
X240.982Y-231.775
X243.364Y-127.0
X243.364Y-174.625
X243.999Y-155.575
X248.126Y-193.675
X248.761Y-212.725
X251.142Y-231.775
X252.889Y-155.575
X253.524Y-127.0
X253.524Y-174.625
X257.651Y-212.725
X258.286Y-193.675
X262.414Y-127.0
X262.414Y-174.625
X263.049Y-155.575
X267.176Y-193.675
X267.811Y-212.725
X271.939Y-155.575
X272.574Y-127.0
X272.574Y-174.625
X276.701Y-212.725
X277.336Y-193.675
X281.464Y-127.0
X281.464Y-174.625
X282.099Y-155.575
X286.226Y-193.675
X286.861Y-212.725
X290.989Y-155.575
X291.624Y-127.0
X291.624Y-174.625
X295.751Y-212.725
X296.386Y-193.675
X300.514Y-127.0
X300.514Y-174.625
X301.149Y-155.575
X305.276Y-193.675
X305.911Y-212.725
X310.039Y-155.575
X310.674Y-127.0
X310.674Y-174.625
X312.42Y-231.775
X314.801Y-212.725
X315.436Y-193.675
X319.564Y-174.625
X320.199Y-155.575
X322.58Y-231.775
X324.326Y-193.675
X324.961Y-212.725
X329.089Y-127.0
X329.089Y-155.575
X329.724Y-174.625
X333.851Y-212.725
X334.486Y-193.675
X336.232Y-231.775
X338.614Y-174.625
X339.249Y-127.0
X339.249Y-155.575
X343.376Y-193.675
X344.011Y-212.725
X346.392Y-231.775
X348.139Y-127.0
X348.139Y-155.575
X348.774Y-174.625
X353.536Y-193.675
X357.664Y-174.625
X358.299Y-127.0
X358.299Y-155.575
X360.045Y-231.775
X367.189Y-127.0
X367.824Y-174.625
X369.57Y-212.725
X370.205Y-231.775
X374.332Y-193.675
X376.714Y-155.575
X377.349Y-127.0
X379.73Y-212.725
X381.476Y-174.625
X383.857Y-231.775
X384.493Y-193.675
X386.239Y-127.0
X386.874Y-155.575
X391.636Y-174.625
X394.017Y-231.775
X396.399Y-127.0
X414.814Y-127.0
X414.814Y-155.575
X414.814Y-174.625
X414.814Y-231.775
X424.974Y-127.0
X424.974Y-155.575
X424.974Y-174.625
X424.974Y-231.775
X433.864Y-127.0
X433.864Y-155.575
X433.864Y-174.625
X433.864Y-212.725
X433.864Y-231.775
X444.024Y-127.0
X444.024Y-155.575
X444.024Y-174.625
X444.024Y-212.725
X444.024Y-231.775
X452.914Y-127.0
X452.914Y-155.575
X452.914Y-174.625
X452.914Y-231.775
X463.074Y-127.0
X463.074Y-155.575
X463.074Y-174.625
X463.074Y-231.775
T4
X124.587Y-205.74
X148.463Y-205.74
X196.063Y-238.76
X296.062Y-238.76
X362.712Y-205.74
X367.474Y-186.69
X369.856Y-148.59
X386.588Y-205.74
X391.35Y-186.69
X393.732Y-148.59
T5
X40.481Y-119.062
X40.481Y-240.506
X110.331Y-119.062
X110.331Y-179.784
X110.331Y-240.506
X162.719Y-165.1
X177.006Y-203.2
X253.206Y-203.2
X257.969Y-165.1
X348.456Y-203.2
X353.219Y-165.1
X405.606Y-119.062
X405.606Y-179.784
X405.606Y-240.506
X472.281Y-119.062
X472.281Y-240.506
T6
X76.994Y-155.575
X76.994Y-174.625
X76.994Y-193.675
X76.994Y-212.725
X76.994Y-231.775
X96.044Y-155.575
X96.044Y-174.625
X96.044Y-193.675
X96.044Y-212.725
X96.044Y-231.775
X124.587Y-220.98
X124.619Y-127.0
X124.619Y-155.575
X127.0Y-231.775
X129.381Y-174.625
X131.762Y-193.675
X136.525Y-212.725
X143.669Y-155.575
X148.463Y-220.98
X150.812Y-231.775
X153.194Y-174.625
X157.956Y-193.675
X162.719Y-127.0
X162.719Y-155.575
X167.481Y-212.725
X172.244Y-174.625
X174.625Y-231.775
X177.006Y-193.675
X181.769Y-127.0
X181.769Y-155.575
X186.531Y-212.725
X191.294Y-174.625
X196.056Y-193.675
X196.063Y-223.52
X200.819Y-127.0
X200.819Y-155.575
X205.581Y-212.725
X210.344Y-174.625
X215.106Y-193.675
X219.869Y-127.0
X219.869Y-155.575
X224.631Y-212.725
X229.394Y-174.625
X234.156Y-193.675
X238.919Y-155.575
X243.681Y-212.725
X246.062Y-231.775
X248.444Y-127.0
X248.444Y-174.625
X253.206Y-193.675
X257.969Y-155.575
X262.731Y-212.725
X267.494Y-127.0
X267.494Y-174.625
X272.256Y-193.675
X277.019Y-155.575
X281.781Y-212.725
X286.544Y-127.0
X286.544Y-174.625
X291.306Y-193.675
X296.062Y-223.52
X296.069Y-155.575
X300.831Y-212.725
X305.594Y-127.0
X305.594Y-174.625
X310.356Y-193.675
X315.119Y-155.575
X317.5Y-231.775
X319.881Y-212.725
X324.644Y-174.625
X329.406Y-193.675
X334.169Y-127.0
X334.169Y-155.575
X338.931Y-212.725
X341.312Y-231.775
X343.694Y-174.625
X348.456Y-193.675
X353.219Y-127.0
X353.219Y-155.575
X362.712Y-220.98
X362.744Y-174.625
X365.125Y-231.775
X367.474Y-201.93
X369.856Y-163.83
X372.269Y-127.0
X374.65Y-212.725
X379.412Y-193.675
X381.794Y-155.575
X386.556Y-174.625
X386.588Y-220.98
X388.938Y-231.775
X391.319Y-127.0
X391.35Y-201.93
X393.732Y-163.83
X419.894Y-127.0
X419.894Y-155.575
X419.894Y-174.625
X419.894Y-231.775
X438.944Y-127.0
X438.944Y-155.575
X438.944Y-174.625
X438.944Y-212.725
X438.944Y-231.775
X457.994Y-127.0
X457.994Y-155.575
X457.994Y-174.625
X457.994Y-231.775
T2
X71.394Y-127.65G85X71.394Y-126.35
G05
X82.594Y-127.65G85X82.594Y-126.35
G05
X90.444Y-127.65G85X90.444Y-126.35
G05
X101.644Y-127.65G85X101.644Y-126.35
G05
T0
M30
