G04 #@! TF.GenerationSoftware,KiCad,Pcbnew,6.0.7-f9a2dced07~116~ubuntu22.04.1*
G04 #@! TF.CreationDate,2022-09-05T17:56:12+01:00*
G04 #@! TF.ProjectId,keyboard,6b657962-6f61-4726-942e-6b696361645f,rev?*
G04 #@! TF.SameCoordinates,Original*
G04 #@! TF.FileFunction,Paste,Bot*
G04 #@! TF.FilePolarity,Positive*
%FSLAX46Y46*%
G04 Gerber Fmt 4.6, Leading zero omitted, Abs format (unit mm)*
G04 Created by KiCad (PCBNEW 6.0.7-f9a2dced07~116~ubuntu22.04.1) date 2022-09-05 17:56:12*
%MOMM*%
%LPD*%
G01*
G04 APERTURE LIST*
G04 Aperture macros list*
%AMRoundRect*
0 Rectangle with rounded corners*
0 $1 Rounding radius*
0 $2 $3 $4 $5 $6 $7 $8 $9 X,Y pos of 4 corners*
0 Add a 4 corners polygon primitive as box body*
4,1,4,$2,$3,$4,$5,$6,$7,$8,$9,$2,$3,0*
0 Add four circle primitives for the rounded corners*
1,1,$1+$1,$2,$3*
1,1,$1+$1,$4,$5*
1,1,$1+$1,$6,$7*
1,1,$1+$1,$8,$9*
0 Add four rect primitives between the rounded corners*
20,1,$1+$1,$2,$3,$4,$5,0*
20,1,$1+$1,$4,$5,$6,$7,0*
20,1,$1+$1,$6,$7,$8,$9,0*
20,1,$1+$1,$8,$9,$2,$3,0*%
G04 Aperture macros list end*
%ADD10R,1.200000X0.900000*%
%ADD11RoundRect,0.250000X-0.450000X0.350000X-0.450000X-0.350000X0.450000X-0.350000X0.450000X0.350000X0*%
G04 APERTURE END LIST*
D10*
X313531250Y-118206250D03*
X313531250Y-121506250D03*
D11*
X199231250Y-180768750D03*
X199231250Y-182768750D03*
D10*
X465931250Y-146781250D03*
X465931250Y-150081250D03*
D11*
X175418750Y-218868750D03*
X175418750Y-220868750D03*
D10*
X189706250Y-146781250D03*
X189706250Y-150081250D03*
D11*
X275431250Y-133143750D03*
X275431250Y-135143750D03*
X446881250Y-180768750D03*
X446881250Y-182768750D03*
D10*
X261143750Y-184881250D03*
X261143750Y-188181250D03*
D11*
X313531250Y-180768750D03*
X313531250Y-182768750D03*
D10*
X275431250Y-165831250D03*
X275431250Y-169131250D03*
X389731250Y-146781250D03*
X389731250Y-150081250D03*
D11*
X313531250Y-133143750D03*
X313531250Y-135143750D03*
X218281250Y-180768750D03*
X218281250Y-182768750D03*
X254000000Y-237918750D03*
X254000000Y-239918750D03*
D10*
X446881250Y-222981250D03*
X446881250Y-226281250D03*
D11*
X132556250Y-133143750D03*
X132556250Y-135143750D03*
X382587500Y-218868750D03*
X382587500Y-220868750D03*
X465931250Y-161718750D03*
X465931250Y-163718750D03*
X161131250Y-180768750D03*
X161131250Y-182768750D03*
X144462500Y-218868750D03*
X144462500Y-220868750D03*
D10*
X446881250Y-165831250D03*
X446881250Y-169131250D03*
X280193750Y-184881250D03*
X280193750Y-188181250D03*
D11*
X256381250Y-180768750D03*
X256381250Y-182768750D03*
D10*
X165893750Y-203931250D03*
X165893750Y-207231250D03*
X103981250Y-165831250D03*
X103981250Y-169131250D03*
X265906250Y-146781250D03*
X265906250Y-150081250D03*
D11*
X446881250Y-237918750D03*
X446881250Y-239918750D03*
D10*
X151606250Y-146781250D03*
X151606250Y-150081250D03*
D11*
X208756250Y-161718750D03*
X208756250Y-163718750D03*
X170656250Y-161718750D03*
X170656250Y-163718750D03*
D10*
X380206250Y-118206250D03*
X380206250Y-121506250D03*
D11*
X389731250Y-161718750D03*
X389731250Y-163718750D03*
D10*
X342106250Y-165831250D03*
X342106250Y-169131250D03*
X308768750Y-203931250D03*
X308768750Y-207231250D03*
X213518750Y-203931250D03*
X213518750Y-207231250D03*
D11*
X242093750Y-199818750D03*
X242093750Y-201818750D03*
D10*
X84931250Y-203931250D03*
X84931250Y-207231250D03*
X338137500Y-203931250D03*
X338137500Y-207231250D03*
D11*
X84931250Y-180768750D03*
X84931250Y-182768750D03*
D10*
X184943750Y-184881250D03*
X184943750Y-188181250D03*
D11*
X387350000Y-199818750D03*
X387350000Y-201818750D03*
X373062500Y-237918750D03*
X373062500Y-239918750D03*
D10*
X361156250Y-146781250D03*
X361156250Y-150081250D03*
D11*
X203993750Y-199818750D03*
X203993750Y-201818750D03*
D10*
X275431250Y-118206250D03*
X275431250Y-121506250D03*
X318293750Y-184881250D03*
X318293750Y-188181250D03*
X446881250Y-146781250D03*
X446881250Y-150081250D03*
D11*
X246856250Y-161718750D03*
X246856250Y-163718750D03*
D10*
X103981250Y-146781250D03*
X103981250Y-150081250D03*
X242093750Y-203931250D03*
X242093750Y-207231250D03*
D11*
X427831250Y-161718750D03*
X427831250Y-163718750D03*
X132556250Y-161718750D03*
X132556250Y-163718750D03*
D10*
X84931250Y-165831250D03*
X84931250Y-169131250D03*
D11*
X180181250Y-180768750D03*
X180181250Y-182768750D03*
D10*
X208756250Y-146781250D03*
X208756250Y-150081250D03*
X323056250Y-146781250D03*
X323056250Y-150081250D03*
X89693750Y-118206250D03*
X89693750Y-121506250D03*
D11*
X342106250Y-133143750D03*
X342106250Y-135143750D03*
X446881250Y-218868750D03*
X446881250Y-220868750D03*
D10*
X237331250Y-165831250D03*
X237331250Y-169131250D03*
X170656250Y-118206250D03*
X170656250Y-121506250D03*
D11*
X361156250Y-161718750D03*
X361156250Y-163718750D03*
X139700000Y-199818750D03*
X139700000Y-201818750D03*
D10*
X342106250Y-118206250D03*
X342106250Y-121506250D03*
D11*
X251618750Y-218868750D03*
X251618750Y-220868750D03*
D10*
X337343750Y-184881250D03*
X337343750Y-188181250D03*
X182562500Y-222981250D03*
X182562500Y-226281250D03*
X295275000Y-118206250D03*
X295275000Y-121506250D03*
X332581250Y-165831250D03*
X332581250Y-169131250D03*
D11*
X158750000Y-237918750D03*
X158750000Y-239918750D03*
D10*
X189706250Y-118206250D03*
X189706250Y-121506250D03*
D11*
X295275000Y-133143750D03*
X295275000Y-135143750D03*
D10*
X218281250Y-165831250D03*
X218281250Y-169131250D03*
D11*
X337343750Y-199818750D03*
X337343750Y-201818750D03*
X318293750Y-199818750D03*
X318293750Y-201818750D03*
D10*
X465931250Y-118206250D03*
X465931250Y-121506250D03*
D11*
X299243750Y-199818750D03*
X299243750Y-201818750D03*
D10*
X137318750Y-165831250D03*
X137318750Y-169131250D03*
X139700000Y-184881250D03*
X139700000Y-188181250D03*
X254000000Y-222981250D03*
X254000000Y-226281250D03*
X84931250Y-222981250D03*
X84931250Y-226281250D03*
D11*
X327818750Y-218868750D03*
X327818750Y-220868750D03*
X280193750Y-199818750D03*
X280193750Y-201818750D03*
X227806250Y-133143750D03*
X227806250Y-135143750D03*
D10*
X70643750Y-118206250D03*
X70643750Y-121506250D03*
X387350000Y-184881250D03*
X387350000Y-188181250D03*
D11*
X227806250Y-161718750D03*
X227806250Y-163718750D03*
D10*
X246856250Y-146781250D03*
X246856250Y-150081250D03*
X382587500Y-203931250D03*
X382587500Y-207231250D03*
D11*
X103981250Y-180768750D03*
X103981250Y-182768750D03*
D10*
X427831250Y-222981250D03*
X427831250Y-226281250D03*
D11*
X399256250Y-133143750D03*
X399256250Y-135143750D03*
X465931250Y-180768750D03*
X465931250Y-182768750D03*
D10*
X361156250Y-118206250D03*
X361156250Y-121506250D03*
X270668750Y-203931250D03*
X270668750Y-207231250D03*
X356393750Y-184881250D03*
X356393750Y-188181250D03*
D11*
X189706250Y-161718750D03*
X189706250Y-163718750D03*
D10*
X144462500Y-203931250D03*
X144462500Y-207231250D03*
X446881250Y-203931250D03*
X446881250Y-207231250D03*
X227806250Y-118206250D03*
X227806250Y-121506250D03*
X446881250Y-118206250D03*
X446881250Y-121506250D03*
D11*
X84931250Y-218868750D03*
X84931250Y-220868750D03*
X284956250Y-161718750D03*
X284956250Y-163718750D03*
X182562500Y-237918750D03*
X182562500Y-239918750D03*
X237331250Y-180768750D03*
X237331250Y-182768750D03*
X165893750Y-199818750D03*
X165893750Y-201818750D03*
D10*
X304006250Y-146781250D03*
X304006250Y-150081250D03*
D11*
X137318750Y-180768750D03*
X137318750Y-182768750D03*
D10*
X103981250Y-222981250D03*
X103981250Y-226281250D03*
D11*
X325437500Y-237918750D03*
X325437500Y-239918750D03*
D10*
X170656250Y-146781250D03*
X170656250Y-150081250D03*
X396875000Y-222981250D03*
X396875000Y-226281250D03*
D11*
X134937500Y-237918750D03*
X134937500Y-239918750D03*
D10*
X289718750Y-203931250D03*
X289718750Y-207231250D03*
D11*
X84931250Y-161718750D03*
X84931250Y-163718750D03*
X427831250Y-133143750D03*
X427831250Y-135143750D03*
X308768750Y-218868750D03*
X308768750Y-220868750D03*
X396875000Y-237918750D03*
X396875000Y-239918750D03*
D10*
X373062500Y-222981250D03*
X373062500Y-226281250D03*
X199231250Y-165831250D03*
X199231250Y-169131250D03*
X134937500Y-222981250D03*
X134937500Y-226281250D03*
D11*
X346868750Y-218868750D03*
X346868750Y-220868750D03*
D10*
X284956250Y-146781250D03*
X284956250Y-150081250D03*
D11*
X184943750Y-199818750D03*
X184943750Y-201818750D03*
D10*
X247650000Y-165831250D03*
X247650000Y-169131250D03*
D11*
X446881250Y-161718750D03*
X446881250Y-163718750D03*
D10*
X84931250Y-184881250D03*
X84931250Y-188181250D03*
X132556250Y-118206250D03*
X132556250Y-121506250D03*
D11*
X304006250Y-161718750D03*
X304006250Y-163718750D03*
D10*
X399256250Y-118206250D03*
X399256250Y-121506250D03*
D11*
X84931250Y-237918750D03*
X84931250Y-239918750D03*
D10*
X381000000Y-165831250D03*
X381000000Y-169131250D03*
X327818750Y-203931250D03*
X327818750Y-207231250D03*
D11*
X194468750Y-216487500D03*
X194468750Y-218487500D03*
D10*
X427831250Y-118206250D03*
X427831250Y-121506250D03*
D11*
X380206250Y-133143750D03*
X380206250Y-135143750D03*
X261143750Y-199818750D03*
X261143750Y-201818750D03*
D10*
X242093750Y-184881250D03*
X242093750Y-188181250D03*
D11*
X323056250Y-161718750D03*
X323056250Y-163718750D03*
X103981250Y-218868750D03*
X103981250Y-220868750D03*
X349250000Y-237918750D03*
X349250000Y-239918750D03*
D10*
X180181250Y-165831250D03*
X180181250Y-169131250D03*
D11*
X370681250Y-180768750D03*
X370681250Y-182768750D03*
X294481250Y-180768750D03*
X294481250Y-182768750D03*
X103981250Y-237918750D03*
X103981250Y-239918750D03*
D10*
X349250000Y-222981250D03*
X349250000Y-226281250D03*
X158750000Y-222981250D03*
X158750000Y-226281250D03*
D11*
X289718750Y-218868750D03*
X289718750Y-220868750D03*
D10*
X132556250Y-146781250D03*
X132556250Y-150081250D03*
D11*
X465931250Y-133143750D03*
X465931250Y-135143750D03*
X446881250Y-133143750D03*
X446881250Y-135143750D03*
X103981250Y-161718750D03*
X103981250Y-163718750D03*
X332581250Y-180768750D03*
X332581250Y-182768750D03*
X275431250Y-180768750D03*
X275431250Y-182768750D03*
X232568750Y-218868750D03*
X232568750Y-220868750D03*
X151606250Y-161718750D03*
X151606250Y-163718750D03*
X356393750Y-199818750D03*
X356393750Y-201818750D03*
X208756250Y-133143750D03*
X208756250Y-135143750D03*
D10*
X84931250Y-146781250D03*
X84931250Y-150081250D03*
X465931250Y-222981250D03*
X465931250Y-226281250D03*
D11*
X170656250Y-133143750D03*
X170656250Y-135143750D03*
D10*
X256381250Y-118206250D03*
X256381250Y-121506250D03*
X313531250Y-165831250D03*
X313531250Y-169131250D03*
X194468750Y-203931250D03*
X194468750Y-207231250D03*
X203993750Y-184881250D03*
X203993750Y-188181250D03*
D11*
X427831250Y-237918750D03*
X427831250Y-239918750D03*
X103981250Y-199818750D03*
X103981250Y-201818750D03*
X223043750Y-199818750D03*
X223043750Y-201818750D03*
D10*
X223043750Y-184881250D03*
X223043750Y-188181250D03*
D11*
X270668750Y-218868750D03*
X270668750Y-220868750D03*
D10*
X427831250Y-165831250D03*
X427831250Y-169131250D03*
X103981250Y-184881250D03*
X103981250Y-188181250D03*
D11*
X213518750Y-218868750D03*
X213518750Y-220868750D03*
X351631250Y-180768750D03*
X351631250Y-182768750D03*
D10*
X150018750Y-165831250D03*
X150018750Y-169131250D03*
D11*
X465931250Y-237918750D03*
X465931250Y-239918750D03*
D10*
X165893750Y-184881250D03*
X165893750Y-188181250D03*
X373856250Y-165831250D03*
X373856250Y-169131250D03*
D11*
X427831250Y-180768750D03*
X427831250Y-182768750D03*
D10*
X325437500Y-222981250D03*
X325437500Y-226281250D03*
D11*
X265906250Y-161718750D03*
X265906250Y-163718750D03*
D10*
X294481250Y-165831250D03*
X294481250Y-169131250D03*
D11*
X361156250Y-133143750D03*
X361156250Y-135143750D03*
D10*
X232568750Y-203931250D03*
X232568750Y-207231250D03*
D11*
X189706250Y-133143750D03*
X189706250Y-135143750D03*
D10*
X465931250Y-165831250D03*
X465931250Y-169131250D03*
X342106250Y-146781250D03*
X342106250Y-150081250D03*
X103981250Y-203931250D03*
X103981250Y-207231250D03*
X427831250Y-146781250D03*
X427831250Y-150081250D03*
X227806250Y-146781250D03*
X227806250Y-150081250D03*
D11*
X84931250Y-199818750D03*
X84931250Y-201818750D03*
D10*
X208756250Y-118206250D03*
X208756250Y-121506250D03*
X299243750Y-184881250D03*
X299243750Y-188181250D03*
D11*
X395287500Y-180768750D03*
X395287500Y-182768750D03*
X256381250Y-133143750D03*
X256381250Y-135143750D03*
X342106250Y-161718750D03*
X342106250Y-163718750D03*
M02*
