G04 #@! TF.GenerationSoftware,KiCad,Pcbnew,6.0.7-f9a2dced07~116~ubuntu22.04.1*
G04 #@! TF.CreationDate,2022-09-05T17:56:12+01:00*
G04 #@! TF.ProjectId,keyboard,6b657962-6f61-4726-942e-6b696361645f,rev?*
G04 #@! TF.SameCoordinates,Original*
G04 #@! TF.FileFunction,Legend,Bot*
G04 #@! TF.FilePolarity,Positive*
%FSLAX46Y46*%
G04 Gerber Fmt 4.6, Leading zero omitted, Abs format (unit mm)*
G04 Created by KiCad (PCBNEW 6.0.7-f9a2dced07~116~ubuntu22.04.1) date 2022-09-05 17:56:12*
%MOMM*%
%LPD*%
G01*
G04 APERTURE LIST*
G04 Aperture macros list*
%AMRoundRect*
0 Rectangle with rounded corners*
0 $1 Rounding radius*
0 $2 $3 $4 $5 $6 $7 $8 $9 X,Y pos of 4 corners*
0 Add a 4 corners polygon primitive as box body*
4,1,4,$2,$3,$4,$5,$6,$7,$8,$9,$2,$3,0*
0 Add four circle primitives for the rounded corners*
1,1,$1+$1,$2,$3*
1,1,$1+$1,$4,$5*
1,1,$1+$1,$6,$7*
1,1,$1+$1,$8,$9*
0 Add four rect primitives between the rounded corners*
20,1,$1+$1,$2,$3,$4,$5,0*
20,1,$1+$1,$4,$5,$6,$7,0*
20,1,$1+$1,$6,$7,$8,$9,0*
20,1,$1+$1,$8,$9,$2,$3,0*%
G04 Aperture macros list end*
%ADD10C,0.120000*%
%ADD11C,1.750000*%
%ADD12C,3.987800*%
%ADD13C,2.250000*%
%ADD14C,1.905000*%
%ADD15R,1.905000X1.905000*%
%ADD16C,3.200000*%
%ADD17R,1.000000X1.000000*%
%ADD18O,1.000000X1.000000*%
%ADD19C,3.048000*%
%ADD20C,0.750000*%
%ADD21O,1.100000X2.200000*%
%ADD22O,1.100000X1.700000*%
%ADD23O,2.000000X3.200000*%
%ADD24R,2.000000X2.000000*%
%ADD25C,2.000000*%
%ADD26R,1.200000X0.900000*%
%ADD27RoundRect,0.250000X-0.450000X0.350000X-0.450000X-0.350000X0.450000X-0.350000X0.450000X0.350000X0*%
G04 APERTURE END LIST*
D10*
X314531250Y-117606250D02*
X314531250Y-121506250D01*
X312531250Y-117606250D02*
X312531250Y-121506250D01*
X312531250Y-117606250D02*
X314531250Y-117606250D01*
X198496250Y-181541686D02*
X198496250Y-181995814D01*
X199966250Y-181541686D02*
X199966250Y-181995814D01*
X466931250Y-146181250D02*
X466931250Y-150081250D01*
X464931250Y-146181250D02*
X466931250Y-146181250D01*
X464931250Y-146181250D02*
X464931250Y-150081250D01*
X176153750Y-219641686D02*
X176153750Y-220095814D01*
X174683750Y-219641686D02*
X174683750Y-220095814D01*
X190706250Y-146181250D02*
X190706250Y-150081250D01*
X188706250Y-146181250D02*
X190706250Y-146181250D01*
X188706250Y-146181250D02*
X188706250Y-150081250D01*
X274696250Y-133916686D02*
X274696250Y-134370814D01*
X276166250Y-133916686D02*
X276166250Y-134370814D01*
X446146250Y-181541686D02*
X446146250Y-181995814D01*
X447616250Y-181541686D02*
X447616250Y-181995814D01*
X260143750Y-184281250D02*
X262143750Y-184281250D01*
X260143750Y-184281250D02*
X260143750Y-188181250D01*
X262143750Y-184281250D02*
X262143750Y-188181250D01*
X314266250Y-181541686D02*
X314266250Y-181995814D01*
X312796250Y-181541686D02*
X312796250Y-181995814D01*
X274431250Y-165231250D02*
X276431250Y-165231250D01*
X276431250Y-165231250D02*
X276431250Y-169131250D01*
X274431250Y-165231250D02*
X274431250Y-169131250D01*
X388731250Y-146181250D02*
X390731250Y-146181250D01*
X390731250Y-146181250D02*
X390731250Y-150081250D01*
X388731250Y-146181250D02*
X388731250Y-150081250D01*
X312796250Y-133916686D02*
X312796250Y-134370814D01*
X314266250Y-133916686D02*
X314266250Y-134370814D01*
X217546250Y-181541686D02*
X217546250Y-181995814D01*
X219016250Y-181541686D02*
X219016250Y-181995814D01*
X253265000Y-238691686D02*
X253265000Y-239145814D01*
X254735000Y-238691686D02*
X254735000Y-239145814D01*
X447881250Y-222381250D02*
X447881250Y-226281250D01*
X445881250Y-222381250D02*
X447881250Y-222381250D01*
X445881250Y-222381250D02*
X445881250Y-226281250D01*
X133291250Y-133916686D02*
X133291250Y-134370814D01*
X131821250Y-133916686D02*
X131821250Y-134370814D01*
X383322500Y-219641686D02*
X383322500Y-220095814D01*
X381852500Y-219641686D02*
X381852500Y-220095814D01*
X466666250Y-162491686D02*
X466666250Y-162945814D01*
X465196250Y-162491686D02*
X465196250Y-162945814D01*
X161866250Y-181541686D02*
X161866250Y-181995814D01*
X160396250Y-181541686D02*
X160396250Y-181995814D01*
X143727500Y-219641686D02*
X143727500Y-220095814D01*
X145197500Y-219641686D02*
X145197500Y-220095814D01*
X445881250Y-165231250D02*
X445881250Y-169131250D01*
X447881250Y-165231250D02*
X447881250Y-169131250D01*
X445881250Y-165231250D02*
X447881250Y-165231250D01*
X279193750Y-184281250D02*
X281193750Y-184281250D01*
X279193750Y-184281250D02*
X279193750Y-188181250D01*
X281193750Y-184281250D02*
X281193750Y-188181250D01*
X255646250Y-181541686D02*
X255646250Y-181995814D01*
X257116250Y-181541686D02*
X257116250Y-181995814D01*
X164893750Y-203331250D02*
X164893750Y-207231250D01*
X166893750Y-203331250D02*
X166893750Y-207231250D01*
X164893750Y-203331250D02*
X166893750Y-203331250D01*
X102981250Y-165231250D02*
X104981250Y-165231250D01*
X104981250Y-165231250D02*
X104981250Y-169131250D01*
X102981250Y-165231250D02*
X102981250Y-169131250D01*
X266906250Y-146181250D02*
X266906250Y-150081250D01*
X264906250Y-146181250D02*
X266906250Y-146181250D01*
X264906250Y-146181250D02*
X264906250Y-150081250D01*
X447616250Y-238691686D02*
X447616250Y-239145814D01*
X446146250Y-238691686D02*
X446146250Y-239145814D01*
X150606250Y-146181250D02*
X152606250Y-146181250D01*
X152606250Y-146181250D02*
X152606250Y-150081250D01*
X150606250Y-146181250D02*
X150606250Y-150081250D01*
X209491250Y-162491686D02*
X209491250Y-162945814D01*
X208021250Y-162491686D02*
X208021250Y-162945814D01*
X171391250Y-162491686D02*
X171391250Y-162945814D01*
X169921250Y-162491686D02*
X169921250Y-162945814D01*
X379206250Y-117606250D02*
X379206250Y-121506250D01*
X381206250Y-117606250D02*
X381206250Y-121506250D01*
X379206250Y-117606250D02*
X381206250Y-117606250D01*
X390466250Y-162491686D02*
X390466250Y-162945814D01*
X388996250Y-162491686D02*
X388996250Y-162945814D01*
X341106250Y-165231250D02*
X341106250Y-169131250D01*
X341106250Y-165231250D02*
X343106250Y-165231250D01*
X343106250Y-165231250D02*
X343106250Y-169131250D01*
X307768750Y-203331250D02*
X307768750Y-207231250D01*
X309768750Y-203331250D02*
X309768750Y-207231250D01*
X307768750Y-203331250D02*
X309768750Y-203331250D01*
X212518750Y-203331250D02*
X212518750Y-207231250D01*
X214518750Y-203331250D02*
X214518750Y-207231250D01*
X212518750Y-203331250D02*
X214518750Y-203331250D01*
X242828750Y-200591686D02*
X242828750Y-201045814D01*
X241358750Y-200591686D02*
X241358750Y-201045814D01*
X83931250Y-203331250D02*
X85931250Y-203331250D01*
X85931250Y-203331250D02*
X85931250Y-207231250D01*
X83931250Y-203331250D02*
X83931250Y-207231250D01*
X337137500Y-203331250D02*
X337137500Y-207231250D01*
X339137500Y-203331250D02*
X339137500Y-207231250D01*
X337137500Y-203331250D02*
X339137500Y-203331250D01*
X84196250Y-181541686D02*
X84196250Y-181995814D01*
X85666250Y-181541686D02*
X85666250Y-181995814D01*
X183943750Y-184281250D02*
X185943750Y-184281250D01*
X183943750Y-184281250D02*
X183943750Y-188181250D01*
X185943750Y-184281250D02*
X185943750Y-188181250D01*
X388085000Y-200591686D02*
X388085000Y-201045814D01*
X386615000Y-200591686D02*
X386615000Y-201045814D01*
X372327500Y-238691686D02*
X372327500Y-239145814D01*
X373797500Y-238691686D02*
X373797500Y-239145814D01*
X360156250Y-146181250D02*
X362156250Y-146181250D01*
X362156250Y-146181250D02*
X362156250Y-150081250D01*
X360156250Y-146181250D02*
X360156250Y-150081250D01*
X203258750Y-200591686D02*
X203258750Y-201045814D01*
X204728750Y-200591686D02*
X204728750Y-201045814D01*
X276431250Y-117606250D02*
X276431250Y-121506250D01*
X274431250Y-117606250D02*
X276431250Y-117606250D01*
X274431250Y-117606250D02*
X274431250Y-121506250D01*
X317293750Y-184281250D02*
X319293750Y-184281250D01*
X319293750Y-184281250D02*
X319293750Y-188181250D01*
X317293750Y-184281250D02*
X317293750Y-188181250D01*
X447881250Y-146181250D02*
X447881250Y-150081250D01*
X445881250Y-146181250D02*
X447881250Y-146181250D01*
X445881250Y-146181250D02*
X445881250Y-150081250D01*
X246121250Y-162491686D02*
X246121250Y-162945814D01*
X247591250Y-162491686D02*
X247591250Y-162945814D01*
X102981250Y-146181250D02*
X102981250Y-150081250D01*
X102981250Y-146181250D02*
X104981250Y-146181250D01*
X104981250Y-146181250D02*
X104981250Y-150081250D01*
X243093750Y-203331250D02*
X243093750Y-207231250D01*
X241093750Y-203331250D02*
X241093750Y-207231250D01*
X241093750Y-203331250D02*
X243093750Y-203331250D01*
X427096250Y-162491686D02*
X427096250Y-162945814D01*
X428566250Y-162491686D02*
X428566250Y-162945814D01*
X131821250Y-162491686D02*
X131821250Y-162945814D01*
X133291250Y-162491686D02*
X133291250Y-162945814D01*
X83931250Y-165231250D02*
X85931250Y-165231250D01*
X85931250Y-165231250D02*
X85931250Y-169131250D01*
X83931250Y-165231250D02*
X83931250Y-169131250D01*
X179446250Y-181541686D02*
X179446250Y-181995814D01*
X180916250Y-181541686D02*
X180916250Y-181995814D01*
X209756250Y-146181250D02*
X209756250Y-150081250D01*
X207756250Y-146181250D02*
X209756250Y-146181250D01*
X207756250Y-146181250D02*
X207756250Y-150081250D01*
X322056250Y-146181250D02*
X322056250Y-150081250D01*
X322056250Y-146181250D02*
X324056250Y-146181250D01*
X324056250Y-146181250D02*
X324056250Y-150081250D01*
X90693750Y-117606250D02*
X90693750Y-121506250D01*
X88693750Y-117606250D02*
X88693750Y-121506250D01*
X88693750Y-117606250D02*
X90693750Y-117606250D01*
X342841250Y-133916686D02*
X342841250Y-134370814D01*
X341371250Y-133916686D02*
X341371250Y-134370814D01*
X446146250Y-219641686D02*
X446146250Y-220095814D01*
X447616250Y-219641686D02*
X447616250Y-220095814D01*
X236331250Y-165231250D02*
X236331250Y-169131250D01*
X236331250Y-165231250D02*
X238331250Y-165231250D01*
X238331250Y-165231250D02*
X238331250Y-169131250D01*
X171656250Y-117606250D02*
X171656250Y-121506250D01*
X169656250Y-117606250D02*
X169656250Y-121506250D01*
X169656250Y-117606250D02*
X171656250Y-117606250D01*
X361891250Y-162491686D02*
X361891250Y-162945814D01*
X360421250Y-162491686D02*
X360421250Y-162945814D01*
X138965000Y-200591686D02*
X138965000Y-201045814D01*
X140435000Y-200591686D02*
X140435000Y-201045814D01*
X341106250Y-117606250D02*
X343106250Y-117606250D01*
X343106250Y-117606250D02*
X343106250Y-121506250D01*
X341106250Y-117606250D02*
X341106250Y-121506250D01*
X250883750Y-219641686D02*
X250883750Y-220095814D01*
X252353750Y-219641686D02*
X252353750Y-220095814D01*
X338343750Y-184281250D02*
X338343750Y-188181250D01*
X336343750Y-184281250D02*
X338343750Y-184281250D01*
X336343750Y-184281250D02*
X336343750Y-188181250D01*
X183562500Y-222381250D02*
X183562500Y-226281250D01*
X181562500Y-222381250D02*
X183562500Y-222381250D01*
X181562500Y-222381250D02*
X181562500Y-226281250D01*
X294275000Y-117606250D02*
X296275000Y-117606250D01*
X294275000Y-117606250D02*
X294275000Y-121506250D01*
X296275000Y-117606250D02*
X296275000Y-121506250D01*
X331581250Y-165231250D02*
X331581250Y-169131250D01*
X333581250Y-165231250D02*
X333581250Y-169131250D01*
X331581250Y-165231250D02*
X333581250Y-165231250D01*
X158015000Y-238691686D02*
X158015000Y-239145814D01*
X159485000Y-238691686D02*
X159485000Y-239145814D01*
X190706250Y-117606250D02*
X190706250Y-121506250D01*
X188706250Y-117606250D02*
X188706250Y-121506250D01*
X188706250Y-117606250D02*
X190706250Y-117606250D01*
X296010000Y-133916686D02*
X296010000Y-134370814D01*
X294540000Y-133916686D02*
X294540000Y-134370814D01*
X219281250Y-165231250D02*
X219281250Y-169131250D01*
X217281250Y-165231250D02*
X219281250Y-165231250D01*
X217281250Y-165231250D02*
X217281250Y-169131250D01*
X336608750Y-200591686D02*
X336608750Y-201045814D01*
X338078750Y-200591686D02*
X338078750Y-201045814D01*
X319028750Y-200591686D02*
X319028750Y-201045814D01*
X317558750Y-200591686D02*
X317558750Y-201045814D01*
X466931250Y-117606250D02*
X466931250Y-121506250D01*
X464931250Y-117606250D02*
X466931250Y-117606250D01*
X464931250Y-117606250D02*
X464931250Y-121506250D01*
X298508750Y-200591686D02*
X298508750Y-201045814D01*
X299978750Y-200591686D02*
X299978750Y-201045814D01*
X136318750Y-165231250D02*
X138318750Y-165231250D01*
X138318750Y-165231250D02*
X138318750Y-169131250D01*
X136318750Y-165231250D02*
X136318750Y-169131250D01*
X140700000Y-184281250D02*
X140700000Y-188181250D01*
X138700000Y-184281250D02*
X140700000Y-184281250D01*
X138700000Y-184281250D02*
X138700000Y-188181250D01*
X255000000Y-222381250D02*
X255000000Y-226281250D01*
X253000000Y-222381250D02*
X253000000Y-226281250D01*
X253000000Y-222381250D02*
X255000000Y-222381250D01*
X83931250Y-222381250D02*
X85931250Y-222381250D01*
X83931250Y-222381250D02*
X83931250Y-226281250D01*
X85931250Y-222381250D02*
X85931250Y-226281250D01*
X328553750Y-219641686D02*
X328553750Y-220095814D01*
X327083750Y-219641686D02*
X327083750Y-220095814D01*
X280928750Y-200591686D02*
X280928750Y-201045814D01*
X279458750Y-200591686D02*
X279458750Y-201045814D01*
X227071250Y-133916686D02*
X227071250Y-134370814D01*
X228541250Y-133916686D02*
X228541250Y-134370814D01*
X69643750Y-117606250D02*
X71643750Y-117606250D01*
X71643750Y-117606250D02*
X71643750Y-121506250D01*
X69643750Y-117606250D02*
X69643750Y-121506250D01*
X388350000Y-184281250D02*
X388350000Y-188181250D01*
X386350000Y-184281250D02*
X386350000Y-188181250D01*
X386350000Y-184281250D02*
X388350000Y-184281250D01*
X228541250Y-162491686D02*
X228541250Y-162945814D01*
X227071250Y-162491686D02*
X227071250Y-162945814D01*
X247856250Y-146181250D02*
X247856250Y-150081250D01*
X245856250Y-146181250D02*
X245856250Y-150081250D01*
X245856250Y-146181250D02*
X247856250Y-146181250D01*
X381587500Y-203331250D02*
X383587500Y-203331250D01*
X383587500Y-203331250D02*
X383587500Y-207231250D01*
X381587500Y-203331250D02*
X381587500Y-207231250D01*
X104716250Y-181541686D02*
X104716250Y-181995814D01*
X103246250Y-181541686D02*
X103246250Y-181995814D01*
X426831250Y-222381250D02*
X426831250Y-226281250D01*
X428831250Y-222381250D02*
X428831250Y-226281250D01*
X426831250Y-222381250D02*
X428831250Y-222381250D01*
X398521250Y-133916686D02*
X398521250Y-134370814D01*
X399991250Y-133916686D02*
X399991250Y-134370814D01*
X465196250Y-181541686D02*
X465196250Y-181995814D01*
X466666250Y-181541686D02*
X466666250Y-181995814D01*
X360156250Y-117606250D02*
X362156250Y-117606250D01*
X360156250Y-117606250D02*
X360156250Y-121506250D01*
X362156250Y-117606250D02*
X362156250Y-121506250D01*
X269668750Y-203331250D02*
X269668750Y-207231250D01*
X269668750Y-203331250D02*
X271668750Y-203331250D01*
X271668750Y-203331250D02*
X271668750Y-207231250D01*
X355393750Y-184281250D02*
X355393750Y-188181250D01*
X357393750Y-184281250D02*
X357393750Y-188181250D01*
X355393750Y-184281250D02*
X357393750Y-184281250D01*
X190441250Y-162491686D02*
X190441250Y-162945814D01*
X188971250Y-162491686D02*
X188971250Y-162945814D01*
X143462500Y-203331250D02*
X143462500Y-207231250D01*
X143462500Y-203331250D02*
X145462500Y-203331250D01*
X145462500Y-203331250D02*
X145462500Y-207231250D01*
X447881250Y-203331250D02*
X447881250Y-207231250D01*
X445881250Y-203331250D02*
X447881250Y-203331250D01*
X445881250Y-203331250D02*
X445881250Y-207231250D01*
X226806250Y-117606250D02*
X228806250Y-117606250D01*
X228806250Y-117606250D02*
X228806250Y-121506250D01*
X226806250Y-117606250D02*
X226806250Y-121506250D01*
X447881250Y-117606250D02*
X447881250Y-121506250D01*
X445881250Y-117606250D02*
X445881250Y-121506250D01*
X445881250Y-117606250D02*
X447881250Y-117606250D01*
X85666250Y-219641686D02*
X85666250Y-220095814D01*
X84196250Y-219641686D02*
X84196250Y-220095814D01*
X284221250Y-162491686D02*
X284221250Y-162945814D01*
X285691250Y-162491686D02*
X285691250Y-162945814D01*
X183297500Y-238691686D02*
X183297500Y-239145814D01*
X181827500Y-238691686D02*
X181827500Y-239145814D01*
X236596250Y-181541686D02*
X236596250Y-181995814D01*
X238066250Y-181541686D02*
X238066250Y-181995814D01*
X166628750Y-200591686D02*
X166628750Y-201045814D01*
X165158750Y-200591686D02*
X165158750Y-201045814D01*
X303006250Y-146181250D02*
X303006250Y-150081250D01*
X303006250Y-146181250D02*
X305006250Y-146181250D01*
X305006250Y-146181250D02*
X305006250Y-150081250D01*
X136583750Y-181541686D02*
X136583750Y-181995814D01*
X138053750Y-181541686D02*
X138053750Y-181995814D01*
X104981250Y-222381250D02*
X104981250Y-226281250D01*
X102981250Y-222381250D02*
X104981250Y-222381250D01*
X102981250Y-222381250D02*
X102981250Y-226281250D01*
X326172500Y-238691686D02*
X326172500Y-239145814D01*
X324702500Y-238691686D02*
X324702500Y-239145814D01*
X169656250Y-146181250D02*
X169656250Y-150081250D01*
X171656250Y-146181250D02*
X171656250Y-150081250D01*
X169656250Y-146181250D02*
X171656250Y-146181250D01*
X397875000Y-222381250D02*
X397875000Y-226281250D01*
X395875000Y-222381250D02*
X395875000Y-226281250D01*
X395875000Y-222381250D02*
X397875000Y-222381250D01*
X134202500Y-238691686D02*
X134202500Y-239145814D01*
X135672500Y-238691686D02*
X135672500Y-239145814D01*
X290718750Y-203331250D02*
X290718750Y-207231250D01*
X288718750Y-203331250D02*
X288718750Y-207231250D01*
X288718750Y-203331250D02*
X290718750Y-203331250D01*
X84196250Y-162491686D02*
X84196250Y-162945814D01*
X85666250Y-162491686D02*
X85666250Y-162945814D01*
X428566250Y-133916686D02*
X428566250Y-134370814D01*
X427096250Y-133916686D02*
X427096250Y-134370814D01*
X309503750Y-219641686D02*
X309503750Y-220095814D01*
X308033750Y-219641686D02*
X308033750Y-220095814D01*
X396140000Y-238691686D02*
X396140000Y-239145814D01*
X397610000Y-238691686D02*
X397610000Y-239145814D01*
X372062500Y-222381250D02*
X374062500Y-222381250D01*
X374062500Y-222381250D02*
X374062500Y-226281250D01*
X372062500Y-222381250D02*
X372062500Y-226281250D01*
X198231250Y-165231250D02*
X198231250Y-169131250D01*
X198231250Y-165231250D02*
X200231250Y-165231250D01*
X200231250Y-165231250D02*
X200231250Y-169131250D01*
X133937500Y-222381250D02*
X133937500Y-226281250D01*
X135937500Y-222381250D02*
X135937500Y-226281250D01*
X133937500Y-222381250D02*
X135937500Y-222381250D01*
X346133750Y-219641686D02*
X346133750Y-220095814D01*
X347603750Y-219641686D02*
X347603750Y-220095814D01*
X285956250Y-146181250D02*
X285956250Y-150081250D01*
X283956250Y-146181250D02*
X285956250Y-146181250D01*
X283956250Y-146181250D02*
X283956250Y-150081250D01*
X185678750Y-200591686D02*
X185678750Y-201045814D01*
X184208750Y-200591686D02*
X184208750Y-201045814D01*
X246650000Y-165231250D02*
X246650000Y-169131250D01*
X246650000Y-165231250D02*
X248650000Y-165231250D01*
X248650000Y-165231250D02*
X248650000Y-169131250D01*
X446146250Y-162491686D02*
X446146250Y-162945814D01*
X447616250Y-162491686D02*
X447616250Y-162945814D01*
X83931250Y-184281250D02*
X85931250Y-184281250D01*
X85931250Y-184281250D02*
X85931250Y-188181250D01*
X83931250Y-184281250D02*
X83931250Y-188181250D01*
X131556250Y-117606250D02*
X133556250Y-117606250D01*
X133556250Y-117606250D02*
X133556250Y-121506250D01*
X131556250Y-117606250D02*
X131556250Y-121506250D01*
X304741250Y-162491686D02*
X304741250Y-162945814D01*
X303271250Y-162491686D02*
X303271250Y-162945814D01*
X400256250Y-117606250D02*
X400256250Y-121506250D01*
X398256250Y-117606250D02*
X398256250Y-121506250D01*
X398256250Y-117606250D02*
X400256250Y-117606250D01*
X85666250Y-238691686D02*
X85666250Y-239145814D01*
X84196250Y-238691686D02*
X84196250Y-239145814D01*
X382000000Y-165231250D02*
X382000000Y-169131250D01*
X380000000Y-165231250D02*
X380000000Y-169131250D01*
X380000000Y-165231250D02*
X382000000Y-165231250D01*
X326818750Y-203331250D02*
X328818750Y-203331250D01*
X326818750Y-203331250D02*
X326818750Y-207231250D01*
X328818750Y-203331250D02*
X328818750Y-207231250D01*
X195203750Y-217260436D02*
X195203750Y-217714564D01*
X193733750Y-217260436D02*
X193733750Y-217714564D01*
X426831250Y-117606250D02*
X428831250Y-117606250D01*
X426831250Y-117606250D02*
X426831250Y-121506250D01*
X428831250Y-117606250D02*
X428831250Y-121506250D01*
X380941250Y-133916686D02*
X380941250Y-134370814D01*
X379471250Y-133916686D02*
X379471250Y-134370814D01*
X260408750Y-200591686D02*
X260408750Y-201045814D01*
X261878750Y-200591686D02*
X261878750Y-201045814D01*
X241093750Y-184281250D02*
X243093750Y-184281250D01*
X241093750Y-184281250D02*
X241093750Y-188181250D01*
X243093750Y-184281250D02*
X243093750Y-188181250D01*
X323791250Y-162491686D02*
X323791250Y-162945814D01*
X322321250Y-162491686D02*
X322321250Y-162945814D01*
X103246250Y-219641686D02*
X103246250Y-220095814D01*
X104716250Y-219641686D02*
X104716250Y-220095814D01*
X348515000Y-238691686D02*
X348515000Y-239145814D01*
X349985000Y-238691686D02*
X349985000Y-239145814D01*
X181181250Y-165231250D02*
X181181250Y-169131250D01*
X179181250Y-165231250D02*
X179181250Y-169131250D01*
X179181250Y-165231250D02*
X181181250Y-165231250D01*
X371416250Y-181541686D02*
X371416250Y-181995814D01*
X369946250Y-181541686D02*
X369946250Y-181995814D01*
X293746250Y-181541686D02*
X293746250Y-181995814D01*
X295216250Y-181541686D02*
X295216250Y-181995814D01*
X103246250Y-238691686D02*
X103246250Y-239145814D01*
X104716250Y-238691686D02*
X104716250Y-239145814D01*
X350250000Y-222381250D02*
X350250000Y-226281250D01*
X348250000Y-222381250D02*
X348250000Y-226281250D01*
X348250000Y-222381250D02*
X350250000Y-222381250D01*
X157750000Y-222381250D02*
X159750000Y-222381250D01*
X157750000Y-222381250D02*
X157750000Y-226281250D01*
X159750000Y-222381250D02*
X159750000Y-226281250D01*
X290453750Y-219641686D02*
X290453750Y-220095814D01*
X288983750Y-219641686D02*
X288983750Y-220095814D01*
X133556250Y-146181250D02*
X133556250Y-150081250D01*
X131556250Y-146181250D02*
X133556250Y-146181250D01*
X131556250Y-146181250D02*
X131556250Y-150081250D01*
X466666250Y-133916686D02*
X466666250Y-134370814D01*
X465196250Y-133916686D02*
X465196250Y-134370814D01*
X447616250Y-133916686D02*
X447616250Y-134370814D01*
X446146250Y-133916686D02*
X446146250Y-134370814D01*
X104716250Y-162491686D02*
X104716250Y-162945814D01*
X103246250Y-162491686D02*
X103246250Y-162945814D01*
X331846250Y-181541686D02*
X331846250Y-181995814D01*
X333316250Y-181541686D02*
X333316250Y-181995814D01*
X276166250Y-181541686D02*
X276166250Y-181995814D01*
X274696250Y-181541686D02*
X274696250Y-181995814D01*
X231833750Y-219641686D02*
X231833750Y-220095814D01*
X233303750Y-219641686D02*
X233303750Y-220095814D01*
X152341250Y-162491686D02*
X152341250Y-162945814D01*
X150871250Y-162491686D02*
X150871250Y-162945814D01*
X355658750Y-200591686D02*
X355658750Y-201045814D01*
X357128750Y-200591686D02*
X357128750Y-201045814D01*
X208021250Y-133916686D02*
X208021250Y-134370814D01*
X209491250Y-133916686D02*
X209491250Y-134370814D01*
X83931250Y-146181250D02*
X85931250Y-146181250D01*
X85931250Y-146181250D02*
X85931250Y-150081250D01*
X83931250Y-146181250D02*
X83931250Y-150081250D01*
X466931250Y-222381250D02*
X466931250Y-226281250D01*
X464931250Y-222381250D02*
X466931250Y-222381250D01*
X464931250Y-222381250D02*
X464931250Y-226281250D01*
X171391250Y-133916686D02*
X171391250Y-134370814D01*
X169921250Y-133916686D02*
X169921250Y-134370814D01*
X255381250Y-117606250D02*
X257381250Y-117606250D01*
X257381250Y-117606250D02*
X257381250Y-121506250D01*
X255381250Y-117606250D02*
X255381250Y-121506250D01*
X312531250Y-165231250D02*
X314531250Y-165231250D01*
X314531250Y-165231250D02*
X314531250Y-169131250D01*
X312531250Y-165231250D02*
X312531250Y-169131250D01*
X193468750Y-203331250D02*
X195468750Y-203331250D01*
X193468750Y-203331250D02*
X193468750Y-207231250D01*
X195468750Y-203331250D02*
X195468750Y-207231250D01*
X202993750Y-184281250D02*
X204993750Y-184281250D01*
X202993750Y-184281250D02*
X202993750Y-188181250D01*
X204993750Y-184281250D02*
X204993750Y-188181250D01*
X427096250Y-238691686D02*
X427096250Y-239145814D01*
X428566250Y-238691686D02*
X428566250Y-239145814D01*
X103246250Y-200591686D02*
X103246250Y-201045814D01*
X104716250Y-200591686D02*
X104716250Y-201045814D01*
X222308750Y-200591686D02*
X222308750Y-201045814D01*
X223778750Y-200591686D02*
X223778750Y-201045814D01*
X222043750Y-184281250D02*
X222043750Y-188181250D01*
X222043750Y-184281250D02*
X224043750Y-184281250D01*
X224043750Y-184281250D02*
X224043750Y-188181250D01*
X269933750Y-219641686D02*
X269933750Y-220095814D01*
X271403750Y-219641686D02*
X271403750Y-220095814D01*
X426831250Y-165231250D02*
X426831250Y-169131250D01*
X428831250Y-165231250D02*
X428831250Y-169131250D01*
X426831250Y-165231250D02*
X428831250Y-165231250D01*
X102981250Y-184281250D02*
X102981250Y-188181250D01*
X102981250Y-184281250D02*
X104981250Y-184281250D01*
X104981250Y-184281250D02*
X104981250Y-188181250D01*
X214253750Y-219641686D02*
X214253750Y-220095814D01*
X212783750Y-219641686D02*
X212783750Y-220095814D01*
X350896250Y-181541686D02*
X350896250Y-181995814D01*
X352366250Y-181541686D02*
X352366250Y-181995814D01*
X151018750Y-165231250D02*
X151018750Y-169131250D01*
X149018750Y-165231250D02*
X151018750Y-165231250D01*
X149018750Y-165231250D02*
X149018750Y-169131250D01*
X466666250Y-238691686D02*
X466666250Y-239145814D01*
X465196250Y-238691686D02*
X465196250Y-239145814D01*
X164893750Y-184281250D02*
X164893750Y-188181250D01*
X164893750Y-184281250D02*
X166893750Y-184281250D01*
X166893750Y-184281250D02*
X166893750Y-188181250D01*
X374856250Y-165231250D02*
X374856250Y-169131250D01*
X372856250Y-165231250D02*
X374856250Y-165231250D01*
X372856250Y-165231250D02*
X372856250Y-169131250D01*
X427096250Y-181541686D02*
X427096250Y-181995814D01*
X428566250Y-181541686D02*
X428566250Y-181995814D01*
X326437500Y-222381250D02*
X326437500Y-226281250D01*
X324437500Y-222381250D02*
X324437500Y-226281250D01*
X324437500Y-222381250D02*
X326437500Y-222381250D01*
X265171250Y-162491686D02*
X265171250Y-162945814D01*
X266641250Y-162491686D02*
X266641250Y-162945814D01*
X295481250Y-165231250D02*
X295481250Y-169131250D01*
X293481250Y-165231250D02*
X295481250Y-165231250D01*
X293481250Y-165231250D02*
X293481250Y-169131250D01*
X360421250Y-133916686D02*
X360421250Y-134370814D01*
X361891250Y-133916686D02*
X361891250Y-134370814D01*
X231568750Y-203331250D02*
X233568750Y-203331250D01*
X233568750Y-203331250D02*
X233568750Y-207231250D01*
X231568750Y-203331250D02*
X231568750Y-207231250D01*
X188971250Y-133916686D02*
X188971250Y-134370814D01*
X190441250Y-133916686D02*
X190441250Y-134370814D01*
X464931250Y-165231250D02*
X464931250Y-169131250D01*
X466931250Y-165231250D02*
X466931250Y-169131250D01*
X464931250Y-165231250D02*
X466931250Y-165231250D01*
X341106250Y-146181250D02*
X341106250Y-150081250D01*
X343106250Y-146181250D02*
X343106250Y-150081250D01*
X341106250Y-146181250D02*
X343106250Y-146181250D01*
X102981250Y-203331250D02*
X104981250Y-203331250D01*
X104981250Y-203331250D02*
X104981250Y-207231250D01*
X102981250Y-203331250D02*
X102981250Y-207231250D01*
X426831250Y-146181250D02*
X428831250Y-146181250D01*
X426831250Y-146181250D02*
X426831250Y-150081250D01*
X428831250Y-146181250D02*
X428831250Y-150081250D01*
X226806250Y-146181250D02*
X228806250Y-146181250D01*
X226806250Y-146181250D02*
X226806250Y-150081250D01*
X228806250Y-146181250D02*
X228806250Y-150081250D01*
X85666250Y-200591686D02*
X85666250Y-201045814D01*
X84196250Y-200591686D02*
X84196250Y-201045814D01*
X207756250Y-117606250D02*
X209756250Y-117606250D01*
X207756250Y-117606250D02*
X207756250Y-121506250D01*
X209756250Y-117606250D02*
X209756250Y-121506250D01*
X298243750Y-184281250D02*
X298243750Y-188181250D01*
X298243750Y-184281250D02*
X300243750Y-184281250D01*
X300243750Y-184281250D02*
X300243750Y-188181250D01*
X396022500Y-181541686D02*
X396022500Y-181995814D01*
X394552500Y-181541686D02*
X394552500Y-181995814D01*
X257116250Y-133916686D02*
X257116250Y-134370814D01*
X255646250Y-133916686D02*
X255646250Y-134370814D01*
X341371250Y-162491686D02*
X341371250Y-162945814D01*
X342841250Y-162491686D02*
X342841250Y-162945814D01*
%LPC*%
D11*
X391636250Y-174625000D03*
X381476250Y-174625000D03*
D12*
X386556250Y-174625000D03*
D13*
X382746250Y-172085000D03*
X389096250Y-169545000D03*
D14*
X385286250Y-179705000D03*
D15*
X387826250Y-179705000D03*
D11*
X229711250Y-212725000D03*
X219551250Y-212725000D03*
D12*
X224631250Y-212725000D03*
D13*
X220821250Y-210185000D03*
X227171250Y-207645000D03*
D14*
X223361250Y-217805000D03*
D15*
X225901250Y-217805000D03*
D16*
X110331250Y-179784375D03*
D11*
X433863750Y-155575000D03*
D12*
X438943750Y-155575000D03*
D11*
X444023750Y-155575000D03*
D13*
X435133750Y-153035000D03*
X441483750Y-150495000D03*
D14*
X437673750Y-160655000D03*
D15*
X440213750Y-160655000D03*
D11*
X267176250Y-193675000D03*
X277336250Y-193675000D03*
D12*
X272256250Y-193675000D03*
D13*
X268446250Y-191135000D03*
X274796250Y-188595000D03*
D14*
X270986250Y-198755000D03*
D15*
X273526250Y-198755000D03*
D12*
X253206250Y-193675000D03*
D11*
X258286250Y-193675000D03*
X248126250Y-193675000D03*
D13*
X249396250Y-191135000D03*
X255746250Y-188595000D03*
D14*
X251936250Y-198755000D03*
D15*
X254476250Y-198755000D03*
D12*
X324643750Y-174625000D03*
D11*
X329723750Y-174625000D03*
X319563750Y-174625000D03*
D13*
X320833750Y-172085000D03*
X327183750Y-169545000D03*
D14*
X323373750Y-179705000D03*
D15*
X325913750Y-179705000D03*
D11*
X296386250Y-193675000D03*
X286226250Y-193675000D03*
D12*
X291306250Y-193675000D03*
D13*
X287496250Y-191135000D03*
X293846250Y-188595000D03*
D14*
X290036250Y-198755000D03*
D15*
X292576250Y-198755000D03*
D11*
X71913750Y-155575000D03*
D12*
X76993750Y-155575000D03*
D11*
X82073750Y-155575000D03*
D13*
X73183750Y-153035000D03*
X79533750Y-150495000D03*
D14*
X75723750Y-160655000D03*
D15*
X78263750Y-160655000D03*
D11*
X220186250Y-193675000D03*
D12*
X215106250Y-193675000D03*
D11*
X210026250Y-193675000D03*
D13*
X211296250Y-191135000D03*
X217646250Y-188595000D03*
D14*
X213836250Y-198755000D03*
D15*
X216376250Y-198755000D03*
D17*
X52863750Y-189706250D03*
D18*
X51593750Y-189706250D03*
X50323750Y-189706250D03*
D12*
X457993750Y-174625000D03*
D11*
X452913750Y-174625000D03*
X463073750Y-174625000D03*
D13*
X454183750Y-172085000D03*
X460533750Y-169545000D03*
D14*
X456723750Y-179705000D03*
D15*
X459263750Y-179705000D03*
D11*
X433863750Y-127000000D03*
D12*
X438943750Y-127000000D03*
D11*
X444023750Y-127000000D03*
D13*
X435133750Y-124460000D03*
X441483750Y-121920000D03*
D14*
X437673750Y-132080000D03*
D15*
X440213750Y-132080000D03*
D12*
X317500000Y-231775000D03*
D11*
X312420000Y-231775000D03*
X322580000Y-231775000D03*
D13*
X313690000Y-229235000D03*
X320040000Y-226695000D03*
D14*
X316230000Y-236855000D03*
D15*
X318770000Y-236855000D03*
D19*
X393731750Y-148590000D03*
D12*
X393731750Y-163830000D03*
D11*
X376713750Y-155575000D03*
D12*
X369855750Y-163830000D03*
D19*
X369855750Y-148590000D03*
D12*
X381793750Y-155575000D03*
D11*
X386873750Y-155575000D03*
D13*
X377983750Y-153035000D03*
X384333750Y-150495000D03*
D14*
X380523750Y-160655000D03*
D15*
X383063750Y-160655000D03*
D11*
X158273750Y-174625000D03*
D12*
X153193750Y-174625000D03*
D11*
X148113750Y-174625000D03*
D13*
X149383750Y-172085000D03*
X155733750Y-169545000D03*
D14*
X151923750Y-179705000D03*
D15*
X154463750Y-179705000D03*
D16*
X405606250Y-119062500D03*
D12*
X219868750Y-155575000D03*
D11*
X214788750Y-155575000D03*
X224948750Y-155575000D03*
D13*
X216058750Y-153035000D03*
X222408750Y-150495000D03*
D14*
X218598750Y-160655000D03*
D15*
X221138750Y-160655000D03*
D20*
X48703750Y-120356250D03*
X54483750Y-120356250D03*
D21*
X47273750Y-120886250D03*
D22*
X55913750Y-116706250D03*
X47273750Y-116706250D03*
D21*
X55913750Y-120886250D03*
D11*
X205898750Y-127000000D03*
X195738750Y-127000000D03*
D12*
X200818750Y-127000000D03*
D13*
X197008750Y-124460000D03*
X203358750Y-121920000D03*
D14*
X199548750Y-132080000D03*
D15*
X202088750Y-132080000D03*
D11*
X186848750Y-127000000D03*
D12*
X181768750Y-127000000D03*
D11*
X176688750Y-127000000D03*
D13*
X177958750Y-124460000D03*
X184308750Y-121920000D03*
D14*
X180498750Y-132080000D03*
D15*
X183038750Y-132080000D03*
D12*
X157956250Y-193675000D03*
D11*
X152876250Y-193675000D03*
X163036250Y-193675000D03*
D13*
X154146250Y-191135000D03*
X160496250Y-188595000D03*
D14*
X156686250Y-198755000D03*
D15*
X159226250Y-198755000D03*
D12*
X129381250Y-174625000D03*
D11*
X134461250Y-174625000D03*
X124301250Y-174625000D03*
D13*
X125571250Y-172085000D03*
X131921250Y-169545000D03*
D14*
X128111250Y-179705000D03*
D15*
X130651250Y-179705000D03*
D16*
X257968750Y-165100000D03*
D11*
X414813750Y-231775000D03*
X424973750Y-231775000D03*
D12*
X419893750Y-231775000D03*
D13*
X416083750Y-229235000D03*
X422433750Y-226695000D03*
D14*
X418623750Y-236855000D03*
D15*
X421163750Y-236855000D03*
D12*
X124587000Y-220980000D03*
X148463000Y-220980000D03*
X136525000Y-212725000D03*
D11*
X131445000Y-212725000D03*
D19*
X148463000Y-205740000D03*
X124587000Y-205740000D03*
D11*
X141605000Y-212725000D03*
D13*
X132715000Y-210185000D03*
X139065000Y-207645000D03*
D14*
X135255000Y-217805000D03*
D15*
X137795000Y-217805000D03*
D16*
X162718750Y-165100000D03*
D11*
X157638750Y-127000000D03*
X167798750Y-127000000D03*
D12*
X162718750Y-127000000D03*
D13*
X158908750Y-124460000D03*
X165258750Y-121920000D03*
D14*
X161448750Y-132080000D03*
D15*
X163988750Y-132080000D03*
D16*
X405606250Y-179784375D03*
D11*
X201136250Y-193675000D03*
X190976250Y-193675000D03*
D12*
X196056250Y-193675000D03*
D13*
X192246250Y-191135000D03*
X198596250Y-188595000D03*
D14*
X194786250Y-198755000D03*
D15*
X197326250Y-198755000D03*
D11*
X300513750Y-127000000D03*
X310673750Y-127000000D03*
D12*
X305593750Y-127000000D03*
D13*
X301783750Y-124460000D03*
X308133750Y-121920000D03*
D14*
X304323750Y-132080000D03*
D15*
X306863750Y-132080000D03*
D12*
X76993750Y-193675000D03*
D11*
X71913750Y-193675000D03*
X82073750Y-193675000D03*
D13*
X73183750Y-191135000D03*
X79533750Y-188595000D03*
D14*
X75723750Y-198755000D03*
D15*
X78263750Y-198755000D03*
D11*
X205263750Y-174625000D03*
D12*
X210343750Y-174625000D03*
D11*
X215423750Y-174625000D03*
D13*
X206533750Y-172085000D03*
X212883750Y-169545000D03*
D14*
X209073750Y-179705000D03*
D15*
X211613750Y-179705000D03*
D12*
X296068750Y-155575000D03*
D11*
X290988750Y-155575000D03*
X301148750Y-155575000D03*
D13*
X292258750Y-153035000D03*
X298608750Y-150495000D03*
D14*
X294798750Y-160655000D03*
D15*
X297338750Y-160655000D03*
D11*
X334486250Y-193675000D03*
D12*
X329406250Y-193675000D03*
D11*
X324326250Y-193675000D03*
D13*
X325596250Y-191135000D03*
X331946250Y-188595000D03*
D14*
X328136250Y-198755000D03*
D15*
X330676250Y-198755000D03*
D12*
X172243750Y-174625000D03*
D11*
X167163750Y-174625000D03*
X177323750Y-174625000D03*
D13*
X168433750Y-172085000D03*
X174783750Y-169545000D03*
D14*
X170973750Y-179705000D03*
D15*
X173513750Y-179705000D03*
D11*
X129698750Y-127000000D03*
D12*
X124618750Y-127000000D03*
D11*
X119538750Y-127000000D03*
D13*
X120808750Y-124460000D03*
X127158750Y-121920000D03*
D14*
X123348750Y-132080000D03*
D15*
X125888750Y-132080000D03*
D12*
X419893750Y-127000000D03*
D11*
X424973750Y-127000000D03*
X414813750Y-127000000D03*
D13*
X416083750Y-124460000D03*
X422433750Y-121920000D03*
D14*
X418623750Y-132080000D03*
D15*
X421163750Y-132080000D03*
D11*
X291623750Y-174625000D03*
X281463750Y-174625000D03*
D12*
X286543750Y-174625000D03*
D13*
X282733750Y-172085000D03*
X289083750Y-169545000D03*
D14*
X285273750Y-179705000D03*
D15*
X287813750Y-179705000D03*
D12*
X362743750Y-174625000D03*
D11*
X357663750Y-174625000D03*
X367823750Y-174625000D03*
D13*
X358933750Y-172085000D03*
X365283750Y-169545000D03*
D14*
X361473750Y-179705000D03*
D15*
X364013750Y-179705000D03*
D11*
X129698750Y-155575000D03*
X119538750Y-155575000D03*
D12*
X124618750Y-155575000D03*
D13*
X120808750Y-153035000D03*
X127158750Y-150495000D03*
D14*
X123348750Y-160655000D03*
D15*
X125888750Y-160655000D03*
D11*
X383857500Y-231775000D03*
X394017500Y-231775000D03*
D12*
X388937500Y-231775000D03*
D13*
X385127500Y-229235000D03*
X391477500Y-226695000D03*
D14*
X387667500Y-236855000D03*
D15*
X390207500Y-236855000D03*
D11*
X282098750Y-155575000D03*
D12*
X277018750Y-155575000D03*
D11*
X271938750Y-155575000D03*
D13*
X273208750Y-153035000D03*
X279558750Y-150495000D03*
D14*
X275748750Y-160655000D03*
D15*
X278288750Y-160655000D03*
D11*
X333851250Y-212725000D03*
D12*
X338931250Y-212725000D03*
D11*
X344011250Y-212725000D03*
D13*
X335121250Y-210185000D03*
X341471250Y-207645000D03*
D14*
X337661250Y-217805000D03*
D15*
X340201250Y-217805000D03*
D11*
X162401250Y-212725000D03*
D12*
X167481250Y-212725000D03*
D11*
X172561250Y-212725000D03*
D13*
X163671250Y-210185000D03*
X170021250Y-207645000D03*
D14*
X166211250Y-217805000D03*
D15*
X168751250Y-217805000D03*
D11*
X71913750Y-174625000D03*
D12*
X76993750Y-174625000D03*
D11*
X82073750Y-174625000D03*
D13*
X73183750Y-172085000D03*
X79533750Y-169545000D03*
D14*
X75723750Y-179705000D03*
D15*
X78263750Y-179705000D03*
D11*
X148748750Y-155575000D03*
D12*
X143668750Y-155575000D03*
D11*
X138588750Y-155575000D03*
D13*
X139858750Y-153035000D03*
X146208750Y-150495000D03*
D14*
X142398750Y-160655000D03*
D15*
X144938750Y-160655000D03*
D12*
X234156250Y-193675000D03*
D11*
X229076250Y-193675000D03*
X239236250Y-193675000D03*
D13*
X230346250Y-191135000D03*
X236696250Y-188595000D03*
D14*
X232886250Y-198755000D03*
D15*
X235426250Y-198755000D03*
D11*
X82073750Y-231775000D03*
D12*
X76993750Y-231775000D03*
D11*
X71913750Y-231775000D03*
D13*
X73183750Y-229235000D03*
X79533750Y-226695000D03*
D14*
X75723750Y-236855000D03*
D15*
X78263750Y-236855000D03*
D11*
X444023750Y-231775000D03*
D12*
X438943750Y-231775000D03*
D11*
X433863750Y-231775000D03*
D13*
X435133750Y-229235000D03*
X441483750Y-226695000D03*
D14*
X437673750Y-236855000D03*
D15*
X440213750Y-236855000D03*
D16*
X110331250Y-119062500D03*
D11*
X384492500Y-193675000D03*
D19*
X367474500Y-186690000D03*
D11*
X374332500Y-193675000D03*
D19*
X391350500Y-186690000D03*
D12*
X379412500Y-193675000D03*
X367474500Y-201930000D03*
X391350500Y-201930000D03*
D13*
X375602500Y-191135000D03*
X381952500Y-188595000D03*
D14*
X378142500Y-198755000D03*
D15*
X380682500Y-198755000D03*
D23*
X82593750Y-127000000D03*
X71393750Y-127000000D03*
D24*
X74493750Y-134500000D03*
D25*
X79493750Y-134500000D03*
X76993750Y-134500000D03*
X79493750Y-120000000D03*
X74493750Y-120000000D03*
D12*
X262731250Y-212725000D03*
D11*
X257651250Y-212725000D03*
X267811250Y-212725000D03*
D13*
X258921250Y-210185000D03*
X265271250Y-207645000D03*
D14*
X261461250Y-217805000D03*
D15*
X264001250Y-217805000D03*
D11*
X463073750Y-231775000D03*
X452913750Y-231775000D03*
D12*
X457993750Y-231775000D03*
D13*
X454183750Y-229235000D03*
X460533750Y-226695000D03*
D14*
X456723750Y-236855000D03*
D15*
X459263750Y-236855000D03*
D11*
X414813750Y-174625000D03*
X424973750Y-174625000D03*
D12*
X419893750Y-174625000D03*
D13*
X416083750Y-172085000D03*
X422433750Y-169545000D03*
D14*
X418623750Y-179705000D03*
D15*
X421163750Y-179705000D03*
D11*
X444023750Y-174625000D03*
D12*
X438943750Y-174625000D03*
D11*
X433863750Y-174625000D03*
D13*
X435133750Y-172085000D03*
X441483750Y-169545000D03*
D14*
X437673750Y-179705000D03*
D15*
X440213750Y-179705000D03*
D11*
X367188750Y-127000000D03*
D12*
X372268750Y-127000000D03*
D11*
X377348750Y-127000000D03*
D13*
X368458750Y-124460000D03*
X374808750Y-121920000D03*
D14*
X370998750Y-132080000D03*
D15*
X373538750Y-132080000D03*
D12*
X96043750Y-193675000D03*
D11*
X90963750Y-193675000D03*
X101123750Y-193675000D03*
D13*
X92233750Y-191135000D03*
X98583750Y-188595000D03*
D14*
X94773750Y-198755000D03*
D15*
X97313750Y-198755000D03*
D12*
X150812500Y-231775000D03*
D11*
X145732500Y-231775000D03*
X155892500Y-231775000D03*
D13*
X147002500Y-229235000D03*
X153352500Y-226695000D03*
D14*
X149542500Y-236855000D03*
D15*
X152082500Y-236855000D03*
D11*
X262413750Y-174625000D03*
X272573750Y-174625000D03*
D12*
X267493750Y-174625000D03*
D13*
X263683750Y-172085000D03*
X270033750Y-169545000D03*
D14*
X266223750Y-179705000D03*
D15*
X268763750Y-179705000D03*
D11*
X101123750Y-231775000D03*
X90963750Y-231775000D03*
D12*
X96043750Y-231775000D03*
D13*
X92233750Y-229235000D03*
X98583750Y-226695000D03*
D14*
X94773750Y-236855000D03*
D15*
X97313750Y-236855000D03*
D11*
X320198750Y-155575000D03*
X310038750Y-155575000D03*
D12*
X315118750Y-155575000D03*
D13*
X311308750Y-153035000D03*
X317658750Y-150495000D03*
D14*
X313848750Y-160655000D03*
D15*
X316388750Y-160655000D03*
D11*
X176688750Y-155575000D03*
D12*
X181768750Y-155575000D03*
D11*
X186848750Y-155575000D03*
D13*
X177958750Y-153035000D03*
X184308750Y-150495000D03*
D14*
X180498750Y-160655000D03*
D15*
X183038750Y-160655000D03*
D12*
X219868750Y-127000000D03*
D11*
X214788750Y-127000000D03*
X224948750Y-127000000D03*
D13*
X216058750Y-124460000D03*
X222408750Y-121920000D03*
D14*
X218598750Y-132080000D03*
D15*
X221138750Y-132080000D03*
D12*
X127000000Y-231775000D03*
D11*
X132080000Y-231775000D03*
X121920000Y-231775000D03*
D13*
X123190000Y-229235000D03*
X129540000Y-226695000D03*
D14*
X125730000Y-236855000D03*
D15*
X128270000Y-236855000D03*
D16*
X110331250Y-240506250D03*
X472281250Y-240506250D03*
D11*
X414813750Y-155575000D03*
X424973750Y-155575000D03*
D12*
X419893750Y-155575000D03*
D13*
X416083750Y-153035000D03*
X422433750Y-150495000D03*
D14*
X418623750Y-160655000D03*
D15*
X421163750Y-160655000D03*
D11*
X179705000Y-231775000D03*
D12*
X174625000Y-231775000D03*
D11*
X169545000Y-231775000D03*
D13*
X170815000Y-229235000D03*
X177165000Y-226695000D03*
D14*
X173355000Y-236855000D03*
D15*
X175895000Y-236855000D03*
D16*
X253206250Y-203200000D03*
D11*
X263048750Y-155575000D03*
D12*
X257968750Y-155575000D03*
D11*
X252888750Y-155575000D03*
D13*
X254158750Y-153035000D03*
X260508750Y-150495000D03*
D14*
X256698750Y-160655000D03*
D15*
X259238750Y-160655000D03*
D12*
X457993750Y-127000000D03*
D11*
X452913750Y-127000000D03*
X463073750Y-127000000D03*
D13*
X454183750Y-124460000D03*
X460533750Y-121920000D03*
D14*
X456723750Y-132080000D03*
D15*
X459263750Y-132080000D03*
D11*
X286861250Y-212725000D03*
X276701250Y-212725000D03*
D12*
X281781250Y-212725000D03*
D13*
X277971250Y-210185000D03*
X284321250Y-207645000D03*
D14*
X280511250Y-217805000D03*
D15*
X283051250Y-217805000D03*
D11*
X90963750Y-212725000D03*
D12*
X96043750Y-212725000D03*
D11*
X101123750Y-212725000D03*
D13*
X92233750Y-210185000D03*
X98583750Y-207645000D03*
D14*
X94773750Y-217805000D03*
D15*
X97313750Y-217805000D03*
D16*
X177006250Y-203200000D03*
X472281250Y-119062500D03*
D11*
X200501250Y-212725000D03*
X210661250Y-212725000D03*
D12*
X205581250Y-212725000D03*
D13*
X201771250Y-210185000D03*
X208121250Y-207645000D03*
D14*
X204311250Y-217805000D03*
D15*
X206851250Y-217805000D03*
D11*
X370205000Y-231775000D03*
X360045000Y-231775000D03*
D12*
X365125000Y-231775000D03*
D13*
X361315000Y-229235000D03*
X367665000Y-226695000D03*
D14*
X363855000Y-236855000D03*
D15*
X366395000Y-236855000D03*
D12*
X286543750Y-127000000D03*
D11*
X281463750Y-127000000D03*
X291623750Y-127000000D03*
D13*
X282733750Y-124460000D03*
X289083750Y-121920000D03*
D14*
X285273750Y-132080000D03*
D15*
X287813750Y-132080000D03*
D11*
X181451250Y-212725000D03*
X191611250Y-212725000D03*
D12*
X186531250Y-212725000D03*
D13*
X182721250Y-210185000D03*
X189071250Y-207645000D03*
D14*
X185261250Y-217805000D03*
D15*
X187801250Y-217805000D03*
D12*
X353218750Y-155575000D03*
D11*
X348138750Y-155575000D03*
X358298750Y-155575000D03*
D13*
X349408750Y-153035000D03*
X355758750Y-150495000D03*
D14*
X351948750Y-160655000D03*
D15*
X354488750Y-160655000D03*
D11*
X329088750Y-127000000D03*
D12*
X334168750Y-127000000D03*
D11*
X339248750Y-127000000D03*
D13*
X330358750Y-124460000D03*
X336708750Y-121920000D03*
D14*
X332898750Y-132080000D03*
D15*
X335438750Y-132080000D03*
D11*
X348138750Y-127000000D03*
X358298750Y-127000000D03*
D12*
X353218750Y-127000000D03*
D13*
X349408750Y-124460000D03*
X355758750Y-121920000D03*
D14*
X351948750Y-132080000D03*
D15*
X354488750Y-132080000D03*
D11*
X234473750Y-174625000D03*
D12*
X229393750Y-174625000D03*
D11*
X224313750Y-174625000D03*
D13*
X225583750Y-172085000D03*
X231933750Y-169545000D03*
D14*
X228123750Y-179705000D03*
D15*
X230663750Y-179705000D03*
D11*
X182086250Y-193675000D03*
X171926250Y-193675000D03*
D12*
X177006250Y-193675000D03*
D13*
X173196250Y-191135000D03*
X179546250Y-188595000D03*
D14*
X175736250Y-198755000D03*
D15*
X178276250Y-198755000D03*
D11*
X324961250Y-212725000D03*
D12*
X319881250Y-212725000D03*
D11*
X314801250Y-212725000D03*
D13*
X316071250Y-210185000D03*
X322421250Y-207645000D03*
D14*
X318611250Y-217805000D03*
D15*
X321151250Y-217805000D03*
D12*
X238918750Y-155575000D03*
D11*
X243998750Y-155575000D03*
X233838750Y-155575000D03*
D13*
X235108750Y-153035000D03*
X241458750Y-150495000D03*
D14*
X237648750Y-160655000D03*
D15*
X240188750Y-160655000D03*
D11*
X253523750Y-127000000D03*
X243363750Y-127000000D03*
D12*
X248443750Y-127000000D03*
D13*
X244633750Y-124460000D03*
X250983750Y-121920000D03*
D14*
X247173750Y-132080000D03*
D15*
X249713750Y-132080000D03*
D12*
X343693750Y-174625000D03*
D11*
X348773750Y-174625000D03*
X338613750Y-174625000D03*
D13*
X339883750Y-172085000D03*
X346233750Y-169545000D03*
D14*
X342423750Y-179705000D03*
D15*
X344963750Y-179705000D03*
D16*
X40481250Y-240506250D03*
D11*
X463073750Y-155575000D03*
X452913750Y-155575000D03*
D12*
X457993750Y-155575000D03*
D13*
X454183750Y-153035000D03*
X460533750Y-150495000D03*
D14*
X456723750Y-160655000D03*
D15*
X459263750Y-160655000D03*
D12*
X196062600Y-223520000D03*
D19*
X196062600Y-238760000D03*
D11*
X240982500Y-231775000D03*
X251142500Y-231775000D03*
D12*
X246062500Y-231775000D03*
D19*
X296062400Y-238760000D03*
D12*
X296062400Y-223520000D03*
D13*
X242252500Y-229235000D03*
X248602500Y-226695000D03*
D14*
X244792500Y-236855000D03*
D15*
X247332500Y-236855000D03*
D16*
X348456250Y-203200000D03*
D11*
X444023750Y-212725000D03*
X433863750Y-212725000D03*
D12*
X438943750Y-212725000D03*
D13*
X435133750Y-210185000D03*
X441483750Y-207645000D03*
D14*
X437673750Y-217805000D03*
D15*
X440213750Y-217805000D03*
D23*
X101643750Y-127000000D03*
X90443750Y-127000000D03*
D24*
X93543750Y-134500000D03*
D25*
X98543750Y-134500000D03*
X96043750Y-134500000D03*
X98543750Y-120000000D03*
X93543750Y-120000000D03*
D11*
X336232500Y-231775000D03*
X346392500Y-231775000D03*
D12*
X341312500Y-231775000D03*
D13*
X337502500Y-229235000D03*
X343852500Y-226695000D03*
D14*
X340042500Y-236855000D03*
D15*
X342582500Y-236855000D03*
D16*
X40481250Y-119062500D03*
D12*
X96043750Y-155575000D03*
D11*
X101123750Y-155575000D03*
X90963750Y-155575000D03*
D13*
X92233750Y-153035000D03*
X98583750Y-150495000D03*
D14*
X94773750Y-160655000D03*
D15*
X97313750Y-160655000D03*
D16*
X405606250Y-240506250D03*
D11*
X353536250Y-193675000D03*
D12*
X348456250Y-193675000D03*
D11*
X343376250Y-193675000D03*
D13*
X344646250Y-191135000D03*
X350996250Y-188595000D03*
D14*
X347186250Y-198755000D03*
D15*
X349726250Y-198755000D03*
D12*
X391318750Y-127000000D03*
D11*
X396398750Y-127000000D03*
X386238750Y-127000000D03*
D13*
X387508750Y-124460000D03*
X393858750Y-121920000D03*
D14*
X390048750Y-132080000D03*
D15*
X392588750Y-132080000D03*
D11*
X272573750Y-127000000D03*
X262413750Y-127000000D03*
D12*
X267493750Y-127000000D03*
D13*
X263683750Y-124460000D03*
X270033750Y-121920000D03*
D14*
X266223750Y-132080000D03*
D15*
X268763750Y-132080000D03*
D12*
X300831250Y-212725000D03*
D11*
X295751250Y-212725000D03*
X305911250Y-212725000D03*
D13*
X297021250Y-210185000D03*
X303371250Y-207645000D03*
D14*
X299561250Y-217805000D03*
D15*
X302101250Y-217805000D03*
D11*
X305276250Y-193675000D03*
X315436250Y-193675000D03*
D12*
X310356250Y-193675000D03*
D13*
X306546250Y-191135000D03*
X312896250Y-188595000D03*
D14*
X309086250Y-198755000D03*
D15*
X311626250Y-198755000D03*
D11*
X90963750Y-174625000D03*
X101123750Y-174625000D03*
D12*
X96043750Y-174625000D03*
D13*
X92233750Y-172085000D03*
X98583750Y-169545000D03*
D14*
X94773750Y-179705000D03*
D15*
X97313750Y-179705000D03*
D11*
X157638750Y-155575000D03*
D12*
X162718750Y-155575000D03*
D11*
X167798750Y-155575000D03*
D13*
X158908750Y-153035000D03*
X165258750Y-150495000D03*
D14*
X161448750Y-160655000D03*
D15*
X163988750Y-160655000D03*
D12*
X248443750Y-174625000D03*
D11*
X243363750Y-174625000D03*
X253523750Y-174625000D03*
D13*
X244633750Y-172085000D03*
X250983750Y-169545000D03*
D14*
X247173750Y-179705000D03*
D15*
X249713750Y-179705000D03*
D11*
X329088750Y-155575000D03*
D12*
X334168750Y-155575000D03*
D11*
X339248750Y-155575000D03*
D13*
X330358750Y-153035000D03*
X336708750Y-150495000D03*
D14*
X332898750Y-160655000D03*
D15*
X335438750Y-160655000D03*
D12*
X191293750Y-174625000D03*
D11*
X186213750Y-174625000D03*
X196373750Y-174625000D03*
D13*
X187483750Y-172085000D03*
X193833750Y-169545000D03*
D14*
X190023750Y-179705000D03*
D15*
X192563750Y-179705000D03*
D11*
X205898750Y-155575000D03*
X195738750Y-155575000D03*
D12*
X200818750Y-155575000D03*
D13*
X197008750Y-153035000D03*
X203358750Y-150495000D03*
D14*
X199548750Y-160655000D03*
D15*
X202088750Y-160655000D03*
D11*
X82073750Y-212725000D03*
X71913750Y-212725000D03*
D12*
X76993750Y-212725000D03*
D13*
X73183750Y-210185000D03*
X79533750Y-207645000D03*
D14*
X75723750Y-217805000D03*
D15*
X78263750Y-217805000D03*
D11*
X300513750Y-174625000D03*
X310673750Y-174625000D03*
D12*
X305593750Y-174625000D03*
D13*
X301783750Y-172085000D03*
X308133750Y-169545000D03*
D14*
X304323750Y-179705000D03*
D15*
X306863750Y-179705000D03*
D12*
X374650000Y-212725000D03*
X386588000Y-220980000D03*
D11*
X379730000Y-212725000D03*
X369570000Y-212725000D03*
D12*
X362712000Y-220980000D03*
D19*
X362712000Y-205740000D03*
X386588000Y-205740000D03*
D13*
X370840000Y-210185000D03*
X377190000Y-207645000D03*
D14*
X373380000Y-217805000D03*
D15*
X375920000Y-217805000D03*
D12*
X131762500Y-193675000D03*
D11*
X126682500Y-193675000D03*
X136842500Y-193675000D03*
D13*
X127952500Y-191135000D03*
X134302500Y-188595000D03*
D14*
X130492500Y-198755000D03*
D15*
X133032500Y-198755000D03*
D16*
X353218750Y-165100000D03*
D11*
X238601250Y-212725000D03*
X248761250Y-212725000D03*
D12*
X243681250Y-212725000D03*
D13*
X239871250Y-210185000D03*
X246221250Y-207645000D03*
D14*
X242411250Y-217805000D03*
D15*
X244951250Y-217805000D03*
D26*
X313531250Y-118206250D03*
X313531250Y-121506250D03*
D27*
X199231250Y-180768750D03*
X199231250Y-182768750D03*
D26*
X465931250Y-146781250D03*
X465931250Y-150081250D03*
D27*
X175418750Y-218868750D03*
X175418750Y-220868750D03*
D26*
X189706250Y-146781250D03*
X189706250Y-150081250D03*
D27*
X275431250Y-133143750D03*
X275431250Y-135143750D03*
X446881250Y-180768750D03*
X446881250Y-182768750D03*
D26*
X261143750Y-184881250D03*
X261143750Y-188181250D03*
D27*
X313531250Y-180768750D03*
X313531250Y-182768750D03*
D26*
X275431250Y-165831250D03*
X275431250Y-169131250D03*
X389731250Y-146781250D03*
X389731250Y-150081250D03*
D27*
X313531250Y-133143750D03*
X313531250Y-135143750D03*
X218281250Y-180768750D03*
X218281250Y-182768750D03*
X254000000Y-237918750D03*
X254000000Y-239918750D03*
D26*
X446881250Y-222981250D03*
X446881250Y-226281250D03*
D27*
X132556250Y-133143750D03*
X132556250Y-135143750D03*
X382587500Y-218868750D03*
X382587500Y-220868750D03*
X465931250Y-161718750D03*
X465931250Y-163718750D03*
X161131250Y-180768750D03*
X161131250Y-182768750D03*
X144462500Y-218868750D03*
X144462500Y-220868750D03*
D26*
X446881250Y-165831250D03*
X446881250Y-169131250D03*
X280193750Y-184881250D03*
X280193750Y-188181250D03*
D27*
X256381250Y-180768750D03*
X256381250Y-182768750D03*
D26*
X165893750Y-203931250D03*
X165893750Y-207231250D03*
X103981250Y-165831250D03*
X103981250Y-169131250D03*
X265906250Y-146781250D03*
X265906250Y-150081250D03*
D27*
X446881250Y-237918750D03*
X446881250Y-239918750D03*
D26*
X151606250Y-146781250D03*
X151606250Y-150081250D03*
D27*
X208756250Y-161718750D03*
X208756250Y-163718750D03*
X170656250Y-161718750D03*
X170656250Y-163718750D03*
D26*
X380206250Y-118206250D03*
X380206250Y-121506250D03*
D27*
X389731250Y-161718750D03*
X389731250Y-163718750D03*
D26*
X342106250Y-165831250D03*
X342106250Y-169131250D03*
X308768750Y-203931250D03*
X308768750Y-207231250D03*
X213518750Y-203931250D03*
X213518750Y-207231250D03*
D27*
X242093750Y-199818750D03*
X242093750Y-201818750D03*
D26*
X84931250Y-203931250D03*
X84931250Y-207231250D03*
X338137500Y-203931250D03*
X338137500Y-207231250D03*
D27*
X84931250Y-180768750D03*
X84931250Y-182768750D03*
D26*
X184943750Y-184881250D03*
X184943750Y-188181250D03*
D27*
X387350000Y-199818750D03*
X387350000Y-201818750D03*
X373062500Y-237918750D03*
X373062500Y-239918750D03*
D26*
X361156250Y-146781250D03*
X361156250Y-150081250D03*
D27*
X203993750Y-199818750D03*
X203993750Y-201818750D03*
D26*
X275431250Y-118206250D03*
X275431250Y-121506250D03*
X318293750Y-184881250D03*
X318293750Y-188181250D03*
X446881250Y-146781250D03*
X446881250Y-150081250D03*
D27*
X246856250Y-161718750D03*
X246856250Y-163718750D03*
D26*
X103981250Y-146781250D03*
X103981250Y-150081250D03*
X242093750Y-203931250D03*
X242093750Y-207231250D03*
D27*
X427831250Y-161718750D03*
X427831250Y-163718750D03*
X132556250Y-161718750D03*
X132556250Y-163718750D03*
D26*
X84931250Y-165831250D03*
X84931250Y-169131250D03*
D27*
X180181250Y-180768750D03*
X180181250Y-182768750D03*
D26*
X208756250Y-146781250D03*
X208756250Y-150081250D03*
X323056250Y-146781250D03*
X323056250Y-150081250D03*
X89693750Y-118206250D03*
X89693750Y-121506250D03*
D27*
X342106250Y-133143750D03*
X342106250Y-135143750D03*
X446881250Y-218868750D03*
X446881250Y-220868750D03*
D26*
X237331250Y-165831250D03*
X237331250Y-169131250D03*
X170656250Y-118206250D03*
X170656250Y-121506250D03*
D27*
X361156250Y-161718750D03*
X361156250Y-163718750D03*
X139700000Y-199818750D03*
X139700000Y-201818750D03*
D26*
X342106250Y-118206250D03*
X342106250Y-121506250D03*
D27*
X251618750Y-218868750D03*
X251618750Y-220868750D03*
D26*
X337343750Y-184881250D03*
X337343750Y-188181250D03*
X182562500Y-222981250D03*
X182562500Y-226281250D03*
X295275000Y-118206250D03*
X295275000Y-121506250D03*
X332581250Y-165831250D03*
X332581250Y-169131250D03*
D27*
X158750000Y-237918750D03*
X158750000Y-239918750D03*
D26*
X189706250Y-118206250D03*
X189706250Y-121506250D03*
D27*
X295275000Y-133143750D03*
X295275000Y-135143750D03*
D26*
X218281250Y-165831250D03*
X218281250Y-169131250D03*
D27*
X337343750Y-199818750D03*
X337343750Y-201818750D03*
X318293750Y-199818750D03*
X318293750Y-201818750D03*
D26*
X465931250Y-118206250D03*
X465931250Y-121506250D03*
D27*
X299243750Y-199818750D03*
X299243750Y-201818750D03*
D26*
X137318750Y-165831250D03*
X137318750Y-169131250D03*
X139700000Y-184881250D03*
X139700000Y-188181250D03*
X254000000Y-222981250D03*
X254000000Y-226281250D03*
X84931250Y-222981250D03*
X84931250Y-226281250D03*
D27*
X327818750Y-218868750D03*
X327818750Y-220868750D03*
X280193750Y-199818750D03*
X280193750Y-201818750D03*
X227806250Y-133143750D03*
X227806250Y-135143750D03*
D26*
X70643750Y-118206250D03*
X70643750Y-121506250D03*
X387350000Y-184881250D03*
X387350000Y-188181250D03*
D27*
X227806250Y-161718750D03*
X227806250Y-163718750D03*
D26*
X246856250Y-146781250D03*
X246856250Y-150081250D03*
X382587500Y-203931250D03*
X382587500Y-207231250D03*
D27*
X103981250Y-180768750D03*
X103981250Y-182768750D03*
D26*
X427831250Y-222981250D03*
X427831250Y-226281250D03*
D27*
X399256250Y-133143750D03*
X399256250Y-135143750D03*
X465931250Y-180768750D03*
X465931250Y-182768750D03*
D26*
X361156250Y-118206250D03*
X361156250Y-121506250D03*
X270668750Y-203931250D03*
X270668750Y-207231250D03*
X356393750Y-184881250D03*
X356393750Y-188181250D03*
D27*
X189706250Y-161718750D03*
X189706250Y-163718750D03*
D26*
X144462500Y-203931250D03*
X144462500Y-207231250D03*
X446881250Y-203931250D03*
X446881250Y-207231250D03*
X227806250Y-118206250D03*
X227806250Y-121506250D03*
X446881250Y-118206250D03*
X446881250Y-121506250D03*
D27*
X84931250Y-218868750D03*
X84931250Y-220868750D03*
X284956250Y-161718750D03*
X284956250Y-163718750D03*
X182562500Y-237918750D03*
X182562500Y-239918750D03*
X237331250Y-180768750D03*
X237331250Y-182768750D03*
X165893750Y-199818750D03*
X165893750Y-201818750D03*
D26*
X304006250Y-146781250D03*
X304006250Y-150081250D03*
D27*
X137318750Y-180768750D03*
X137318750Y-182768750D03*
D26*
X103981250Y-222981250D03*
X103981250Y-226281250D03*
D27*
X325437500Y-237918750D03*
X325437500Y-239918750D03*
D26*
X170656250Y-146781250D03*
X170656250Y-150081250D03*
X396875000Y-222981250D03*
X396875000Y-226281250D03*
D27*
X134937500Y-237918750D03*
X134937500Y-239918750D03*
D26*
X289718750Y-203931250D03*
X289718750Y-207231250D03*
D27*
X84931250Y-161718750D03*
X84931250Y-163718750D03*
X427831250Y-133143750D03*
X427831250Y-135143750D03*
X308768750Y-218868750D03*
X308768750Y-220868750D03*
X396875000Y-237918750D03*
X396875000Y-239918750D03*
D26*
X373062500Y-222981250D03*
X373062500Y-226281250D03*
X199231250Y-165831250D03*
X199231250Y-169131250D03*
X134937500Y-222981250D03*
X134937500Y-226281250D03*
D27*
X346868750Y-218868750D03*
X346868750Y-220868750D03*
D26*
X284956250Y-146781250D03*
X284956250Y-150081250D03*
D27*
X184943750Y-199818750D03*
X184943750Y-201818750D03*
D26*
X247650000Y-165831250D03*
X247650000Y-169131250D03*
D27*
X446881250Y-161718750D03*
X446881250Y-163718750D03*
D26*
X84931250Y-184881250D03*
X84931250Y-188181250D03*
X132556250Y-118206250D03*
X132556250Y-121506250D03*
D27*
X304006250Y-161718750D03*
X304006250Y-163718750D03*
D26*
X399256250Y-118206250D03*
X399256250Y-121506250D03*
D27*
X84931250Y-237918750D03*
X84931250Y-239918750D03*
D26*
X381000000Y-165831250D03*
X381000000Y-169131250D03*
X327818750Y-203931250D03*
X327818750Y-207231250D03*
D27*
X194468750Y-216487500D03*
X194468750Y-218487500D03*
D26*
X427831250Y-118206250D03*
X427831250Y-121506250D03*
D27*
X380206250Y-133143750D03*
X380206250Y-135143750D03*
X261143750Y-199818750D03*
X261143750Y-201818750D03*
D26*
X242093750Y-184881250D03*
X242093750Y-188181250D03*
D27*
X323056250Y-161718750D03*
X323056250Y-163718750D03*
X103981250Y-218868750D03*
X103981250Y-220868750D03*
X349250000Y-237918750D03*
X349250000Y-239918750D03*
D26*
X180181250Y-165831250D03*
X180181250Y-169131250D03*
D27*
X370681250Y-180768750D03*
X370681250Y-182768750D03*
X294481250Y-180768750D03*
X294481250Y-182768750D03*
X103981250Y-237918750D03*
X103981250Y-239918750D03*
D26*
X349250000Y-222981250D03*
X349250000Y-226281250D03*
X158750000Y-222981250D03*
X158750000Y-226281250D03*
D27*
X289718750Y-218868750D03*
X289718750Y-220868750D03*
D26*
X132556250Y-146781250D03*
X132556250Y-150081250D03*
D27*
X465931250Y-133143750D03*
X465931250Y-135143750D03*
X446881250Y-133143750D03*
X446881250Y-135143750D03*
X103981250Y-161718750D03*
X103981250Y-163718750D03*
X332581250Y-180768750D03*
X332581250Y-182768750D03*
X275431250Y-180768750D03*
X275431250Y-182768750D03*
X232568750Y-218868750D03*
X232568750Y-220868750D03*
X151606250Y-161718750D03*
X151606250Y-163718750D03*
X356393750Y-199818750D03*
X356393750Y-201818750D03*
X208756250Y-133143750D03*
X208756250Y-135143750D03*
D26*
X84931250Y-146781250D03*
X84931250Y-150081250D03*
X465931250Y-222981250D03*
X465931250Y-226281250D03*
D27*
X170656250Y-133143750D03*
X170656250Y-135143750D03*
D26*
X256381250Y-118206250D03*
X256381250Y-121506250D03*
X313531250Y-165831250D03*
X313531250Y-169131250D03*
X194468750Y-203931250D03*
X194468750Y-207231250D03*
X203993750Y-184881250D03*
X203993750Y-188181250D03*
D27*
X427831250Y-237918750D03*
X427831250Y-239918750D03*
X103981250Y-199818750D03*
X103981250Y-201818750D03*
X223043750Y-199818750D03*
X223043750Y-201818750D03*
D26*
X223043750Y-184881250D03*
X223043750Y-188181250D03*
D27*
X270668750Y-218868750D03*
X270668750Y-220868750D03*
D26*
X427831250Y-165831250D03*
X427831250Y-169131250D03*
X103981250Y-184881250D03*
X103981250Y-188181250D03*
D27*
X213518750Y-218868750D03*
X213518750Y-220868750D03*
X351631250Y-180768750D03*
X351631250Y-182768750D03*
D26*
X150018750Y-165831250D03*
X150018750Y-169131250D03*
D27*
X465931250Y-237918750D03*
X465931250Y-239918750D03*
D26*
X165893750Y-184881250D03*
X165893750Y-188181250D03*
X373856250Y-165831250D03*
X373856250Y-169131250D03*
D27*
X427831250Y-180768750D03*
X427831250Y-182768750D03*
D26*
X325437500Y-222981250D03*
X325437500Y-226281250D03*
D27*
X265906250Y-161718750D03*
X265906250Y-163718750D03*
D26*
X294481250Y-165831250D03*
X294481250Y-169131250D03*
D27*
X361156250Y-133143750D03*
X361156250Y-135143750D03*
D26*
X232568750Y-203931250D03*
X232568750Y-207231250D03*
D27*
X189706250Y-133143750D03*
X189706250Y-135143750D03*
D26*
X465931250Y-165831250D03*
X465931250Y-169131250D03*
X342106250Y-146781250D03*
X342106250Y-150081250D03*
X103981250Y-203931250D03*
X103981250Y-207231250D03*
X427831250Y-146781250D03*
X427831250Y-150081250D03*
X227806250Y-146781250D03*
X227806250Y-150081250D03*
D27*
X84931250Y-199818750D03*
X84931250Y-201818750D03*
D26*
X208756250Y-118206250D03*
X208756250Y-121506250D03*
X299243750Y-184881250D03*
X299243750Y-188181250D03*
D27*
X395287500Y-180768750D03*
X395287500Y-182768750D03*
X256381250Y-133143750D03*
X256381250Y-135143750D03*
X342106250Y-161718750D03*
X342106250Y-163718750D03*
M02*
