%TF.GenerationSoftware,KiCad,Pcbnew,6.0.7-f9a2dced07~116~ubuntu22.04.1*%
%TF.CreationDate,2022-09-05T17:56:58+01:00*%
%TF.ProjectId,keyboard,6b657962-6f61-4726-942e-6b696361645f,rev?*%
%TF.SameCoordinates,Original*%
%TF.FileFunction,Drillmap*%
%TF.FilePolarity,Positive*%
%FSLAX45Y45*%
G04 Gerber Fmt 4.5, Leading zero omitted, Abs format (unit mm)*
G04 Created by KiCad (PCBNEW 6.0.7-f9a2dced07~116~ubuntu22.04.1) date 2022-09-05 17:56:58*
%MOMM*%
%LPD*%
G01*
G04 APERTURE LIST*
%ADD10C,0.100000*%
%ADD11C,0.200000*%
%ADD12C,0.065000*%
%ADD13C,0.150000*%
%ADD14C,0.175000*%
%ADD15C,0.304800*%
%ADD16C,0.320000*%
%ADD17C,0.398780*%
G04 APERTURE END LIST*
D10*
X47228125Y-24447500D02*
G75*
G03*
X47625000Y-24050625I-5J396880D01*
G01*
X3651250Y-24050625D02*
G75*
G03*
X4048125Y-24447500I396875J0D01*
G01*
X47624995Y-11906250D02*
G75*
G03*
X47228125Y-11509375I-396875J0D01*
G01*
X47228125Y-11509375D02*
X4048125Y-11509375D01*
X47625000Y-24050625D02*
X47625000Y-11906250D01*
X4048125Y-24447500D02*
X47228125Y-24447500D01*
X4048125Y-11509375D02*
G75*
G03*
X3651250Y-11906250I0J-396875D01*
G01*
X3651250Y-11906250D02*
X3651250Y-24050625D01*
D11*
D12*
X4837875Y-12003125D02*
X4902875Y-12068125D01*
X4902875Y-12003125D02*
X4837875Y-12068125D01*
X5415875Y-12003125D02*
X5480875Y-12068125D01*
X5480875Y-12003125D02*
X5415875Y-12068125D01*
D13*
X7214375Y-12700000D02*
G75*
G03*
X7214375Y-12700000I-75000J0D01*
G01*
D11*
X7214375Y-12765000D02*
X7214375Y-12635000D01*
X7064375Y-12765000D02*
X7064375Y-12635000D01*
X7214375Y-12635000D02*
G75*
G03*
X7064375Y-12635000I-75000J0D01*
G01*
X7064375Y-12765000D02*
G75*
G03*
X7214375Y-12765000I75000J0D01*
G01*
D13*
X8334375Y-12700000D02*
G75*
G03*
X8334375Y-12700000I-75000J0D01*
G01*
D11*
X8334375Y-12765000D02*
X8334375Y-12635000D01*
X8184375Y-12765000D02*
X8184375Y-12635000D01*
X8334375Y-12635000D02*
G75*
G03*
X8184375Y-12635000I-75000J0D01*
G01*
X8184375Y-12765000D02*
G75*
G03*
X8334375Y-12765000I75000J0D01*
G01*
D13*
X9119375Y-12700000D02*
G75*
G03*
X9119375Y-12700000I-75000J0D01*
G01*
D11*
X9119375Y-12765000D02*
X9119375Y-12635000D01*
X8969375Y-12765000D02*
X8969375Y-12635000D01*
X9119375Y-12635000D02*
G75*
G03*
X8969375Y-12635000I-75000J0D01*
G01*
X8969375Y-12765000D02*
G75*
G03*
X9119375Y-12765000I75000J0D01*
G01*
D13*
X10239375Y-12700000D02*
G75*
G03*
X10239375Y-12700000I-75000J0D01*
G01*
D11*
X10239375Y-12765000D02*
X10239375Y-12635000D01*
X10089375Y-12765000D02*
X10089375Y-12635000D01*
X10239375Y-12635000D02*
G75*
G03*
X10089375Y-12635000I-75000J0D01*
G01*
X10089375Y-12765000D02*
G75*
G03*
X10239375Y-12765000I75000J0D01*
G01*
D14*
X7191375Y-15470000D02*
X7191375Y-15645000D01*
X7103875Y-15557500D02*
X7278875Y-15557500D01*
X7191375Y-17375000D02*
X7191375Y-17550000D01*
X7103875Y-17462500D02*
X7278875Y-17462500D01*
X7191375Y-19280000D02*
X7191375Y-19455000D01*
X7103875Y-19367500D02*
X7278875Y-19367500D01*
X7191375Y-21185000D02*
X7191375Y-21360000D01*
X7103875Y-21272500D02*
X7278875Y-21272500D01*
X7191375Y-23090000D02*
X7191375Y-23265000D01*
X7103875Y-23177500D02*
X7278875Y-23177500D01*
X8207375Y-15470000D02*
X8207375Y-15645000D01*
X8119875Y-15557500D02*
X8294875Y-15557500D01*
X8207375Y-17375000D02*
X8207375Y-17550000D01*
X8119875Y-17462500D02*
X8294875Y-17462500D01*
X8207375Y-19280000D02*
X8207375Y-19455000D01*
X8119875Y-19367500D02*
X8294875Y-19367500D01*
X8207375Y-21185000D02*
X8207375Y-21360000D01*
X8119875Y-21272500D02*
X8294875Y-21272500D01*
X8207375Y-23090000D02*
X8207375Y-23265000D01*
X8119875Y-23177500D02*
X8294875Y-23177500D01*
X9096375Y-15470000D02*
X9096375Y-15645000D01*
X9008875Y-15557500D02*
X9183875Y-15557500D01*
X9096375Y-17375000D02*
X9096375Y-17550000D01*
X9008875Y-17462500D02*
X9183875Y-17462500D01*
X9096375Y-19280000D02*
X9096375Y-19455000D01*
X9008875Y-19367500D02*
X9183875Y-19367500D01*
X9096375Y-21185000D02*
X9096375Y-21360000D01*
X9008875Y-21272500D02*
X9183875Y-21272500D01*
X9096375Y-23090000D02*
X9096375Y-23265000D01*
X9008875Y-23177500D02*
X9183875Y-23177500D01*
X10112375Y-15470000D02*
X10112375Y-15645000D01*
X10024875Y-15557500D02*
X10199875Y-15557500D01*
X10112375Y-17375000D02*
X10112375Y-17550000D01*
X10024875Y-17462500D02*
X10199875Y-17462500D01*
X10112375Y-19280000D02*
X10112375Y-19455000D01*
X10024875Y-19367500D02*
X10199875Y-19367500D01*
X10112375Y-21185000D02*
X10112375Y-21360000D01*
X10024875Y-21272500D02*
X10199875Y-21272500D01*
X10112375Y-23090000D02*
X10112375Y-23265000D01*
X10024875Y-23177500D02*
X10199875Y-23177500D01*
X11953875Y-12612500D02*
X11953875Y-12787500D01*
X11866375Y-12700000D02*
X12041375Y-12700000D01*
X11953875Y-15470000D02*
X11953875Y-15645000D01*
X11866375Y-15557500D02*
X12041375Y-15557500D01*
X12192000Y-23090000D02*
X12192000Y-23265000D01*
X12104500Y-23177500D02*
X12279500Y-23177500D01*
X12430125Y-17375000D02*
X12430125Y-17550000D01*
X12342625Y-17462500D02*
X12517625Y-17462500D01*
X12668250Y-19280000D02*
X12668250Y-19455000D01*
X12580750Y-19367500D02*
X12755750Y-19367500D01*
X12969875Y-12612500D02*
X12969875Y-12787500D01*
X12882375Y-12700000D02*
X13057375Y-12700000D01*
X12969875Y-15470000D02*
X12969875Y-15645000D01*
X12882375Y-15557500D02*
X13057375Y-15557500D01*
X13144500Y-21185000D02*
X13144500Y-21360000D01*
X13057000Y-21272500D02*
X13232000Y-21272500D01*
X13208000Y-23090000D02*
X13208000Y-23265000D01*
X13120500Y-23177500D02*
X13295500Y-23177500D01*
X13446125Y-17375000D02*
X13446125Y-17550000D01*
X13358625Y-17462500D02*
X13533625Y-17462500D01*
X13684250Y-19280000D02*
X13684250Y-19455000D01*
X13596750Y-19367500D02*
X13771750Y-19367500D01*
X13858875Y-15470000D02*
X13858875Y-15645000D01*
X13771375Y-15557500D02*
X13946375Y-15557500D01*
X14160500Y-21185000D02*
X14160500Y-21360000D01*
X14073000Y-21272500D02*
X14248000Y-21272500D01*
X14573250Y-23090000D02*
X14573250Y-23265000D01*
X14485750Y-23177500D02*
X14660750Y-23177500D01*
X14811375Y-17375000D02*
X14811375Y-17550000D01*
X14723875Y-17462500D02*
X14898875Y-17462500D01*
X14874875Y-15470000D02*
X14874875Y-15645000D01*
X14787375Y-15557500D02*
X14962375Y-15557500D01*
X15287625Y-19280000D02*
X15287625Y-19455000D01*
X15200125Y-19367500D02*
X15375125Y-19367500D01*
X15589250Y-23090000D02*
X15589250Y-23265000D01*
X15501750Y-23177500D02*
X15676750Y-23177500D01*
X15763875Y-12612500D02*
X15763875Y-12787500D01*
X15676375Y-12700000D02*
X15851375Y-12700000D01*
X15763875Y-15470000D02*
X15763875Y-15645000D01*
X15676375Y-15557500D02*
X15851375Y-15557500D01*
X15827375Y-17375000D02*
X15827375Y-17550000D01*
X15739875Y-17462500D02*
X15914875Y-17462500D01*
X16240125Y-21185000D02*
X16240125Y-21360000D01*
X16152625Y-21272500D02*
X16327625Y-21272500D01*
X16303625Y-19280000D02*
X16303625Y-19455000D01*
X16216125Y-19367500D02*
X16391125Y-19367500D01*
X16716375Y-17375000D02*
X16716375Y-17550000D01*
X16628875Y-17462500D02*
X16803875Y-17462500D01*
X16779875Y-12612500D02*
X16779875Y-12787500D01*
X16692375Y-12700000D02*
X16867375Y-12700000D01*
X16779875Y-15470000D02*
X16779875Y-15645000D01*
X16692375Y-15557500D02*
X16867375Y-15557500D01*
X16954500Y-23090000D02*
X16954500Y-23265000D01*
X16867000Y-23177500D02*
X17042000Y-23177500D01*
X17192625Y-19280000D02*
X17192625Y-19455000D01*
X17105125Y-19367500D02*
X17280125Y-19367500D01*
X17256125Y-21185000D02*
X17256125Y-21360000D01*
X17168625Y-21272500D02*
X17343625Y-21272500D01*
X17668875Y-12612500D02*
X17668875Y-12787500D01*
X17581375Y-12700000D02*
X17756375Y-12700000D01*
X17668875Y-15470000D02*
X17668875Y-15645000D01*
X17581375Y-15557500D02*
X17756375Y-15557500D01*
X17732375Y-17375000D02*
X17732375Y-17550000D01*
X17644875Y-17462500D02*
X17819875Y-17462500D01*
X17970500Y-23090000D02*
X17970500Y-23265000D01*
X17883000Y-23177500D02*
X18058000Y-23177500D01*
X18145125Y-21185000D02*
X18145125Y-21360000D01*
X18057625Y-21272500D02*
X18232625Y-21272500D01*
X18208625Y-19280000D02*
X18208625Y-19455000D01*
X18121125Y-19367500D02*
X18296125Y-19367500D01*
X18621375Y-17375000D02*
X18621375Y-17550000D01*
X18533875Y-17462500D02*
X18708875Y-17462500D01*
X18684875Y-12612500D02*
X18684875Y-12787500D01*
X18597375Y-12700000D02*
X18772375Y-12700000D01*
X18684875Y-15470000D02*
X18684875Y-15645000D01*
X18597375Y-15557500D02*
X18772375Y-15557500D01*
X19097625Y-19280000D02*
X19097625Y-19455000D01*
X19010125Y-19367500D02*
X19185125Y-19367500D01*
X19161125Y-21185000D02*
X19161125Y-21360000D01*
X19073625Y-21272500D02*
X19248625Y-21272500D01*
X19573875Y-12612500D02*
X19573875Y-12787500D01*
X19486375Y-12700000D02*
X19661375Y-12700000D01*
X19573875Y-15470000D02*
X19573875Y-15645000D01*
X19486375Y-15557500D02*
X19661375Y-15557500D01*
X19637375Y-17375000D02*
X19637375Y-17550000D01*
X19549875Y-17462500D02*
X19724875Y-17462500D01*
X20050125Y-21185000D02*
X20050125Y-21360000D01*
X19962625Y-21272500D02*
X20137625Y-21272500D01*
X20113625Y-19280000D02*
X20113625Y-19455000D01*
X20026125Y-19367500D02*
X20201125Y-19367500D01*
X20526375Y-17375000D02*
X20526375Y-17550000D01*
X20438875Y-17462500D02*
X20613875Y-17462500D01*
X20589875Y-12612500D02*
X20589875Y-12787500D01*
X20502375Y-12700000D02*
X20677375Y-12700000D01*
X20589875Y-15470000D02*
X20589875Y-15645000D01*
X20502375Y-15557500D02*
X20677375Y-15557500D01*
X21002625Y-19280000D02*
X21002625Y-19455000D01*
X20915125Y-19367500D02*
X21090125Y-19367500D01*
X21066125Y-21185000D02*
X21066125Y-21360000D01*
X20978625Y-21272500D02*
X21153625Y-21272500D01*
X21478875Y-12612500D02*
X21478875Y-12787500D01*
X21391375Y-12700000D02*
X21566375Y-12700000D01*
X21478875Y-15470000D02*
X21478875Y-15645000D01*
X21391375Y-15557500D02*
X21566375Y-15557500D01*
X21542375Y-17375000D02*
X21542375Y-17550000D01*
X21454875Y-17462500D02*
X21629875Y-17462500D01*
X21955125Y-21185000D02*
X21955125Y-21360000D01*
X21867625Y-21272500D02*
X22042625Y-21272500D01*
X22018625Y-19280000D02*
X22018625Y-19455000D01*
X21931125Y-19367500D02*
X22106125Y-19367500D01*
X22431375Y-17375000D02*
X22431375Y-17550000D01*
X22343875Y-17462500D02*
X22518875Y-17462500D01*
X22494875Y-12612500D02*
X22494875Y-12787500D01*
X22407375Y-12700000D02*
X22582375Y-12700000D01*
X22494875Y-15470000D02*
X22494875Y-15645000D01*
X22407375Y-15557500D02*
X22582375Y-15557500D01*
X22907625Y-19280000D02*
X22907625Y-19455000D01*
X22820125Y-19367500D02*
X22995125Y-19367500D01*
X22971125Y-21185000D02*
X22971125Y-21360000D01*
X22883625Y-21272500D02*
X23058625Y-21272500D01*
X23383875Y-15470000D02*
X23383875Y-15645000D01*
X23296375Y-15557500D02*
X23471375Y-15557500D01*
X23447375Y-17375000D02*
X23447375Y-17550000D01*
X23359875Y-17462500D02*
X23534875Y-17462500D01*
X23860125Y-21185000D02*
X23860125Y-21360000D01*
X23772625Y-21272500D02*
X23947625Y-21272500D01*
X23923625Y-19280000D02*
X23923625Y-19455000D01*
X23836125Y-19367500D02*
X24011125Y-19367500D01*
X24098250Y-23090000D02*
X24098250Y-23265000D01*
X24010750Y-23177500D02*
X24185750Y-23177500D01*
X24336375Y-12612500D02*
X24336375Y-12787500D01*
X24248875Y-12700000D02*
X24423875Y-12700000D01*
X24336375Y-17375000D02*
X24336375Y-17550000D01*
X24248875Y-17462500D02*
X24423875Y-17462500D01*
X24399875Y-15470000D02*
X24399875Y-15645000D01*
X24312375Y-15557500D02*
X24487375Y-15557500D01*
X24812625Y-19280000D02*
X24812625Y-19455000D01*
X24725125Y-19367500D02*
X24900125Y-19367500D01*
X24876125Y-21185000D02*
X24876125Y-21360000D01*
X24788625Y-21272500D02*
X24963625Y-21272500D01*
X25114250Y-23090000D02*
X25114250Y-23265000D01*
X25026750Y-23177500D02*
X25201750Y-23177500D01*
X25288875Y-15470000D02*
X25288875Y-15645000D01*
X25201375Y-15557500D02*
X25376375Y-15557500D01*
X25352375Y-12612500D02*
X25352375Y-12787500D01*
X25264875Y-12700000D02*
X25439875Y-12700000D01*
X25352375Y-17375000D02*
X25352375Y-17550000D01*
X25264875Y-17462500D02*
X25439875Y-17462500D01*
X25765125Y-21185000D02*
X25765125Y-21360000D01*
X25677625Y-21272500D02*
X25852625Y-21272500D01*
X25828625Y-19280000D02*
X25828625Y-19455000D01*
X25741125Y-19367500D02*
X25916125Y-19367500D01*
X26241375Y-12612500D02*
X26241375Y-12787500D01*
X26153875Y-12700000D02*
X26328875Y-12700000D01*
X26241375Y-17375000D02*
X26241375Y-17550000D01*
X26153875Y-17462500D02*
X26328875Y-17462500D01*
X26304875Y-15470000D02*
X26304875Y-15645000D01*
X26217375Y-15557500D02*
X26392375Y-15557500D01*
X26717625Y-19280000D02*
X26717625Y-19455000D01*
X26630125Y-19367500D02*
X26805125Y-19367500D01*
X26781125Y-21185000D02*
X26781125Y-21360000D01*
X26693625Y-21272500D02*
X26868625Y-21272500D01*
X27193875Y-15470000D02*
X27193875Y-15645000D01*
X27106375Y-15557500D02*
X27281375Y-15557500D01*
X27257375Y-12612500D02*
X27257375Y-12787500D01*
X27169875Y-12700000D02*
X27344875Y-12700000D01*
X27257375Y-17375000D02*
X27257375Y-17550000D01*
X27169875Y-17462500D02*
X27344875Y-17462500D01*
X27670125Y-21185000D02*
X27670125Y-21360000D01*
X27582625Y-21272500D02*
X27757625Y-21272500D01*
X27733625Y-19280000D02*
X27733625Y-19455000D01*
X27646125Y-19367500D02*
X27821125Y-19367500D01*
X28146375Y-12612500D02*
X28146375Y-12787500D01*
X28058875Y-12700000D02*
X28233875Y-12700000D01*
X28146375Y-17375000D02*
X28146375Y-17550000D01*
X28058875Y-17462500D02*
X28233875Y-17462500D01*
X28209875Y-15470000D02*
X28209875Y-15645000D01*
X28122375Y-15557500D02*
X28297375Y-15557500D01*
X28622625Y-19280000D02*
X28622625Y-19455000D01*
X28535125Y-19367500D02*
X28710125Y-19367500D01*
X28686125Y-21185000D02*
X28686125Y-21360000D01*
X28598625Y-21272500D02*
X28773625Y-21272500D01*
X29098875Y-15470000D02*
X29098875Y-15645000D01*
X29011375Y-15557500D02*
X29186375Y-15557500D01*
X29162375Y-12612500D02*
X29162375Y-12787500D01*
X29074875Y-12700000D02*
X29249875Y-12700000D01*
X29162375Y-17375000D02*
X29162375Y-17550000D01*
X29074875Y-17462500D02*
X29249875Y-17462500D01*
X29575125Y-21185000D02*
X29575125Y-21360000D01*
X29487625Y-21272500D02*
X29662625Y-21272500D01*
X29638625Y-19280000D02*
X29638625Y-19455000D01*
X29551125Y-19367500D02*
X29726125Y-19367500D01*
X30051375Y-12612500D02*
X30051375Y-12787500D01*
X29963875Y-12700000D02*
X30138875Y-12700000D01*
X30051375Y-17375000D02*
X30051375Y-17550000D01*
X29963875Y-17462500D02*
X30138875Y-17462500D01*
X30114875Y-15470000D02*
X30114875Y-15645000D01*
X30027375Y-15557500D02*
X30202375Y-15557500D01*
X30527625Y-19280000D02*
X30527625Y-19455000D01*
X30440125Y-19367500D02*
X30615125Y-19367500D01*
X30591125Y-21185000D02*
X30591125Y-21360000D01*
X30503625Y-21272500D02*
X30678625Y-21272500D01*
X31003875Y-15470000D02*
X31003875Y-15645000D01*
X30916375Y-15557500D02*
X31091375Y-15557500D01*
X31067375Y-12612500D02*
X31067375Y-12787500D01*
X30979875Y-12700000D02*
X31154875Y-12700000D01*
X31067375Y-17375000D02*
X31067375Y-17550000D01*
X30979875Y-17462500D02*
X31154875Y-17462500D01*
X31242000Y-23090000D02*
X31242000Y-23265000D01*
X31154500Y-23177500D02*
X31329500Y-23177500D01*
X31480125Y-21185000D02*
X31480125Y-21360000D01*
X31392625Y-21272500D02*
X31567625Y-21272500D01*
X31543625Y-19280000D02*
X31543625Y-19455000D01*
X31456125Y-19367500D02*
X31631125Y-19367500D01*
X31956375Y-17375000D02*
X31956375Y-17550000D01*
X31868875Y-17462500D02*
X32043875Y-17462500D01*
X32019875Y-15470000D02*
X32019875Y-15645000D01*
X31932375Y-15557500D02*
X32107375Y-15557500D01*
X32258000Y-23090000D02*
X32258000Y-23265000D01*
X32170500Y-23177500D02*
X32345500Y-23177500D01*
X32432625Y-19280000D02*
X32432625Y-19455000D01*
X32345125Y-19367500D02*
X32520125Y-19367500D01*
X32496125Y-21185000D02*
X32496125Y-21360000D01*
X32408625Y-21272500D02*
X32583625Y-21272500D01*
X32908875Y-12612500D02*
X32908875Y-12787500D01*
X32821375Y-12700000D02*
X32996375Y-12700000D01*
X32908875Y-15470000D02*
X32908875Y-15645000D01*
X32821375Y-15557500D02*
X32996375Y-15557500D01*
X32972375Y-17375000D02*
X32972375Y-17550000D01*
X32884875Y-17462500D02*
X33059875Y-17462500D01*
X33385125Y-21185000D02*
X33385125Y-21360000D01*
X33297625Y-21272500D02*
X33472625Y-21272500D01*
X33448625Y-19280000D02*
X33448625Y-19455000D01*
X33361125Y-19367500D02*
X33536125Y-19367500D01*
X33623250Y-23090000D02*
X33623250Y-23265000D01*
X33535750Y-23177500D02*
X33710750Y-23177500D01*
X33861375Y-17375000D02*
X33861375Y-17550000D01*
X33773875Y-17462500D02*
X33948875Y-17462500D01*
X33924875Y-12612500D02*
X33924875Y-12787500D01*
X33837375Y-12700000D02*
X34012375Y-12700000D01*
X33924875Y-15470000D02*
X33924875Y-15645000D01*
X33837375Y-15557500D02*
X34012375Y-15557500D01*
X34337625Y-19280000D02*
X34337625Y-19455000D01*
X34250125Y-19367500D02*
X34425125Y-19367500D01*
X34401125Y-21185000D02*
X34401125Y-21360000D01*
X34313625Y-21272500D02*
X34488625Y-21272500D01*
X34639250Y-23090000D02*
X34639250Y-23265000D01*
X34551750Y-23177500D02*
X34726750Y-23177500D01*
X34813875Y-12612500D02*
X34813875Y-12787500D01*
X34726375Y-12700000D02*
X34901375Y-12700000D01*
X34813875Y-15470000D02*
X34813875Y-15645000D01*
X34726375Y-15557500D02*
X34901375Y-15557500D01*
X34877375Y-17375000D02*
X34877375Y-17550000D01*
X34789875Y-17462500D02*
X34964875Y-17462500D01*
X35353625Y-19280000D02*
X35353625Y-19455000D01*
X35266125Y-19367500D02*
X35441125Y-19367500D01*
X35766375Y-17375000D02*
X35766375Y-17550000D01*
X35678875Y-17462500D02*
X35853875Y-17462500D01*
X35829875Y-12612500D02*
X35829875Y-12787500D01*
X35742375Y-12700000D02*
X35917375Y-12700000D01*
X35829875Y-15470000D02*
X35829875Y-15645000D01*
X35742375Y-15557500D02*
X35917375Y-15557500D01*
X36004500Y-23090000D02*
X36004500Y-23265000D01*
X35917000Y-23177500D02*
X36092000Y-23177500D01*
X36718875Y-12612500D02*
X36718875Y-12787500D01*
X36631375Y-12700000D02*
X36806375Y-12700000D01*
X36782375Y-17375000D02*
X36782375Y-17550000D01*
X36694875Y-17462500D02*
X36869875Y-17462500D01*
X36957000Y-21185000D02*
X36957000Y-21360000D01*
X36869500Y-21272500D02*
X37044500Y-21272500D01*
X37020500Y-23090000D02*
X37020500Y-23265000D01*
X36933000Y-23177500D02*
X37108000Y-23177500D01*
X37433250Y-19280000D02*
X37433250Y-19455000D01*
X37345750Y-19367500D02*
X37520750Y-19367500D01*
X37671375Y-15470000D02*
X37671375Y-15645000D01*
X37583875Y-15557500D02*
X37758875Y-15557500D01*
X37734875Y-12612500D02*
X37734875Y-12787500D01*
X37647375Y-12700000D02*
X37822375Y-12700000D01*
X37973000Y-21185000D02*
X37973000Y-21360000D01*
X37885500Y-21272500D02*
X38060500Y-21272500D01*
X38147625Y-17375000D02*
X38147625Y-17550000D01*
X38060125Y-17462500D02*
X38235125Y-17462500D01*
X38385750Y-23090000D02*
X38385750Y-23265000D01*
X38298250Y-23177500D02*
X38473250Y-23177500D01*
X38449250Y-19280000D02*
X38449250Y-19455000D01*
X38361750Y-19367500D02*
X38536750Y-19367500D01*
X38623875Y-12612500D02*
X38623875Y-12787500D01*
X38536375Y-12700000D02*
X38711375Y-12700000D01*
X38687375Y-15470000D02*
X38687375Y-15645000D01*
X38599875Y-15557500D02*
X38774875Y-15557500D01*
X39163625Y-17375000D02*
X39163625Y-17550000D01*
X39076125Y-17462500D02*
X39251125Y-17462500D01*
X39401750Y-23090000D02*
X39401750Y-23265000D01*
X39314250Y-23177500D02*
X39489250Y-23177500D01*
X39639875Y-12612500D02*
X39639875Y-12787500D01*
X39552375Y-12700000D02*
X39727375Y-12700000D01*
X41481375Y-12612500D02*
X41481375Y-12787500D01*
X41393875Y-12700000D02*
X41568875Y-12700000D01*
X41481375Y-15470000D02*
X41481375Y-15645000D01*
X41393875Y-15557500D02*
X41568875Y-15557500D01*
X41481375Y-17375000D02*
X41481375Y-17550000D01*
X41393875Y-17462500D02*
X41568875Y-17462500D01*
X41481375Y-23090000D02*
X41481375Y-23265000D01*
X41393875Y-23177500D02*
X41568875Y-23177500D01*
X42497375Y-12612500D02*
X42497375Y-12787500D01*
X42409875Y-12700000D02*
X42584875Y-12700000D01*
X42497375Y-15470000D02*
X42497375Y-15645000D01*
X42409875Y-15557500D02*
X42584875Y-15557500D01*
X42497375Y-17375000D02*
X42497375Y-17550000D01*
X42409875Y-17462500D02*
X42584875Y-17462500D01*
X42497375Y-23090000D02*
X42497375Y-23265000D01*
X42409875Y-23177500D02*
X42584875Y-23177500D01*
X43386375Y-12612500D02*
X43386375Y-12787500D01*
X43298875Y-12700000D02*
X43473875Y-12700000D01*
X43386375Y-15470000D02*
X43386375Y-15645000D01*
X43298875Y-15557500D02*
X43473875Y-15557500D01*
X43386375Y-17375000D02*
X43386375Y-17550000D01*
X43298875Y-17462500D02*
X43473875Y-17462500D01*
X43386375Y-21185000D02*
X43386375Y-21360000D01*
X43298875Y-21272500D02*
X43473875Y-21272500D01*
X43386375Y-23090000D02*
X43386375Y-23265000D01*
X43298875Y-23177500D02*
X43473875Y-23177500D01*
X44402375Y-12612500D02*
X44402375Y-12787500D01*
X44314875Y-12700000D02*
X44489875Y-12700000D01*
X44402375Y-15470000D02*
X44402375Y-15645000D01*
X44314875Y-15557500D02*
X44489875Y-15557500D01*
X44402375Y-17375000D02*
X44402375Y-17550000D01*
X44314875Y-17462500D02*
X44489875Y-17462500D01*
X44402375Y-21185000D02*
X44402375Y-21360000D01*
X44314875Y-21272500D02*
X44489875Y-21272500D01*
X44402375Y-23090000D02*
X44402375Y-23265000D01*
X44314875Y-23177500D02*
X44489875Y-23177500D01*
X45291375Y-12612500D02*
X45291375Y-12787500D01*
X45203875Y-12700000D02*
X45378875Y-12700000D01*
X45291375Y-15470000D02*
X45291375Y-15645000D01*
X45203875Y-15557500D02*
X45378875Y-15557500D01*
X45291375Y-17375000D02*
X45291375Y-17550000D01*
X45203875Y-17462500D02*
X45378875Y-17462500D01*
X45291375Y-23090000D02*
X45291375Y-23265000D01*
X45203875Y-23177500D02*
X45378875Y-23177500D01*
X46307375Y-12612500D02*
X46307375Y-12787500D01*
X46219875Y-12700000D02*
X46394875Y-12700000D01*
X46307375Y-15470000D02*
X46307375Y-15645000D01*
X46219875Y-15557500D02*
X46394875Y-15557500D01*
X46307375Y-17375000D02*
X46307375Y-17550000D01*
X46219875Y-17462500D02*
X46394875Y-17462500D01*
X46307375Y-23090000D02*
X46307375Y-23265000D01*
X46219875Y-23177500D02*
X46394875Y-23177500D01*
D15*
X12566464Y-20681764D02*
X12566464Y-20466236D01*
X12350936Y-20466236D01*
X12350936Y-20681764D01*
X12566464Y-20681764D01*
X14954064Y-20681764D02*
X14954064Y-20466236D01*
X14738536Y-20466236D01*
X14738536Y-20681764D01*
X14954064Y-20681764D01*
X19714024Y-23983764D02*
X19714024Y-23768236D01*
X19498496Y-23768236D01*
X19498496Y-23983764D01*
X19714024Y-23983764D01*
X29714004Y-23983764D02*
X29714004Y-23768236D01*
X29498476Y-23768236D01*
X29498476Y-23983764D01*
X29714004Y-23983764D01*
X36378964Y-20681764D02*
X36378964Y-20466236D01*
X36163436Y-20466236D01*
X36163436Y-20681764D01*
X36378964Y-20681764D01*
X36855214Y-18776764D02*
X36855214Y-18561236D01*
X36639686Y-18561236D01*
X36639686Y-18776764D01*
X36855214Y-18776764D01*
X37093339Y-14966764D02*
X37093339Y-14751236D01*
X36877811Y-14751236D01*
X36877811Y-14966764D01*
X37093339Y-14966764D01*
X38766564Y-20681764D02*
X38766564Y-20466236D01*
X38551036Y-20466236D01*
X38551036Y-20681764D01*
X38766564Y-20681764D01*
X39242814Y-18776764D02*
X39242814Y-18561236D01*
X39027286Y-18561236D01*
X39027286Y-18776764D01*
X39242814Y-18776764D01*
X39480939Y-14966764D02*
X39480939Y-14751236D01*
X39265411Y-14751236D01*
X39265411Y-14966764D01*
X39480939Y-14966764D01*
D16*
X4048125Y-12066250D02*
X4208125Y-11906250D01*
X4048125Y-11746250D01*
X3888125Y-11906250D01*
X4048125Y-12066250D01*
X4048125Y-24210625D02*
X4208125Y-24050625D01*
X4048125Y-23890625D01*
X3888125Y-24050625D01*
X4048125Y-24210625D01*
X11033125Y-12066250D02*
X11193125Y-11906250D01*
X11033125Y-11746250D01*
X10873125Y-11906250D01*
X11033125Y-12066250D01*
X11033125Y-18138438D02*
X11193125Y-17978438D01*
X11033125Y-17818438D01*
X10873125Y-17978438D01*
X11033125Y-18138438D01*
X11033125Y-24210625D02*
X11193125Y-24050625D01*
X11033125Y-23890625D01*
X10873125Y-24050625D01*
X11033125Y-24210625D01*
X16271875Y-16670000D02*
X16431875Y-16510000D01*
X16271875Y-16350000D01*
X16111875Y-16510000D01*
X16271875Y-16670000D01*
X17700625Y-20480000D02*
X17860625Y-20320000D01*
X17700625Y-20160000D01*
X17540625Y-20320000D01*
X17700625Y-20480000D01*
X25320625Y-20480000D02*
X25480625Y-20320000D01*
X25320625Y-20160000D01*
X25160625Y-20320000D01*
X25320625Y-20480000D01*
X25796875Y-16670000D02*
X25956875Y-16510000D01*
X25796875Y-16350000D01*
X25636875Y-16510000D01*
X25796875Y-16670000D01*
X34845625Y-20480000D02*
X35005625Y-20320000D01*
X34845625Y-20160000D01*
X34685625Y-20320000D01*
X34845625Y-20480000D01*
X35321875Y-16670000D02*
X35481875Y-16510000D01*
X35321875Y-16350000D01*
X35161875Y-16510000D01*
X35321875Y-16670000D01*
X40560625Y-12066250D02*
X40720625Y-11906250D01*
X40560625Y-11746250D01*
X40400625Y-11906250D01*
X40560625Y-12066250D01*
X40560625Y-18138438D02*
X40720625Y-17978438D01*
X40560625Y-17818438D01*
X40400625Y-17978438D01*
X40560625Y-18138438D01*
X40560625Y-24210625D02*
X40720625Y-24050625D01*
X40560625Y-23890625D01*
X40400625Y-24050625D01*
X40560625Y-24210625D01*
X47228125Y-12066250D02*
X47388125Y-11906250D01*
X47228125Y-11746250D01*
X47068125Y-11906250D01*
X47228125Y-12066250D01*
X47228125Y-24210625D02*
X47388125Y-24050625D01*
X47228125Y-23890625D01*
X47068125Y-24050625D01*
X47228125Y-24210625D01*
D17*
X7499985Y-15358110D02*
X7898765Y-15756890D01*
X7898765Y-15358110D02*
X7499985Y-15756890D01*
X7898765Y-15557500D02*
G75*
G03*
X7898765Y-15557500I-199390J0D01*
G01*
X7499985Y-17263110D02*
X7898765Y-17661890D01*
X7898765Y-17263110D02*
X7499985Y-17661890D01*
X7898765Y-17462500D02*
G75*
G03*
X7898765Y-17462500I-199390J0D01*
G01*
X7499985Y-19168110D02*
X7898765Y-19566890D01*
X7898765Y-19168110D02*
X7499985Y-19566890D01*
X7898765Y-19367500D02*
G75*
G03*
X7898765Y-19367500I-199390J0D01*
G01*
X7499985Y-21073110D02*
X7898765Y-21471890D01*
X7898765Y-21073110D02*
X7499985Y-21471890D01*
X7898765Y-21272500D02*
G75*
G03*
X7898765Y-21272500I-199390J0D01*
G01*
X7499985Y-22978110D02*
X7898765Y-23376890D01*
X7898765Y-22978110D02*
X7499985Y-23376890D01*
X7898765Y-23177500D02*
G75*
G03*
X7898765Y-23177500I-199390J0D01*
G01*
X9404985Y-15358110D02*
X9803765Y-15756890D01*
X9803765Y-15358110D02*
X9404985Y-15756890D01*
X9803765Y-15557500D02*
G75*
G03*
X9803765Y-15557500I-199390J0D01*
G01*
X9404985Y-17263110D02*
X9803765Y-17661890D01*
X9803765Y-17263110D02*
X9404985Y-17661890D01*
X9803765Y-17462500D02*
G75*
G03*
X9803765Y-17462500I-199390J0D01*
G01*
X9404985Y-19168110D02*
X9803765Y-19566890D01*
X9803765Y-19168110D02*
X9404985Y-19566890D01*
X9803765Y-19367500D02*
G75*
G03*
X9803765Y-19367500I-199390J0D01*
G01*
X9404985Y-21073110D02*
X9803765Y-21471890D01*
X9803765Y-21073110D02*
X9404985Y-21471890D01*
X9803765Y-21272500D02*
G75*
G03*
X9803765Y-21272500I-199390J0D01*
G01*
X9404985Y-22978110D02*
X9803765Y-23376890D01*
X9803765Y-22978110D02*
X9404985Y-23376890D01*
X9803765Y-23177500D02*
G75*
G03*
X9803765Y-23177500I-199390J0D01*
G01*
X12259310Y-21898610D02*
X12658090Y-22297390D01*
X12658090Y-21898610D02*
X12259310Y-22297390D01*
X12658090Y-22098000D02*
G75*
G03*
X12658090Y-22098000I-199390J0D01*
G01*
X12262485Y-12500610D02*
X12661265Y-12899390D01*
X12661265Y-12500610D02*
X12262485Y-12899390D01*
X12661265Y-12700000D02*
G75*
G03*
X12661265Y-12700000I-199390J0D01*
G01*
X12262485Y-15358110D02*
X12661265Y-15756890D01*
X12661265Y-15358110D02*
X12262485Y-15756890D01*
X12661265Y-15557500D02*
G75*
G03*
X12661265Y-15557500I-199390J0D01*
G01*
X12500610Y-22978110D02*
X12899390Y-23376890D01*
X12899390Y-22978110D02*
X12500610Y-23376890D01*
X12899390Y-23177500D02*
G75*
G03*
X12899390Y-23177500I-199390J0D01*
G01*
X12738735Y-17263110D02*
X13137515Y-17661890D01*
X13137515Y-17263110D02*
X12738735Y-17661890D01*
X13137515Y-17462500D02*
G75*
G03*
X13137515Y-17462500I-199390J0D01*
G01*
X12976860Y-19168110D02*
X13375640Y-19566890D01*
X13375640Y-19168110D02*
X12976860Y-19566890D01*
X13375640Y-19367500D02*
G75*
G03*
X13375640Y-19367500I-199390J0D01*
G01*
X13453110Y-21073110D02*
X13851890Y-21471890D01*
X13851890Y-21073110D02*
X13453110Y-21471890D01*
X13851890Y-21272500D02*
G75*
G03*
X13851890Y-21272500I-199390J0D01*
G01*
X14167485Y-15358110D02*
X14566265Y-15756890D01*
X14566265Y-15358110D02*
X14167485Y-15756890D01*
X14566265Y-15557500D02*
G75*
G03*
X14566265Y-15557500I-199390J0D01*
G01*
X14646910Y-21898610D02*
X15045690Y-22297390D01*
X15045690Y-21898610D02*
X14646910Y-22297390D01*
X15045690Y-22098000D02*
G75*
G03*
X15045690Y-22098000I-199390J0D01*
G01*
X14881860Y-22978110D02*
X15280640Y-23376890D01*
X15280640Y-22978110D02*
X14881860Y-23376890D01*
X15280640Y-23177500D02*
G75*
G03*
X15280640Y-23177500I-199390J0D01*
G01*
X15119985Y-17263110D02*
X15518765Y-17661890D01*
X15518765Y-17263110D02*
X15119985Y-17661890D01*
X15518765Y-17462500D02*
G75*
G03*
X15518765Y-17462500I-199390J0D01*
G01*
X15596235Y-19168110D02*
X15995015Y-19566890D01*
X15995015Y-19168110D02*
X15596235Y-19566890D01*
X15995015Y-19367500D02*
G75*
G03*
X15995015Y-19367500I-199390J0D01*
G01*
X16072485Y-12500610D02*
X16471265Y-12899390D01*
X16471265Y-12500610D02*
X16072485Y-12899390D01*
X16471265Y-12700000D02*
G75*
G03*
X16471265Y-12700000I-199390J0D01*
G01*
X16072485Y-15358110D02*
X16471265Y-15756890D01*
X16471265Y-15358110D02*
X16072485Y-15756890D01*
X16471265Y-15557500D02*
G75*
G03*
X16471265Y-15557500I-199390J0D01*
G01*
X16548735Y-21073110D02*
X16947515Y-21471890D01*
X16947515Y-21073110D02*
X16548735Y-21471890D01*
X16947515Y-21272500D02*
G75*
G03*
X16947515Y-21272500I-199390J0D01*
G01*
X17024985Y-17263110D02*
X17423765Y-17661890D01*
X17423765Y-17263110D02*
X17024985Y-17661890D01*
X17423765Y-17462500D02*
G75*
G03*
X17423765Y-17462500I-199390J0D01*
G01*
X17263110Y-22978110D02*
X17661890Y-23376890D01*
X17661890Y-22978110D02*
X17263110Y-23376890D01*
X17661890Y-23177500D02*
G75*
G03*
X17661890Y-23177500I-199390J0D01*
G01*
X17501235Y-19168110D02*
X17900015Y-19566890D01*
X17900015Y-19168110D02*
X17501235Y-19566890D01*
X17900015Y-19367500D02*
G75*
G03*
X17900015Y-19367500I-199390J0D01*
G01*
X17977485Y-12500610D02*
X18376265Y-12899390D01*
X18376265Y-12500610D02*
X17977485Y-12899390D01*
X18376265Y-12700000D02*
G75*
G03*
X18376265Y-12700000I-199390J0D01*
G01*
X17977485Y-15358110D02*
X18376265Y-15756890D01*
X18376265Y-15358110D02*
X17977485Y-15756890D01*
X18376265Y-15557500D02*
G75*
G03*
X18376265Y-15557500I-199390J0D01*
G01*
X18453735Y-21073110D02*
X18852515Y-21471890D01*
X18852515Y-21073110D02*
X18453735Y-21471890D01*
X18852515Y-21272500D02*
G75*
G03*
X18852515Y-21272500I-199390J0D01*
G01*
X18929985Y-17263110D02*
X19328765Y-17661890D01*
X19328765Y-17263110D02*
X18929985Y-17661890D01*
X19328765Y-17462500D02*
G75*
G03*
X19328765Y-17462500I-199390J0D01*
G01*
X19406235Y-19168110D02*
X19805015Y-19566890D01*
X19805015Y-19168110D02*
X19406235Y-19566890D01*
X19805015Y-19367500D02*
G75*
G03*
X19805015Y-19367500I-199390J0D01*
G01*
X19406870Y-22152610D02*
X19805650Y-22551390D01*
X19805650Y-22152610D02*
X19406870Y-22551390D01*
X19805650Y-22352000D02*
G75*
G03*
X19805650Y-22352000I-199390J0D01*
G01*
X19882485Y-12500610D02*
X20281265Y-12899390D01*
X20281265Y-12500610D02*
X19882485Y-12899390D01*
X20281265Y-12700000D02*
G75*
G03*
X20281265Y-12700000I-199390J0D01*
G01*
X19882485Y-15358110D02*
X20281265Y-15756890D01*
X20281265Y-15358110D02*
X19882485Y-15756890D01*
X20281265Y-15557500D02*
G75*
G03*
X20281265Y-15557500I-199390J0D01*
G01*
X20358735Y-21073110D02*
X20757515Y-21471890D01*
X20757515Y-21073110D02*
X20358735Y-21471890D01*
X20757515Y-21272500D02*
G75*
G03*
X20757515Y-21272500I-199390J0D01*
G01*
X20834985Y-17263110D02*
X21233765Y-17661890D01*
X21233765Y-17263110D02*
X20834985Y-17661890D01*
X21233765Y-17462500D02*
G75*
G03*
X21233765Y-17462500I-199390J0D01*
G01*
X21311235Y-19168110D02*
X21710015Y-19566890D01*
X21710015Y-19168110D02*
X21311235Y-19566890D01*
X21710015Y-19367500D02*
G75*
G03*
X21710015Y-19367500I-199390J0D01*
G01*
X21787485Y-12500610D02*
X22186265Y-12899390D01*
X22186265Y-12500610D02*
X21787485Y-12899390D01*
X22186265Y-12700000D02*
G75*
G03*
X22186265Y-12700000I-199390J0D01*
G01*
X21787485Y-15358110D02*
X22186265Y-15756890D01*
X22186265Y-15358110D02*
X21787485Y-15756890D01*
X22186265Y-15557500D02*
G75*
G03*
X22186265Y-15557500I-199390J0D01*
G01*
X22263735Y-21073110D02*
X22662515Y-21471890D01*
X22662515Y-21073110D02*
X22263735Y-21471890D01*
X22662515Y-21272500D02*
G75*
G03*
X22662515Y-21272500I-199390J0D01*
G01*
X22739985Y-17263110D02*
X23138765Y-17661890D01*
X23138765Y-17263110D02*
X22739985Y-17661890D01*
X23138765Y-17462500D02*
G75*
G03*
X23138765Y-17462500I-199390J0D01*
G01*
X23216235Y-19168110D02*
X23615015Y-19566890D01*
X23615015Y-19168110D02*
X23216235Y-19566890D01*
X23615015Y-19367500D02*
G75*
G03*
X23615015Y-19367500I-199390J0D01*
G01*
X23692485Y-15358110D02*
X24091265Y-15756890D01*
X24091265Y-15358110D02*
X23692485Y-15756890D01*
X24091265Y-15557500D02*
G75*
G03*
X24091265Y-15557500I-199390J0D01*
G01*
X24168735Y-21073110D02*
X24567515Y-21471890D01*
X24567515Y-21073110D02*
X24168735Y-21471890D01*
X24567515Y-21272500D02*
G75*
G03*
X24567515Y-21272500I-199390J0D01*
G01*
X24406860Y-22978110D02*
X24805640Y-23376890D01*
X24805640Y-22978110D02*
X24406860Y-23376890D01*
X24805640Y-23177500D02*
G75*
G03*
X24805640Y-23177500I-199390J0D01*
G01*
X24644985Y-12500610D02*
X25043765Y-12899390D01*
X25043765Y-12500610D02*
X24644985Y-12899390D01*
X25043765Y-12700000D02*
G75*
G03*
X25043765Y-12700000I-199390J0D01*
G01*
X24644985Y-17263110D02*
X25043765Y-17661890D01*
X25043765Y-17263110D02*
X24644985Y-17661890D01*
X25043765Y-17462500D02*
G75*
G03*
X25043765Y-17462500I-199390J0D01*
G01*
X25121235Y-19168110D02*
X25520015Y-19566890D01*
X25520015Y-19168110D02*
X25121235Y-19566890D01*
X25520015Y-19367500D02*
G75*
G03*
X25520015Y-19367500I-199390J0D01*
G01*
X25597485Y-15358110D02*
X25996265Y-15756890D01*
X25996265Y-15358110D02*
X25597485Y-15756890D01*
X25996265Y-15557500D02*
G75*
G03*
X25996265Y-15557500I-199390J0D01*
G01*
X26073735Y-21073110D02*
X26472515Y-21471890D01*
X26472515Y-21073110D02*
X26073735Y-21471890D01*
X26472515Y-21272500D02*
G75*
G03*
X26472515Y-21272500I-199390J0D01*
G01*
X26549985Y-12500610D02*
X26948765Y-12899390D01*
X26948765Y-12500610D02*
X26549985Y-12899390D01*
X26948765Y-12700000D02*
G75*
G03*
X26948765Y-12700000I-199390J0D01*
G01*
X26549985Y-17263110D02*
X26948765Y-17661890D01*
X26948765Y-17263110D02*
X26549985Y-17661890D01*
X26948765Y-17462500D02*
G75*
G03*
X26948765Y-17462500I-199390J0D01*
G01*
X27026235Y-19168110D02*
X27425015Y-19566890D01*
X27425015Y-19168110D02*
X27026235Y-19566890D01*
X27425015Y-19367500D02*
G75*
G03*
X27425015Y-19367500I-199390J0D01*
G01*
X27502485Y-15358110D02*
X27901265Y-15756890D01*
X27901265Y-15358110D02*
X27502485Y-15756890D01*
X27901265Y-15557500D02*
G75*
G03*
X27901265Y-15557500I-199390J0D01*
G01*
X27978735Y-21073110D02*
X28377515Y-21471890D01*
X28377515Y-21073110D02*
X27978735Y-21471890D01*
X28377515Y-21272500D02*
G75*
G03*
X28377515Y-21272500I-199390J0D01*
G01*
X28454985Y-12500610D02*
X28853765Y-12899390D01*
X28853765Y-12500610D02*
X28454985Y-12899390D01*
X28853765Y-12700000D02*
G75*
G03*
X28853765Y-12700000I-199390J0D01*
G01*
X28454985Y-17263110D02*
X28853765Y-17661890D01*
X28853765Y-17263110D02*
X28454985Y-17661890D01*
X28853765Y-17462500D02*
G75*
G03*
X28853765Y-17462500I-199390J0D01*
G01*
X28931235Y-19168110D02*
X29330015Y-19566890D01*
X29330015Y-19168110D02*
X28931235Y-19566890D01*
X29330015Y-19367500D02*
G75*
G03*
X29330015Y-19367500I-199390J0D01*
G01*
X29406850Y-22152610D02*
X29805630Y-22551390D01*
X29805630Y-22152610D02*
X29406850Y-22551390D01*
X29805630Y-22352000D02*
G75*
G03*
X29805630Y-22352000I-199390J0D01*
G01*
X29407485Y-15358110D02*
X29806265Y-15756890D01*
X29806265Y-15358110D02*
X29407485Y-15756890D01*
X29806265Y-15557500D02*
G75*
G03*
X29806265Y-15557500I-199390J0D01*
G01*
X29883735Y-21073110D02*
X30282515Y-21471890D01*
X30282515Y-21073110D02*
X29883735Y-21471890D01*
X30282515Y-21272500D02*
G75*
G03*
X30282515Y-21272500I-199390J0D01*
G01*
X30359985Y-12500610D02*
X30758765Y-12899390D01*
X30758765Y-12500610D02*
X30359985Y-12899390D01*
X30758765Y-12700000D02*
G75*
G03*
X30758765Y-12700000I-199390J0D01*
G01*
X30359985Y-17263110D02*
X30758765Y-17661890D01*
X30758765Y-17263110D02*
X30359985Y-17661890D01*
X30758765Y-17462500D02*
G75*
G03*
X30758765Y-17462500I-199390J0D01*
G01*
X30836235Y-19168110D02*
X31235015Y-19566890D01*
X31235015Y-19168110D02*
X30836235Y-19566890D01*
X31235015Y-19367500D02*
G75*
G03*
X31235015Y-19367500I-199390J0D01*
G01*
X31312485Y-15358110D02*
X31711265Y-15756890D01*
X31711265Y-15358110D02*
X31312485Y-15756890D01*
X31711265Y-15557500D02*
G75*
G03*
X31711265Y-15557500I-199390J0D01*
G01*
X31550610Y-22978110D02*
X31949390Y-23376890D01*
X31949390Y-22978110D02*
X31550610Y-23376890D01*
X31949390Y-23177500D02*
G75*
G03*
X31949390Y-23177500I-199390J0D01*
G01*
X31788735Y-21073110D02*
X32187515Y-21471890D01*
X32187515Y-21073110D02*
X31788735Y-21471890D01*
X32187515Y-21272500D02*
G75*
G03*
X32187515Y-21272500I-199390J0D01*
G01*
X32264985Y-17263110D02*
X32663765Y-17661890D01*
X32663765Y-17263110D02*
X32264985Y-17661890D01*
X32663765Y-17462500D02*
G75*
G03*
X32663765Y-17462500I-199390J0D01*
G01*
X32741235Y-19168110D02*
X33140015Y-19566890D01*
X33140015Y-19168110D02*
X32741235Y-19566890D01*
X33140015Y-19367500D02*
G75*
G03*
X33140015Y-19367500I-199390J0D01*
G01*
X33217485Y-12500610D02*
X33616265Y-12899390D01*
X33616265Y-12500610D02*
X33217485Y-12899390D01*
X33616265Y-12700000D02*
G75*
G03*
X33616265Y-12700000I-199390J0D01*
G01*
X33217485Y-15358110D02*
X33616265Y-15756890D01*
X33616265Y-15358110D02*
X33217485Y-15756890D01*
X33616265Y-15557500D02*
G75*
G03*
X33616265Y-15557500I-199390J0D01*
G01*
X33693735Y-21073110D02*
X34092515Y-21471890D01*
X34092515Y-21073110D02*
X33693735Y-21471890D01*
X34092515Y-21272500D02*
G75*
G03*
X34092515Y-21272500I-199390J0D01*
G01*
X33931860Y-22978110D02*
X34330640Y-23376890D01*
X34330640Y-22978110D02*
X33931860Y-23376890D01*
X34330640Y-23177500D02*
G75*
G03*
X34330640Y-23177500I-199390J0D01*
G01*
X34169985Y-17263110D02*
X34568765Y-17661890D01*
X34568765Y-17263110D02*
X34169985Y-17661890D01*
X34568765Y-17462500D02*
G75*
G03*
X34568765Y-17462500I-199390J0D01*
G01*
X34646235Y-19168110D02*
X35045015Y-19566890D01*
X35045015Y-19168110D02*
X34646235Y-19566890D01*
X35045015Y-19367500D02*
G75*
G03*
X35045015Y-19367500I-199390J0D01*
G01*
X35122485Y-12500610D02*
X35521265Y-12899390D01*
X35521265Y-12500610D02*
X35122485Y-12899390D01*
X35521265Y-12700000D02*
G75*
G03*
X35521265Y-12700000I-199390J0D01*
G01*
X35122485Y-15358110D02*
X35521265Y-15756890D01*
X35521265Y-15358110D02*
X35122485Y-15756890D01*
X35521265Y-15557500D02*
G75*
G03*
X35521265Y-15557500I-199390J0D01*
G01*
X36071810Y-21898610D02*
X36470590Y-22297390D01*
X36470590Y-21898610D02*
X36071810Y-22297390D01*
X36470590Y-22098000D02*
G75*
G03*
X36470590Y-22098000I-199390J0D01*
G01*
X36074985Y-17263110D02*
X36473765Y-17661890D01*
X36473765Y-17263110D02*
X36074985Y-17661890D01*
X36473765Y-17462500D02*
G75*
G03*
X36473765Y-17462500I-199390J0D01*
G01*
X36313110Y-22978110D02*
X36711890Y-23376890D01*
X36711890Y-22978110D02*
X36313110Y-23376890D01*
X36711890Y-23177500D02*
G75*
G03*
X36711890Y-23177500I-199390J0D01*
G01*
X36548060Y-19993610D02*
X36946840Y-20392390D01*
X36946840Y-19993610D02*
X36548060Y-20392390D01*
X36946840Y-20193000D02*
G75*
G03*
X36946840Y-20193000I-199390J0D01*
G01*
X36786185Y-16183610D02*
X37184965Y-16582390D01*
X37184965Y-16183610D02*
X36786185Y-16582390D01*
X37184965Y-16383000D02*
G75*
G03*
X37184965Y-16383000I-199390J0D01*
G01*
X37027485Y-12500610D02*
X37426265Y-12899390D01*
X37426265Y-12500610D02*
X37027485Y-12899390D01*
X37426265Y-12700000D02*
G75*
G03*
X37426265Y-12700000I-199390J0D01*
G01*
X37265610Y-21073110D02*
X37664390Y-21471890D01*
X37664390Y-21073110D02*
X37265610Y-21471890D01*
X37664390Y-21272500D02*
G75*
G03*
X37664390Y-21272500I-199390J0D01*
G01*
X37741860Y-19168110D02*
X38140640Y-19566890D01*
X38140640Y-19168110D02*
X37741860Y-19566890D01*
X38140640Y-19367500D02*
G75*
G03*
X38140640Y-19367500I-199390J0D01*
G01*
X37979985Y-15358110D02*
X38378765Y-15756890D01*
X38378765Y-15358110D02*
X37979985Y-15756890D01*
X38378765Y-15557500D02*
G75*
G03*
X38378765Y-15557500I-199390J0D01*
G01*
X38456235Y-17263110D02*
X38855015Y-17661890D01*
X38855015Y-17263110D02*
X38456235Y-17661890D01*
X38855015Y-17462500D02*
G75*
G03*
X38855015Y-17462500I-199390J0D01*
G01*
X38459410Y-21898610D02*
X38858190Y-22297390D01*
X38858190Y-21898610D02*
X38459410Y-22297390D01*
X38858190Y-22098000D02*
G75*
G03*
X38858190Y-22098000I-199390J0D01*
G01*
X38694360Y-22978110D02*
X39093140Y-23376890D01*
X39093140Y-22978110D02*
X38694360Y-23376890D01*
X39093140Y-23177500D02*
G75*
G03*
X39093140Y-23177500I-199390J0D01*
G01*
X38932485Y-12500610D02*
X39331265Y-12899390D01*
X39331265Y-12500610D02*
X38932485Y-12899390D01*
X39331265Y-12700000D02*
G75*
G03*
X39331265Y-12700000I-199390J0D01*
G01*
X38935660Y-19993610D02*
X39334440Y-20392390D01*
X39334440Y-19993610D02*
X38935660Y-20392390D01*
X39334440Y-20193000D02*
G75*
G03*
X39334440Y-20193000I-199390J0D01*
G01*
X39173785Y-16183610D02*
X39572565Y-16582390D01*
X39572565Y-16183610D02*
X39173785Y-16582390D01*
X39572565Y-16383000D02*
G75*
G03*
X39572565Y-16383000I-199390J0D01*
G01*
X41789985Y-12500610D02*
X42188765Y-12899390D01*
X42188765Y-12500610D02*
X41789985Y-12899390D01*
X42188765Y-12700000D02*
G75*
G03*
X42188765Y-12700000I-199390J0D01*
G01*
X41789985Y-15358110D02*
X42188765Y-15756890D01*
X42188765Y-15358110D02*
X41789985Y-15756890D01*
X42188765Y-15557500D02*
G75*
G03*
X42188765Y-15557500I-199390J0D01*
G01*
X41789985Y-17263110D02*
X42188765Y-17661890D01*
X42188765Y-17263110D02*
X41789985Y-17661890D01*
X42188765Y-17462500D02*
G75*
G03*
X42188765Y-17462500I-199390J0D01*
G01*
X41789985Y-22978110D02*
X42188765Y-23376890D01*
X42188765Y-22978110D02*
X41789985Y-23376890D01*
X42188765Y-23177500D02*
G75*
G03*
X42188765Y-23177500I-199390J0D01*
G01*
X43694985Y-12500610D02*
X44093765Y-12899390D01*
X44093765Y-12500610D02*
X43694985Y-12899390D01*
X44093765Y-12700000D02*
G75*
G03*
X44093765Y-12700000I-199390J0D01*
G01*
X43694985Y-15358110D02*
X44093765Y-15756890D01*
X44093765Y-15358110D02*
X43694985Y-15756890D01*
X44093765Y-15557500D02*
G75*
G03*
X44093765Y-15557500I-199390J0D01*
G01*
X43694985Y-17263110D02*
X44093765Y-17661890D01*
X44093765Y-17263110D02*
X43694985Y-17661890D01*
X44093765Y-17462500D02*
G75*
G03*
X44093765Y-17462500I-199390J0D01*
G01*
X43694985Y-21073110D02*
X44093765Y-21471890D01*
X44093765Y-21073110D02*
X43694985Y-21471890D01*
X44093765Y-21272500D02*
G75*
G03*
X44093765Y-21272500I-199390J0D01*
G01*
X43694985Y-22978110D02*
X44093765Y-23376890D01*
X44093765Y-22978110D02*
X43694985Y-23376890D01*
X44093765Y-23177500D02*
G75*
G03*
X44093765Y-23177500I-199390J0D01*
G01*
X45599985Y-12500610D02*
X45998765Y-12899390D01*
X45998765Y-12500610D02*
X45599985Y-12899390D01*
X45998765Y-12700000D02*
G75*
G03*
X45998765Y-12700000I-199390J0D01*
G01*
X45599985Y-15358110D02*
X45998765Y-15756890D01*
X45998765Y-15358110D02*
X45599985Y-15756890D01*
X45998765Y-15557500D02*
G75*
G03*
X45998765Y-15557500I-199390J0D01*
G01*
X45599985Y-17263110D02*
X45998765Y-17661890D01*
X45998765Y-17263110D02*
X45599985Y-17661890D01*
X45998765Y-17462500D02*
G75*
G03*
X45998765Y-17462500I-199390J0D01*
G01*
X45599985Y-22978110D02*
X45998765Y-23376890D01*
X45998765Y-22978110D02*
X45599985Y-23376890D01*
X45998765Y-23177500D02*
G75*
G03*
X45998765Y-23177500I-199390J0D01*
G01*
D11*
X3903869Y-24762976D02*
X3903869Y-24562976D01*
X3951488Y-24562976D01*
X3980059Y-24572500D01*
X3999107Y-24591548D01*
X4008631Y-24610595D01*
X4018155Y-24648690D01*
X4018155Y-24677262D01*
X4008631Y-24715357D01*
X3999107Y-24734405D01*
X3980059Y-24753452D01*
X3951488Y-24762976D01*
X3903869Y-24762976D01*
X4103869Y-24762976D02*
X4103869Y-24629643D01*
X4103869Y-24667738D02*
X4113393Y-24648690D01*
X4122917Y-24639167D01*
X4141964Y-24629643D01*
X4161012Y-24629643D01*
X4227679Y-24762976D02*
X4227679Y-24629643D01*
X4227679Y-24562976D02*
X4218155Y-24572500D01*
X4227679Y-24582024D01*
X4237202Y-24572500D01*
X4227679Y-24562976D01*
X4227679Y-24582024D01*
X4351488Y-24762976D02*
X4332440Y-24753452D01*
X4322917Y-24734405D01*
X4322917Y-24562976D01*
X4456250Y-24762976D02*
X4437202Y-24753452D01*
X4427679Y-24734405D01*
X4427679Y-24562976D01*
X4684821Y-24762976D02*
X4684821Y-24562976D01*
X4751488Y-24705833D01*
X4818155Y-24562976D01*
X4818155Y-24762976D01*
X4999107Y-24762976D02*
X4999107Y-24658214D01*
X4989583Y-24639167D01*
X4970536Y-24629643D01*
X4932440Y-24629643D01*
X4913393Y-24639167D01*
X4999107Y-24753452D02*
X4980060Y-24762976D01*
X4932440Y-24762976D01*
X4913393Y-24753452D01*
X4903869Y-24734405D01*
X4903869Y-24715357D01*
X4913393Y-24696309D01*
X4932440Y-24686786D01*
X4980060Y-24686786D01*
X4999107Y-24677262D01*
X5094345Y-24629643D02*
X5094345Y-24829643D01*
X5094345Y-24639167D02*
X5113393Y-24629643D01*
X5151488Y-24629643D01*
X5170536Y-24639167D01*
X5180060Y-24648690D01*
X5189583Y-24667738D01*
X5189583Y-24724881D01*
X5180060Y-24743928D01*
X5170536Y-24753452D01*
X5151488Y-24762976D01*
X5113393Y-24762976D01*
X5094345Y-24753452D01*
X5275298Y-24743928D02*
X5284821Y-24753452D01*
X5275298Y-24762976D01*
X5265774Y-24753452D01*
X5275298Y-24743928D01*
X5275298Y-24762976D01*
X5275298Y-24639167D02*
X5284821Y-24648690D01*
X5275298Y-24658214D01*
X5265774Y-24648690D01*
X5275298Y-24639167D01*
X5275298Y-24658214D01*
D12*
X3581250Y-25060000D02*
X3646250Y-25125000D01*
X3646250Y-25060000D02*
X3581250Y-25125000D01*
D11*
X3941964Y-24982976D02*
X3961012Y-24982976D01*
X3980059Y-24992500D01*
X3989583Y-25002024D01*
X3999107Y-25021071D01*
X4008631Y-25059167D01*
X4008631Y-25106786D01*
X3999107Y-25144881D01*
X3989583Y-25163928D01*
X3980059Y-25173452D01*
X3961012Y-25182976D01*
X3941964Y-25182976D01*
X3922917Y-25173452D01*
X3913393Y-25163928D01*
X3903869Y-25144881D01*
X3894345Y-25106786D01*
X3894345Y-25059167D01*
X3903869Y-25021071D01*
X3913393Y-25002024D01*
X3922917Y-24992500D01*
X3941964Y-24982976D01*
X4094345Y-25163928D02*
X4103869Y-25173452D01*
X4094345Y-25182976D01*
X4084821Y-25173452D01*
X4094345Y-25163928D01*
X4094345Y-25182976D01*
X4275298Y-24982976D02*
X4237202Y-24982976D01*
X4218155Y-24992500D01*
X4208631Y-25002024D01*
X4189583Y-25030595D01*
X4180059Y-25068690D01*
X4180059Y-25144881D01*
X4189583Y-25163928D01*
X4199107Y-25173452D01*
X4218155Y-25182976D01*
X4256250Y-25182976D01*
X4275298Y-25173452D01*
X4284821Y-25163928D01*
X4294345Y-25144881D01*
X4294345Y-25097262D01*
X4284821Y-25078214D01*
X4275298Y-25068690D01*
X4256250Y-25059167D01*
X4218155Y-25059167D01*
X4199107Y-25068690D01*
X4189583Y-25078214D01*
X4180059Y-25097262D01*
X4475298Y-24982976D02*
X4380060Y-24982976D01*
X4370536Y-25078214D01*
X4380060Y-25068690D01*
X4399107Y-25059167D01*
X4446726Y-25059167D01*
X4465774Y-25068690D01*
X4475298Y-25078214D01*
X4484821Y-25097262D01*
X4484821Y-25144881D01*
X4475298Y-25163928D01*
X4465774Y-25173452D01*
X4446726Y-25182976D01*
X4399107Y-25182976D01*
X4380060Y-25173452D01*
X4370536Y-25163928D01*
X4608631Y-24982976D02*
X4627679Y-24982976D01*
X4646726Y-24992500D01*
X4656250Y-25002024D01*
X4665774Y-25021071D01*
X4675298Y-25059167D01*
X4675298Y-25106786D01*
X4665774Y-25144881D01*
X4656250Y-25163928D01*
X4646726Y-25173452D01*
X4627679Y-25182976D01*
X4608631Y-25182976D01*
X4589583Y-25173452D01*
X4580060Y-25163928D01*
X4570536Y-25144881D01*
X4561012Y-25106786D01*
X4561012Y-25059167D01*
X4570536Y-25021071D01*
X4580060Y-25002024D01*
X4589583Y-24992500D01*
X4608631Y-24982976D01*
X4761012Y-25182976D02*
X4761012Y-25049643D01*
X4761012Y-25068690D02*
X4770536Y-25059167D01*
X4789583Y-25049643D01*
X4818155Y-25049643D01*
X4837202Y-25059167D01*
X4846726Y-25078214D01*
X4846726Y-25182976D01*
X4846726Y-25078214D02*
X4856250Y-25059167D01*
X4875298Y-25049643D01*
X4903869Y-25049643D01*
X4922917Y-25059167D01*
X4932440Y-25078214D01*
X4932440Y-25182976D01*
X5027679Y-25182976D02*
X5027679Y-25049643D01*
X5027679Y-25068690D02*
X5037202Y-25059167D01*
X5056250Y-25049643D01*
X5084821Y-25049643D01*
X5103869Y-25059167D01*
X5113393Y-25078214D01*
X5113393Y-25182976D01*
X5113393Y-25078214D02*
X5122917Y-25059167D01*
X5141964Y-25049643D01*
X5170536Y-25049643D01*
X5189583Y-25059167D01*
X5199107Y-25078214D01*
X5199107Y-25182976D01*
X5589583Y-24973452D02*
X5418155Y-25230595D01*
X5846726Y-24982976D02*
X5865774Y-24982976D01*
X5884821Y-24992500D01*
X5894345Y-25002024D01*
X5903869Y-25021071D01*
X5913393Y-25059167D01*
X5913393Y-25106786D01*
X5903869Y-25144881D01*
X5894345Y-25163928D01*
X5884821Y-25173452D01*
X5865774Y-25182976D01*
X5846726Y-25182976D01*
X5827678Y-25173452D01*
X5818155Y-25163928D01*
X5808631Y-25144881D01*
X5799107Y-25106786D01*
X5799107Y-25059167D01*
X5808631Y-25021071D01*
X5818155Y-25002024D01*
X5827678Y-24992500D01*
X5846726Y-24982976D01*
X5999107Y-25163928D02*
X6008631Y-25173452D01*
X5999107Y-25182976D01*
X5989583Y-25173452D01*
X5999107Y-25163928D01*
X5999107Y-25182976D01*
X6132440Y-24982976D02*
X6151488Y-24982976D01*
X6170536Y-24992500D01*
X6180059Y-25002024D01*
X6189583Y-25021071D01*
X6199107Y-25059167D01*
X6199107Y-25106786D01*
X6189583Y-25144881D01*
X6180059Y-25163928D01*
X6170536Y-25173452D01*
X6151488Y-25182976D01*
X6132440Y-25182976D01*
X6113393Y-25173452D01*
X6103869Y-25163928D01*
X6094345Y-25144881D01*
X6084821Y-25106786D01*
X6084821Y-25059167D01*
X6094345Y-25021071D01*
X6103869Y-25002024D01*
X6113393Y-24992500D01*
X6132440Y-24982976D01*
X6275298Y-25002024D02*
X6284821Y-24992500D01*
X6303869Y-24982976D01*
X6351488Y-24982976D01*
X6370536Y-24992500D01*
X6380059Y-25002024D01*
X6389583Y-25021071D01*
X6389583Y-25040119D01*
X6380059Y-25068690D01*
X6265774Y-25182976D01*
X6389583Y-25182976D01*
X6570536Y-24982976D02*
X6475298Y-24982976D01*
X6465774Y-25078214D01*
X6475298Y-25068690D01*
X6494345Y-25059167D01*
X6541964Y-25059167D01*
X6561012Y-25068690D01*
X6570536Y-25078214D01*
X6580059Y-25097262D01*
X6580059Y-25144881D01*
X6570536Y-25163928D01*
X6561012Y-25173452D01*
X6541964Y-25182976D01*
X6494345Y-25182976D01*
X6475298Y-25173452D01*
X6465774Y-25163928D01*
X6751488Y-24982976D02*
X6713393Y-24982976D01*
X6694345Y-24992500D01*
X6684821Y-25002024D01*
X6665774Y-25030595D01*
X6656250Y-25068690D01*
X6656250Y-25144881D01*
X6665774Y-25163928D01*
X6675298Y-25173452D01*
X6694345Y-25182976D01*
X6732440Y-25182976D01*
X6751488Y-25173452D01*
X6761012Y-25163928D01*
X6770536Y-25144881D01*
X6770536Y-25097262D01*
X6761012Y-25078214D01*
X6751488Y-25068690D01*
X6732440Y-25059167D01*
X6694345Y-25059167D01*
X6675298Y-25068690D01*
X6665774Y-25078214D01*
X6656250Y-25097262D01*
X6846726Y-24982976D02*
X6846726Y-25021071D01*
X6922917Y-24982976D02*
X6922917Y-25021071D01*
X7218155Y-25259167D02*
X7208631Y-25249643D01*
X7189583Y-25221071D01*
X7180059Y-25202024D01*
X7170536Y-25173452D01*
X7161012Y-25125833D01*
X7161012Y-25087738D01*
X7170536Y-25040119D01*
X7180059Y-25011548D01*
X7189583Y-24992500D01*
X7208631Y-24963928D01*
X7218155Y-24954405D01*
X7284821Y-25002024D02*
X7294345Y-24992500D01*
X7313393Y-24982976D01*
X7361012Y-24982976D01*
X7380059Y-24992500D01*
X7389583Y-25002024D01*
X7399107Y-25021071D01*
X7399107Y-25040119D01*
X7389583Y-25068690D01*
X7275298Y-25182976D01*
X7399107Y-25182976D01*
X7637202Y-25182976D02*
X7637202Y-24982976D01*
X7722917Y-25182976D02*
X7722917Y-25078214D01*
X7713393Y-25059167D01*
X7694345Y-25049643D01*
X7665774Y-25049643D01*
X7646726Y-25059167D01*
X7637202Y-25068690D01*
X7846726Y-25182976D02*
X7827678Y-25173452D01*
X7818155Y-25163928D01*
X7808631Y-25144881D01*
X7808631Y-25087738D01*
X7818155Y-25068690D01*
X7827678Y-25059167D01*
X7846726Y-25049643D01*
X7875298Y-25049643D01*
X7894345Y-25059167D01*
X7903869Y-25068690D01*
X7913393Y-25087738D01*
X7913393Y-25144881D01*
X7903869Y-25163928D01*
X7894345Y-25173452D01*
X7875298Y-25182976D01*
X7846726Y-25182976D01*
X8027678Y-25182976D02*
X8008631Y-25173452D01*
X7999107Y-25154405D01*
X7999107Y-24982976D01*
X8180059Y-25173452D02*
X8161012Y-25182976D01*
X8122917Y-25182976D01*
X8103869Y-25173452D01*
X8094345Y-25154405D01*
X8094345Y-25078214D01*
X8103869Y-25059167D01*
X8122917Y-25049643D01*
X8161012Y-25049643D01*
X8180059Y-25059167D01*
X8189583Y-25078214D01*
X8189583Y-25097262D01*
X8094345Y-25116309D01*
X8265774Y-25173452D02*
X8284821Y-25182976D01*
X8322917Y-25182976D01*
X8341964Y-25173452D01*
X8351488Y-25154405D01*
X8351488Y-25144881D01*
X8341964Y-25125833D01*
X8322917Y-25116309D01*
X8294345Y-25116309D01*
X8275298Y-25106786D01*
X8265774Y-25087738D01*
X8265774Y-25078214D01*
X8275298Y-25059167D01*
X8294345Y-25049643D01*
X8322917Y-25049643D01*
X8341964Y-25059167D01*
X8418155Y-25259167D02*
X8427679Y-25249643D01*
X8446726Y-25221071D01*
X8456250Y-25202024D01*
X8465774Y-25173452D01*
X8475298Y-25125833D01*
X8475298Y-25087738D01*
X8465774Y-25040119D01*
X8456250Y-25011548D01*
X8446726Y-24992500D01*
X8427679Y-24963928D01*
X8418155Y-24954405D01*
X8780060Y-25259167D02*
X8770536Y-25249643D01*
X8751488Y-25221071D01*
X8741964Y-25202024D01*
X8732440Y-25173452D01*
X8722917Y-25125833D01*
X8722917Y-25087738D01*
X8732440Y-25040119D01*
X8741964Y-25011548D01*
X8751488Y-24992500D01*
X8770536Y-24963928D01*
X8780060Y-24954405D01*
X8856250Y-25049643D02*
X8856250Y-25182976D01*
X8856250Y-25068690D02*
X8865774Y-25059167D01*
X8884821Y-25049643D01*
X8913393Y-25049643D01*
X8932440Y-25059167D01*
X8941964Y-25078214D01*
X8941964Y-25182976D01*
X9065774Y-25182976D02*
X9046726Y-25173452D01*
X9037202Y-25163928D01*
X9027679Y-25144881D01*
X9027679Y-25087738D01*
X9037202Y-25068690D01*
X9046726Y-25059167D01*
X9065774Y-25049643D01*
X9094345Y-25049643D01*
X9113393Y-25059167D01*
X9122917Y-25068690D01*
X9132440Y-25087738D01*
X9132440Y-25144881D01*
X9122917Y-25163928D01*
X9113393Y-25173452D01*
X9094345Y-25182976D01*
X9065774Y-25182976D01*
X9189583Y-25049643D02*
X9265774Y-25049643D01*
X9218155Y-24982976D02*
X9218155Y-25154405D01*
X9227679Y-25173452D01*
X9246726Y-25182976D01*
X9265774Y-25182976D01*
X9484821Y-25049643D02*
X9484821Y-25249643D01*
X9484821Y-25059167D02*
X9503869Y-25049643D01*
X9541964Y-25049643D01*
X9561012Y-25059167D01*
X9570536Y-25068690D01*
X9580060Y-25087738D01*
X9580060Y-25144881D01*
X9570536Y-25163928D01*
X9561012Y-25173452D01*
X9541964Y-25182976D01*
X9503869Y-25182976D01*
X9484821Y-25173452D01*
X9694345Y-25182976D02*
X9675298Y-25173452D01*
X9665774Y-25154405D01*
X9665774Y-24982976D01*
X9856250Y-25182976D02*
X9856250Y-25078214D01*
X9846726Y-25059167D01*
X9827679Y-25049643D01*
X9789583Y-25049643D01*
X9770536Y-25059167D01*
X9856250Y-25173452D02*
X9837202Y-25182976D01*
X9789583Y-25182976D01*
X9770536Y-25173452D01*
X9761012Y-25154405D01*
X9761012Y-25135357D01*
X9770536Y-25116309D01*
X9789583Y-25106786D01*
X9837202Y-25106786D01*
X9856250Y-25097262D01*
X9922917Y-25049643D02*
X9999107Y-25049643D01*
X9951488Y-24982976D02*
X9951488Y-25154405D01*
X9961012Y-25173452D01*
X9980060Y-25182976D01*
X9999107Y-25182976D01*
X10141964Y-25173452D02*
X10122917Y-25182976D01*
X10084821Y-25182976D01*
X10065774Y-25173452D01*
X10056250Y-25154405D01*
X10056250Y-25078214D01*
X10065774Y-25059167D01*
X10084821Y-25049643D01*
X10122917Y-25049643D01*
X10141964Y-25059167D01*
X10151488Y-25078214D01*
X10151488Y-25097262D01*
X10056250Y-25116309D01*
X10322917Y-25182976D02*
X10322917Y-24982976D01*
X10322917Y-25173452D02*
X10303869Y-25182976D01*
X10265774Y-25182976D01*
X10246726Y-25173452D01*
X10237202Y-25163928D01*
X10227679Y-25144881D01*
X10227679Y-25087738D01*
X10237202Y-25068690D01*
X10246726Y-25059167D01*
X10265774Y-25049643D01*
X10303869Y-25049643D01*
X10322917Y-25059167D01*
X10399107Y-25259167D02*
X10408631Y-25249643D01*
X10427679Y-25221071D01*
X10437202Y-25202024D01*
X10446726Y-25173452D01*
X10456250Y-25125833D01*
X10456250Y-25087738D01*
X10446726Y-25040119D01*
X10437202Y-25011548D01*
X10427679Y-24992500D01*
X10408631Y-24963928D01*
X10399107Y-24954405D01*
D13*
X3646250Y-25356500D02*
G75*
G03*
X3646250Y-25356500I-75000J0D01*
G01*
D11*
X4008631Y-25446976D02*
X3894345Y-25446976D01*
X3951488Y-25446976D02*
X3951488Y-25246976D01*
X3932440Y-25275548D01*
X3913393Y-25294595D01*
X3894345Y-25304119D01*
X4094345Y-25427928D02*
X4103869Y-25437452D01*
X4094345Y-25446976D01*
X4084821Y-25437452D01*
X4094345Y-25427928D01*
X4094345Y-25446976D01*
X4284821Y-25246976D02*
X4189583Y-25246976D01*
X4180059Y-25342214D01*
X4189583Y-25332690D01*
X4208631Y-25323167D01*
X4256250Y-25323167D01*
X4275298Y-25332690D01*
X4284821Y-25342214D01*
X4294345Y-25361262D01*
X4294345Y-25408881D01*
X4284821Y-25427928D01*
X4275298Y-25437452D01*
X4256250Y-25446976D01*
X4208631Y-25446976D01*
X4189583Y-25437452D01*
X4180059Y-25427928D01*
X4418155Y-25246976D02*
X4437202Y-25246976D01*
X4456250Y-25256500D01*
X4465774Y-25266024D01*
X4475298Y-25285071D01*
X4484821Y-25323167D01*
X4484821Y-25370786D01*
X4475298Y-25408881D01*
X4465774Y-25427928D01*
X4456250Y-25437452D01*
X4437202Y-25446976D01*
X4418155Y-25446976D01*
X4399107Y-25437452D01*
X4389583Y-25427928D01*
X4380060Y-25408881D01*
X4370536Y-25370786D01*
X4370536Y-25323167D01*
X4380060Y-25285071D01*
X4389583Y-25266024D01*
X4399107Y-25256500D01*
X4418155Y-25246976D01*
X4608631Y-25246976D02*
X4627679Y-25246976D01*
X4646726Y-25256500D01*
X4656250Y-25266024D01*
X4665774Y-25285071D01*
X4675298Y-25323167D01*
X4675298Y-25370786D01*
X4665774Y-25408881D01*
X4656250Y-25427928D01*
X4646726Y-25437452D01*
X4627679Y-25446976D01*
X4608631Y-25446976D01*
X4589583Y-25437452D01*
X4580060Y-25427928D01*
X4570536Y-25408881D01*
X4561012Y-25370786D01*
X4561012Y-25323167D01*
X4570536Y-25285071D01*
X4580060Y-25266024D01*
X4589583Y-25256500D01*
X4608631Y-25246976D01*
X4761012Y-25446976D02*
X4761012Y-25313643D01*
X4761012Y-25332690D02*
X4770536Y-25323167D01*
X4789583Y-25313643D01*
X4818155Y-25313643D01*
X4837202Y-25323167D01*
X4846726Y-25342214D01*
X4846726Y-25446976D01*
X4846726Y-25342214D02*
X4856250Y-25323167D01*
X4875298Y-25313643D01*
X4903869Y-25313643D01*
X4922917Y-25323167D01*
X4932440Y-25342214D01*
X4932440Y-25446976D01*
X5027679Y-25446976D02*
X5027679Y-25313643D01*
X5027679Y-25332690D02*
X5037202Y-25323167D01*
X5056250Y-25313643D01*
X5084821Y-25313643D01*
X5103869Y-25323167D01*
X5113393Y-25342214D01*
X5113393Y-25446976D01*
X5113393Y-25342214D02*
X5122917Y-25323167D01*
X5141964Y-25313643D01*
X5170536Y-25313643D01*
X5189583Y-25323167D01*
X5199107Y-25342214D01*
X5199107Y-25446976D01*
X5589583Y-25237452D02*
X5418155Y-25494595D01*
X5846726Y-25246976D02*
X5865774Y-25246976D01*
X5884821Y-25256500D01*
X5894345Y-25266024D01*
X5903869Y-25285071D01*
X5913393Y-25323167D01*
X5913393Y-25370786D01*
X5903869Y-25408881D01*
X5894345Y-25427928D01*
X5884821Y-25437452D01*
X5865774Y-25446976D01*
X5846726Y-25446976D01*
X5827678Y-25437452D01*
X5818155Y-25427928D01*
X5808631Y-25408881D01*
X5799107Y-25370786D01*
X5799107Y-25323167D01*
X5808631Y-25285071D01*
X5818155Y-25266024D01*
X5827678Y-25256500D01*
X5846726Y-25246976D01*
X5999107Y-25427928D02*
X6008631Y-25437452D01*
X5999107Y-25446976D01*
X5989583Y-25437452D01*
X5999107Y-25427928D01*
X5999107Y-25446976D01*
X6132440Y-25246976D02*
X6151488Y-25246976D01*
X6170536Y-25256500D01*
X6180059Y-25266024D01*
X6189583Y-25285071D01*
X6199107Y-25323167D01*
X6199107Y-25370786D01*
X6189583Y-25408881D01*
X6180059Y-25427928D01*
X6170536Y-25437452D01*
X6151488Y-25446976D01*
X6132440Y-25446976D01*
X6113393Y-25437452D01*
X6103869Y-25427928D01*
X6094345Y-25408881D01*
X6084821Y-25370786D01*
X6084821Y-25323167D01*
X6094345Y-25285071D01*
X6103869Y-25266024D01*
X6113393Y-25256500D01*
X6132440Y-25246976D01*
X6380059Y-25246976D02*
X6284821Y-25246976D01*
X6275298Y-25342214D01*
X6284821Y-25332690D01*
X6303869Y-25323167D01*
X6351488Y-25323167D01*
X6370536Y-25332690D01*
X6380059Y-25342214D01*
X6389583Y-25361262D01*
X6389583Y-25408881D01*
X6380059Y-25427928D01*
X6370536Y-25437452D01*
X6351488Y-25446976D01*
X6303869Y-25446976D01*
X6284821Y-25437452D01*
X6275298Y-25427928D01*
X6484821Y-25446976D02*
X6522917Y-25446976D01*
X6541964Y-25437452D01*
X6551488Y-25427928D01*
X6570536Y-25399357D01*
X6580059Y-25361262D01*
X6580059Y-25285071D01*
X6570536Y-25266024D01*
X6561012Y-25256500D01*
X6541964Y-25246976D01*
X6503869Y-25246976D01*
X6484821Y-25256500D01*
X6475298Y-25266024D01*
X6465774Y-25285071D01*
X6465774Y-25332690D01*
X6475298Y-25351738D01*
X6484821Y-25361262D01*
X6503869Y-25370786D01*
X6541964Y-25370786D01*
X6561012Y-25361262D01*
X6570536Y-25351738D01*
X6580059Y-25332690D01*
X6770536Y-25446976D02*
X6656250Y-25446976D01*
X6713393Y-25446976D02*
X6713393Y-25246976D01*
X6694345Y-25275548D01*
X6675298Y-25294595D01*
X6656250Y-25304119D01*
X6846726Y-25246976D02*
X6846726Y-25285071D01*
X6922917Y-25246976D02*
X6922917Y-25285071D01*
X7218155Y-25523167D02*
X7208631Y-25513643D01*
X7189583Y-25485071D01*
X7180059Y-25466024D01*
X7170536Y-25437452D01*
X7161012Y-25389833D01*
X7161012Y-25351738D01*
X7170536Y-25304119D01*
X7180059Y-25275548D01*
X7189583Y-25256500D01*
X7208631Y-25227928D01*
X7218155Y-25218405D01*
X7332440Y-25246976D02*
X7351488Y-25246976D01*
X7370536Y-25256500D01*
X7380059Y-25266024D01*
X7389583Y-25285071D01*
X7399107Y-25323167D01*
X7399107Y-25370786D01*
X7389583Y-25408881D01*
X7380059Y-25427928D01*
X7370536Y-25437452D01*
X7351488Y-25446976D01*
X7332440Y-25446976D01*
X7313393Y-25437452D01*
X7303869Y-25427928D01*
X7294345Y-25408881D01*
X7284821Y-25370786D01*
X7284821Y-25323167D01*
X7294345Y-25285071D01*
X7303869Y-25266024D01*
X7313393Y-25256500D01*
X7332440Y-25246976D01*
X7637202Y-25446976D02*
X7637202Y-25246976D01*
X7722917Y-25446976D02*
X7722917Y-25342214D01*
X7713393Y-25323167D01*
X7694345Y-25313643D01*
X7665774Y-25313643D01*
X7646726Y-25323167D01*
X7637202Y-25332690D01*
X7846726Y-25446976D02*
X7827678Y-25437452D01*
X7818155Y-25427928D01*
X7808631Y-25408881D01*
X7808631Y-25351738D01*
X7818155Y-25332690D01*
X7827678Y-25323167D01*
X7846726Y-25313643D01*
X7875298Y-25313643D01*
X7894345Y-25323167D01*
X7903869Y-25332690D01*
X7913393Y-25351738D01*
X7913393Y-25408881D01*
X7903869Y-25427928D01*
X7894345Y-25437452D01*
X7875298Y-25446976D01*
X7846726Y-25446976D01*
X8027678Y-25446976D02*
X8008631Y-25437452D01*
X7999107Y-25418405D01*
X7999107Y-25246976D01*
X8180059Y-25437452D02*
X8161012Y-25446976D01*
X8122917Y-25446976D01*
X8103869Y-25437452D01*
X8094345Y-25418405D01*
X8094345Y-25342214D01*
X8103869Y-25323167D01*
X8122917Y-25313643D01*
X8161012Y-25313643D01*
X8180059Y-25323167D01*
X8189583Y-25342214D01*
X8189583Y-25361262D01*
X8094345Y-25380309D01*
X8265774Y-25437452D02*
X8284821Y-25446976D01*
X8322917Y-25446976D01*
X8341964Y-25437452D01*
X8351488Y-25418405D01*
X8351488Y-25408881D01*
X8341964Y-25389833D01*
X8322917Y-25380309D01*
X8294345Y-25380309D01*
X8275298Y-25370786D01*
X8265774Y-25351738D01*
X8265774Y-25342214D01*
X8275298Y-25323167D01*
X8294345Y-25313643D01*
X8322917Y-25313643D01*
X8341964Y-25323167D01*
X8589583Y-25370786D02*
X8741964Y-25370786D01*
X8665774Y-25446976D02*
X8665774Y-25294595D01*
X9075298Y-25313643D02*
X9075298Y-25446976D01*
X9027679Y-25237452D02*
X8980060Y-25380309D01*
X9103869Y-25380309D01*
X9322917Y-25437452D02*
X9341964Y-25446976D01*
X9380060Y-25446976D01*
X9399107Y-25437452D01*
X9408631Y-25418405D01*
X9408631Y-25408881D01*
X9399107Y-25389833D01*
X9380060Y-25380309D01*
X9351488Y-25380309D01*
X9332440Y-25370786D01*
X9322917Y-25351738D01*
X9322917Y-25342214D01*
X9332440Y-25323167D01*
X9351488Y-25313643D01*
X9380060Y-25313643D01*
X9399107Y-25323167D01*
X9522917Y-25446976D02*
X9503869Y-25437452D01*
X9494345Y-25418405D01*
X9494345Y-25246976D01*
X9627679Y-25446976D02*
X9608631Y-25437452D01*
X9599107Y-25427928D01*
X9589583Y-25408881D01*
X9589583Y-25351738D01*
X9599107Y-25332690D01*
X9608631Y-25323167D01*
X9627679Y-25313643D01*
X9656250Y-25313643D01*
X9675298Y-25323167D01*
X9684821Y-25332690D01*
X9694345Y-25351738D01*
X9694345Y-25408881D01*
X9684821Y-25427928D01*
X9675298Y-25437452D01*
X9656250Y-25446976D01*
X9627679Y-25446976D01*
X9751488Y-25313643D02*
X9827679Y-25313643D01*
X9780060Y-25246976D02*
X9780060Y-25418405D01*
X9789583Y-25437452D01*
X9808631Y-25446976D01*
X9827679Y-25446976D01*
X9884821Y-25437452D02*
X9903869Y-25446976D01*
X9941964Y-25446976D01*
X9961012Y-25437452D01*
X9970536Y-25418405D01*
X9970536Y-25408881D01*
X9961012Y-25389833D01*
X9941964Y-25380309D01*
X9913393Y-25380309D01*
X9894345Y-25370786D01*
X9884821Y-25351738D01*
X9884821Y-25342214D01*
X9894345Y-25323167D01*
X9913393Y-25313643D01*
X9941964Y-25313643D01*
X9961012Y-25323167D01*
X10037202Y-25523167D02*
X10046726Y-25513643D01*
X10065774Y-25485071D01*
X10075298Y-25466024D01*
X10084821Y-25437452D01*
X10094345Y-25389833D01*
X10094345Y-25351738D01*
X10084821Y-25304119D01*
X10075298Y-25275548D01*
X10065774Y-25256500D01*
X10046726Y-25227928D01*
X10037202Y-25218405D01*
X10399107Y-25523167D02*
X10389583Y-25513643D01*
X10370536Y-25485071D01*
X10361012Y-25466024D01*
X10351488Y-25437452D01*
X10341964Y-25389833D01*
X10341964Y-25351738D01*
X10351488Y-25304119D01*
X10361012Y-25275548D01*
X10370536Y-25256500D01*
X10389583Y-25227928D01*
X10399107Y-25218405D01*
X10475298Y-25313643D02*
X10475298Y-25446976D01*
X10475298Y-25332690D02*
X10484821Y-25323167D01*
X10503869Y-25313643D01*
X10532440Y-25313643D01*
X10551488Y-25323167D01*
X10561012Y-25342214D01*
X10561012Y-25446976D01*
X10684821Y-25446976D02*
X10665774Y-25437452D01*
X10656250Y-25427928D01*
X10646726Y-25408881D01*
X10646726Y-25351738D01*
X10656250Y-25332690D01*
X10665774Y-25323167D01*
X10684821Y-25313643D01*
X10713393Y-25313643D01*
X10732440Y-25323167D01*
X10741964Y-25332690D01*
X10751488Y-25351738D01*
X10751488Y-25408881D01*
X10741964Y-25427928D01*
X10732440Y-25437452D01*
X10713393Y-25446976D01*
X10684821Y-25446976D01*
X10808631Y-25313643D02*
X10884821Y-25313643D01*
X10837202Y-25246976D02*
X10837202Y-25418405D01*
X10846726Y-25437452D01*
X10865774Y-25446976D01*
X10884821Y-25446976D01*
X11103869Y-25313643D02*
X11103869Y-25513643D01*
X11103869Y-25323167D02*
X11122917Y-25313643D01*
X11161012Y-25313643D01*
X11180060Y-25323167D01*
X11189583Y-25332690D01*
X11199107Y-25351738D01*
X11199107Y-25408881D01*
X11189583Y-25427928D01*
X11180060Y-25437452D01*
X11161012Y-25446976D01*
X11122917Y-25446976D01*
X11103869Y-25437452D01*
X11313393Y-25446976D02*
X11294345Y-25437452D01*
X11284821Y-25418405D01*
X11284821Y-25246976D01*
X11475298Y-25446976D02*
X11475298Y-25342214D01*
X11465774Y-25323167D01*
X11446726Y-25313643D01*
X11408631Y-25313643D01*
X11389583Y-25323167D01*
X11475298Y-25437452D02*
X11456250Y-25446976D01*
X11408631Y-25446976D01*
X11389583Y-25437452D01*
X11380059Y-25418405D01*
X11380059Y-25399357D01*
X11389583Y-25380309D01*
X11408631Y-25370786D01*
X11456250Y-25370786D01*
X11475298Y-25361262D01*
X11541964Y-25313643D02*
X11618155Y-25313643D01*
X11570536Y-25246976D02*
X11570536Y-25418405D01*
X11580059Y-25437452D01*
X11599107Y-25446976D01*
X11618155Y-25446976D01*
X11761012Y-25437452D02*
X11741964Y-25446976D01*
X11703869Y-25446976D01*
X11684821Y-25437452D01*
X11675298Y-25418405D01*
X11675298Y-25342214D01*
X11684821Y-25323167D01*
X11703869Y-25313643D01*
X11741964Y-25313643D01*
X11761012Y-25323167D01*
X11770536Y-25342214D01*
X11770536Y-25361262D01*
X11675298Y-25380309D01*
X11941964Y-25446976D02*
X11941964Y-25246976D01*
X11941964Y-25437452D02*
X11922917Y-25446976D01*
X11884821Y-25446976D01*
X11865774Y-25437452D01*
X11856250Y-25427928D01*
X11846726Y-25408881D01*
X11846726Y-25351738D01*
X11856250Y-25332690D01*
X11865774Y-25323167D01*
X11884821Y-25313643D01*
X11922917Y-25313643D01*
X11941964Y-25323167D01*
X12018155Y-25523167D02*
X12027678Y-25513643D01*
X12046726Y-25485071D01*
X12056250Y-25466024D01*
X12065774Y-25437452D01*
X12075298Y-25389833D01*
X12075298Y-25351738D01*
X12065774Y-25304119D01*
X12056250Y-25275548D01*
X12046726Y-25256500D01*
X12027678Y-25227928D01*
X12018155Y-25218405D01*
D14*
X3558750Y-25539000D02*
X3558750Y-25714000D01*
X3471250Y-25626500D02*
X3646250Y-25626500D01*
D11*
X4008631Y-25716976D02*
X3894345Y-25716976D01*
X3951488Y-25716976D02*
X3951488Y-25516976D01*
X3932440Y-25545548D01*
X3913393Y-25564595D01*
X3894345Y-25574119D01*
X4094345Y-25697928D02*
X4103869Y-25707452D01*
X4094345Y-25716976D01*
X4084821Y-25707452D01*
X4094345Y-25697928D01*
X4094345Y-25716976D01*
X4170536Y-25516976D02*
X4303869Y-25516976D01*
X4218155Y-25716976D01*
X4475298Y-25516976D02*
X4380060Y-25516976D01*
X4370536Y-25612214D01*
X4380060Y-25602690D01*
X4399107Y-25593167D01*
X4446726Y-25593167D01*
X4465774Y-25602690D01*
X4475298Y-25612214D01*
X4484821Y-25631262D01*
X4484821Y-25678881D01*
X4475298Y-25697928D01*
X4465774Y-25707452D01*
X4446726Y-25716976D01*
X4399107Y-25716976D01*
X4380060Y-25707452D01*
X4370536Y-25697928D01*
X4608631Y-25516976D02*
X4627679Y-25516976D01*
X4646726Y-25526500D01*
X4656250Y-25536024D01*
X4665774Y-25555071D01*
X4675298Y-25593167D01*
X4675298Y-25640786D01*
X4665774Y-25678881D01*
X4656250Y-25697928D01*
X4646726Y-25707452D01*
X4627679Y-25716976D01*
X4608631Y-25716976D01*
X4589583Y-25707452D01*
X4580060Y-25697928D01*
X4570536Y-25678881D01*
X4561012Y-25640786D01*
X4561012Y-25593167D01*
X4570536Y-25555071D01*
X4580060Y-25536024D01*
X4589583Y-25526500D01*
X4608631Y-25516976D01*
X4761012Y-25716976D02*
X4761012Y-25583643D01*
X4761012Y-25602690D02*
X4770536Y-25593167D01*
X4789583Y-25583643D01*
X4818155Y-25583643D01*
X4837202Y-25593167D01*
X4846726Y-25612214D01*
X4846726Y-25716976D01*
X4846726Y-25612214D02*
X4856250Y-25593167D01*
X4875298Y-25583643D01*
X4903869Y-25583643D01*
X4922917Y-25593167D01*
X4932440Y-25612214D01*
X4932440Y-25716976D01*
X5027679Y-25716976D02*
X5027679Y-25583643D01*
X5027679Y-25602690D02*
X5037202Y-25593167D01*
X5056250Y-25583643D01*
X5084821Y-25583643D01*
X5103869Y-25593167D01*
X5113393Y-25612214D01*
X5113393Y-25716976D01*
X5113393Y-25612214D02*
X5122917Y-25593167D01*
X5141964Y-25583643D01*
X5170536Y-25583643D01*
X5189583Y-25593167D01*
X5199107Y-25612214D01*
X5199107Y-25716976D01*
X5589583Y-25507452D02*
X5418155Y-25764595D01*
X5846726Y-25516976D02*
X5865774Y-25516976D01*
X5884821Y-25526500D01*
X5894345Y-25536024D01*
X5903869Y-25555071D01*
X5913393Y-25593167D01*
X5913393Y-25640786D01*
X5903869Y-25678881D01*
X5894345Y-25697928D01*
X5884821Y-25707452D01*
X5865774Y-25716976D01*
X5846726Y-25716976D01*
X5827678Y-25707452D01*
X5818155Y-25697928D01*
X5808631Y-25678881D01*
X5799107Y-25640786D01*
X5799107Y-25593167D01*
X5808631Y-25555071D01*
X5818155Y-25536024D01*
X5827678Y-25526500D01*
X5846726Y-25516976D01*
X5999107Y-25697928D02*
X6008631Y-25707452D01*
X5999107Y-25716976D01*
X5989583Y-25707452D01*
X5999107Y-25697928D01*
X5999107Y-25716976D01*
X6132440Y-25516976D02*
X6151488Y-25516976D01*
X6170536Y-25526500D01*
X6180059Y-25536024D01*
X6189583Y-25555071D01*
X6199107Y-25593167D01*
X6199107Y-25640786D01*
X6189583Y-25678881D01*
X6180059Y-25697928D01*
X6170536Y-25707452D01*
X6151488Y-25716976D01*
X6132440Y-25716976D01*
X6113393Y-25707452D01*
X6103869Y-25697928D01*
X6094345Y-25678881D01*
X6084821Y-25640786D01*
X6084821Y-25593167D01*
X6094345Y-25555071D01*
X6103869Y-25536024D01*
X6113393Y-25526500D01*
X6132440Y-25516976D01*
X6370536Y-25516976D02*
X6332440Y-25516976D01*
X6313393Y-25526500D01*
X6303869Y-25536024D01*
X6284821Y-25564595D01*
X6275298Y-25602690D01*
X6275298Y-25678881D01*
X6284821Y-25697928D01*
X6294345Y-25707452D01*
X6313393Y-25716976D01*
X6351488Y-25716976D01*
X6370536Y-25707452D01*
X6380059Y-25697928D01*
X6389583Y-25678881D01*
X6389583Y-25631262D01*
X6380059Y-25612214D01*
X6370536Y-25602690D01*
X6351488Y-25593167D01*
X6313393Y-25593167D01*
X6294345Y-25602690D01*
X6284821Y-25612214D01*
X6275298Y-25631262D01*
X6503869Y-25602690D02*
X6484821Y-25593167D01*
X6475298Y-25583643D01*
X6465774Y-25564595D01*
X6465774Y-25555071D01*
X6475298Y-25536024D01*
X6484821Y-25526500D01*
X6503869Y-25516976D01*
X6541964Y-25516976D01*
X6561012Y-25526500D01*
X6570536Y-25536024D01*
X6580059Y-25555071D01*
X6580059Y-25564595D01*
X6570536Y-25583643D01*
X6561012Y-25593167D01*
X6541964Y-25602690D01*
X6503869Y-25602690D01*
X6484821Y-25612214D01*
X6475298Y-25621738D01*
X6465774Y-25640786D01*
X6465774Y-25678881D01*
X6475298Y-25697928D01*
X6484821Y-25707452D01*
X6503869Y-25716976D01*
X6541964Y-25716976D01*
X6561012Y-25707452D01*
X6570536Y-25697928D01*
X6580059Y-25678881D01*
X6580059Y-25640786D01*
X6570536Y-25621738D01*
X6561012Y-25612214D01*
X6541964Y-25602690D01*
X6675298Y-25716976D02*
X6713393Y-25716976D01*
X6732440Y-25707452D01*
X6741964Y-25697928D01*
X6761012Y-25669357D01*
X6770536Y-25631262D01*
X6770536Y-25555071D01*
X6761012Y-25536024D01*
X6751488Y-25526500D01*
X6732440Y-25516976D01*
X6694345Y-25516976D01*
X6675298Y-25526500D01*
X6665774Y-25536024D01*
X6656250Y-25555071D01*
X6656250Y-25602690D01*
X6665774Y-25621738D01*
X6675298Y-25631262D01*
X6694345Y-25640786D01*
X6732440Y-25640786D01*
X6751488Y-25631262D01*
X6761012Y-25621738D01*
X6770536Y-25602690D01*
X6846726Y-25516976D02*
X6846726Y-25555071D01*
X6922917Y-25516976D02*
X6922917Y-25555071D01*
X7218155Y-25793167D02*
X7208631Y-25783643D01*
X7189583Y-25755071D01*
X7180059Y-25736024D01*
X7170536Y-25707452D01*
X7161012Y-25659833D01*
X7161012Y-25621738D01*
X7170536Y-25574119D01*
X7180059Y-25545548D01*
X7189583Y-25526500D01*
X7208631Y-25497928D01*
X7218155Y-25488405D01*
X7399107Y-25716976D02*
X7284821Y-25716976D01*
X7341964Y-25716976D02*
X7341964Y-25516976D01*
X7322917Y-25545548D01*
X7303869Y-25564595D01*
X7284821Y-25574119D01*
X7494345Y-25716976D02*
X7532440Y-25716976D01*
X7551488Y-25707452D01*
X7561012Y-25697928D01*
X7580059Y-25669357D01*
X7589583Y-25631262D01*
X7589583Y-25555071D01*
X7580059Y-25536024D01*
X7570536Y-25526500D01*
X7551488Y-25516976D01*
X7513393Y-25516976D01*
X7494345Y-25526500D01*
X7484821Y-25536024D01*
X7475298Y-25555071D01*
X7475298Y-25602690D01*
X7484821Y-25621738D01*
X7494345Y-25631262D01*
X7513393Y-25640786D01*
X7551488Y-25640786D01*
X7570536Y-25631262D01*
X7580059Y-25621738D01*
X7589583Y-25602690D01*
X7761012Y-25583643D02*
X7761012Y-25716976D01*
X7713393Y-25507452D02*
X7665774Y-25650309D01*
X7789583Y-25650309D01*
X8018155Y-25716976D02*
X8018155Y-25516976D01*
X8103869Y-25716976D02*
X8103869Y-25612214D01*
X8094345Y-25593167D01*
X8075298Y-25583643D01*
X8046726Y-25583643D01*
X8027678Y-25593167D01*
X8018155Y-25602690D01*
X8227678Y-25716976D02*
X8208631Y-25707452D01*
X8199107Y-25697928D01*
X8189583Y-25678881D01*
X8189583Y-25621738D01*
X8199107Y-25602690D01*
X8208631Y-25593167D01*
X8227678Y-25583643D01*
X8256250Y-25583643D01*
X8275298Y-25593167D01*
X8284821Y-25602690D01*
X8294345Y-25621738D01*
X8294345Y-25678881D01*
X8284821Y-25697928D01*
X8275298Y-25707452D01*
X8256250Y-25716976D01*
X8227678Y-25716976D01*
X8408631Y-25716976D02*
X8389583Y-25707452D01*
X8380059Y-25688405D01*
X8380059Y-25516976D01*
X8561012Y-25707452D02*
X8541964Y-25716976D01*
X8503869Y-25716976D01*
X8484821Y-25707452D01*
X8475298Y-25688405D01*
X8475298Y-25612214D01*
X8484821Y-25593167D01*
X8503869Y-25583643D01*
X8541964Y-25583643D01*
X8561012Y-25593167D01*
X8570536Y-25612214D01*
X8570536Y-25631262D01*
X8475298Y-25650309D01*
X8646726Y-25707452D02*
X8665774Y-25716976D01*
X8703869Y-25716976D01*
X8722917Y-25707452D01*
X8732440Y-25688405D01*
X8732440Y-25678881D01*
X8722917Y-25659833D01*
X8703869Y-25650309D01*
X8675298Y-25650309D01*
X8656250Y-25640786D01*
X8646726Y-25621738D01*
X8646726Y-25612214D01*
X8656250Y-25593167D01*
X8675298Y-25583643D01*
X8703869Y-25583643D01*
X8722917Y-25593167D01*
X8799107Y-25793167D02*
X8808631Y-25783643D01*
X8827679Y-25755071D01*
X8837202Y-25736024D01*
X8846726Y-25707452D01*
X8856250Y-25659833D01*
X8856250Y-25621738D01*
X8846726Y-25574119D01*
X8837202Y-25545548D01*
X8827679Y-25526500D01*
X8808631Y-25497928D01*
X8799107Y-25488405D01*
X9161012Y-25793167D02*
X9151488Y-25783643D01*
X9132440Y-25755071D01*
X9122917Y-25736024D01*
X9113393Y-25707452D01*
X9103869Y-25659833D01*
X9103869Y-25621738D01*
X9113393Y-25574119D01*
X9122917Y-25545548D01*
X9132440Y-25526500D01*
X9151488Y-25497928D01*
X9161012Y-25488405D01*
X9237202Y-25583643D02*
X9237202Y-25716976D01*
X9237202Y-25602690D02*
X9246726Y-25593167D01*
X9265774Y-25583643D01*
X9294345Y-25583643D01*
X9313393Y-25593167D01*
X9322917Y-25612214D01*
X9322917Y-25716976D01*
X9446726Y-25716976D02*
X9427679Y-25707452D01*
X9418155Y-25697928D01*
X9408631Y-25678881D01*
X9408631Y-25621738D01*
X9418155Y-25602690D01*
X9427679Y-25593167D01*
X9446726Y-25583643D01*
X9475298Y-25583643D01*
X9494345Y-25593167D01*
X9503869Y-25602690D01*
X9513393Y-25621738D01*
X9513393Y-25678881D01*
X9503869Y-25697928D01*
X9494345Y-25707452D01*
X9475298Y-25716976D01*
X9446726Y-25716976D01*
X9570536Y-25583643D02*
X9646726Y-25583643D01*
X9599107Y-25516976D02*
X9599107Y-25688405D01*
X9608631Y-25707452D01*
X9627679Y-25716976D01*
X9646726Y-25716976D01*
X9865774Y-25583643D02*
X9865774Y-25783643D01*
X9865774Y-25593167D02*
X9884821Y-25583643D01*
X9922917Y-25583643D01*
X9941964Y-25593167D01*
X9951488Y-25602690D01*
X9961012Y-25621738D01*
X9961012Y-25678881D01*
X9951488Y-25697928D01*
X9941964Y-25707452D01*
X9922917Y-25716976D01*
X9884821Y-25716976D01*
X9865774Y-25707452D01*
X10075298Y-25716976D02*
X10056250Y-25707452D01*
X10046726Y-25688405D01*
X10046726Y-25516976D01*
X10237202Y-25716976D02*
X10237202Y-25612214D01*
X10227679Y-25593167D01*
X10208631Y-25583643D01*
X10170536Y-25583643D01*
X10151488Y-25593167D01*
X10237202Y-25707452D02*
X10218155Y-25716976D01*
X10170536Y-25716976D01*
X10151488Y-25707452D01*
X10141964Y-25688405D01*
X10141964Y-25669357D01*
X10151488Y-25650309D01*
X10170536Y-25640786D01*
X10218155Y-25640786D01*
X10237202Y-25631262D01*
X10303869Y-25583643D02*
X10380060Y-25583643D01*
X10332440Y-25516976D02*
X10332440Y-25688405D01*
X10341964Y-25707452D01*
X10361012Y-25716976D01*
X10380060Y-25716976D01*
X10522917Y-25707452D02*
X10503869Y-25716976D01*
X10465774Y-25716976D01*
X10446726Y-25707452D01*
X10437202Y-25688405D01*
X10437202Y-25612214D01*
X10446726Y-25593167D01*
X10465774Y-25583643D01*
X10503869Y-25583643D01*
X10522917Y-25593167D01*
X10532440Y-25612214D01*
X10532440Y-25631262D01*
X10437202Y-25650309D01*
X10703869Y-25716976D02*
X10703869Y-25516976D01*
X10703869Y-25707452D02*
X10684821Y-25716976D01*
X10646726Y-25716976D01*
X10627679Y-25707452D01*
X10618155Y-25697928D01*
X10608631Y-25678881D01*
X10608631Y-25621738D01*
X10618155Y-25602690D01*
X10627679Y-25593167D01*
X10646726Y-25583643D01*
X10684821Y-25583643D01*
X10703869Y-25593167D01*
X10780060Y-25793167D02*
X10789583Y-25783643D01*
X10808631Y-25755071D01*
X10818155Y-25736024D01*
X10827679Y-25707452D01*
X10837202Y-25659833D01*
X10837202Y-25621738D01*
X10827679Y-25574119D01*
X10818155Y-25545548D01*
X10808631Y-25526500D01*
X10789583Y-25497928D01*
X10780060Y-25488405D01*
X3616961Y-25992211D02*
X3616961Y-25850789D01*
X3475539Y-25850789D01*
X3475539Y-25992211D01*
X3616961Y-25992211D01*
X3884821Y-25811976D02*
X4008631Y-25811976D01*
X3941964Y-25888167D01*
X3970536Y-25888167D01*
X3989583Y-25897690D01*
X3999107Y-25907214D01*
X4008631Y-25926262D01*
X4008631Y-25973881D01*
X3999107Y-25992928D01*
X3989583Y-26002452D01*
X3970536Y-26011976D01*
X3913393Y-26011976D01*
X3894345Y-26002452D01*
X3884821Y-25992928D01*
X4094345Y-25992928D02*
X4103869Y-26002452D01*
X4094345Y-26011976D01*
X4084821Y-26002452D01*
X4094345Y-25992928D01*
X4094345Y-26011976D01*
X4227679Y-25811976D02*
X4246726Y-25811976D01*
X4265774Y-25821500D01*
X4275298Y-25831024D01*
X4284821Y-25850071D01*
X4294345Y-25888167D01*
X4294345Y-25935786D01*
X4284821Y-25973881D01*
X4275298Y-25992928D01*
X4265774Y-26002452D01*
X4246726Y-26011976D01*
X4227679Y-26011976D01*
X4208631Y-26002452D01*
X4199107Y-25992928D01*
X4189583Y-25973881D01*
X4180059Y-25935786D01*
X4180059Y-25888167D01*
X4189583Y-25850071D01*
X4199107Y-25831024D01*
X4208631Y-25821500D01*
X4227679Y-25811976D01*
X4465774Y-25878643D02*
X4465774Y-26011976D01*
X4418155Y-25802452D02*
X4370536Y-25945309D01*
X4494345Y-25945309D01*
X4599107Y-25897690D02*
X4580060Y-25888167D01*
X4570536Y-25878643D01*
X4561012Y-25859595D01*
X4561012Y-25850071D01*
X4570536Y-25831024D01*
X4580060Y-25821500D01*
X4599107Y-25811976D01*
X4637202Y-25811976D01*
X4656250Y-25821500D01*
X4665774Y-25831024D01*
X4675298Y-25850071D01*
X4675298Y-25859595D01*
X4665774Y-25878643D01*
X4656250Y-25888167D01*
X4637202Y-25897690D01*
X4599107Y-25897690D01*
X4580060Y-25907214D01*
X4570536Y-25916738D01*
X4561012Y-25935786D01*
X4561012Y-25973881D01*
X4570536Y-25992928D01*
X4580060Y-26002452D01*
X4599107Y-26011976D01*
X4637202Y-26011976D01*
X4656250Y-26002452D01*
X4665774Y-25992928D01*
X4675298Y-25973881D01*
X4675298Y-25935786D01*
X4665774Y-25916738D01*
X4656250Y-25907214D01*
X4637202Y-25897690D01*
X4761012Y-26011976D02*
X4761012Y-25878643D01*
X4761012Y-25897690D02*
X4770536Y-25888167D01*
X4789583Y-25878643D01*
X4818155Y-25878643D01*
X4837202Y-25888167D01*
X4846726Y-25907214D01*
X4846726Y-26011976D01*
X4846726Y-25907214D02*
X4856250Y-25888167D01*
X4875298Y-25878643D01*
X4903869Y-25878643D01*
X4922917Y-25888167D01*
X4932440Y-25907214D01*
X4932440Y-26011976D01*
X5027679Y-26011976D02*
X5027679Y-25878643D01*
X5027679Y-25897690D02*
X5037202Y-25888167D01*
X5056250Y-25878643D01*
X5084821Y-25878643D01*
X5103869Y-25888167D01*
X5113393Y-25907214D01*
X5113393Y-26011976D01*
X5113393Y-25907214D02*
X5122917Y-25888167D01*
X5141964Y-25878643D01*
X5170536Y-25878643D01*
X5189583Y-25888167D01*
X5199107Y-25907214D01*
X5199107Y-26011976D01*
X5589583Y-25802452D02*
X5418155Y-26059595D01*
X5846726Y-25811976D02*
X5865774Y-25811976D01*
X5884821Y-25821500D01*
X5894345Y-25831024D01*
X5903869Y-25850071D01*
X5913393Y-25888167D01*
X5913393Y-25935786D01*
X5903869Y-25973881D01*
X5894345Y-25992928D01*
X5884821Y-26002452D01*
X5865774Y-26011976D01*
X5846726Y-26011976D01*
X5827678Y-26002452D01*
X5818155Y-25992928D01*
X5808631Y-25973881D01*
X5799107Y-25935786D01*
X5799107Y-25888167D01*
X5808631Y-25850071D01*
X5818155Y-25831024D01*
X5827678Y-25821500D01*
X5846726Y-25811976D01*
X5999107Y-25992928D02*
X6008631Y-26002452D01*
X5999107Y-26011976D01*
X5989583Y-26002452D01*
X5999107Y-25992928D01*
X5999107Y-26011976D01*
X6199107Y-26011976D02*
X6084821Y-26011976D01*
X6141964Y-26011976D02*
X6141964Y-25811976D01*
X6122917Y-25840548D01*
X6103869Y-25859595D01*
X6084821Y-25869119D01*
X6275298Y-25831024D02*
X6284821Y-25821500D01*
X6303869Y-25811976D01*
X6351488Y-25811976D01*
X6370536Y-25821500D01*
X6380059Y-25831024D01*
X6389583Y-25850071D01*
X6389583Y-25869119D01*
X6380059Y-25897690D01*
X6265774Y-26011976D01*
X6389583Y-26011976D01*
X6513393Y-25811976D02*
X6532440Y-25811976D01*
X6551488Y-25821500D01*
X6561012Y-25831024D01*
X6570536Y-25850071D01*
X6580059Y-25888167D01*
X6580059Y-25935786D01*
X6570536Y-25973881D01*
X6561012Y-25992928D01*
X6551488Y-26002452D01*
X6532440Y-26011976D01*
X6513393Y-26011976D01*
X6494345Y-26002452D01*
X6484821Y-25992928D01*
X6475298Y-25973881D01*
X6465774Y-25935786D01*
X6465774Y-25888167D01*
X6475298Y-25850071D01*
X6484821Y-25831024D01*
X6494345Y-25821500D01*
X6513393Y-25811976D01*
X6703869Y-25811976D02*
X6722917Y-25811976D01*
X6741964Y-25821500D01*
X6751488Y-25831024D01*
X6761012Y-25850071D01*
X6770536Y-25888167D01*
X6770536Y-25935786D01*
X6761012Y-25973881D01*
X6751488Y-25992928D01*
X6741964Y-26002452D01*
X6722917Y-26011976D01*
X6703869Y-26011976D01*
X6684821Y-26002452D01*
X6675298Y-25992928D01*
X6665774Y-25973881D01*
X6656250Y-25935786D01*
X6656250Y-25888167D01*
X6665774Y-25850071D01*
X6675298Y-25831024D01*
X6684821Y-25821500D01*
X6703869Y-25811976D01*
X6846726Y-25811976D02*
X6846726Y-25850071D01*
X6922917Y-25811976D02*
X6922917Y-25850071D01*
X7218155Y-26088167D02*
X7208631Y-26078643D01*
X7189583Y-26050071D01*
X7180059Y-26031024D01*
X7170536Y-26002452D01*
X7161012Y-25954833D01*
X7161012Y-25916738D01*
X7170536Y-25869119D01*
X7180059Y-25840548D01*
X7189583Y-25821500D01*
X7208631Y-25792928D01*
X7218155Y-25783405D01*
X7399107Y-26011976D02*
X7284821Y-26011976D01*
X7341964Y-26011976D02*
X7341964Y-25811976D01*
X7322917Y-25840548D01*
X7303869Y-25859595D01*
X7284821Y-25869119D01*
X7522917Y-25811976D02*
X7541964Y-25811976D01*
X7561012Y-25821500D01*
X7570536Y-25831024D01*
X7580059Y-25850071D01*
X7589583Y-25888167D01*
X7589583Y-25935786D01*
X7580059Y-25973881D01*
X7570536Y-25992928D01*
X7561012Y-26002452D01*
X7541964Y-26011976D01*
X7522917Y-26011976D01*
X7503869Y-26002452D01*
X7494345Y-25992928D01*
X7484821Y-25973881D01*
X7475298Y-25935786D01*
X7475298Y-25888167D01*
X7484821Y-25850071D01*
X7494345Y-25831024D01*
X7503869Y-25821500D01*
X7522917Y-25811976D01*
X7827678Y-26011976D02*
X7827678Y-25811976D01*
X7913393Y-26011976D02*
X7913393Y-25907214D01*
X7903869Y-25888167D01*
X7884821Y-25878643D01*
X7856250Y-25878643D01*
X7837202Y-25888167D01*
X7827678Y-25897690D01*
X8037202Y-26011976D02*
X8018155Y-26002452D01*
X8008631Y-25992928D01*
X7999107Y-25973881D01*
X7999107Y-25916738D01*
X8008631Y-25897690D01*
X8018155Y-25888167D01*
X8037202Y-25878643D01*
X8065774Y-25878643D01*
X8084821Y-25888167D01*
X8094345Y-25897690D01*
X8103869Y-25916738D01*
X8103869Y-25973881D01*
X8094345Y-25992928D01*
X8084821Y-26002452D01*
X8065774Y-26011976D01*
X8037202Y-26011976D01*
X8218155Y-26011976D02*
X8199107Y-26002452D01*
X8189583Y-25983405D01*
X8189583Y-25811976D01*
X8370536Y-26002452D02*
X8351488Y-26011976D01*
X8313393Y-26011976D01*
X8294345Y-26002452D01*
X8284821Y-25983405D01*
X8284821Y-25907214D01*
X8294345Y-25888167D01*
X8313393Y-25878643D01*
X8351488Y-25878643D01*
X8370536Y-25888167D01*
X8380059Y-25907214D01*
X8380059Y-25926262D01*
X8284821Y-25945309D01*
X8456250Y-26002452D02*
X8475298Y-26011976D01*
X8513393Y-26011976D01*
X8532440Y-26002452D01*
X8541964Y-25983405D01*
X8541964Y-25973881D01*
X8532440Y-25954833D01*
X8513393Y-25945309D01*
X8484821Y-25945309D01*
X8465774Y-25935786D01*
X8456250Y-25916738D01*
X8456250Y-25907214D01*
X8465774Y-25888167D01*
X8484821Y-25878643D01*
X8513393Y-25878643D01*
X8532440Y-25888167D01*
X8608631Y-26088167D02*
X8618155Y-26078643D01*
X8637202Y-26050071D01*
X8646726Y-26031024D01*
X8656250Y-26002452D01*
X8665774Y-25954833D01*
X8665774Y-25916738D01*
X8656250Y-25869119D01*
X8646726Y-25840548D01*
X8637202Y-25821500D01*
X8618155Y-25792928D01*
X8608631Y-25783405D01*
X8970536Y-26088167D02*
X8961012Y-26078643D01*
X8941964Y-26050071D01*
X8932440Y-26031024D01*
X8922917Y-26002452D01*
X8913393Y-25954833D01*
X8913393Y-25916738D01*
X8922917Y-25869119D01*
X8932440Y-25840548D01*
X8941964Y-25821500D01*
X8961012Y-25792928D01*
X8970536Y-25783405D01*
X9046726Y-25878643D02*
X9046726Y-26011976D01*
X9046726Y-25897690D02*
X9056250Y-25888167D01*
X9075298Y-25878643D01*
X9103869Y-25878643D01*
X9122917Y-25888167D01*
X9132440Y-25907214D01*
X9132440Y-26011976D01*
X9256250Y-26011976D02*
X9237202Y-26002452D01*
X9227679Y-25992928D01*
X9218155Y-25973881D01*
X9218155Y-25916738D01*
X9227679Y-25897690D01*
X9237202Y-25888167D01*
X9256250Y-25878643D01*
X9284821Y-25878643D01*
X9303869Y-25888167D01*
X9313393Y-25897690D01*
X9322917Y-25916738D01*
X9322917Y-25973881D01*
X9313393Y-25992928D01*
X9303869Y-26002452D01*
X9284821Y-26011976D01*
X9256250Y-26011976D01*
X9380060Y-25878643D02*
X9456250Y-25878643D01*
X9408631Y-25811976D02*
X9408631Y-25983405D01*
X9418155Y-26002452D01*
X9437202Y-26011976D01*
X9456250Y-26011976D01*
X9675298Y-25878643D02*
X9675298Y-26078643D01*
X9675298Y-25888167D02*
X9694345Y-25878643D01*
X9732440Y-25878643D01*
X9751488Y-25888167D01*
X9761012Y-25897690D01*
X9770536Y-25916738D01*
X9770536Y-25973881D01*
X9761012Y-25992928D01*
X9751488Y-26002452D01*
X9732440Y-26011976D01*
X9694345Y-26011976D01*
X9675298Y-26002452D01*
X9884821Y-26011976D02*
X9865774Y-26002452D01*
X9856250Y-25983405D01*
X9856250Y-25811976D01*
X10046726Y-26011976D02*
X10046726Y-25907214D01*
X10037202Y-25888167D01*
X10018155Y-25878643D01*
X9980060Y-25878643D01*
X9961012Y-25888167D01*
X10046726Y-26002452D02*
X10027679Y-26011976D01*
X9980060Y-26011976D01*
X9961012Y-26002452D01*
X9951488Y-25983405D01*
X9951488Y-25964357D01*
X9961012Y-25945309D01*
X9980060Y-25935786D01*
X10027679Y-25935786D01*
X10046726Y-25926262D01*
X10113393Y-25878643D02*
X10189583Y-25878643D01*
X10141964Y-25811976D02*
X10141964Y-25983405D01*
X10151488Y-26002452D01*
X10170536Y-26011976D01*
X10189583Y-26011976D01*
X10332440Y-26002452D02*
X10313393Y-26011976D01*
X10275298Y-26011976D01*
X10256250Y-26002452D01*
X10246726Y-25983405D01*
X10246726Y-25907214D01*
X10256250Y-25888167D01*
X10275298Y-25878643D01*
X10313393Y-25878643D01*
X10332440Y-25888167D01*
X10341964Y-25907214D01*
X10341964Y-25926262D01*
X10246726Y-25945309D01*
X10513393Y-26011976D02*
X10513393Y-25811976D01*
X10513393Y-26002452D02*
X10494345Y-26011976D01*
X10456250Y-26011976D01*
X10437202Y-26002452D01*
X10427679Y-25992928D01*
X10418155Y-25973881D01*
X10418155Y-25916738D01*
X10427679Y-25897690D01*
X10437202Y-25888167D01*
X10456250Y-25878643D01*
X10494345Y-25878643D01*
X10513393Y-25888167D01*
X10589583Y-26088167D02*
X10599107Y-26078643D01*
X10618155Y-26050071D01*
X10627679Y-26031024D01*
X10637202Y-26002452D01*
X10646726Y-25954833D01*
X10646726Y-25916738D01*
X10637202Y-25869119D01*
X10627679Y-25840548D01*
X10618155Y-25821500D01*
X10599107Y-25792928D01*
X10589583Y-25783405D01*
X3546250Y-26341500D02*
X3646250Y-26241500D01*
X3546250Y-26141500D01*
X3446250Y-26241500D01*
X3546250Y-26341500D01*
X3884821Y-26131976D02*
X4008631Y-26131976D01*
X3941964Y-26208167D01*
X3970536Y-26208167D01*
X3989583Y-26217690D01*
X3999107Y-26227214D01*
X4008631Y-26246262D01*
X4008631Y-26293881D01*
X3999107Y-26312928D01*
X3989583Y-26322452D01*
X3970536Y-26331976D01*
X3913393Y-26331976D01*
X3894345Y-26322452D01*
X3884821Y-26312928D01*
X4094345Y-26312928D02*
X4103869Y-26322452D01*
X4094345Y-26331976D01*
X4084821Y-26322452D01*
X4094345Y-26312928D01*
X4094345Y-26331976D01*
X4180059Y-26151024D02*
X4189583Y-26141500D01*
X4208631Y-26131976D01*
X4256250Y-26131976D01*
X4275298Y-26141500D01*
X4284821Y-26151024D01*
X4294345Y-26170071D01*
X4294345Y-26189119D01*
X4284821Y-26217690D01*
X4170536Y-26331976D01*
X4294345Y-26331976D01*
X4418155Y-26131976D02*
X4437202Y-26131976D01*
X4456250Y-26141500D01*
X4465774Y-26151024D01*
X4475298Y-26170071D01*
X4484821Y-26208167D01*
X4484821Y-26255786D01*
X4475298Y-26293881D01*
X4465774Y-26312928D01*
X4456250Y-26322452D01*
X4437202Y-26331976D01*
X4418155Y-26331976D01*
X4399107Y-26322452D01*
X4389583Y-26312928D01*
X4380060Y-26293881D01*
X4370536Y-26255786D01*
X4370536Y-26208167D01*
X4380060Y-26170071D01*
X4389583Y-26151024D01*
X4399107Y-26141500D01*
X4418155Y-26131976D01*
X4608631Y-26131976D02*
X4627679Y-26131976D01*
X4646726Y-26141500D01*
X4656250Y-26151024D01*
X4665774Y-26170071D01*
X4675298Y-26208167D01*
X4675298Y-26255786D01*
X4665774Y-26293881D01*
X4656250Y-26312928D01*
X4646726Y-26322452D01*
X4627679Y-26331976D01*
X4608631Y-26331976D01*
X4589583Y-26322452D01*
X4580060Y-26312928D01*
X4570536Y-26293881D01*
X4561012Y-26255786D01*
X4561012Y-26208167D01*
X4570536Y-26170071D01*
X4580060Y-26151024D01*
X4589583Y-26141500D01*
X4608631Y-26131976D01*
X4761012Y-26331976D02*
X4761012Y-26198643D01*
X4761012Y-26217690D02*
X4770536Y-26208167D01*
X4789583Y-26198643D01*
X4818155Y-26198643D01*
X4837202Y-26208167D01*
X4846726Y-26227214D01*
X4846726Y-26331976D01*
X4846726Y-26227214D02*
X4856250Y-26208167D01*
X4875298Y-26198643D01*
X4903869Y-26198643D01*
X4922917Y-26208167D01*
X4932440Y-26227214D01*
X4932440Y-26331976D01*
X5027679Y-26331976D02*
X5027679Y-26198643D01*
X5027679Y-26217690D02*
X5037202Y-26208167D01*
X5056250Y-26198643D01*
X5084821Y-26198643D01*
X5103869Y-26208167D01*
X5113393Y-26227214D01*
X5113393Y-26331976D01*
X5113393Y-26227214D02*
X5122917Y-26208167D01*
X5141964Y-26198643D01*
X5170536Y-26198643D01*
X5189583Y-26208167D01*
X5199107Y-26227214D01*
X5199107Y-26331976D01*
X5589583Y-26122452D02*
X5418155Y-26379595D01*
X5846726Y-26131976D02*
X5865774Y-26131976D01*
X5884821Y-26141500D01*
X5894345Y-26151024D01*
X5903869Y-26170071D01*
X5913393Y-26208167D01*
X5913393Y-26255786D01*
X5903869Y-26293881D01*
X5894345Y-26312928D01*
X5884821Y-26322452D01*
X5865774Y-26331976D01*
X5846726Y-26331976D01*
X5827678Y-26322452D01*
X5818155Y-26312928D01*
X5808631Y-26293881D01*
X5799107Y-26255786D01*
X5799107Y-26208167D01*
X5808631Y-26170071D01*
X5818155Y-26151024D01*
X5827678Y-26141500D01*
X5846726Y-26131976D01*
X5999107Y-26312928D02*
X6008631Y-26322452D01*
X5999107Y-26331976D01*
X5989583Y-26322452D01*
X5999107Y-26312928D01*
X5999107Y-26331976D01*
X6199107Y-26331976D02*
X6084821Y-26331976D01*
X6141964Y-26331976D02*
X6141964Y-26131976D01*
X6122917Y-26160548D01*
X6103869Y-26179595D01*
X6084821Y-26189119D01*
X6275298Y-26151024D02*
X6284821Y-26141500D01*
X6303869Y-26131976D01*
X6351488Y-26131976D01*
X6370536Y-26141500D01*
X6380059Y-26151024D01*
X6389583Y-26170071D01*
X6389583Y-26189119D01*
X6380059Y-26217690D01*
X6265774Y-26331976D01*
X6389583Y-26331976D01*
X6561012Y-26131976D02*
X6522917Y-26131976D01*
X6503869Y-26141500D01*
X6494345Y-26151024D01*
X6475298Y-26179595D01*
X6465774Y-26217690D01*
X6465774Y-26293881D01*
X6475298Y-26312928D01*
X6484821Y-26322452D01*
X6503869Y-26331976D01*
X6541964Y-26331976D01*
X6561012Y-26322452D01*
X6570536Y-26312928D01*
X6580059Y-26293881D01*
X6580059Y-26246262D01*
X6570536Y-26227214D01*
X6561012Y-26217690D01*
X6541964Y-26208167D01*
X6503869Y-26208167D01*
X6484821Y-26217690D01*
X6475298Y-26227214D01*
X6465774Y-26246262D01*
X6703869Y-26131976D02*
X6722917Y-26131976D01*
X6741964Y-26141500D01*
X6751488Y-26151024D01*
X6761012Y-26170071D01*
X6770536Y-26208167D01*
X6770536Y-26255786D01*
X6761012Y-26293881D01*
X6751488Y-26312928D01*
X6741964Y-26322452D01*
X6722917Y-26331976D01*
X6703869Y-26331976D01*
X6684821Y-26322452D01*
X6675298Y-26312928D01*
X6665774Y-26293881D01*
X6656250Y-26255786D01*
X6656250Y-26208167D01*
X6665774Y-26170071D01*
X6675298Y-26151024D01*
X6684821Y-26141500D01*
X6703869Y-26131976D01*
X6846726Y-26131976D02*
X6846726Y-26170071D01*
X6922917Y-26131976D02*
X6922917Y-26170071D01*
X7218155Y-26408167D02*
X7208631Y-26398643D01*
X7189583Y-26370071D01*
X7180059Y-26351024D01*
X7170536Y-26322452D01*
X7161012Y-26274833D01*
X7161012Y-26236738D01*
X7170536Y-26189119D01*
X7180059Y-26160548D01*
X7189583Y-26141500D01*
X7208631Y-26112928D01*
X7218155Y-26103405D01*
X7399107Y-26331976D02*
X7284821Y-26331976D01*
X7341964Y-26331976D02*
X7341964Y-26131976D01*
X7322917Y-26160548D01*
X7303869Y-26179595D01*
X7284821Y-26189119D01*
X7570536Y-26131976D02*
X7532440Y-26131976D01*
X7513393Y-26141500D01*
X7503869Y-26151024D01*
X7484821Y-26179595D01*
X7475298Y-26217690D01*
X7475298Y-26293881D01*
X7484821Y-26312928D01*
X7494345Y-26322452D01*
X7513393Y-26331976D01*
X7551488Y-26331976D01*
X7570536Y-26322452D01*
X7580059Y-26312928D01*
X7589583Y-26293881D01*
X7589583Y-26246262D01*
X7580059Y-26227214D01*
X7570536Y-26217690D01*
X7551488Y-26208167D01*
X7513393Y-26208167D01*
X7494345Y-26217690D01*
X7484821Y-26227214D01*
X7475298Y-26246262D01*
X7827678Y-26331976D02*
X7827678Y-26131976D01*
X7913393Y-26331976D02*
X7913393Y-26227214D01*
X7903869Y-26208167D01*
X7884821Y-26198643D01*
X7856250Y-26198643D01*
X7837202Y-26208167D01*
X7827678Y-26217690D01*
X8037202Y-26331976D02*
X8018155Y-26322452D01*
X8008631Y-26312928D01*
X7999107Y-26293881D01*
X7999107Y-26236738D01*
X8008631Y-26217690D01*
X8018155Y-26208167D01*
X8037202Y-26198643D01*
X8065774Y-26198643D01*
X8084821Y-26208167D01*
X8094345Y-26217690D01*
X8103869Y-26236738D01*
X8103869Y-26293881D01*
X8094345Y-26312928D01*
X8084821Y-26322452D01*
X8065774Y-26331976D01*
X8037202Y-26331976D01*
X8218155Y-26331976D02*
X8199107Y-26322452D01*
X8189583Y-26303405D01*
X8189583Y-26131976D01*
X8370536Y-26322452D02*
X8351488Y-26331976D01*
X8313393Y-26331976D01*
X8294345Y-26322452D01*
X8284821Y-26303405D01*
X8284821Y-26227214D01*
X8294345Y-26208167D01*
X8313393Y-26198643D01*
X8351488Y-26198643D01*
X8370536Y-26208167D01*
X8380059Y-26227214D01*
X8380059Y-26246262D01*
X8284821Y-26265309D01*
X8456250Y-26322452D02*
X8475298Y-26331976D01*
X8513393Y-26331976D01*
X8532440Y-26322452D01*
X8541964Y-26303405D01*
X8541964Y-26293881D01*
X8532440Y-26274833D01*
X8513393Y-26265309D01*
X8484821Y-26265309D01*
X8465774Y-26255786D01*
X8456250Y-26236738D01*
X8456250Y-26227214D01*
X8465774Y-26208167D01*
X8484821Y-26198643D01*
X8513393Y-26198643D01*
X8532440Y-26208167D01*
X8608631Y-26408167D02*
X8618155Y-26398643D01*
X8637202Y-26370071D01*
X8646726Y-26351024D01*
X8656250Y-26322452D01*
X8665774Y-26274833D01*
X8665774Y-26236738D01*
X8656250Y-26189119D01*
X8646726Y-26160548D01*
X8637202Y-26141500D01*
X8618155Y-26112928D01*
X8608631Y-26103405D01*
X8970536Y-26408167D02*
X8961012Y-26398643D01*
X8941964Y-26370071D01*
X8932440Y-26351024D01*
X8922917Y-26322452D01*
X8913393Y-26274833D01*
X8913393Y-26236738D01*
X8922917Y-26189119D01*
X8932440Y-26160548D01*
X8941964Y-26141500D01*
X8961012Y-26112928D01*
X8970536Y-26103405D01*
X9046726Y-26198643D02*
X9046726Y-26331976D01*
X9046726Y-26217690D02*
X9056250Y-26208167D01*
X9075298Y-26198643D01*
X9103869Y-26198643D01*
X9122917Y-26208167D01*
X9132440Y-26227214D01*
X9132440Y-26331976D01*
X9256250Y-26331976D02*
X9237202Y-26322452D01*
X9227679Y-26312928D01*
X9218155Y-26293881D01*
X9218155Y-26236738D01*
X9227679Y-26217690D01*
X9237202Y-26208167D01*
X9256250Y-26198643D01*
X9284821Y-26198643D01*
X9303869Y-26208167D01*
X9313393Y-26217690D01*
X9322917Y-26236738D01*
X9322917Y-26293881D01*
X9313393Y-26312928D01*
X9303869Y-26322452D01*
X9284821Y-26331976D01*
X9256250Y-26331976D01*
X9380060Y-26198643D02*
X9456250Y-26198643D01*
X9408631Y-26131976D02*
X9408631Y-26303405D01*
X9418155Y-26322452D01*
X9437202Y-26331976D01*
X9456250Y-26331976D01*
X9675298Y-26198643D02*
X9675298Y-26398643D01*
X9675298Y-26208167D02*
X9694345Y-26198643D01*
X9732440Y-26198643D01*
X9751488Y-26208167D01*
X9761012Y-26217690D01*
X9770536Y-26236738D01*
X9770536Y-26293881D01*
X9761012Y-26312928D01*
X9751488Y-26322452D01*
X9732440Y-26331976D01*
X9694345Y-26331976D01*
X9675298Y-26322452D01*
X9884821Y-26331976D02*
X9865774Y-26322452D01*
X9856250Y-26303405D01*
X9856250Y-26131976D01*
X10046726Y-26331976D02*
X10046726Y-26227214D01*
X10037202Y-26208167D01*
X10018155Y-26198643D01*
X9980060Y-26198643D01*
X9961012Y-26208167D01*
X10046726Y-26322452D02*
X10027679Y-26331976D01*
X9980060Y-26331976D01*
X9961012Y-26322452D01*
X9951488Y-26303405D01*
X9951488Y-26284357D01*
X9961012Y-26265309D01*
X9980060Y-26255786D01*
X10027679Y-26255786D01*
X10046726Y-26246262D01*
X10113393Y-26198643D02*
X10189583Y-26198643D01*
X10141964Y-26131976D02*
X10141964Y-26303405D01*
X10151488Y-26322452D01*
X10170536Y-26331976D01*
X10189583Y-26331976D01*
X10332440Y-26322452D02*
X10313393Y-26331976D01*
X10275298Y-26331976D01*
X10256250Y-26322452D01*
X10246726Y-26303405D01*
X10246726Y-26227214D01*
X10256250Y-26208167D01*
X10275298Y-26198643D01*
X10313393Y-26198643D01*
X10332440Y-26208167D01*
X10341964Y-26227214D01*
X10341964Y-26246262D01*
X10246726Y-26265309D01*
X10513393Y-26331976D02*
X10513393Y-26131976D01*
X10513393Y-26322452D02*
X10494345Y-26331976D01*
X10456250Y-26331976D01*
X10437202Y-26322452D01*
X10427679Y-26312928D01*
X10418155Y-26293881D01*
X10418155Y-26236738D01*
X10427679Y-26217690D01*
X10437202Y-26208167D01*
X10456250Y-26198643D01*
X10494345Y-26198643D01*
X10513393Y-26208167D01*
X10589583Y-26408167D02*
X10599107Y-26398643D01*
X10618155Y-26370071D01*
X10627679Y-26351024D01*
X10637202Y-26322452D01*
X10646726Y-26274833D01*
X10646726Y-26236738D01*
X10637202Y-26189119D01*
X10627679Y-26160548D01*
X10618155Y-26141500D01*
X10599107Y-26112928D01*
X10589583Y-26103405D01*
X3446250Y-26461500D02*
X3646250Y-26661500D01*
X3646250Y-26461500D02*
X3446250Y-26661500D01*
X3646250Y-26561500D02*
G75*
G03*
X3646250Y-26561500I-100000J0D01*
G01*
X3884821Y-26451976D02*
X4008631Y-26451976D01*
X3941964Y-26528167D01*
X3970536Y-26528167D01*
X3989583Y-26537690D01*
X3999107Y-26547214D01*
X4008631Y-26566262D01*
X4008631Y-26613881D01*
X3999107Y-26632928D01*
X3989583Y-26642452D01*
X3970536Y-26651976D01*
X3913393Y-26651976D01*
X3894345Y-26642452D01*
X3884821Y-26632928D01*
X4094345Y-26632928D02*
X4103869Y-26642452D01*
X4094345Y-26651976D01*
X4084821Y-26642452D01*
X4094345Y-26632928D01*
X4094345Y-26651976D01*
X4199107Y-26651976D02*
X4237202Y-26651976D01*
X4256250Y-26642452D01*
X4265774Y-26632928D01*
X4284821Y-26604357D01*
X4294345Y-26566262D01*
X4294345Y-26490071D01*
X4284821Y-26471024D01*
X4275298Y-26461500D01*
X4256250Y-26451976D01*
X4218155Y-26451976D01*
X4199107Y-26461500D01*
X4189583Y-26471024D01*
X4180059Y-26490071D01*
X4180059Y-26537690D01*
X4189583Y-26556738D01*
X4199107Y-26566262D01*
X4218155Y-26575786D01*
X4256250Y-26575786D01*
X4275298Y-26566262D01*
X4284821Y-26556738D01*
X4294345Y-26537690D01*
X4408631Y-26537690D02*
X4389583Y-26528167D01*
X4380060Y-26518643D01*
X4370536Y-26499595D01*
X4370536Y-26490071D01*
X4380060Y-26471024D01*
X4389583Y-26461500D01*
X4408631Y-26451976D01*
X4446726Y-26451976D01*
X4465774Y-26461500D01*
X4475298Y-26471024D01*
X4484821Y-26490071D01*
X4484821Y-26499595D01*
X4475298Y-26518643D01*
X4465774Y-26528167D01*
X4446726Y-26537690D01*
X4408631Y-26537690D01*
X4389583Y-26547214D01*
X4380060Y-26556738D01*
X4370536Y-26575786D01*
X4370536Y-26613881D01*
X4380060Y-26632928D01*
X4389583Y-26642452D01*
X4408631Y-26651976D01*
X4446726Y-26651976D01*
X4465774Y-26642452D01*
X4475298Y-26632928D01*
X4484821Y-26613881D01*
X4484821Y-26575786D01*
X4475298Y-26556738D01*
X4465774Y-26547214D01*
X4446726Y-26537690D01*
X4599107Y-26537690D02*
X4580060Y-26528167D01*
X4570536Y-26518643D01*
X4561012Y-26499595D01*
X4561012Y-26490071D01*
X4570536Y-26471024D01*
X4580060Y-26461500D01*
X4599107Y-26451976D01*
X4637202Y-26451976D01*
X4656250Y-26461500D01*
X4665774Y-26471024D01*
X4675298Y-26490071D01*
X4675298Y-26499595D01*
X4665774Y-26518643D01*
X4656250Y-26528167D01*
X4637202Y-26537690D01*
X4599107Y-26537690D01*
X4580060Y-26547214D01*
X4570536Y-26556738D01*
X4561012Y-26575786D01*
X4561012Y-26613881D01*
X4570536Y-26632928D01*
X4580060Y-26642452D01*
X4599107Y-26651976D01*
X4637202Y-26651976D01*
X4656250Y-26642452D01*
X4665774Y-26632928D01*
X4675298Y-26613881D01*
X4675298Y-26575786D01*
X4665774Y-26556738D01*
X4656250Y-26547214D01*
X4637202Y-26537690D01*
X4761012Y-26651976D02*
X4761012Y-26518643D01*
X4761012Y-26537690D02*
X4770536Y-26528167D01*
X4789583Y-26518643D01*
X4818155Y-26518643D01*
X4837202Y-26528167D01*
X4846726Y-26547214D01*
X4846726Y-26651976D01*
X4846726Y-26547214D02*
X4856250Y-26528167D01*
X4875298Y-26518643D01*
X4903869Y-26518643D01*
X4922917Y-26528167D01*
X4932440Y-26547214D01*
X4932440Y-26651976D01*
X5027679Y-26651976D02*
X5027679Y-26518643D01*
X5027679Y-26537690D02*
X5037202Y-26528167D01*
X5056250Y-26518643D01*
X5084821Y-26518643D01*
X5103869Y-26528167D01*
X5113393Y-26547214D01*
X5113393Y-26651976D01*
X5113393Y-26547214D02*
X5122917Y-26528167D01*
X5141964Y-26518643D01*
X5170536Y-26518643D01*
X5189583Y-26528167D01*
X5199107Y-26547214D01*
X5199107Y-26651976D01*
X5589583Y-26442452D02*
X5418155Y-26699595D01*
X5846726Y-26451976D02*
X5865774Y-26451976D01*
X5884821Y-26461500D01*
X5894345Y-26471024D01*
X5903869Y-26490071D01*
X5913393Y-26528167D01*
X5913393Y-26575786D01*
X5903869Y-26613881D01*
X5894345Y-26632928D01*
X5884821Y-26642452D01*
X5865774Y-26651976D01*
X5846726Y-26651976D01*
X5827678Y-26642452D01*
X5818155Y-26632928D01*
X5808631Y-26613881D01*
X5799107Y-26575786D01*
X5799107Y-26528167D01*
X5808631Y-26490071D01*
X5818155Y-26471024D01*
X5827678Y-26461500D01*
X5846726Y-26451976D01*
X5999107Y-26632928D02*
X6008631Y-26642452D01*
X5999107Y-26651976D01*
X5989583Y-26642452D01*
X5999107Y-26632928D01*
X5999107Y-26651976D01*
X6199107Y-26651976D02*
X6084821Y-26651976D01*
X6141964Y-26651976D02*
X6141964Y-26451976D01*
X6122917Y-26480548D01*
X6103869Y-26499595D01*
X6084821Y-26509119D01*
X6380059Y-26451976D02*
X6284821Y-26451976D01*
X6275298Y-26547214D01*
X6284821Y-26537690D01*
X6303869Y-26528167D01*
X6351488Y-26528167D01*
X6370536Y-26537690D01*
X6380059Y-26547214D01*
X6389583Y-26566262D01*
X6389583Y-26613881D01*
X6380059Y-26632928D01*
X6370536Y-26642452D01*
X6351488Y-26651976D01*
X6303869Y-26651976D01*
X6284821Y-26642452D01*
X6275298Y-26632928D01*
X6456250Y-26451976D02*
X6589583Y-26451976D01*
X6503869Y-26651976D01*
X6703869Y-26451976D02*
X6722917Y-26451976D01*
X6741964Y-26461500D01*
X6751488Y-26471024D01*
X6761012Y-26490071D01*
X6770536Y-26528167D01*
X6770536Y-26575786D01*
X6761012Y-26613881D01*
X6751488Y-26632928D01*
X6741964Y-26642452D01*
X6722917Y-26651976D01*
X6703869Y-26651976D01*
X6684821Y-26642452D01*
X6675298Y-26632928D01*
X6665774Y-26613881D01*
X6656250Y-26575786D01*
X6656250Y-26528167D01*
X6665774Y-26490071D01*
X6675298Y-26471024D01*
X6684821Y-26461500D01*
X6703869Y-26451976D01*
X6846726Y-26451976D02*
X6846726Y-26490071D01*
X6922917Y-26451976D02*
X6922917Y-26490071D01*
X7218155Y-26728167D02*
X7208631Y-26718643D01*
X7189583Y-26690071D01*
X7180059Y-26671024D01*
X7170536Y-26642452D01*
X7161012Y-26594833D01*
X7161012Y-26556738D01*
X7170536Y-26509119D01*
X7180059Y-26480548D01*
X7189583Y-26461500D01*
X7208631Y-26432928D01*
X7218155Y-26423405D01*
X7399107Y-26651976D02*
X7284821Y-26651976D01*
X7341964Y-26651976D02*
X7341964Y-26451976D01*
X7322917Y-26480548D01*
X7303869Y-26499595D01*
X7284821Y-26509119D01*
X7522917Y-26451976D02*
X7541964Y-26451976D01*
X7561012Y-26461500D01*
X7570536Y-26471024D01*
X7580059Y-26490071D01*
X7589583Y-26528167D01*
X7589583Y-26575786D01*
X7580059Y-26613881D01*
X7570536Y-26632928D01*
X7561012Y-26642452D01*
X7541964Y-26651976D01*
X7522917Y-26651976D01*
X7503869Y-26642452D01*
X7494345Y-26632928D01*
X7484821Y-26613881D01*
X7475298Y-26575786D01*
X7475298Y-26528167D01*
X7484821Y-26490071D01*
X7494345Y-26471024D01*
X7503869Y-26461500D01*
X7522917Y-26451976D01*
X7656250Y-26451976D02*
X7789583Y-26451976D01*
X7703869Y-26651976D01*
X8018155Y-26651976D02*
X8018155Y-26451976D01*
X8103869Y-26651976D02*
X8103869Y-26547214D01*
X8094345Y-26528167D01*
X8075298Y-26518643D01*
X8046726Y-26518643D01*
X8027678Y-26528167D01*
X8018155Y-26537690D01*
X8227678Y-26651976D02*
X8208631Y-26642452D01*
X8199107Y-26632928D01*
X8189583Y-26613881D01*
X8189583Y-26556738D01*
X8199107Y-26537690D01*
X8208631Y-26528167D01*
X8227678Y-26518643D01*
X8256250Y-26518643D01*
X8275298Y-26528167D01*
X8284821Y-26537690D01*
X8294345Y-26556738D01*
X8294345Y-26613881D01*
X8284821Y-26632928D01*
X8275298Y-26642452D01*
X8256250Y-26651976D01*
X8227678Y-26651976D01*
X8408631Y-26651976D02*
X8389583Y-26642452D01*
X8380059Y-26623405D01*
X8380059Y-26451976D01*
X8561012Y-26642452D02*
X8541964Y-26651976D01*
X8503869Y-26651976D01*
X8484821Y-26642452D01*
X8475298Y-26623405D01*
X8475298Y-26547214D01*
X8484821Y-26528167D01*
X8503869Y-26518643D01*
X8541964Y-26518643D01*
X8561012Y-26528167D01*
X8570536Y-26547214D01*
X8570536Y-26566262D01*
X8475298Y-26585309D01*
X8646726Y-26642452D02*
X8665774Y-26651976D01*
X8703869Y-26651976D01*
X8722917Y-26642452D01*
X8732440Y-26623405D01*
X8732440Y-26613881D01*
X8722917Y-26594833D01*
X8703869Y-26585309D01*
X8675298Y-26585309D01*
X8656250Y-26575786D01*
X8646726Y-26556738D01*
X8646726Y-26547214D01*
X8656250Y-26528167D01*
X8675298Y-26518643D01*
X8703869Y-26518643D01*
X8722917Y-26528167D01*
X8799107Y-26728167D02*
X8808631Y-26718643D01*
X8827679Y-26690071D01*
X8837202Y-26671024D01*
X8846726Y-26642452D01*
X8856250Y-26594833D01*
X8856250Y-26556738D01*
X8846726Y-26509119D01*
X8837202Y-26480548D01*
X8827679Y-26461500D01*
X8808631Y-26432928D01*
X8799107Y-26423405D01*
X9161012Y-26728167D02*
X9151488Y-26718643D01*
X9132440Y-26690071D01*
X9122917Y-26671024D01*
X9113393Y-26642452D01*
X9103869Y-26594833D01*
X9103869Y-26556738D01*
X9113393Y-26509119D01*
X9122917Y-26480548D01*
X9132440Y-26461500D01*
X9151488Y-26432928D01*
X9161012Y-26423405D01*
X9237202Y-26518643D02*
X9237202Y-26651976D01*
X9237202Y-26537690D02*
X9246726Y-26528167D01*
X9265774Y-26518643D01*
X9294345Y-26518643D01*
X9313393Y-26528167D01*
X9322917Y-26547214D01*
X9322917Y-26651976D01*
X9446726Y-26651976D02*
X9427679Y-26642452D01*
X9418155Y-26632928D01*
X9408631Y-26613881D01*
X9408631Y-26556738D01*
X9418155Y-26537690D01*
X9427679Y-26528167D01*
X9446726Y-26518643D01*
X9475298Y-26518643D01*
X9494345Y-26528167D01*
X9503869Y-26537690D01*
X9513393Y-26556738D01*
X9513393Y-26613881D01*
X9503869Y-26632928D01*
X9494345Y-26642452D01*
X9475298Y-26651976D01*
X9446726Y-26651976D01*
X9570536Y-26518643D02*
X9646726Y-26518643D01*
X9599107Y-26451976D02*
X9599107Y-26623405D01*
X9608631Y-26642452D01*
X9627679Y-26651976D01*
X9646726Y-26651976D01*
X9865774Y-26518643D02*
X9865774Y-26718643D01*
X9865774Y-26528167D02*
X9884821Y-26518643D01*
X9922917Y-26518643D01*
X9941964Y-26528167D01*
X9951488Y-26537690D01*
X9961012Y-26556738D01*
X9961012Y-26613881D01*
X9951488Y-26632928D01*
X9941964Y-26642452D01*
X9922917Y-26651976D01*
X9884821Y-26651976D01*
X9865774Y-26642452D01*
X10075298Y-26651976D02*
X10056250Y-26642452D01*
X10046726Y-26623405D01*
X10046726Y-26451976D01*
X10237202Y-26651976D02*
X10237202Y-26547214D01*
X10227679Y-26528167D01*
X10208631Y-26518643D01*
X10170536Y-26518643D01*
X10151488Y-26528167D01*
X10237202Y-26642452D02*
X10218155Y-26651976D01*
X10170536Y-26651976D01*
X10151488Y-26642452D01*
X10141964Y-26623405D01*
X10141964Y-26604357D01*
X10151488Y-26585309D01*
X10170536Y-26575786D01*
X10218155Y-26575786D01*
X10237202Y-26566262D01*
X10303869Y-26518643D02*
X10380060Y-26518643D01*
X10332440Y-26451976D02*
X10332440Y-26623405D01*
X10341964Y-26642452D01*
X10361012Y-26651976D01*
X10380060Y-26651976D01*
X10522917Y-26642452D02*
X10503869Y-26651976D01*
X10465774Y-26651976D01*
X10446726Y-26642452D01*
X10437202Y-26623405D01*
X10437202Y-26547214D01*
X10446726Y-26528167D01*
X10465774Y-26518643D01*
X10503869Y-26518643D01*
X10522917Y-26528167D01*
X10532440Y-26547214D01*
X10532440Y-26566262D01*
X10437202Y-26585309D01*
X10703869Y-26651976D02*
X10703869Y-26451976D01*
X10703869Y-26642452D02*
X10684821Y-26651976D01*
X10646726Y-26651976D01*
X10627679Y-26642452D01*
X10618155Y-26632928D01*
X10608631Y-26613881D01*
X10608631Y-26556738D01*
X10618155Y-26537690D01*
X10627679Y-26528167D01*
X10646726Y-26518643D01*
X10684821Y-26518643D01*
X10703869Y-26528167D01*
X10780060Y-26728167D02*
X10789583Y-26718643D01*
X10808631Y-26690071D01*
X10818155Y-26671024D01*
X10827679Y-26642452D01*
X10837202Y-26594833D01*
X10837202Y-26556738D01*
X10827679Y-26509119D01*
X10818155Y-26480548D01*
X10808631Y-26461500D01*
X10789583Y-26432928D01*
X10780060Y-26423405D01*
M02*
