G04 #@! TF.GenerationSoftware,KiCad,Pcbnew,6.0.7-f9a2dced07~116~ubuntu22.04.1*
G04 #@! TF.CreationDate,2022-09-05T17:56:12+01:00*
G04 #@! TF.ProjectId,keyboard,6b657962-6f61-4726-942e-6b696361645f,rev?*
G04 #@! TF.SameCoordinates,Original*
G04 #@! TF.FileFunction,Legend,Top*
G04 #@! TF.FilePolarity,Positive*
%FSLAX46Y46*%
G04 Gerber Fmt 4.6, Leading zero omitted, Abs format (unit mm)*
G04 Created by KiCad (PCBNEW 6.0.7-f9a2dced07~116~ubuntu22.04.1) date 2022-09-05 17:56:12*
%MOMM*%
%LPD*%
G01*
G04 APERTURE LIST*
G04 Aperture macros list*
%AMRoundRect*
0 Rectangle with rounded corners*
0 $1 Rounding radius*
0 $2 $3 $4 $5 $6 $7 $8 $9 X,Y pos of 4 corners*
0 Add a 4 corners polygon primitive as box body*
4,1,4,$2,$3,$4,$5,$6,$7,$8,$9,$2,$3,0*
0 Add four circle primitives for the rounded corners*
1,1,$1+$1,$2,$3*
1,1,$1+$1,$4,$5*
1,1,$1+$1,$6,$7*
1,1,$1+$1,$8,$9*
0 Add four rect primitives between the rounded corners*
20,1,$1+$1,$2,$3,$4,$5,0*
20,1,$1+$1,$4,$5,$6,$7,0*
20,1,$1+$1,$6,$7,$8,$9,0*
20,1,$1+$1,$8,$9,$2,$3,0*%
G04 Aperture macros list end*
%ADD10C,0.150000*%
%ADD11C,0.120000*%
%ADD12C,1.750000*%
%ADD13C,3.987800*%
%ADD14C,2.250000*%
%ADD15C,1.905000*%
%ADD16R,1.905000X1.905000*%
%ADD17C,3.200000*%
%ADD18R,1.000000X1.000000*%
%ADD19O,1.000000X1.000000*%
%ADD20C,3.048000*%
%ADD21C,0.750000*%
%ADD22RoundRect,0.050000X0.300000X0.725000X-0.300000X0.725000X-0.300000X-0.725000X0.300000X-0.725000X0*%
%ADD23RoundRect,0.050000X0.150000X0.725000X-0.150000X0.725000X-0.150000X-0.725000X0.150000X-0.725000X0*%
%ADD24O,1.100000X2.200000*%
%ADD25O,1.100000X1.700000*%
%ADD26R,3.500000X1.700000*%
%ADD27R,1.700000X3.500000*%
%ADD28R,1.500000X1.500000*%
%ADD29R,0.800000X1.900000*%
%ADD30O,2.000000X3.200000*%
%ADD31R,2.000000X2.000000*%
%ADD32C,2.000000*%
%ADD33RoundRect,0.250000X-0.350000X-0.450000X0.350000X-0.450000X0.350000X0.450000X-0.350000X0.450000X0*%
G04 APERTURE END LIST*
D10*
X54011130Y-190039583D02*
X54725416Y-190039583D01*
X54868273Y-190087202D01*
X54963511Y-190182440D01*
X55011130Y-190325297D01*
X55011130Y-190420535D01*
X55011130Y-189039583D02*
X55011130Y-189611011D01*
X55011130Y-189325297D02*
X54011130Y-189325297D01*
X54153988Y-189420535D01*
X54249226Y-189515773D01*
X54296845Y-189611011D01*
X50203273Y-122918154D02*
X50203273Y-123565773D01*
X50241369Y-123641964D01*
X50279464Y-123680059D01*
X50355654Y-123718154D01*
X50508035Y-123718154D01*
X50584226Y-123680059D01*
X50622321Y-123641964D01*
X50660416Y-123565773D01*
X50660416Y-122918154D01*
X51003273Y-123680059D02*
X51117559Y-123718154D01*
X51308035Y-123718154D01*
X51384226Y-123680059D01*
X51422321Y-123641964D01*
X51460416Y-123565773D01*
X51460416Y-123489583D01*
X51422321Y-123413392D01*
X51384226Y-123375297D01*
X51308035Y-123337202D01*
X51155654Y-123299107D01*
X51079464Y-123261011D01*
X51041369Y-123222916D01*
X51003273Y-123146726D01*
X51003273Y-123070535D01*
X51041369Y-122994345D01*
X51079464Y-122956250D01*
X51155654Y-122918154D01*
X51346130Y-122918154D01*
X51460416Y-122956250D01*
X52069940Y-123299107D02*
X52184226Y-123337202D01*
X52222321Y-123375297D01*
X52260416Y-123451488D01*
X52260416Y-123565773D01*
X52222321Y-123641964D01*
X52184226Y-123680059D01*
X52108035Y-123718154D01*
X51803273Y-123718154D01*
X51803273Y-122918154D01*
X52069940Y-122918154D01*
X52146130Y-122956250D01*
X52184226Y-122994345D01*
X52222321Y-123070535D01*
X52222321Y-123146726D01*
X52184226Y-123222916D01*
X52146130Y-123261011D01*
X52069940Y-123299107D01*
X51803273Y-123299107D01*
X53022321Y-123718154D02*
X52565178Y-123718154D01*
X52793750Y-123718154D02*
X52793750Y-122918154D01*
X52717559Y-123032440D01*
X52641369Y-123108630D01*
X52565178Y-123146726D01*
X50831845Y-158751130D02*
X50831845Y-159560654D01*
X50879464Y-159655892D01*
X50927083Y-159703511D01*
X51022321Y-159751130D01*
X51212797Y-159751130D01*
X51308035Y-159703511D01*
X51355654Y-159655892D01*
X51403273Y-159560654D01*
X51403273Y-158751130D01*
X52403273Y-159751130D02*
X51831845Y-159751130D01*
X52117559Y-159751130D02*
X52117559Y-158751130D01*
X52022321Y-158893988D01*
X51927083Y-158989226D01*
X51831845Y-159036845D01*
X63691472Y-150545342D02*
X63610660Y-150572279D01*
X63529847Y-150653091D01*
X63475973Y-150760841D01*
X63475973Y-150868591D01*
X63502910Y-150949403D01*
X63583722Y-151084090D01*
X63664534Y-151164902D01*
X63799221Y-151245714D01*
X63880034Y-151272652D01*
X63987783Y-151272652D01*
X64095533Y-151218777D01*
X64149408Y-151164902D01*
X64203282Y-151057152D01*
X64203282Y-151003278D01*
X64014721Y-150814716D01*
X63906971Y-150922465D01*
X64499594Y-150814716D02*
X63933908Y-150249030D01*
X64149408Y-150033531D01*
X64230220Y-150006594D01*
X64284095Y-150006594D01*
X64364907Y-150033531D01*
X64445719Y-150114343D01*
X64472656Y-150195156D01*
X64472656Y-150249030D01*
X64445719Y-150329843D01*
X64230220Y-150545342D01*
X64526531Y-149764157D02*
X64526531Y-149710282D01*
X64553469Y-149629470D01*
X64688156Y-149494783D01*
X64768968Y-149467846D01*
X64822843Y-149467846D01*
X64903655Y-149494783D01*
X64957530Y-149548658D01*
X65011404Y-149656408D01*
X65011404Y-150302905D01*
X65361591Y-149952719D01*
X65361591Y-149306221D02*
X65280778Y-149333159D01*
X65226904Y-149333159D01*
X65146091Y-149306221D01*
X65119154Y-149279284D01*
X65092217Y-149198472D01*
X65092217Y-149144597D01*
X65119154Y-149063785D01*
X65226904Y-148956035D01*
X65307716Y-148929098D01*
X65361591Y-148929098D01*
X65442403Y-148956035D01*
X65469340Y-148982973D01*
X65496278Y-149063785D01*
X65496278Y-149117660D01*
X65469340Y-149198472D01*
X65361591Y-149306221D01*
X65334653Y-149387034D01*
X65334653Y-149440908D01*
X65361591Y-149521721D01*
X65469340Y-149629470D01*
X65550152Y-149656408D01*
X65604027Y-149656408D01*
X65684839Y-149629470D01*
X65792589Y-149521721D01*
X65819526Y-149440908D01*
X65819526Y-149387034D01*
X65792589Y-149306221D01*
X65684839Y-149198472D01*
X65604027Y-149171534D01*
X65550152Y-149171534D01*
X65469340Y-149198472D01*
X55498511Y-185822559D02*
X55612797Y-185860654D01*
X55803273Y-185860654D01*
X55879464Y-185822559D01*
X55917559Y-185784464D01*
X55955654Y-185708273D01*
X55955654Y-185632083D01*
X55917559Y-185555892D01*
X55879464Y-185517797D01*
X55803273Y-185479702D01*
X55650892Y-185441607D01*
X55574702Y-185403511D01*
X55536607Y-185365416D01*
X55498511Y-185289226D01*
X55498511Y-185213035D01*
X55536607Y-185136845D01*
X55574702Y-185098750D01*
X55650892Y-185060654D01*
X55841369Y-185060654D01*
X55955654Y-185098750D01*
X56222321Y-185060654D02*
X56412797Y-185860654D01*
X56565178Y-185289226D01*
X56717559Y-185860654D01*
X56908035Y-185060654D01*
X57212797Y-185860654D02*
X57212797Y-185060654D01*
X57403273Y-185060654D01*
X57517559Y-185098750D01*
X57593750Y-185174940D01*
X57631845Y-185251130D01*
X57669940Y-185403511D01*
X57669940Y-185517797D01*
X57631845Y-185670178D01*
X57593750Y-185746369D01*
X57517559Y-185822559D01*
X57403273Y-185860654D01*
X57212797Y-185860654D01*
X58012797Y-185860654D02*
X58012797Y-185060654D01*
X58546130Y-185060654D02*
X58698511Y-185060654D01*
X58774702Y-185098750D01*
X58850892Y-185174940D01*
X58888988Y-185327321D01*
X58888988Y-185593988D01*
X58850892Y-185746369D01*
X58774702Y-185822559D01*
X58698511Y-185860654D01*
X58546130Y-185860654D01*
X58469940Y-185822559D01*
X58393750Y-185746369D01*
X58355654Y-185593988D01*
X58355654Y-185327321D01*
X58393750Y-185174940D01*
X58469940Y-185098750D01*
X58546130Y-185060654D01*
X63691472Y-183819342D02*
X63610660Y-183846279D01*
X63529847Y-183927091D01*
X63475973Y-184034841D01*
X63475973Y-184142591D01*
X63502910Y-184223403D01*
X63583722Y-184358090D01*
X63664534Y-184438902D01*
X63799221Y-184519714D01*
X63880034Y-184546652D01*
X63987783Y-184546652D01*
X64095533Y-184492777D01*
X64149408Y-184438902D01*
X64203282Y-184331152D01*
X64203282Y-184277278D01*
X64014721Y-184088716D01*
X63906971Y-184196465D01*
X64499594Y-184088716D02*
X63933908Y-183523030D01*
X64149408Y-183307531D01*
X64230220Y-183280594D01*
X64284095Y-183280594D01*
X64364907Y-183307531D01*
X64445719Y-183388343D01*
X64472656Y-183469156D01*
X64472656Y-183523030D01*
X64445719Y-183603843D01*
X64230220Y-183819342D01*
X65361591Y-183226719D02*
X65038342Y-183549968D01*
X65199966Y-183388343D02*
X64634281Y-182822658D01*
X64661218Y-182957345D01*
X64661218Y-183065095D01*
X64634281Y-183145907D01*
X65280778Y-182176160D02*
X65173029Y-182283910D01*
X65146091Y-182364722D01*
X65146091Y-182418597D01*
X65173029Y-182553284D01*
X65253841Y-182687971D01*
X65469340Y-182903470D01*
X65550152Y-182930408D01*
X65604027Y-182930408D01*
X65684839Y-182903470D01*
X65792589Y-182795721D01*
X65819526Y-182714908D01*
X65819526Y-182661034D01*
X65792589Y-182580221D01*
X65657902Y-182445534D01*
X65577090Y-182418597D01*
X65523215Y-182418597D01*
X65442403Y-182445534D01*
X65334653Y-182553284D01*
X65307716Y-182634096D01*
X65307716Y-182687971D01*
X65334653Y-182768783D01*
X37583472Y-183819342D02*
X37502660Y-183846279D01*
X37421847Y-183927091D01*
X37367973Y-184034841D01*
X37367973Y-184142591D01*
X37394910Y-184223403D01*
X37475722Y-184358090D01*
X37556534Y-184438902D01*
X37691221Y-184519714D01*
X37772034Y-184546652D01*
X37879783Y-184546652D01*
X37987533Y-184492777D01*
X38041408Y-184438902D01*
X38095282Y-184331152D01*
X38095282Y-184277278D01*
X37906721Y-184088716D01*
X37798971Y-184196465D01*
X38391594Y-184088716D02*
X37825908Y-183523030D01*
X38041408Y-183307531D01*
X38122220Y-183280594D01*
X38176095Y-183280594D01*
X38256907Y-183307531D01*
X38337719Y-183388343D01*
X38364656Y-183469156D01*
X38364656Y-183523030D01*
X38337719Y-183603843D01*
X38122220Y-183819342D01*
X39253591Y-183226719D02*
X38930342Y-183549968D01*
X39091966Y-183388343D02*
X38526281Y-182822658D01*
X38553218Y-182957345D01*
X38553218Y-183065095D01*
X38526281Y-183145907D01*
X39199716Y-182149223D02*
X38930342Y-182418597D01*
X39172778Y-182714908D01*
X39172778Y-182661034D01*
X39199716Y-182580221D01*
X39334403Y-182445534D01*
X39415215Y-182418597D01*
X39469090Y-182418597D01*
X39549902Y-182445534D01*
X39684589Y-182580221D01*
X39711526Y-182661034D01*
X39711526Y-182714908D01*
X39684589Y-182795721D01*
X39549902Y-182930408D01*
X39469090Y-182957345D01*
X39415215Y-182957345D01*
X38006846Y-137819968D02*
X37926034Y-137846905D01*
X37845221Y-137927717D01*
X37791347Y-138035467D01*
X37791347Y-138143217D01*
X37818284Y-138224029D01*
X37899096Y-138358716D01*
X37979908Y-138439528D01*
X38114595Y-138520340D01*
X38195408Y-138547278D01*
X38303157Y-138547278D01*
X38410907Y-138493403D01*
X38464782Y-138439528D01*
X38518656Y-138331778D01*
X38518656Y-138277904D01*
X38330095Y-138089342D01*
X38222345Y-138197091D01*
X38814968Y-138089342D02*
X38249282Y-137523656D01*
X38464782Y-137308157D01*
X38545594Y-137281220D01*
X38599469Y-137281220D01*
X38680281Y-137308157D01*
X38761093Y-137388969D01*
X38788030Y-137469782D01*
X38788030Y-137523656D01*
X38761093Y-137604469D01*
X38545594Y-137819968D01*
X39676965Y-137227345D02*
X39353716Y-137550594D01*
X39515340Y-137388969D02*
X38949655Y-136823284D01*
X38976592Y-136957971D01*
X38976592Y-137065721D01*
X38949655Y-137146533D01*
X64432125Y-161242185D02*
X63974189Y-161161372D01*
X64108876Y-161565433D02*
X63543191Y-160999748D01*
X63758690Y-160784249D01*
X63839502Y-160757311D01*
X63893377Y-160757311D01*
X63974189Y-160784249D01*
X64055001Y-160865061D01*
X64081939Y-160945873D01*
X64081939Y-160999748D01*
X64055001Y-161080560D01*
X63839502Y-161296059D01*
X64108876Y-160434062D02*
X64566812Y-160891998D01*
X64647624Y-160918936D01*
X64701499Y-160918936D01*
X64782311Y-160891998D01*
X64890061Y-160784249D01*
X64916998Y-160703437D01*
X64916998Y-160649562D01*
X64890061Y-160568750D01*
X64432125Y-160110814D01*
X65267185Y-160407125D02*
X64701499Y-159841440D01*
X65590433Y-160083876D01*
X65024748Y-159518191D01*
X38106846Y-150529968D02*
X38026034Y-150556905D01*
X37945221Y-150637717D01*
X37891347Y-150745467D01*
X37891347Y-150853217D01*
X37918284Y-150934029D01*
X37999096Y-151068716D01*
X38079908Y-151149528D01*
X38214595Y-151230340D01*
X38295408Y-151257278D01*
X38403157Y-151257278D01*
X38510907Y-151203403D01*
X38564782Y-151149528D01*
X38618656Y-151041778D01*
X38618656Y-150987904D01*
X38430095Y-150799342D01*
X38322345Y-150907091D01*
X38914968Y-150799342D02*
X38349282Y-150233656D01*
X38564782Y-150018157D01*
X38645594Y-149991220D01*
X38699469Y-149991220D01*
X38780281Y-150018157D01*
X38861093Y-150098969D01*
X38888030Y-150179782D01*
X38888030Y-150233656D01*
X38861093Y-150314469D01*
X38645594Y-150529968D01*
X39184342Y-149398597D02*
X38914968Y-149667971D01*
X39157404Y-149964282D01*
X39157404Y-149910408D01*
X39184342Y-149829595D01*
X39319029Y-149694908D01*
X39399841Y-149667971D01*
X39453716Y-149667971D01*
X39534528Y-149694908D01*
X39669215Y-149829595D01*
X39696152Y-149910408D01*
X39696152Y-149964282D01*
X39669215Y-150045095D01*
X39534528Y-150179782D01*
X39453716Y-150206719D01*
X39399841Y-150206719D01*
X63691472Y-176199342D02*
X63610660Y-176226279D01*
X63529847Y-176307091D01*
X63475973Y-176414841D01*
X63475973Y-176522591D01*
X63502910Y-176603403D01*
X63583722Y-176738090D01*
X63664534Y-176818902D01*
X63799221Y-176899714D01*
X63880034Y-176926652D01*
X63987783Y-176926652D01*
X64095533Y-176872777D01*
X64149408Y-176818902D01*
X64203282Y-176711152D01*
X64203282Y-176657278D01*
X64014721Y-176468716D01*
X63906971Y-176576465D01*
X64499594Y-176468716D02*
X63933908Y-175903030D01*
X64149408Y-175687531D01*
X64230220Y-175660594D01*
X64284095Y-175660594D01*
X64364907Y-175687531D01*
X64445719Y-175768343D01*
X64472656Y-175849156D01*
X64472656Y-175903030D01*
X64445719Y-175983843D01*
X64230220Y-176199342D01*
X65361591Y-175606719D02*
X65038342Y-175929968D01*
X65199966Y-175768343D02*
X64634281Y-175202658D01*
X64661218Y-175337345D01*
X64661218Y-175445095D01*
X64634281Y-175525907D01*
X65361591Y-174960221D02*
X65280778Y-174987159D01*
X65226904Y-174987159D01*
X65146091Y-174960221D01*
X65119154Y-174933284D01*
X65092217Y-174852472D01*
X65092217Y-174798597D01*
X65119154Y-174717785D01*
X65226904Y-174610035D01*
X65307716Y-174583098D01*
X65361591Y-174583098D01*
X65442403Y-174610035D01*
X65469340Y-174636973D01*
X65496278Y-174717785D01*
X65496278Y-174771660D01*
X65469340Y-174852472D01*
X65361591Y-174960221D01*
X65334653Y-175041034D01*
X65334653Y-175094908D01*
X65361591Y-175175721D01*
X65469340Y-175283470D01*
X65550152Y-175310408D01*
X65604027Y-175310408D01*
X65684839Y-175283470D01*
X65792589Y-175175721D01*
X65819526Y-175094908D01*
X65819526Y-175041034D01*
X65792589Y-174960221D01*
X65684839Y-174852472D01*
X65604027Y-174825534D01*
X65550152Y-174825534D01*
X65469340Y-174852472D01*
X63514223Y-138368716D02*
X64268470Y-138745839D01*
X63891347Y-137991592D01*
X64591719Y-138368716D02*
X64699469Y-138314841D01*
X64834156Y-138180154D01*
X64861093Y-138099342D01*
X64861093Y-138045467D01*
X64834156Y-137964655D01*
X64780281Y-137910780D01*
X64699469Y-137883843D01*
X64645594Y-137883843D01*
X64564782Y-137910780D01*
X64430095Y-137991592D01*
X64349282Y-138018530D01*
X64295408Y-138018530D01*
X64214595Y-137991592D01*
X64160721Y-137937717D01*
X64133783Y-137856905D01*
X64133783Y-137803030D01*
X64160721Y-137722218D01*
X64295408Y-137587531D01*
X64403157Y-137533656D01*
X65022717Y-137452844D02*
X65292091Y-137722218D01*
X64537844Y-137345095D02*
X65022717Y-137452844D01*
X64914968Y-136967971D01*
X65615340Y-137345095D02*
X65723090Y-137291220D01*
X65857777Y-137156533D01*
X65884714Y-137075721D01*
X65884714Y-137021846D01*
X65857777Y-136941034D01*
X65803902Y-136887159D01*
X65723090Y-136860221D01*
X65669215Y-136860221D01*
X65588403Y-136887159D01*
X65453716Y-136967971D01*
X65372904Y-136994908D01*
X65319029Y-136994908D01*
X65238217Y-136967971D01*
X65184342Y-136914096D01*
X65157404Y-136833284D01*
X65157404Y-136779409D01*
X65184342Y-136698597D01*
X65319029Y-136563910D01*
X65426778Y-136510035D01*
X37437472Y-173659342D02*
X37356660Y-173686279D01*
X37275847Y-173767091D01*
X37221973Y-173874841D01*
X37221973Y-173982591D01*
X37248910Y-174063403D01*
X37329722Y-174198090D01*
X37410534Y-174278902D01*
X37545221Y-174359714D01*
X37626034Y-174386652D01*
X37733783Y-174386652D01*
X37841533Y-174332777D01*
X37895408Y-174278902D01*
X37949282Y-174171152D01*
X37949282Y-174117278D01*
X37760721Y-173928716D01*
X37652971Y-174036465D01*
X38245594Y-173928716D02*
X37679908Y-173363030D01*
X37895408Y-173147531D01*
X37976220Y-173120594D01*
X38030095Y-173120594D01*
X38110907Y-173147531D01*
X38191719Y-173228343D01*
X38218656Y-173309156D01*
X38218656Y-173363030D01*
X38191719Y-173443843D01*
X37976220Y-173659342D01*
X39107591Y-173066719D02*
X38784342Y-173389968D01*
X38945966Y-173228343D02*
X38380281Y-172662658D01*
X38407218Y-172797345D01*
X38407218Y-172905095D01*
X38380281Y-172985907D01*
X38811279Y-172339409D02*
X38811279Y-172285534D01*
X38838217Y-172204722D01*
X38972904Y-172070035D01*
X39053716Y-172043098D01*
X39107591Y-172043098D01*
X39188403Y-172070035D01*
X39242278Y-172123910D01*
X39296152Y-172231660D01*
X39296152Y-172878157D01*
X39646339Y-172527971D01*
X38079908Y-140396905D02*
X37999096Y-140423843D01*
X37918284Y-140504655D01*
X37864409Y-140612404D01*
X37864409Y-140720154D01*
X37891347Y-140800966D01*
X37972159Y-140935653D01*
X38052971Y-141016465D01*
X38187658Y-141097278D01*
X38268470Y-141124215D01*
X38376220Y-141124215D01*
X38483969Y-141070340D01*
X38537844Y-141016465D01*
X38591719Y-140908716D01*
X38591719Y-140854841D01*
X38403157Y-140666279D01*
X38295408Y-140774029D01*
X38888030Y-140666279D02*
X38322345Y-140100594D01*
X39211279Y-140343030D01*
X38645594Y-139777345D01*
X39480653Y-140073656D02*
X38914968Y-139507971D01*
X39049655Y-139373284D01*
X39157404Y-139319409D01*
X39265154Y-139319409D01*
X39345966Y-139346347D01*
X39480653Y-139427159D01*
X39561465Y-139507971D01*
X39642278Y-139642658D01*
X39669215Y-139723470D01*
X39669215Y-139831220D01*
X39615340Y-139938969D01*
X39480653Y-140073656D01*
X38206846Y-158119968D02*
X38126034Y-158146905D01*
X38045221Y-158227717D01*
X37991347Y-158335467D01*
X37991347Y-158443217D01*
X38018284Y-158524029D01*
X38099096Y-158658716D01*
X38179908Y-158739528D01*
X38314595Y-158820340D01*
X38395408Y-158847278D01*
X38503157Y-158847278D01*
X38610907Y-158793403D01*
X38664782Y-158739528D01*
X38718656Y-158631778D01*
X38718656Y-158577904D01*
X38530095Y-158389342D01*
X38422345Y-158497091D01*
X39014968Y-158389342D02*
X38449282Y-157823656D01*
X38664782Y-157608157D01*
X38745594Y-157581220D01*
X38799469Y-157581220D01*
X38880281Y-157608157D01*
X38961093Y-157688969D01*
X38988030Y-157769782D01*
X38988030Y-157823656D01*
X38961093Y-157904469D01*
X38745594Y-158119968D01*
X38961093Y-157311846D02*
X39338217Y-156934722D01*
X39661465Y-157742844D01*
X37437472Y-171119342D02*
X37356660Y-171146279D01*
X37275847Y-171227091D01*
X37221973Y-171334841D01*
X37221973Y-171442591D01*
X37248910Y-171523403D01*
X37329722Y-171658090D01*
X37410534Y-171738902D01*
X37545221Y-171819714D01*
X37626034Y-171846652D01*
X37733783Y-171846652D01*
X37841533Y-171792777D01*
X37895408Y-171738902D01*
X37949282Y-171631152D01*
X37949282Y-171577278D01*
X37760721Y-171388716D01*
X37652971Y-171496465D01*
X38245594Y-171388716D02*
X37679908Y-170823030D01*
X37895408Y-170607531D01*
X37976220Y-170580594D01*
X38030095Y-170580594D01*
X38110907Y-170607531D01*
X38191719Y-170688343D01*
X38218656Y-170769156D01*
X38218656Y-170823030D01*
X38191719Y-170903843D01*
X37976220Y-171119342D01*
X39107591Y-170526719D02*
X38784342Y-170849968D01*
X38945966Y-170688343D02*
X38380281Y-170122658D01*
X38407218Y-170257345D01*
X38407218Y-170365095D01*
X38380281Y-170445907D01*
X39646339Y-169987971D02*
X39323090Y-170311220D01*
X39484714Y-170149595D02*
X38919029Y-169583910D01*
X38945966Y-169718597D01*
X38945966Y-169826347D01*
X38919029Y-169907159D01*
X38106846Y-145449968D02*
X38026034Y-145476905D01*
X37945221Y-145557717D01*
X37891347Y-145665467D01*
X37891347Y-145773217D01*
X37918284Y-145854029D01*
X37999096Y-145988716D01*
X38079908Y-146069528D01*
X38214595Y-146150340D01*
X38295408Y-146177278D01*
X38403157Y-146177278D01*
X38510907Y-146123403D01*
X38564782Y-146069528D01*
X38618656Y-145961778D01*
X38618656Y-145907904D01*
X38430095Y-145719342D01*
X38322345Y-145827091D01*
X38914968Y-145719342D02*
X38349282Y-145153656D01*
X38564782Y-144938157D01*
X38645594Y-144911220D01*
X38699469Y-144911220D01*
X38780281Y-144938157D01*
X38861093Y-145018969D01*
X38888030Y-145099782D01*
X38888030Y-145153656D01*
X38861093Y-145234469D01*
X38645594Y-145449968D01*
X38861093Y-144641846D02*
X39211279Y-144291660D01*
X39238217Y-144695721D01*
X39319029Y-144614908D01*
X39399841Y-144587971D01*
X39453716Y-144587971D01*
X39534528Y-144614908D01*
X39669215Y-144749595D01*
X39696152Y-144830408D01*
X39696152Y-144884282D01*
X39669215Y-144965095D01*
X39507591Y-145126719D01*
X39426778Y-145153656D01*
X39372904Y-145153656D01*
X63679908Y-140396905D02*
X63599096Y-140423843D01*
X63518284Y-140504655D01*
X63464409Y-140612404D01*
X63464409Y-140720154D01*
X63491347Y-140800966D01*
X63572159Y-140935653D01*
X63652971Y-141016465D01*
X63787658Y-141097278D01*
X63868470Y-141124215D01*
X63976220Y-141124215D01*
X64083969Y-141070340D01*
X64137844Y-141016465D01*
X64191719Y-140908716D01*
X64191719Y-140854841D01*
X64003157Y-140666279D01*
X63895408Y-140774029D01*
X64488030Y-140666279D02*
X63922345Y-140100594D01*
X64811279Y-140343030D01*
X64245594Y-139777345D01*
X65080653Y-140073656D02*
X64514968Y-139507971D01*
X64649655Y-139373284D01*
X64757404Y-139319409D01*
X64865154Y-139319409D01*
X64945966Y-139346347D01*
X65080653Y-139427159D01*
X65161465Y-139507971D01*
X65242278Y-139642658D01*
X65269215Y-139723470D01*
X65269215Y-139831220D01*
X65215340Y-139938969D01*
X65080653Y-140073656D01*
X44084226Y-185822559D02*
X44198511Y-185860654D01*
X44388988Y-185860654D01*
X44465178Y-185822559D01*
X44503273Y-185784464D01*
X44541369Y-185708273D01*
X44541369Y-185632083D01*
X44503273Y-185555892D01*
X44465178Y-185517797D01*
X44388988Y-185479702D01*
X44236607Y-185441607D01*
X44160416Y-185403511D01*
X44122321Y-185365416D01*
X44084226Y-185289226D01*
X44084226Y-185213035D01*
X44122321Y-185136845D01*
X44160416Y-185098750D01*
X44236607Y-185060654D01*
X44427083Y-185060654D01*
X44541369Y-185098750D01*
X44808035Y-185060654D02*
X44998511Y-185860654D01*
X45150892Y-185289226D01*
X45303273Y-185860654D01*
X45493750Y-185060654D01*
X46255654Y-185784464D02*
X46217559Y-185822559D01*
X46103273Y-185860654D01*
X46027083Y-185860654D01*
X45912797Y-185822559D01*
X45836607Y-185746369D01*
X45798511Y-185670178D01*
X45760416Y-185517797D01*
X45760416Y-185403511D01*
X45798511Y-185251130D01*
X45836607Y-185174940D01*
X45912797Y-185098750D01*
X46027083Y-185060654D01*
X46103273Y-185060654D01*
X46217559Y-185098750D01*
X46255654Y-185136845D01*
X46979464Y-185860654D02*
X46598511Y-185860654D01*
X46598511Y-185060654D01*
X47246130Y-185860654D02*
X47246130Y-185060654D01*
X47703273Y-185860654D02*
X47360416Y-185403511D01*
X47703273Y-185060654D02*
X47246130Y-185517797D01*
X63748538Y-148832523D02*
X64017912Y-148563149D01*
X63856287Y-149048022D02*
X63479164Y-148293775D01*
X64233411Y-148670899D01*
X64421973Y-148482337D02*
X63856287Y-147916652D01*
X63990974Y-147781965D01*
X64098724Y-147728090D01*
X64206473Y-147728090D01*
X64287286Y-147755027D01*
X64421973Y-147835839D01*
X64502785Y-147916652D01*
X64583597Y-148051339D01*
X64610534Y-148132151D01*
X64610534Y-148239900D01*
X64556660Y-148347650D01*
X64421973Y-148482337D01*
X65257032Y-147539528D02*
X65257032Y-147593403D01*
X65203157Y-147701152D01*
X65149282Y-147755027D01*
X65041533Y-147808902D01*
X64933783Y-147808902D01*
X64852971Y-147781965D01*
X64718284Y-147701152D01*
X64637472Y-147620340D01*
X64556660Y-147485653D01*
X64529722Y-147404841D01*
X64529722Y-147297091D01*
X64583597Y-147189342D01*
X64637472Y-147135467D01*
X64745221Y-147081592D01*
X64799096Y-147081592D01*
X65472531Y-147539528D02*
X65903530Y-147108530D01*
X65337844Y-146435095D02*
X66092091Y-146812218D01*
X65714968Y-146057971D01*
X66792464Y-146111846D02*
X66334528Y-146031034D01*
X66469215Y-146435095D02*
X65903530Y-145869409D01*
X66119029Y-145653910D01*
X66199841Y-145626973D01*
X66253716Y-145626973D01*
X66334528Y-145653910D01*
X66415340Y-145734722D01*
X66442278Y-145815534D01*
X66442278Y-145869409D01*
X66415340Y-145950221D01*
X66199841Y-146165721D01*
X66738589Y-145573098D02*
X66927151Y-145384536D01*
X67304274Y-145600035D02*
X67034900Y-145869409D01*
X66469215Y-145303724D01*
X66738589Y-145034350D01*
X67438961Y-144872725D02*
X67250400Y-145061287D01*
X67546711Y-145357599D02*
X66981026Y-144791913D01*
X67250400Y-144522539D01*
X63691472Y-158419342D02*
X63610660Y-158446279D01*
X63529847Y-158527091D01*
X63475973Y-158634841D01*
X63475973Y-158742591D01*
X63502910Y-158823403D01*
X63583722Y-158958090D01*
X63664534Y-159038902D01*
X63799221Y-159119714D01*
X63880034Y-159146652D01*
X63987783Y-159146652D01*
X64095533Y-159092777D01*
X64149408Y-159038902D01*
X64203282Y-158931152D01*
X64203282Y-158877278D01*
X64014721Y-158688716D01*
X63906971Y-158796465D01*
X64499594Y-158688716D02*
X63933908Y-158123030D01*
X64149408Y-157907531D01*
X64230220Y-157880594D01*
X64284095Y-157880594D01*
X64364907Y-157907531D01*
X64445719Y-157988343D01*
X64472656Y-158069156D01*
X64472656Y-158123030D01*
X64445719Y-158203843D01*
X64230220Y-158419342D01*
X64526531Y-157638157D02*
X64526531Y-157584282D01*
X64553469Y-157503470D01*
X64688156Y-157368783D01*
X64768968Y-157341846D01*
X64822843Y-157341846D01*
X64903655Y-157368783D01*
X64957530Y-157422658D01*
X65011404Y-157530408D01*
X65011404Y-158176905D01*
X65361591Y-157826719D01*
X65280778Y-156776160D02*
X65173029Y-156883910D01*
X65146091Y-156964722D01*
X65146091Y-157018597D01*
X65173029Y-157153284D01*
X65253841Y-157287971D01*
X65469340Y-157503470D01*
X65550152Y-157530408D01*
X65604027Y-157530408D01*
X65684839Y-157503470D01*
X65792589Y-157395721D01*
X65819526Y-157314908D01*
X65819526Y-157261034D01*
X65792589Y-157180221D01*
X65657902Y-157045534D01*
X65577090Y-157018597D01*
X65523215Y-157018597D01*
X65442403Y-157045534D01*
X65334653Y-157153284D01*
X65307716Y-157234096D01*
X65307716Y-157287971D01*
X65334653Y-157368783D01*
X38079908Y-165796905D02*
X37999096Y-165823843D01*
X37918284Y-165904655D01*
X37864409Y-166012404D01*
X37864409Y-166120154D01*
X37891347Y-166200966D01*
X37972159Y-166335653D01*
X38052971Y-166416465D01*
X38187658Y-166497278D01*
X38268470Y-166524215D01*
X38376220Y-166524215D01*
X38483969Y-166470340D01*
X38537844Y-166416465D01*
X38591719Y-166308716D01*
X38591719Y-166254841D01*
X38403157Y-166066279D01*
X38295408Y-166174029D01*
X38888030Y-166066279D02*
X38322345Y-165500594D01*
X39211279Y-165743030D01*
X38645594Y-165177345D01*
X39480653Y-165473656D02*
X38914968Y-164907971D01*
X39049655Y-164773284D01*
X39157404Y-164719409D01*
X39265154Y-164719409D01*
X39345966Y-164746347D01*
X39480653Y-164827159D01*
X39561465Y-164907971D01*
X39642278Y-165042658D01*
X39669215Y-165123470D01*
X39669215Y-165231220D01*
X39615340Y-165338969D01*
X39480653Y-165473656D01*
X63546879Y-135826059D02*
X64301127Y-136203183D01*
X63924003Y-135448936D01*
X64570501Y-135341186D02*
X64678250Y-135287311D01*
X64732125Y-135287311D01*
X64812937Y-135314249D01*
X64893750Y-135395061D01*
X64920687Y-135475873D01*
X64920687Y-135529748D01*
X64893750Y-135610560D01*
X64678250Y-135826059D01*
X64112565Y-135260374D01*
X64301127Y-135071812D01*
X64381939Y-135044875D01*
X64435814Y-135044875D01*
X64516626Y-135071812D01*
X64570501Y-135125687D01*
X64597438Y-135206499D01*
X64597438Y-135260374D01*
X64570501Y-135341186D01*
X64381939Y-135529748D01*
X64678250Y-134694688D02*
X65136186Y-135152624D01*
X65216998Y-135179562D01*
X65270873Y-135179562D01*
X65351685Y-135152624D01*
X65459435Y-135044875D01*
X65486372Y-134964062D01*
X65486372Y-134910188D01*
X65459435Y-134829375D01*
X65001499Y-134371440D01*
X65782684Y-134667751D02*
X65890433Y-134613876D01*
X66025120Y-134479189D01*
X66052058Y-134398377D01*
X66052058Y-134344502D01*
X66025120Y-134263690D01*
X65971246Y-134209815D01*
X65890433Y-134182878D01*
X65836559Y-134182878D01*
X65755746Y-134209815D01*
X65621059Y-134290627D01*
X65540247Y-134317565D01*
X65486372Y-134317565D01*
X65405560Y-134290627D01*
X65351685Y-134236753D01*
X65324748Y-134155940D01*
X65324748Y-134102066D01*
X65351685Y-134021253D01*
X65486372Y-133886566D01*
X65594122Y-133832692D01*
X63691472Y-181279342D02*
X63610660Y-181306279D01*
X63529847Y-181387091D01*
X63475973Y-181494841D01*
X63475973Y-181602591D01*
X63502910Y-181683403D01*
X63583722Y-181818090D01*
X63664534Y-181898902D01*
X63799221Y-181979714D01*
X63880034Y-182006652D01*
X63987783Y-182006652D01*
X64095533Y-181952777D01*
X64149408Y-181898902D01*
X64203282Y-181791152D01*
X64203282Y-181737278D01*
X64014721Y-181548716D01*
X63906971Y-181656465D01*
X64499594Y-181548716D02*
X63933908Y-180983030D01*
X64149408Y-180767531D01*
X64230220Y-180740594D01*
X64284095Y-180740594D01*
X64364907Y-180767531D01*
X64445719Y-180848343D01*
X64472656Y-180929156D01*
X64472656Y-180983030D01*
X64445719Y-181063843D01*
X64230220Y-181279342D01*
X65361591Y-180686719D02*
X65038342Y-181009968D01*
X65199966Y-180848343D02*
X64634281Y-180282658D01*
X64661218Y-180417345D01*
X64661218Y-180525095D01*
X64634281Y-180605907D01*
X64984467Y-179932472D02*
X65361591Y-179555348D01*
X65684839Y-180363470D01*
X63515881Y-143257058D02*
X63866067Y-142906872D01*
X63893005Y-143310933D01*
X63973817Y-143230120D01*
X64054629Y-143203183D01*
X64108504Y-143203183D01*
X64189316Y-143230120D01*
X64324003Y-143364807D01*
X64350940Y-143445620D01*
X64350940Y-143499494D01*
X64324003Y-143580307D01*
X64162379Y-143741931D01*
X64081566Y-143768868D01*
X64027692Y-143768868D01*
X64027692Y-142745247D02*
X64781939Y-143122371D01*
X64404815Y-142368124D01*
X64539502Y-142233437D02*
X64889688Y-141883250D01*
X64916626Y-142287311D01*
X64997438Y-142206499D01*
X65078250Y-142179562D01*
X65132125Y-142179562D01*
X65212937Y-142206499D01*
X65347624Y-142341186D01*
X65374562Y-142421998D01*
X65374562Y-142475873D01*
X65347624Y-142556685D01*
X65186000Y-142718310D01*
X65105188Y-142745247D01*
X65051313Y-142745247D01*
X65616998Y-142395061D02*
X66047997Y-141964062D01*
X65832498Y-141479189D02*
X66021059Y-141290627D01*
X66398183Y-141506127D02*
X66128809Y-141775501D01*
X65563124Y-141209815D01*
X65832498Y-140940441D01*
X66640620Y-141263690D02*
X66074934Y-140698005D01*
X66963868Y-140940441D01*
X66398183Y-140374756D01*
X38079908Y-153096905D02*
X37999096Y-153123843D01*
X37918284Y-153204655D01*
X37864409Y-153312404D01*
X37864409Y-153420154D01*
X37891347Y-153500966D01*
X37972159Y-153635653D01*
X38052971Y-153716465D01*
X38187658Y-153797278D01*
X38268470Y-153824215D01*
X38376220Y-153824215D01*
X38483969Y-153770340D01*
X38537844Y-153716465D01*
X38591719Y-153608716D01*
X38591719Y-153554841D01*
X38403157Y-153366279D01*
X38295408Y-153474029D01*
X38888030Y-153366279D02*
X38322345Y-152800594D01*
X39211279Y-153043030D01*
X38645594Y-152477345D01*
X39480653Y-152773656D02*
X38914968Y-152207971D01*
X39049655Y-152073284D01*
X39157404Y-152019409D01*
X39265154Y-152019409D01*
X39345966Y-152046347D01*
X39480653Y-152127159D01*
X39561465Y-152207971D01*
X39642278Y-152342658D01*
X39669215Y-152423470D01*
X39669215Y-152531220D01*
X39615340Y-152638969D01*
X39480653Y-152773656D01*
X63691472Y-171119342D02*
X63610660Y-171146279D01*
X63529847Y-171227091D01*
X63475973Y-171334841D01*
X63475973Y-171442591D01*
X63502910Y-171523403D01*
X63583722Y-171658090D01*
X63664534Y-171738902D01*
X63799221Y-171819714D01*
X63880034Y-171846652D01*
X63987783Y-171846652D01*
X64095533Y-171792777D01*
X64149408Y-171738902D01*
X64203282Y-171631152D01*
X64203282Y-171577278D01*
X64014721Y-171388716D01*
X63906971Y-171496465D01*
X64499594Y-171388716D02*
X63933908Y-170823030D01*
X64149408Y-170607531D01*
X64230220Y-170580594D01*
X64284095Y-170580594D01*
X64364907Y-170607531D01*
X64445719Y-170688343D01*
X64472656Y-170769156D01*
X64472656Y-170823030D01*
X64445719Y-170903843D01*
X64230220Y-171119342D01*
X64526531Y-170338157D02*
X64526531Y-170284282D01*
X64553469Y-170203470D01*
X64688156Y-170068783D01*
X64768968Y-170041846D01*
X64822843Y-170041846D01*
X64903655Y-170068783D01*
X64957530Y-170122658D01*
X65011404Y-170230408D01*
X65011404Y-170876905D01*
X65361591Y-170526719D01*
X65146091Y-169610847D02*
X65199966Y-169556973D01*
X65280778Y-169530035D01*
X65334653Y-169530035D01*
X65415465Y-169556973D01*
X65550152Y-169637785D01*
X65684839Y-169772472D01*
X65765652Y-169907159D01*
X65792589Y-169987971D01*
X65792589Y-170041846D01*
X65765652Y-170122658D01*
X65711777Y-170176533D01*
X65630965Y-170203470D01*
X65577090Y-170203470D01*
X65496278Y-170176533D01*
X65361591Y-170095721D01*
X65226904Y-169961034D01*
X65146091Y-169826347D01*
X65119154Y-169745534D01*
X65119154Y-169691660D01*
X65146091Y-169610847D01*
X38106846Y-155609968D02*
X38026034Y-155636905D01*
X37945221Y-155717717D01*
X37891347Y-155825467D01*
X37891347Y-155933217D01*
X37918284Y-156014029D01*
X37999096Y-156148716D01*
X38079908Y-156229528D01*
X38214595Y-156310340D01*
X38295408Y-156337278D01*
X38403157Y-156337278D01*
X38510907Y-156283403D01*
X38564782Y-156229528D01*
X38618656Y-156121778D01*
X38618656Y-156067904D01*
X38430095Y-155879342D01*
X38322345Y-155987091D01*
X38914968Y-155879342D02*
X38349282Y-155313656D01*
X38564782Y-155098157D01*
X38645594Y-155071220D01*
X38699469Y-155071220D01*
X38780281Y-155098157D01*
X38861093Y-155178969D01*
X38888030Y-155259782D01*
X38888030Y-155313656D01*
X38861093Y-155394469D01*
X38645594Y-155609968D01*
X39157404Y-154505534D02*
X39049655Y-154613284D01*
X39022717Y-154694096D01*
X39022717Y-154747971D01*
X39049655Y-154882658D01*
X39130467Y-155017345D01*
X39345966Y-155232844D01*
X39426778Y-155259782D01*
X39480653Y-155259782D01*
X39561465Y-155232844D01*
X39669215Y-155125095D01*
X39696152Y-155044282D01*
X39696152Y-154990408D01*
X39669215Y-154909595D01*
X39534528Y-154774908D01*
X39453716Y-154747971D01*
X39399841Y-154747971D01*
X39319029Y-154774908D01*
X39211279Y-154882658D01*
X39184342Y-154963470D01*
X39184342Y-155017345D01*
X39211279Y-155098157D01*
X63679908Y-178496905D02*
X63599096Y-178523843D01*
X63518284Y-178604655D01*
X63464409Y-178712404D01*
X63464409Y-178820154D01*
X63491347Y-178900966D01*
X63572159Y-179035653D01*
X63652971Y-179116465D01*
X63787658Y-179197278D01*
X63868470Y-179224215D01*
X63976220Y-179224215D01*
X64083969Y-179170340D01*
X64137844Y-179116465D01*
X64191719Y-179008716D01*
X64191719Y-178954841D01*
X64003157Y-178766279D01*
X63895408Y-178874029D01*
X64488030Y-178766279D02*
X63922345Y-178200594D01*
X64811279Y-178443030D01*
X64245594Y-177877345D01*
X65080653Y-178173656D02*
X64514968Y-177607971D01*
X64649655Y-177473284D01*
X64757404Y-177419409D01*
X64865154Y-177419409D01*
X64945966Y-177446347D01*
X65080653Y-177527159D01*
X65161465Y-177607971D01*
X65242278Y-177742658D01*
X65269215Y-177823470D01*
X65269215Y-177931220D01*
X65215340Y-178038969D01*
X65080653Y-178173656D01*
X37583472Y-168579342D02*
X37502660Y-168606279D01*
X37421847Y-168687091D01*
X37367973Y-168794841D01*
X37367973Y-168902591D01*
X37394910Y-168983403D01*
X37475722Y-169118090D01*
X37556534Y-169198902D01*
X37691221Y-169279714D01*
X37772034Y-169306652D01*
X37879783Y-169306652D01*
X37987533Y-169252777D01*
X38041408Y-169198902D01*
X38095282Y-169091152D01*
X38095282Y-169037278D01*
X37906721Y-168848716D01*
X37798971Y-168956465D01*
X38391594Y-168848716D02*
X37825908Y-168283030D01*
X38041408Y-168067531D01*
X38122220Y-168040594D01*
X38176095Y-168040594D01*
X38256907Y-168067531D01*
X38337719Y-168148343D01*
X38364656Y-168229156D01*
X38364656Y-168283030D01*
X38337719Y-168363843D01*
X38122220Y-168579342D01*
X39253591Y-167986719D02*
X38930342Y-168309968D01*
X39091966Y-168148343D02*
X38526281Y-167582658D01*
X38553218Y-167717345D01*
X38553218Y-167825095D01*
X38526281Y-167905907D01*
X39038091Y-167070847D02*
X39091966Y-167016973D01*
X39172778Y-166990035D01*
X39226653Y-166990035D01*
X39307465Y-167016973D01*
X39442152Y-167097785D01*
X39576839Y-167232472D01*
X39657652Y-167367159D01*
X39684589Y-167447971D01*
X39684589Y-167501846D01*
X39657652Y-167582658D01*
X39603777Y-167636533D01*
X39522965Y-167663470D01*
X39469090Y-167663470D01*
X39388278Y-167636533D01*
X39253591Y-167555721D01*
X39118904Y-167421034D01*
X39038091Y-167286347D01*
X39011154Y-167205534D01*
X39011154Y-167151660D01*
X39038091Y-167070847D01*
X38106846Y-135289968D02*
X38026034Y-135316905D01*
X37945221Y-135397717D01*
X37891347Y-135505467D01*
X37891347Y-135613217D01*
X37918284Y-135694029D01*
X37999096Y-135828716D01*
X38079908Y-135909528D01*
X38214595Y-135990340D01*
X38295408Y-136017278D01*
X38403157Y-136017278D01*
X38510907Y-135963403D01*
X38564782Y-135909528D01*
X38618656Y-135801778D01*
X38618656Y-135747904D01*
X38430095Y-135559342D01*
X38322345Y-135667091D01*
X38914968Y-135559342D02*
X38349282Y-134993656D01*
X38564782Y-134778157D01*
X38645594Y-134751220D01*
X38699469Y-134751220D01*
X38780281Y-134778157D01*
X38861093Y-134858969D01*
X38888030Y-134939782D01*
X38888030Y-134993656D01*
X38861093Y-135074469D01*
X38645594Y-135289968D01*
X39022717Y-134320221D02*
X39076592Y-134266347D01*
X39157404Y-134239409D01*
X39211279Y-134239409D01*
X39292091Y-134266347D01*
X39426778Y-134347159D01*
X39561465Y-134481846D01*
X39642278Y-134616533D01*
X39669215Y-134697345D01*
X39669215Y-134751220D01*
X39642278Y-134832032D01*
X39588403Y-134885907D01*
X39507591Y-134912844D01*
X39453716Y-134912844D01*
X39372904Y-134885907D01*
X39238217Y-134805095D01*
X39103530Y-134670408D01*
X39022717Y-134535721D01*
X38995780Y-134454908D01*
X38995780Y-134401034D01*
X39022717Y-134320221D01*
X63745347Y-154039714D02*
X64014721Y-153770340D01*
X63853096Y-154255213D02*
X63475973Y-153500966D01*
X64230220Y-153878090D01*
X64176345Y-152854469D02*
X64095533Y-152881406D01*
X64014721Y-152962218D01*
X63960846Y-153069968D01*
X63960846Y-153177717D01*
X63987783Y-153258530D01*
X64068595Y-153393217D01*
X64149408Y-153474029D01*
X64284095Y-153554841D01*
X64364907Y-153581778D01*
X64472656Y-153581778D01*
X64580406Y-153527904D01*
X64634281Y-153474029D01*
X64688156Y-153366279D01*
X64688156Y-153312404D01*
X64499594Y-153123843D01*
X64391844Y-153231592D01*
X64984467Y-153123843D02*
X64418782Y-152558157D01*
X65307716Y-152800594D01*
X64742030Y-152234908D01*
X65577090Y-152531220D02*
X65011404Y-151965534D01*
X65146091Y-151830847D01*
X65253841Y-151776973D01*
X65361591Y-151776973D01*
X65442403Y-151803910D01*
X65577090Y-151884722D01*
X65657902Y-151965534D01*
X65738714Y-152100221D01*
X65765652Y-152181034D01*
X65765652Y-152288783D01*
X65711777Y-152396533D01*
X65577090Y-152531220D01*
X63691472Y-155889342D02*
X63610660Y-155916279D01*
X63529847Y-155997091D01*
X63475973Y-156104841D01*
X63475973Y-156212591D01*
X63502910Y-156293403D01*
X63583722Y-156428090D01*
X63664534Y-156508902D01*
X63799221Y-156589714D01*
X63880034Y-156616652D01*
X63987783Y-156616652D01*
X64095533Y-156562777D01*
X64149408Y-156508902D01*
X64203282Y-156401152D01*
X64203282Y-156347278D01*
X64014721Y-156158716D01*
X63906971Y-156266465D01*
X64499594Y-156158716D02*
X63933908Y-155593030D01*
X64149408Y-155377531D01*
X64230220Y-155350594D01*
X64284095Y-155350594D01*
X64364907Y-155377531D01*
X64445719Y-155458343D01*
X64472656Y-155539156D01*
X64472656Y-155593030D01*
X64445719Y-155673843D01*
X64230220Y-155889342D01*
X64526531Y-155108157D02*
X64526531Y-155054282D01*
X64553469Y-154973470D01*
X64688156Y-154838783D01*
X64768968Y-154811846D01*
X64822843Y-154811846D01*
X64903655Y-154838783D01*
X64957530Y-154892658D01*
X65011404Y-155000408D01*
X65011404Y-155646905D01*
X65361591Y-155296719D01*
X64984467Y-154542472D02*
X65361591Y-154165348D01*
X65684839Y-154973470D01*
X38106846Y-147989968D02*
X38026034Y-148016905D01*
X37945221Y-148097717D01*
X37891347Y-148205467D01*
X37891347Y-148313217D01*
X37918284Y-148394029D01*
X37999096Y-148528716D01*
X38079908Y-148609528D01*
X38214595Y-148690340D01*
X38295408Y-148717278D01*
X38403157Y-148717278D01*
X38510907Y-148663403D01*
X38564782Y-148609528D01*
X38618656Y-148501778D01*
X38618656Y-148447904D01*
X38430095Y-148259342D01*
X38322345Y-148367091D01*
X38914968Y-148259342D02*
X38349282Y-147693656D01*
X38564782Y-147478157D01*
X38645594Y-147451220D01*
X38699469Y-147451220D01*
X38780281Y-147478157D01*
X38861093Y-147558969D01*
X38888030Y-147639782D01*
X38888030Y-147693656D01*
X38861093Y-147774469D01*
X38645594Y-147989968D01*
X39345966Y-147074096D02*
X39723090Y-147451220D01*
X38995780Y-146993284D02*
X39265154Y-147532032D01*
X39615340Y-147181846D01*
X38079908Y-178496905D02*
X37999096Y-178523843D01*
X37918284Y-178604655D01*
X37864409Y-178712404D01*
X37864409Y-178820154D01*
X37891347Y-178900966D01*
X37972159Y-179035653D01*
X38052971Y-179116465D01*
X38187658Y-179197278D01*
X38268470Y-179224215D01*
X38376220Y-179224215D01*
X38483969Y-179170340D01*
X38537844Y-179116465D01*
X38591719Y-179008716D01*
X38591719Y-178954841D01*
X38403157Y-178766279D01*
X38295408Y-178874029D01*
X38888030Y-178766279D02*
X38322345Y-178200594D01*
X39211279Y-178443030D01*
X38645594Y-177877345D01*
X39480653Y-178173656D02*
X38914968Y-177607971D01*
X39049655Y-177473284D01*
X39157404Y-177419409D01*
X39265154Y-177419409D01*
X39345966Y-177446347D01*
X39480653Y-177527159D01*
X39561465Y-177607971D01*
X39642278Y-177742658D01*
X39669215Y-177823470D01*
X39669215Y-177931220D01*
X39615340Y-178038969D01*
X39480653Y-178173656D01*
X63691472Y-163499342D02*
X63610660Y-163526279D01*
X63529847Y-163607091D01*
X63475973Y-163714841D01*
X63475973Y-163822591D01*
X63502910Y-163903403D01*
X63583722Y-164038090D01*
X63664534Y-164118902D01*
X63799221Y-164199714D01*
X63880034Y-164226652D01*
X63987783Y-164226652D01*
X64095533Y-164172777D01*
X64149408Y-164118902D01*
X64203282Y-164011152D01*
X64203282Y-163957278D01*
X64014721Y-163768716D01*
X63906971Y-163876465D01*
X64499594Y-163768716D02*
X63933908Y-163203030D01*
X64149408Y-162987531D01*
X64230220Y-162960594D01*
X64284095Y-162960594D01*
X64364907Y-162987531D01*
X64445719Y-163068343D01*
X64472656Y-163149156D01*
X64472656Y-163203030D01*
X64445719Y-163283843D01*
X64230220Y-163499342D01*
X64526531Y-162718157D02*
X64526531Y-162664282D01*
X64553469Y-162583470D01*
X64688156Y-162448783D01*
X64768968Y-162421846D01*
X64822843Y-162421846D01*
X64903655Y-162448783D01*
X64957530Y-162502658D01*
X65011404Y-162610408D01*
X65011404Y-163256905D01*
X65361591Y-162906719D01*
X65065279Y-162179409D02*
X65065279Y-162125534D01*
X65092217Y-162044722D01*
X65226904Y-161910035D01*
X65307716Y-161883098D01*
X65361591Y-161883098D01*
X65442403Y-161910035D01*
X65496278Y-161963910D01*
X65550152Y-162071660D01*
X65550152Y-162718157D01*
X65900339Y-162367971D01*
X37537472Y-181279342D02*
X37456660Y-181306279D01*
X37375847Y-181387091D01*
X37321973Y-181494841D01*
X37321973Y-181602591D01*
X37348910Y-181683403D01*
X37429722Y-181818090D01*
X37510534Y-181898902D01*
X37645221Y-181979714D01*
X37726034Y-182006652D01*
X37833783Y-182006652D01*
X37941533Y-181952777D01*
X37995408Y-181898902D01*
X38049282Y-181791152D01*
X38049282Y-181737278D01*
X37860721Y-181548716D01*
X37752971Y-181656465D01*
X38345594Y-181548716D02*
X37779908Y-180983030D01*
X37995408Y-180767531D01*
X38076220Y-180740594D01*
X38130095Y-180740594D01*
X38210907Y-180767531D01*
X38291719Y-180848343D01*
X38318656Y-180929156D01*
X38318656Y-180983030D01*
X38291719Y-181063843D01*
X38076220Y-181279342D01*
X39207591Y-180686719D02*
X38884342Y-181009968D01*
X39045966Y-180848343D02*
X38480281Y-180282658D01*
X38507218Y-180417345D01*
X38507218Y-180525095D01*
X38480281Y-180605907D01*
X39315340Y-179824722D02*
X39692464Y-180201846D01*
X38965154Y-179743910D02*
X39234528Y-180282658D01*
X39584714Y-179932472D01*
X63679908Y-165796905D02*
X63599096Y-165823843D01*
X63518284Y-165904655D01*
X63464409Y-166012404D01*
X63464409Y-166120154D01*
X63491347Y-166200966D01*
X63572159Y-166335653D01*
X63652971Y-166416465D01*
X63787658Y-166497278D01*
X63868470Y-166524215D01*
X63976220Y-166524215D01*
X64083969Y-166470340D01*
X64137844Y-166416465D01*
X64191719Y-166308716D01*
X64191719Y-166254841D01*
X64003157Y-166066279D01*
X63895408Y-166174029D01*
X64488030Y-166066279D02*
X63922345Y-165500594D01*
X64811279Y-165743030D01*
X64245594Y-165177345D01*
X65080653Y-165473656D02*
X64514968Y-164907971D01*
X64649655Y-164773284D01*
X64757404Y-164719409D01*
X64865154Y-164719409D01*
X64945966Y-164746347D01*
X65080653Y-164827159D01*
X65161465Y-164907971D01*
X65242278Y-165042658D01*
X65269215Y-165123470D01*
X65269215Y-165231220D01*
X65215340Y-165338969D01*
X65080653Y-165473656D01*
X63483597Y-145789342D02*
X63833783Y-145439156D01*
X63860721Y-145843217D01*
X63941533Y-145762404D01*
X64022345Y-145735467D01*
X64076220Y-145735467D01*
X64157032Y-145762404D01*
X64291719Y-145897091D01*
X64318656Y-145977904D01*
X64318656Y-146031778D01*
X64291719Y-146112591D01*
X64130095Y-146274215D01*
X64049282Y-146301152D01*
X63995408Y-146301152D01*
X63995408Y-145277531D02*
X64749655Y-145654655D01*
X64372531Y-144900408D01*
X64507218Y-144765721D02*
X64857404Y-144415534D01*
X64884342Y-144819595D01*
X64965154Y-144738783D01*
X65045966Y-144711846D01*
X65099841Y-144711846D01*
X65180653Y-144738783D01*
X65315340Y-144873470D01*
X65342278Y-144954282D01*
X65342278Y-145008157D01*
X65315340Y-145088969D01*
X65153716Y-145250594D01*
X65072904Y-145277531D01*
X65019029Y-145277531D01*
X63691472Y-168589342D02*
X63610660Y-168616279D01*
X63529847Y-168697091D01*
X63475973Y-168804841D01*
X63475973Y-168912591D01*
X63502910Y-168993403D01*
X63583722Y-169128090D01*
X63664534Y-169208902D01*
X63799221Y-169289714D01*
X63880034Y-169316652D01*
X63987783Y-169316652D01*
X64095533Y-169262777D01*
X64149408Y-169208902D01*
X64203282Y-169101152D01*
X64203282Y-169047278D01*
X64014721Y-168858716D01*
X63906971Y-168966465D01*
X64499594Y-168858716D02*
X63933908Y-168293030D01*
X64149408Y-168077531D01*
X64230220Y-168050594D01*
X64284095Y-168050594D01*
X64364907Y-168077531D01*
X64445719Y-168158343D01*
X64472656Y-168239156D01*
X64472656Y-168293030D01*
X64445719Y-168373843D01*
X64230220Y-168589342D01*
X64526531Y-167808157D02*
X64526531Y-167754282D01*
X64553469Y-167673470D01*
X64688156Y-167538783D01*
X64768968Y-167511846D01*
X64822843Y-167511846D01*
X64903655Y-167538783D01*
X64957530Y-167592658D01*
X65011404Y-167700408D01*
X65011404Y-168346905D01*
X65361591Y-167996719D01*
X65900339Y-167457971D02*
X65577090Y-167781220D01*
X65738714Y-167619595D02*
X65173029Y-167053910D01*
X65199966Y-167188597D01*
X65199966Y-167296347D01*
X65173029Y-167377159D01*
X37583472Y-176199342D02*
X37502660Y-176226279D01*
X37421847Y-176307091D01*
X37367973Y-176414841D01*
X37367973Y-176522591D01*
X37394910Y-176603403D01*
X37475722Y-176738090D01*
X37556534Y-176818902D01*
X37691221Y-176899714D01*
X37772034Y-176926652D01*
X37879783Y-176926652D01*
X37987533Y-176872777D01*
X38041408Y-176818902D01*
X38095282Y-176711152D01*
X38095282Y-176657278D01*
X37906721Y-176468716D01*
X37798971Y-176576465D01*
X38391594Y-176468716D02*
X37825908Y-175903030D01*
X38041408Y-175687531D01*
X38122220Y-175660594D01*
X38176095Y-175660594D01*
X38256907Y-175687531D01*
X38337719Y-175768343D01*
X38364656Y-175849156D01*
X38364656Y-175903030D01*
X38337719Y-175983843D01*
X38122220Y-176199342D01*
X39253591Y-175606719D02*
X38930342Y-175929968D01*
X39091966Y-175768343D02*
X38526281Y-175202658D01*
X38553218Y-175337345D01*
X38553218Y-175445095D01*
X38526281Y-175525907D01*
X38876467Y-174852472D02*
X39226653Y-174502286D01*
X39253591Y-174906347D01*
X39334403Y-174825534D01*
X39415215Y-174798597D01*
X39469090Y-174798597D01*
X39549902Y-174825534D01*
X39684589Y-174960221D01*
X39711526Y-175041034D01*
X39711526Y-175094908D01*
X39684589Y-175175721D01*
X39522965Y-175337345D01*
X39442152Y-175364282D01*
X39388278Y-175364282D01*
X63691472Y-173659342D02*
X63610660Y-173686279D01*
X63529847Y-173767091D01*
X63475973Y-173874841D01*
X63475973Y-173982591D01*
X63502910Y-174063403D01*
X63583722Y-174198090D01*
X63664534Y-174278902D01*
X63799221Y-174359714D01*
X63880034Y-174386652D01*
X63987783Y-174386652D01*
X64095533Y-174332777D01*
X64149408Y-174278902D01*
X64203282Y-174171152D01*
X64203282Y-174117278D01*
X64014721Y-173928716D01*
X63906971Y-174036465D01*
X64499594Y-173928716D02*
X63933908Y-173363030D01*
X64149408Y-173147531D01*
X64230220Y-173120594D01*
X64284095Y-173120594D01*
X64364907Y-173147531D01*
X64445719Y-173228343D01*
X64472656Y-173309156D01*
X64472656Y-173363030D01*
X64445719Y-173443843D01*
X64230220Y-173659342D01*
X65361591Y-173066719D02*
X65038342Y-173389968D01*
X65199966Y-173228343D02*
X64634281Y-172662658D01*
X64661218Y-172797345D01*
X64661218Y-172905095D01*
X64634281Y-172985907D01*
X65630965Y-172797345D02*
X65738714Y-172689595D01*
X65765652Y-172608783D01*
X65765652Y-172554908D01*
X65738714Y-172420221D01*
X65657902Y-172285534D01*
X65442403Y-172070035D01*
X65361591Y-172043098D01*
X65307716Y-172043098D01*
X65226904Y-172070035D01*
X65119154Y-172177785D01*
X65092217Y-172258597D01*
X65092217Y-172312472D01*
X65119154Y-172393284D01*
X65253841Y-172527971D01*
X65334653Y-172554908D01*
X65388528Y-172554908D01*
X65469340Y-172527971D01*
X65577090Y-172420221D01*
X65604027Y-172339409D01*
X65604027Y-172285534D01*
X65577090Y-172204722D01*
X38106846Y-160689968D02*
X38026034Y-160716905D01*
X37945221Y-160797717D01*
X37891347Y-160905467D01*
X37891347Y-161013217D01*
X37918284Y-161094029D01*
X37999096Y-161228716D01*
X38079908Y-161309528D01*
X38214595Y-161390340D01*
X38295408Y-161417278D01*
X38403157Y-161417278D01*
X38510907Y-161363403D01*
X38564782Y-161309528D01*
X38618656Y-161201778D01*
X38618656Y-161147904D01*
X38430095Y-160959342D01*
X38322345Y-161067091D01*
X38914968Y-160959342D02*
X38349282Y-160393656D01*
X38564782Y-160178157D01*
X38645594Y-160151220D01*
X38699469Y-160151220D01*
X38780281Y-160178157D01*
X38861093Y-160258969D01*
X38888030Y-160339782D01*
X38888030Y-160393656D01*
X38861093Y-160474469D01*
X38645594Y-160689968D01*
X39238217Y-159989595D02*
X39157404Y-160016533D01*
X39103530Y-160016533D01*
X39022717Y-159989595D01*
X38995780Y-159962658D01*
X38968843Y-159881846D01*
X38968843Y-159827971D01*
X38995780Y-159747159D01*
X39103530Y-159639409D01*
X39184342Y-159612472D01*
X39238217Y-159612472D01*
X39319029Y-159639409D01*
X39345966Y-159666347D01*
X39372904Y-159747159D01*
X39372904Y-159801034D01*
X39345966Y-159881846D01*
X39238217Y-159989595D01*
X39211279Y-160070408D01*
X39211279Y-160124282D01*
X39238217Y-160205095D01*
X39345966Y-160312844D01*
X39426778Y-160339782D01*
X39480653Y-160339782D01*
X39561465Y-160312844D01*
X39669215Y-160205095D01*
X39696152Y-160124282D01*
X39696152Y-160070408D01*
X39669215Y-159989595D01*
X39561465Y-159881846D01*
X39480653Y-159854908D01*
X39426778Y-159854908D01*
X39345966Y-159881846D01*
X38006846Y-142909968D02*
X37926034Y-142936905D01*
X37845221Y-143017717D01*
X37791347Y-143125467D01*
X37791347Y-143233217D01*
X37818284Y-143314029D01*
X37899096Y-143448716D01*
X37979908Y-143529528D01*
X38114595Y-143610340D01*
X38195408Y-143637278D01*
X38303157Y-143637278D01*
X38410907Y-143583403D01*
X38464782Y-143529528D01*
X38518656Y-143421778D01*
X38518656Y-143367904D01*
X38330095Y-143179342D01*
X38222345Y-143287091D01*
X38814968Y-143179342D02*
X38249282Y-142613656D01*
X38464782Y-142398157D01*
X38545594Y-142371220D01*
X38599469Y-142371220D01*
X38680281Y-142398157D01*
X38761093Y-142478969D01*
X38788030Y-142559782D01*
X38788030Y-142613656D01*
X38761093Y-142694469D01*
X38545594Y-142909968D01*
X38841905Y-142128783D02*
X38841905Y-142074908D01*
X38868843Y-141994096D01*
X39003530Y-141859409D01*
X39084342Y-141832472D01*
X39138217Y-141832472D01*
X39219029Y-141859409D01*
X39272904Y-141913284D01*
X39326778Y-142021034D01*
X39326778Y-142667531D01*
X39676965Y-142317345D01*
X38106846Y-163229968D02*
X38026034Y-163256905D01*
X37945221Y-163337717D01*
X37891347Y-163445467D01*
X37891347Y-163553217D01*
X37918284Y-163634029D01*
X37999096Y-163768716D01*
X38079908Y-163849528D01*
X38214595Y-163930340D01*
X38295408Y-163957278D01*
X38403157Y-163957278D01*
X38510907Y-163903403D01*
X38564782Y-163849528D01*
X38618656Y-163741778D01*
X38618656Y-163687904D01*
X38430095Y-163499342D01*
X38322345Y-163607091D01*
X38914968Y-163499342D02*
X38349282Y-162933656D01*
X38564782Y-162718157D01*
X38645594Y-162691220D01*
X38699469Y-162691220D01*
X38780281Y-162718157D01*
X38861093Y-162798969D01*
X38888030Y-162879782D01*
X38888030Y-162933656D01*
X38861093Y-163014469D01*
X38645594Y-163229968D01*
X39507591Y-162906719D02*
X39615340Y-162798969D01*
X39642278Y-162718157D01*
X39642278Y-162664282D01*
X39615340Y-162529595D01*
X39534528Y-162394908D01*
X39319029Y-162179409D01*
X39238217Y-162152472D01*
X39184342Y-162152472D01*
X39103530Y-162179409D01*
X38995780Y-162287159D01*
X38968843Y-162367971D01*
X38968843Y-162421846D01*
X38995780Y-162502658D01*
X39130467Y-162637345D01*
X39211279Y-162664282D01*
X39265154Y-162664282D01*
X39345966Y-162637345D01*
X39453716Y-162529595D01*
X39480653Y-162448783D01*
X39480653Y-162394908D01*
X39453716Y-162314096D01*
X60991369Y-129476488D02*
X60943750Y-129571726D01*
X60848511Y-129666964D01*
X60705654Y-129809821D01*
X60658035Y-129905059D01*
X60658035Y-130000297D01*
X60896130Y-129952678D02*
X60848511Y-130047916D01*
X60753273Y-130143154D01*
X60562797Y-130190773D01*
X60229464Y-130190773D01*
X60038988Y-130143154D01*
X59943750Y-130047916D01*
X59896130Y-129952678D01*
X59896130Y-129762202D01*
X59943750Y-129666964D01*
X60038988Y-129571726D01*
X60229464Y-129524107D01*
X60562797Y-129524107D01*
X60753273Y-129571726D01*
X60848511Y-129666964D01*
X60896130Y-129762202D01*
X60896130Y-129952678D01*
X60896130Y-128571726D02*
X60896130Y-129143154D01*
X60896130Y-128857440D02*
X59896130Y-128857440D01*
X60038988Y-128952678D01*
X60134226Y-129047916D01*
X60181845Y-129143154D01*
X58467857Y-117071130D02*
X58134523Y-116594940D01*
X57896428Y-117071130D02*
X57896428Y-116071130D01*
X58277380Y-116071130D01*
X58372619Y-116118750D01*
X58420238Y-116166369D01*
X58467857Y-116261607D01*
X58467857Y-116404464D01*
X58420238Y-116499702D01*
X58372619Y-116547321D01*
X58277380Y-116594940D01*
X57896428Y-116594940D01*
X58658333Y-117166369D02*
X59420238Y-117166369D01*
X60086904Y-116404464D02*
X60086904Y-117071130D01*
X59658333Y-116404464D02*
X59658333Y-116928273D01*
X59705952Y-117023511D01*
X59801190Y-117071130D01*
X59944047Y-117071130D01*
X60039285Y-117023511D01*
X60086904Y-116975892D01*
X60515476Y-117023511D02*
X60610714Y-117071130D01*
X60801190Y-117071130D01*
X60896428Y-117023511D01*
X60944047Y-116928273D01*
X60944047Y-116880654D01*
X60896428Y-116785416D01*
X60801190Y-116737797D01*
X60658333Y-116737797D01*
X60563095Y-116690178D01*
X60515476Y-116594940D01*
X60515476Y-116547321D01*
X60563095Y-116452083D01*
X60658333Y-116404464D01*
X60801190Y-116404464D01*
X60896428Y-116452083D01*
X61372619Y-117071130D02*
X61372619Y-116071130D01*
X61372619Y-116452083D02*
X61467857Y-116404464D01*
X61658333Y-116404464D01*
X61753571Y-116452083D01*
X61801190Y-116499702D01*
X61848809Y-116594940D01*
X61848809Y-116880654D01*
X61801190Y-116975892D01*
X61753571Y-117023511D01*
X61658333Y-117071130D01*
X61467857Y-117071130D01*
X61372619Y-117023511D01*
X62801190Y-117071130D02*
X62229761Y-117071130D01*
X62515476Y-117071130D02*
X62515476Y-116071130D01*
X62420238Y-116213988D01*
X62325000Y-116309226D01*
X62229761Y-116356845D01*
X49878869Y-129476488D02*
X49831250Y-129571726D01*
X49736011Y-129666964D01*
X49593154Y-129809821D01*
X49545535Y-129905059D01*
X49545535Y-130000297D01*
X49783630Y-129952678D02*
X49736011Y-130047916D01*
X49640773Y-130143154D01*
X49450297Y-130190773D01*
X49116964Y-130190773D01*
X48926488Y-130143154D01*
X48831250Y-130047916D01*
X48783630Y-129952678D01*
X48783630Y-129762202D01*
X48831250Y-129666964D01*
X48926488Y-129571726D01*
X49116964Y-129524107D01*
X49450297Y-129524107D01*
X49640773Y-129571726D01*
X49736011Y-129666964D01*
X49783630Y-129762202D01*
X49783630Y-129952678D01*
X48878869Y-129143154D02*
X48831250Y-129095535D01*
X48783630Y-129000297D01*
X48783630Y-128762202D01*
X48831250Y-128666964D01*
X48878869Y-128619345D01*
X48974107Y-128571726D01*
X49069345Y-128571726D01*
X49212202Y-128619345D01*
X49783630Y-129190773D01*
X49783630Y-128571726D01*
X57674107Y-122689880D02*
X57340773Y-122213690D01*
X57102678Y-122689880D02*
X57102678Y-121689880D01*
X57483630Y-121689880D01*
X57578869Y-121737500D01*
X57626488Y-121785119D01*
X57674107Y-121880357D01*
X57674107Y-122023214D01*
X57626488Y-122118452D01*
X57578869Y-122166071D01*
X57483630Y-122213690D01*
X57102678Y-122213690D01*
X57864583Y-122785119D02*
X58626488Y-122785119D01*
X59293154Y-122023214D02*
X59293154Y-122689880D01*
X58864583Y-122023214D02*
X58864583Y-122547023D01*
X58912202Y-122642261D01*
X59007440Y-122689880D01*
X59150297Y-122689880D01*
X59245535Y-122642261D01*
X59293154Y-122594642D01*
X59721726Y-122642261D02*
X59816964Y-122689880D01*
X60007440Y-122689880D01*
X60102678Y-122642261D01*
X60150297Y-122547023D01*
X60150297Y-122499404D01*
X60102678Y-122404166D01*
X60007440Y-122356547D01*
X59864583Y-122356547D01*
X59769345Y-122308928D01*
X59721726Y-122213690D01*
X59721726Y-122166071D01*
X59769345Y-122070833D01*
X59864583Y-122023214D01*
X60007440Y-122023214D01*
X60102678Y-122070833D01*
X60578869Y-122689880D02*
X60578869Y-121689880D01*
X60578869Y-122070833D02*
X60674107Y-122023214D01*
X60864583Y-122023214D01*
X60959821Y-122070833D01*
X61007440Y-122118452D01*
X61055059Y-122213690D01*
X61055059Y-122499404D01*
X61007440Y-122594642D01*
X60959821Y-122642261D01*
X60864583Y-122689880D01*
X60674107Y-122689880D01*
X60578869Y-122642261D01*
X61436011Y-121785119D02*
X61483630Y-121737500D01*
X61578869Y-121689880D01*
X61816964Y-121689880D01*
X61912202Y-121737500D01*
X61959821Y-121785119D01*
X62007440Y-121880357D01*
X62007440Y-121975595D01*
X61959821Y-122118452D01*
X61388392Y-122689880D01*
X62007440Y-122689880D01*
X471043154Y-236758630D02*
X471043154Y-235758630D01*
X471043154Y-236234821D02*
X471614583Y-236234821D01*
X471614583Y-236758630D02*
X471614583Y-235758630D01*
X472614583Y-236758630D02*
X472043154Y-236758630D01*
X472328869Y-236758630D02*
X472328869Y-235758630D01*
X472233630Y-235901488D01*
X472138392Y-235996726D01*
X472043154Y-236044345D01*
X473471726Y-235758630D02*
X473281250Y-235758630D01*
X473186011Y-235806250D01*
X473138392Y-235853869D01*
X473043154Y-235996726D01*
X472995535Y-236187202D01*
X472995535Y-236568154D01*
X473043154Y-236663392D01*
X473090773Y-236711011D01*
X473186011Y-236758630D01*
X473376488Y-236758630D01*
X473471726Y-236711011D01*
X473519345Y-236663392D01*
X473566964Y-236568154D01*
X473566964Y-236330059D01*
X473519345Y-236234821D01*
X473471726Y-236187202D01*
X473376488Y-236139583D01*
X473186011Y-236139583D01*
X473090773Y-236187202D01*
X473043154Y-236234821D01*
X472995535Y-236330059D01*
D11*
X52103750Y-190269721D02*
X52103750Y-190816250D01*
X52103750Y-188596250D02*
X49628750Y-188596250D01*
X49628750Y-190013780D02*
X49628750Y-190816250D01*
X49628750Y-188596250D02*
X49628750Y-189398720D01*
X52863750Y-188596250D02*
X53623750Y-188596250D01*
X52103750Y-188596250D02*
X52103750Y-189142779D01*
X53623750Y-188596250D02*
X53623750Y-189706250D01*
X52103750Y-190816250D02*
X49628750Y-190816250D01*
X62093750Y-148898750D02*
X62093750Y-149298750D01*
X41093750Y-133798750D02*
X62093750Y-133798750D01*
X41093750Y-179398750D02*
X41093750Y-179798750D01*
X62093750Y-176898750D02*
X62093750Y-177298750D01*
X41093750Y-136465750D02*
X44100750Y-136465750D01*
X41093750Y-174398750D02*
X41093750Y-174798750D01*
X62093750Y-138798750D02*
X62093750Y-139198750D01*
X44100750Y-136465750D02*
X44100750Y-133798750D01*
X41093750Y-159098750D02*
X41093750Y-159498750D01*
X62093750Y-159098750D02*
X62093750Y-159498750D01*
X62093750Y-174398750D02*
X62093750Y-174798750D01*
X41093750Y-151498750D02*
X41093750Y-151898750D01*
X41093750Y-143898750D02*
X41093750Y-144298750D01*
X47893750Y-184798750D02*
X41093750Y-184798750D01*
X62093750Y-184798750D02*
X55293750Y-184798750D01*
X62093750Y-169298750D02*
X62093750Y-169698750D01*
X41093750Y-146398750D02*
X41093750Y-146798750D01*
X62093750Y-146398750D02*
X62093750Y-146798750D01*
X62093750Y-153998750D02*
X62093750Y-154398750D01*
X50093750Y-184798750D02*
X50493750Y-184798750D01*
X41093750Y-148898750D02*
X41093750Y-149298750D01*
X62093750Y-136198750D02*
X62093750Y-136598750D01*
X62093750Y-156598750D02*
X62093750Y-156998750D01*
X41093750Y-156598750D02*
X41093750Y-156998750D01*
X41093750Y-133798750D02*
X41093750Y-134098750D01*
X62093750Y-164198750D02*
X62093750Y-164598750D01*
X41093750Y-153998750D02*
X41093750Y-154398750D01*
X41093750Y-166698750D02*
X41093750Y-167098750D01*
X62093750Y-143898750D02*
X62093750Y-144298750D01*
X62093750Y-179398750D02*
X62093750Y-179798750D01*
X62093750Y-133798750D02*
X62093750Y-134098750D01*
X41093750Y-171798750D02*
X41093750Y-172198750D01*
X41093750Y-176898750D02*
X41093750Y-177298750D01*
X62093750Y-171798750D02*
X62093750Y-172198750D01*
X62093750Y-161598750D02*
X62093750Y-161998750D01*
X41093750Y-138798750D02*
X41093750Y-139198750D01*
X41093750Y-136198750D02*
X41093750Y-136598750D01*
X52693750Y-184798750D02*
X53093750Y-184798750D01*
X62093750Y-141298750D02*
X62093750Y-141698750D01*
X41093750Y-141298750D02*
X41093750Y-141698750D01*
X41093750Y-164198750D02*
X41093750Y-164598750D01*
X62093750Y-181998750D02*
X62093750Y-182398750D01*
X62093750Y-166698750D02*
X62093750Y-167098750D01*
X62093750Y-151498750D02*
X62093750Y-151898750D01*
X41093750Y-181998750D02*
X41093750Y-182398750D01*
X41093750Y-169298750D02*
X41093750Y-169698750D01*
X41093750Y-161598750D02*
X41093750Y-161998750D01*
X59523750Y-130141250D02*
X58593750Y-130141250D01*
X56363750Y-130141250D02*
X56363750Y-128681250D01*
X56363750Y-130141250D02*
X57293750Y-130141250D01*
X59523750Y-130141250D02*
X59523750Y-126981250D01*
X82893750Y-120900000D02*
X82893750Y-125000000D01*
X73193750Y-134500000D02*
X72893750Y-134800000D01*
X71093750Y-133100000D02*
X82893750Y-133100000D01*
X71093750Y-125000000D02*
X71093750Y-120900000D01*
X80493750Y-120900000D02*
X82893750Y-120900000D01*
X71093750Y-120900000D02*
X73493750Y-120900000D01*
X71093750Y-129000000D02*
X71093750Y-133100000D01*
X72893750Y-134800000D02*
X72893750Y-134200000D01*
X76993750Y-127500000D02*
X76993750Y-126500000D01*
X82893750Y-129000000D02*
X82893750Y-133100000D01*
X76493750Y-127000000D02*
X77493750Y-127000000D01*
X75693750Y-120900000D02*
X78293750Y-120900000D01*
X72893750Y-134200000D02*
X73193750Y-134500000D01*
X79993750Y-127000000D02*
G75*
G03*
X79993750Y-127000000I-3000000J0D01*
G01*
X59304186Y-119003750D02*
X59758314Y-119003750D01*
X59304186Y-117533750D02*
X59758314Y-117533750D01*
X45251250Y-130141250D02*
X46181250Y-130141250D01*
X48411250Y-130141250D02*
X48411250Y-126981250D01*
X45251250Y-130141250D02*
X45251250Y-128681250D01*
X48411250Y-130141250D02*
X47481250Y-130141250D01*
X59304186Y-119915000D02*
X59758314Y-119915000D01*
X59304186Y-121385000D02*
X59758314Y-121385000D01*
X101943750Y-129000000D02*
X101943750Y-133100000D01*
X91943750Y-134200000D02*
X92243750Y-134500000D01*
X99543750Y-120900000D02*
X101943750Y-120900000D01*
X94743750Y-120900000D02*
X97343750Y-120900000D01*
X101943750Y-120900000D02*
X101943750Y-125000000D01*
X95543750Y-127000000D02*
X96543750Y-127000000D01*
X90143750Y-120900000D02*
X92543750Y-120900000D01*
X96043750Y-127500000D02*
X96043750Y-126500000D01*
X90143750Y-129000000D02*
X90143750Y-133100000D01*
X90143750Y-133100000D02*
X101943750Y-133100000D01*
X91943750Y-134800000D02*
X91943750Y-134200000D01*
X92243750Y-134500000D02*
X91943750Y-134800000D01*
X90143750Y-125000000D02*
X90143750Y-120900000D01*
X99043750Y-127000000D02*
G75*
G03*
X99043750Y-127000000I-3000000J0D01*
G01*
%LPC*%
D12*
X391636250Y-174625000D03*
X381476250Y-174625000D03*
D13*
X386556250Y-174625000D03*
D12*
X229711250Y-212725000D03*
X219551250Y-212725000D03*
D13*
X224631250Y-212725000D03*
D14*
X220821250Y-210185000D03*
X227171250Y-207645000D03*
D15*
X223361250Y-217805000D03*
D16*
X225901250Y-217805000D03*
D17*
X110331250Y-179784375D03*
D12*
X433863750Y-155575000D03*
D13*
X438943750Y-155575000D03*
D12*
X444023750Y-155575000D03*
D14*
X435133750Y-153035000D03*
X441483750Y-150495000D03*
D15*
X437673750Y-160655000D03*
D16*
X440213750Y-160655000D03*
D12*
X267176250Y-193675000D03*
X277336250Y-193675000D03*
D13*
X272256250Y-193675000D03*
D14*
X268446250Y-191135000D03*
X274796250Y-188595000D03*
D15*
X270986250Y-198755000D03*
D16*
X273526250Y-198755000D03*
D13*
X253206250Y-193675000D03*
D12*
X258286250Y-193675000D03*
X248126250Y-193675000D03*
D14*
X249396250Y-191135000D03*
X255746250Y-188595000D03*
D15*
X251936250Y-198755000D03*
D16*
X254476250Y-198755000D03*
D13*
X324643750Y-174625000D03*
D12*
X329723750Y-174625000D03*
X319563750Y-174625000D03*
D14*
X320833750Y-172085000D03*
X327183750Y-169545000D03*
D15*
X323373750Y-179705000D03*
D16*
X325913750Y-179705000D03*
D12*
X296386250Y-193675000D03*
X286226250Y-193675000D03*
D13*
X291306250Y-193675000D03*
D14*
X287496250Y-191135000D03*
X293846250Y-188595000D03*
D15*
X290036250Y-198755000D03*
D16*
X292576250Y-198755000D03*
D12*
X71913750Y-155575000D03*
D13*
X76993750Y-155575000D03*
D12*
X82073750Y-155575000D03*
D14*
X73183750Y-153035000D03*
X79533750Y-150495000D03*
D15*
X75723750Y-160655000D03*
D16*
X78263750Y-160655000D03*
D12*
X220186250Y-193675000D03*
D13*
X215106250Y-193675000D03*
D12*
X210026250Y-193675000D03*
D14*
X211296250Y-191135000D03*
X217646250Y-188595000D03*
D15*
X213836250Y-198755000D03*
D16*
X216376250Y-198755000D03*
D18*
X52863750Y-189706250D03*
D19*
X51593750Y-189706250D03*
X50323750Y-189706250D03*
D13*
X457993750Y-174625000D03*
D12*
X452913750Y-174625000D03*
X463073750Y-174625000D03*
D14*
X454183750Y-172085000D03*
X460533750Y-169545000D03*
D15*
X456723750Y-179705000D03*
D16*
X459263750Y-179705000D03*
D12*
X433863750Y-127000000D03*
D13*
X438943750Y-127000000D03*
D12*
X444023750Y-127000000D03*
D14*
X435133750Y-124460000D03*
X441483750Y-121920000D03*
D15*
X437673750Y-132080000D03*
D16*
X440213750Y-132080000D03*
D13*
X317500000Y-231775000D03*
D12*
X312420000Y-231775000D03*
X322580000Y-231775000D03*
D20*
X393731750Y-148590000D03*
D13*
X393731750Y-163830000D03*
D12*
X376713750Y-155575000D03*
D13*
X369855750Y-163830000D03*
D20*
X369855750Y-148590000D03*
D13*
X381793750Y-155575000D03*
D12*
X386873750Y-155575000D03*
X158273750Y-174625000D03*
D13*
X153193750Y-174625000D03*
D12*
X148113750Y-174625000D03*
D14*
X149383750Y-172085000D03*
X155733750Y-169545000D03*
D15*
X151923750Y-179705000D03*
D16*
X154463750Y-179705000D03*
D17*
X405606250Y-119062500D03*
D13*
X219868750Y-155575000D03*
D12*
X214788750Y-155575000D03*
X224948750Y-155575000D03*
D14*
X216058750Y-153035000D03*
X222408750Y-150495000D03*
D15*
X218598750Y-160655000D03*
D16*
X221138750Y-160655000D03*
D21*
X48703750Y-120356250D03*
X54483750Y-120356250D03*
D22*
X54818750Y-121801250D03*
X54043750Y-121801250D03*
D23*
X53343750Y-121801250D03*
X52843750Y-121801250D03*
X52343750Y-121801250D03*
X51843750Y-121801250D03*
X51343750Y-121801250D03*
X50843750Y-121801250D03*
X50343750Y-121801250D03*
X49843750Y-121801250D03*
D22*
X49143750Y-121801250D03*
X48368750Y-121801250D03*
D24*
X47273750Y-120886250D03*
D25*
X55913750Y-116706250D03*
X47273750Y-116706250D03*
D24*
X55913750Y-120886250D03*
D12*
X205898750Y-127000000D03*
X195738750Y-127000000D03*
D13*
X200818750Y-127000000D03*
D14*
X197008750Y-124460000D03*
X203358750Y-121920000D03*
D15*
X199548750Y-132080000D03*
D16*
X202088750Y-132080000D03*
D12*
X186848750Y-127000000D03*
D13*
X181768750Y-127000000D03*
D12*
X176688750Y-127000000D03*
D14*
X177958750Y-124460000D03*
X184308750Y-121920000D03*
D15*
X180498750Y-132080000D03*
D16*
X183038750Y-132080000D03*
D13*
X157956250Y-193675000D03*
D12*
X152876250Y-193675000D03*
X163036250Y-193675000D03*
D14*
X154146250Y-191135000D03*
X160496250Y-188595000D03*
D15*
X156686250Y-198755000D03*
D16*
X159226250Y-198755000D03*
D13*
X129381250Y-174625000D03*
D12*
X134461250Y-174625000D03*
X124301250Y-174625000D03*
D17*
X257968750Y-165100000D03*
D12*
X414813750Y-231775000D03*
X424973750Y-231775000D03*
D13*
X419893750Y-231775000D03*
D14*
X416083750Y-229235000D03*
X422433750Y-226695000D03*
D15*
X418623750Y-236855000D03*
D16*
X421163750Y-236855000D03*
D13*
X124587000Y-220980000D03*
X148463000Y-220980000D03*
X136525000Y-212725000D03*
D12*
X131445000Y-212725000D03*
D20*
X148463000Y-205740000D03*
X124587000Y-205740000D03*
D12*
X141605000Y-212725000D03*
D17*
X162718750Y-165100000D03*
D26*
X41803750Y-135168750D03*
X41803750Y-137708750D03*
X41803750Y-140248750D03*
X41803750Y-142788750D03*
X41803750Y-145328750D03*
X41803750Y-147868750D03*
X41803750Y-150408750D03*
X41803750Y-152948750D03*
X41803750Y-155488750D03*
X41803750Y-158028750D03*
X41803750Y-160568750D03*
X41803750Y-163108750D03*
X41803750Y-165648750D03*
X41803750Y-168188750D03*
X41803750Y-170728750D03*
X41803750Y-173268750D03*
X41803750Y-175808750D03*
X41803750Y-178348750D03*
X41803750Y-180888750D03*
X41803750Y-183428750D03*
X61383750Y-183428750D03*
X61383750Y-180888750D03*
X61383750Y-178348750D03*
X61383750Y-175808750D03*
X61383750Y-173268750D03*
X61383750Y-170728750D03*
X61383750Y-168188750D03*
X61383750Y-165648750D03*
X61383750Y-163108750D03*
X61383750Y-160568750D03*
X61383750Y-158028750D03*
X61383750Y-155488750D03*
X61383750Y-152948750D03*
X61383750Y-150408750D03*
X61383750Y-147868750D03*
X61383750Y-145328750D03*
X61383750Y-142788750D03*
X61383750Y-140248750D03*
X61383750Y-137708750D03*
X61383750Y-135168750D03*
D27*
X49053750Y-184098750D03*
X51593750Y-184098750D03*
X54133750Y-184098750D03*
D28*
X51593750Y-138298750D03*
X52593750Y-134998750D03*
X50593750Y-134998750D03*
D12*
X157638750Y-127000000D03*
X167798750Y-127000000D03*
D13*
X162718750Y-127000000D03*
D14*
X158908750Y-124460000D03*
X165258750Y-121920000D03*
D15*
X161448750Y-132080000D03*
D16*
X163988750Y-132080000D03*
D17*
X405606250Y-179784375D03*
D12*
X201136250Y-193675000D03*
X190976250Y-193675000D03*
D13*
X196056250Y-193675000D03*
D14*
X192246250Y-191135000D03*
X198596250Y-188595000D03*
D15*
X194786250Y-198755000D03*
D16*
X197326250Y-198755000D03*
D12*
X300513750Y-127000000D03*
X310673750Y-127000000D03*
D13*
X305593750Y-127000000D03*
D14*
X301783750Y-124460000D03*
X308133750Y-121920000D03*
D15*
X304323750Y-132080000D03*
D16*
X306863750Y-132080000D03*
D13*
X76993750Y-193675000D03*
D12*
X71913750Y-193675000D03*
X82073750Y-193675000D03*
D14*
X73183750Y-191135000D03*
X79533750Y-188595000D03*
D15*
X75723750Y-198755000D03*
D16*
X78263750Y-198755000D03*
D12*
X205263750Y-174625000D03*
D13*
X210343750Y-174625000D03*
D12*
X215423750Y-174625000D03*
D14*
X206533750Y-172085000D03*
X212883750Y-169545000D03*
D15*
X209073750Y-179705000D03*
D16*
X211613750Y-179705000D03*
D13*
X296068750Y-155575000D03*
D12*
X290988750Y-155575000D03*
X301148750Y-155575000D03*
D14*
X292258750Y-153035000D03*
X298608750Y-150495000D03*
D15*
X294798750Y-160655000D03*
D16*
X297338750Y-160655000D03*
D12*
X334486250Y-193675000D03*
D13*
X329406250Y-193675000D03*
D12*
X324326250Y-193675000D03*
D14*
X325596250Y-191135000D03*
X331946250Y-188595000D03*
D15*
X328136250Y-198755000D03*
D16*
X330676250Y-198755000D03*
D13*
X172243750Y-174625000D03*
D12*
X167163750Y-174625000D03*
X177323750Y-174625000D03*
D14*
X168433750Y-172085000D03*
X174783750Y-169545000D03*
D15*
X170973750Y-179705000D03*
D16*
X173513750Y-179705000D03*
D12*
X129698750Y-127000000D03*
D13*
X124618750Y-127000000D03*
D12*
X119538750Y-127000000D03*
D14*
X120808750Y-124460000D03*
X127158750Y-121920000D03*
D15*
X123348750Y-132080000D03*
D16*
X125888750Y-132080000D03*
D13*
X419893750Y-127000000D03*
D12*
X424973750Y-127000000D03*
X414813750Y-127000000D03*
D14*
X416083750Y-124460000D03*
X422433750Y-121920000D03*
D15*
X418623750Y-132080000D03*
D16*
X421163750Y-132080000D03*
D12*
X291623750Y-174625000D03*
X281463750Y-174625000D03*
D13*
X286543750Y-174625000D03*
D14*
X282733750Y-172085000D03*
X289083750Y-169545000D03*
D15*
X285273750Y-179705000D03*
D16*
X287813750Y-179705000D03*
D13*
X362743750Y-174625000D03*
D12*
X357663750Y-174625000D03*
X367823750Y-174625000D03*
D14*
X358933750Y-172085000D03*
X365283750Y-169545000D03*
D15*
X361473750Y-179705000D03*
D16*
X364013750Y-179705000D03*
D12*
X129698750Y-155575000D03*
X119538750Y-155575000D03*
D13*
X124618750Y-155575000D03*
D14*
X120808750Y-153035000D03*
X127158750Y-150495000D03*
D15*
X123348750Y-160655000D03*
D16*
X125888750Y-160655000D03*
D12*
X383857500Y-231775000D03*
X394017500Y-231775000D03*
D13*
X388937500Y-231775000D03*
D12*
X282098750Y-155575000D03*
D13*
X277018750Y-155575000D03*
D12*
X271938750Y-155575000D03*
D14*
X273208750Y-153035000D03*
X279558750Y-150495000D03*
D15*
X275748750Y-160655000D03*
D16*
X278288750Y-160655000D03*
D12*
X333851250Y-212725000D03*
D13*
X338931250Y-212725000D03*
D12*
X344011250Y-212725000D03*
D14*
X335121250Y-210185000D03*
X341471250Y-207645000D03*
D15*
X337661250Y-217805000D03*
D16*
X340201250Y-217805000D03*
D29*
X58893750Y-127881250D03*
X56993750Y-127881250D03*
X57943750Y-130881250D03*
D12*
X162401250Y-212725000D03*
D13*
X167481250Y-212725000D03*
D12*
X172561250Y-212725000D03*
D14*
X163671250Y-210185000D03*
X170021250Y-207645000D03*
D15*
X166211250Y-217805000D03*
D16*
X168751250Y-217805000D03*
D12*
X71913750Y-174625000D03*
D13*
X76993750Y-174625000D03*
D12*
X82073750Y-174625000D03*
D14*
X73183750Y-172085000D03*
X79533750Y-169545000D03*
D15*
X75723750Y-179705000D03*
D16*
X78263750Y-179705000D03*
D12*
X148748750Y-155575000D03*
D13*
X143668750Y-155575000D03*
D12*
X138588750Y-155575000D03*
D14*
X139858750Y-153035000D03*
X146208750Y-150495000D03*
D15*
X142398750Y-160655000D03*
D16*
X144938750Y-160655000D03*
D13*
X234156250Y-193675000D03*
D12*
X229076250Y-193675000D03*
X239236250Y-193675000D03*
D14*
X230346250Y-191135000D03*
X236696250Y-188595000D03*
D15*
X232886250Y-198755000D03*
D16*
X235426250Y-198755000D03*
D12*
X82073750Y-231775000D03*
D13*
X76993750Y-231775000D03*
D12*
X71913750Y-231775000D03*
D14*
X73183750Y-229235000D03*
X79533750Y-226695000D03*
D15*
X75723750Y-236855000D03*
D16*
X78263750Y-236855000D03*
D12*
X444023750Y-231775000D03*
D13*
X438943750Y-231775000D03*
D12*
X433863750Y-231775000D03*
D14*
X435133750Y-229235000D03*
X441483750Y-226695000D03*
D15*
X437673750Y-236855000D03*
D16*
X440213750Y-236855000D03*
D17*
X110331250Y-119062500D03*
D12*
X384492500Y-193675000D03*
D20*
X367474500Y-186690000D03*
D12*
X374332500Y-193675000D03*
D20*
X391350500Y-186690000D03*
D13*
X379412500Y-193675000D03*
X367474500Y-201930000D03*
X391350500Y-201930000D03*
D30*
X82593750Y-127000000D03*
X71393750Y-127000000D03*
D31*
X74493750Y-134500000D03*
D32*
X79493750Y-134500000D03*
X76993750Y-134500000D03*
X79493750Y-120000000D03*
X74493750Y-120000000D03*
D13*
X262731250Y-212725000D03*
D12*
X257651250Y-212725000D03*
X267811250Y-212725000D03*
D14*
X258921250Y-210185000D03*
X265271250Y-207645000D03*
D15*
X261461250Y-217805000D03*
D16*
X264001250Y-217805000D03*
D12*
X463073750Y-231775000D03*
X452913750Y-231775000D03*
D13*
X457993750Y-231775000D03*
D14*
X454183750Y-229235000D03*
X460533750Y-226695000D03*
D15*
X456723750Y-236855000D03*
D16*
X459263750Y-236855000D03*
D12*
X414813750Y-174625000D03*
X424973750Y-174625000D03*
D13*
X419893750Y-174625000D03*
D14*
X416083750Y-172085000D03*
X422433750Y-169545000D03*
D15*
X418623750Y-179705000D03*
D16*
X421163750Y-179705000D03*
D33*
X58531250Y-118268750D03*
X60531250Y-118268750D03*
D12*
X444023750Y-174625000D03*
D13*
X438943750Y-174625000D03*
D12*
X433863750Y-174625000D03*
D14*
X435133750Y-172085000D03*
X441483750Y-169545000D03*
D15*
X437673750Y-179705000D03*
D16*
X440213750Y-179705000D03*
D12*
X367188750Y-127000000D03*
D13*
X372268750Y-127000000D03*
D12*
X377348750Y-127000000D03*
D14*
X368458750Y-124460000D03*
X374808750Y-121920000D03*
D15*
X370998750Y-132080000D03*
D16*
X373538750Y-132080000D03*
D13*
X96043750Y-193675000D03*
D12*
X90963750Y-193675000D03*
X101123750Y-193675000D03*
D14*
X92233750Y-191135000D03*
X98583750Y-188595000D03*
D15*
X94773750Y-198755000D03*
D16*
X97313750Y-198755000D03*
D13*
X150812500Y-231775000D03*
D12*
X145732500Y-231775000D03*
X155892500Y-231775000D03*
X262413750Y-174625000D03*
X272573750Y-174625000D03*
D13*
X267493750Y-174625000D03*
D14*
X263683750Y-172085000D03*
X270033750Y-169545000D03*
D15*
X266223750Y-179705000D03*
D16*
X268763750Y-179705000D03*
D12*
X101123750Y-231775000D03*
X90963750Y-231775000D03*
D13*
X96043750Y-231775000D03*
D14*
X92233750Y-229235000D03*
X98583750Y-226695000D03*
D15*
X94773750Y-236855000D03*
D16*
X97313750Y-236855000D03*
D12*
X320198750Y-155575000D03*
X310038750Y-155575000D03*
D13*
X315118750Y-155575000D03*
D14*
X311308750Y-153035000D03*
X317658750Y-150495000D03*
D15*
X313848750Y-160655000D03*
D16*
X316388750Y-160655000D03*
D12*
X176688750Y-155575000D03*
D13*
X181768750Y-155575000D03*
D12*
X186848750Y-155575000D03*
D14*
X177958750Y-153035000D03*
X184308750Y-150495000D03*
D15*
X180498750Y-160655000D03*
D16*
X183038750Y-160655000D03*
D13*
X219868750Y-127000000D03*
D12*
X214788750Y-127000000D03*
X224948750Y-127000000D03*
D14*
X216058750Y-124460000D03*
X222408750Y-121920000D03*
D15*
X218598750Y-132080000D03*
D16*
X221138750Y-132080000D03*
D29*
X47781250Y-127881250D03*
X45881250Y-127881250D03*
X46831250Y-130881250D03*
D13*
X127000000Y-231775000D03*
D12*
X132080000Y-231775000D03*
X121920000Y-231775000D03*
D17*
X110331250Y-240506250D03*
D33*
X58531250Y-120650000D03*
X60531250Y-120650000D03*
D17*
X472281250Y-240506250D03*
D12*
X414813750Y-155575000D03*
X424973750Y-155575000D03*
D13*
X419893750Y-155575000D03*
D14*
X416083750Y-153035000D03*
X422433750Y-150495000D03*
D15*
X418623750Y-160655000D03*
D16*
X421163750Y-160655000D03*
D12*
X179705000Y-231775000D03*
D13*
X174625000Y-231775000D03*
D12*
X169545000Y-231775000D03*
D17*
X253206250Y-203200000D03*
D12*
X263048750Y-155575000D03*
D13*
X257968750Y-155575000D03*
D12*
X252888750Y-155575000D03*
D14*
X254158750Y-153035000D03*
X260508750Y-150495000D03*
D15*
X256698750Y-160655000D03*
D16*
X259238750Y-160655000D03*
D13*
X457993750Y-127000000D03*
D12*
X452913750Y-127000000D03*
X463073750Y-127000000D03*
D14*
X454183750Y-124460000D03*
X460533750Y-121920000D03*
D15*
X456723750Y-132080000D03*
D16*
X459263750Y-132080000D03*
D12*
X286861250Y-212725000D03*
X276701250Y-212725000D03*
D13*
X281781250Y-212725000D03*
D14*
X277971250Y-210185000D03*
X284321250Y-207645000D03*
D15*
X280511250Y-217805000D03*
D16*
X283051250Y-217805000D03*
D12*
X90963750Y-212725000D03*
D13*
X96043750Y-212725000D03*
D12*
X101123750Y-212725000D03*
D14*
X92233750Y-210185000D03*
X98583750Y-207645000D03*
D15*
X94773750Y-217805000D03*
D16*
X97313750Y-217805000D03*
D17*
X177006250Y-203200000D03*
X472281250Y-119062500D03*
D12*
X200501250Y-212725000D03*
X210661250Y-212725000D03*
D13*
X205581250Y-212725000D03*
D14*
X201771250Y-210185000D03*
X208121250Y-207645000D03*
D15*
X204311250Y-217805000D03*
D16*
X206851250Y-217805000D03*
D12*
X370205000Y-231775000D03*
X360045000Y-231775000D03*
D13*
X365125000Y-231775000D03*
X286543750Y-127000000D03*
D12*
X281463750Y-127000000D03*
X291623750Y-127000000D03*
D14*
X282733750Y-124460000D03*
X289083750Y-121920000D03*
D15*
X285273750Y-132080000D03*
D16*
X287813750Y-132080000D03*
D12*
X181451250Y-212725000D03*
X191611250Y-212725000D03*
D13*
X186531250Y-212725000D03*
D14*
X182721250Y-210185000D03*
X189071250Y-207645000D03*
D15*
X185261250Y-217805000D03*
D16*
X187801250Y-217805000D03*
D13*
X353218750Y-155575000D03*
D12*
X348138750Y-155575000D03*
X358298750Y-155575000D03*
D14*
X349408750Y-153035000D03*
X355758750Y-150495000D03*
D15*
X351948750Y-160655000D03*
D16*
X354488750Y-160655000D03*
D12*
X329088750Y-127000000D03*
D13*
X334168750Y-127000000D03*
D12*
X339248750Y-127000000D03*
D14*
X330358750Y-124460000D03*
X336708750Y-121920000D03*
D15*
X332898750Y-132080000D03*
D16*
X335438750Y-132080000D03*
D12*
X348138750Y-127000000D03*
X358298750Y-127000000D03*
D13*
X353218750Y-127000000D03*
D14*
X349408750Y-124460000D03*
X355758750Y-121920000D03*
D15*
X351948750Y-132080000D03*
D16*
X354488750Y-132080000D03*
D12*
X234473750Y-174625000D03*
D13*
X229393750Y-174625000D03*
D12*
X224313750Y-174625000D03*
D14*
X225583750Y-172085000D03*
X231933750Y-169545000D03*
D15*
X228123750Y-179705000D03*
D16*
X230663750Y-179705000D03*
D12*
X182086250Y-193675000D03*
X171926250Y-193675000D03*
D13*
X177006250Y-193675000D03*
D14*
X173196250Y-191135000D03*
X179546250Y-188595000D03*
D15*
X175736250Y-198755000D03*
D16*
X178276250Y-198755000D03*
D12*
X324961250Y-212725000D03*
D13*
X319881250Y-212725000D03*
D12*
X314801250Y-212725000D03*
D14*
X316071250Y-210185000D03*
X322421250Y-207645000D03*
D15*
X318611250Y-217805000D03*
D16*
X321151250Y-217805000D03*
D13*
X238918750Y-155575000D03*
D12*
X243998750Y-155575000D03*
X233838750Y-155575000D03*
D14*
X235108750Y-153035000D03*
X241458750Y-150495000D03*
D15*
X237648750Y-160655000D03*
D16*
X240188750Y-160655000D03*
D12*
X253523750Y-127000000D03*
X243363750Y-127000000D03*
D13*
X248443750Y-127000000D03*
D14*
X244633750Y-124460000D03*
X250983750Y-121920000D03*
D15*
X247173750Y-132080000D03*
D16*
X249713750Y-132080000D03*
D13*
X343693750Y-174625000D03*
D12*
X348773750Y-174625000D03*
X338613750Y-174625000D03*
D14*
X339883750Y-172085000D03*
X346233750Y-169545000D03*
D15*
X342423750Y-179705000D03*
D16*
X344963750Y-179705000D03*
D17*
X40481250Y-240506250D03*
D12*
X463073750Y-155575000D03*
X452913750Y-155575000D03*
D13*
X457993750Y-155575000D03*
D14*
X454183750Y-153035000D03*
X460533750Y-150495000D03*
D15*
X456723750Y-160655000D03*
D16*
X459263750Y-160655000D03*
D13*
X196062600Y-223520000D03*
D20*
X196062600Y-238760000D03*
D12*
X240982500Y-231775000D03*
X251142500Y-231775000D03*
D13*
X246062500Y-231775000D03*
D20*
X296062400Y-238760000D03*
D13*
X296062400Y-223520000D03*
D17*
X348456250Y-203200000D03*
D12*
X444023750Y-212725000D03*
X433863750Y-212725000D03*
D13*
X438943750Y-212725000D03*
D14*
X435133750Y-210185000D03*
X441483750Y-207645000D03*
D15*
X437673750Y-217805000D03*
D16*
X440213750Y-217805000D03*
D30*
X101643750Y-127000000D03*
X90443750Y-127000000D03*
D31*
X93543750Y-134500000D03*
D32*
X98543750Y-134500000D03*
X96043750Y-134500000D03*
X98543750Y-120000000D03*
X93543750Y-120000000D03*
D12*
X336232500Y-231775000D03*
X346392500Y-231775000D03*
D13*
X341312500Y-231775000D03*
D17*
X40481250Y-119062500D03*
D13*
X96043750Y-155575000D03*
D12*
X101123750Y-155575000D03*
X90963750Y-155575000D03*
D14*
X92233750Y-153035000D03*
X98583750Y-150495000D03*
D15*
X94773750Y-160655000D03*
D16*
X97313750Y-160655000D03*
D17*
X405606250Y-240506250D03*
D12*
X353536250Y-193675000D03*
D13*
X348456250Y-193675000D03*
D12*
X343376250Y-193675000D03*
D14*
X344646250Y-191135000D03*
X350996250Y-188595000D03*
D15*
X347186250Y-198755000D03*
D16*
X349726250Y-198755000D03*
D13*
X391318750Y-127000000D03*
D12*
X396398750Y-127000000D03*
X386238750Y-127000000D03*
D14*
X387508750Y-124460000D03*
X393858750Y-121920000D03*
D15*
X390048750Y-132080000D03*
D16*
X392588750Y-132080000D03*
D12*
X272573750Y-127000000D03*
X262413750Y-127000000D03*
D13*
X267493750Y-127000000D03*
D14*
X263683750Y-124460000D03*
X270033750Y-121920000D03*
D15*
X266223750Y-132080000D03*
D16*
X268763750Y-132080000D03*
D13*
X300831250Y-212725000D03*
D12*
X295751250Y-212725000D03*
X305911250Y-212725000D03*
D14*
X297021250Y-210185000D03*
X303371250Y-207645000D03*
D15*
X299561250Y-217805000D03*
D16*
X302101250Y-217805000D03*
D12*
X305276250Y-193675000D03*
X315436250Y-193675000D03*
D13*
X310356250Y-193675000D03*
D14*
X306546250Y-191135000D03*
X312896250Y-188595000D03*
D15*
X309086250Y-198755000D03*
D16*
X311626250Y-198755000D03*
D12*
X90963750Y-174625000D03*
X101123750Y-174625000D03*
D13*
X96043750Y-174625000D03*
D14*
X92233750Y-172085000D03*
X98583750Y-169545000D03*
D15*
X94773750Y-179705000D03*
D16*
X97313750Y-179705000D03*
D12*
X157638750Y-155575000D03*
D13*
X162718750Y-155575000D03*
D12*
X167798750Y-155575000D03*
D14*
X158908750Y-153035000D03*
X165258750Y-150495000D03*
D15*
X161448750Y-160655000D03*
D16*
X163988750Y-160655000D03*
D13*
X248443750Y-174625000D03*
D12*
X243363750Y-174625000D03*
X253523750Y-174625000D03*
D14*
X244633750Y-172085000D03*
X250983750Y-169545000D03*
D15*
X247173750Y-179705000D03*
D16*
X249713750Y-179705000D03*
D12*
X329088750Y-155575000D03*
D13*
X334168750Y-155575000D03*
D12*
X339248750Y-155575000D03*
D14*
X330358750Y-153035000D03*
X336708750Y-150495000D03*
D15*
X332898750Y-160655000D03*
D16*
X335438750Y-160655000D03*
D13*
X191293750Y-174625000D03*
D12*
X186213750Y-174625000D03*
X196373750Y-174625000D03*
D14*
X187483750Y-172085000D03*
X193833750Y-169545000D03*
D15*
X190023750Y-179705000D03*
D16*
X192563750Y-179705000D03*
D12*
X205898750Y-155575000D03*
X195738750Y-155575000D03*
D13*
X200818750Y-155575000D03*
D14*
X197008750Y-153035000D03*
X203358750Y-150495000D03*
D15*
X199548750Y-160655000D03*
D16*
X202088750Y-160655000D03*
D12*
X82073750Y-212725000D03*
X71913750Y-212725000D03*
D13*
X76993750Y-212725000D03*
D14*
X73183750Y-210185000D03*
X79533750Y-207645000D03*
D15*
X75723750Y-217805000D03*
D16*
X78263750Y-217805000D03*
D12*
X300513750Y-174625000D03*
X310673750Y-174625000D03*
D13*
X305593750Y-174625000D03*
D14*
X301783750Y-172085000D03*
X308133750Y-169545000D03*
D15*
X304323750Y-179705000D03*
D16*
X306863750Y-179705000D03*
D13*
X374650000Y-212725000D03*
X386588000Y-220980000D03*
D12*
X379730000Y-212725000D03*
X369570000Y-212725000D03*
D13*
X362712000Y-220980000D03*
D20*
X362712000Y-205740000D03*
X386588000Y-205740000D03*
D13*
X131762500Y-193675000D03*
D12*
X126682500Y-193675000D03*
X136842500Y-193675000D03*
D17*
X353218750Y-165100000D03*
D12*
X238601250Y-212725000D03*
X248761250Y-212725000D03*
D13*
X243681250Y-212725000D03*
D14*
X239871250Y-210185000D03*
X246221250Y-207645000D03*
D15*
X242411250Y-217805000D03*
D16*
X244951250Y-217805000D03*
M02*
